<svg xmlns="http://www.w3.org/2000/svg" width="500" height="500" viewBox="0 0 500 500" fill="none">
<g clip-path="url(#clip0_9_655)">
<mask id="mask0_9_655" style="mask-type:luminance" maskUnits="userSpaceOnUse" x="0" y="0" width="500" height="500">
<path d="M3.05176e-05 0H500V500H3.05176e-05V0Z" fill="white"/>
</mask>
<g mask="url(#mask0_9_655)">
<mask id="mask1_9_655" style="mask-type:luminance" maskUnits="userSpaceOnUse" x="19" y="63" width="462" height="374">
<path d="M19.7917 63.5417H480.208V436.979H19.7917V63.5417Z" fill="white"/>
</mask>
<g mask="url(#mask1_9_655)">
<path fill-rule="evenodd" clip-rule="evenodd" d="M223.684 402.059C231.855 392.387 233.673 377.746 228 366.406L228.11 366.349C228.105 366.337 228.105 366.32 228.099 366.309L228.947 366.043C238.55 369.563 248.229 373.107 258.333 374.699C263.212 375.498 268.168 375.722 273.099 375.368C278.389 375.017 283.573 373.733 288.416 371.577C301.123 365.765 310.161 352.931 312.036 339.08C312.083 338.734 312.129 338.382 312.164 338.035C313.652 324.508 308.603 310.508 299.254 300.599C289.662 290.436 275.841 284.591 261.875 284.042L278.404 336.553L278.386 337.285C250.116 336.692 221.928 335.972 193.724 335.251C185.213 335.033 176.701 334.816 168.184 334.602L168.212 333.361C168.622 332.138 182.438 288.342 182.438 288.342C161.241 291.078 139.381 286.547 120.314 276.887C101.246 267.227 84.9197 252.591 72.0218 235.549C58.802 218.081 48.976 197.759 45.5827 176.115C42.1895 154.471 45.5249 131.497 56.738 112.678C58.9828 108.904 61.7703 105.118 65.8676 103.519C67.0447 103.066 68.2843 102.797 69.5437 102.723C74.0359 102.434 78.7276 104.379 82.877 106.485C86.4437 108.295 90.1255 110.43 92.6302 113.451C93.5234 114.514 94.2494 115.706 94.7828 116.989C97.0526 122.535 95.0249 128.631 93.0911 134.444C92.8078 135.296 92.526 136.142 92.2609 136.979C85.4515 158.466 89.5552 182.766 101.645 201.787C113.735 220.808 133.308 234.578 154.836 241.237C176.365 247.897 199.14 247.707 221.053 242.444L221.232 242.449C221.142 245.469 220.249 248.444 219.361 251.405C219.049 252.445 218.737 253.484 218.461 254.522C217.231 259.177 216.696 263.989 216.874 268.8C216.937 270.364 217.307 272.251 218.779 272.776C220.215 273.284 221.675 272.124 222.685 270.987C230.083 262.648 232.415 251.077 233.909 240.031C233.973 239.583 234.031 239.133 234.089 238.677L234.394 238.718C254.085 241.447 273.591 246.595 291.261 255.707C308.932 264.819 324.733 278.046 335.248 294.915C343.425 308.027 348.233 323.407 348.314 338.804C348.347 343.222 347.972 347.634 347.194 351.984C343.668 371.548 331.214 389.692 313.387 398.481C306.139 402.054 298.302 404.039 290.292 405.245C284.81 406.07 279.241 406.532 273.724 406.884C256.723 407.98 239.236 408.159 223.107 402.723C223.303 402.504 223.499 402.284 223.684 402.059ZM63.588 111.271C63.8531 110.873 64.3906 110.766 64.7885 111.031C65.1864 111.296 65.2937 111.833 65.0286 112.231C52.7984 130.582 50.0437 154.226 54.2796 175.981C58.5166 197.737 69.2026 217.808 81.9791 236.048C82.2536 236.44 82.1583 236.98 81.7672 237.254C81.3755 237.528 80.8354 237.433 80.5614 237.042C67.713 218.699 56.8817 198.399 52.5807 176.312C48.2791 154.224 51.0463 130.089 63.588 111.271Z" fill="black" fill-opacity="0.15"/>
<path fill-rule="evenodd" clip-rule="evenodd" d="M236.575 182.641C225.27 180.917 214.7 175.969 206.133 168.392L204.648 168.776C201.239 173.013 198.755 177.918 197.357 183.174C195.958 188.43 195.676 193.92 196.528 199.292L195.863 199.402C188.2 191.964 182.665 182.118 181.332 171.511C179.999 160.904 183.116 149.614 190.456 141.854C200.129 131.627 215.86 128.747 229.537 132.037C243.215 135.327 255.057 143.971 264.988 153.938C266.993 155.948 268.955 158.033 270.921 160.122C278.211 167.867 285.545 175.659 295.199 179.85C302.888 183.186 311.312 183.897 319.729 184.607C322.829 184.869 325.928 185.13 328.988 185.523C351.057 188.357 372.691 198.958 385.816 216.923C391.636 224.893 395.61 233.966 399.587 243.044C403.354 251.642 407.121 260.243 412.46 267.915C427.027 288.852 453.405 300.925 478.769 298.276L478.81 298.651C447.501 314.486 408.825 308.427 383.438 284.212C377.711 278.748 372.749 272.5 367.797 266.266C360.73 257.368 353.684 248.498 344.467 241.972C336.19 236.13 326.57 232.475 316.501 231.347C307.455 230.351 298.397 231.428 289.325 232.507C284.845 233.04 280.363 233.573 275.876 233.858C262.303 234.718 247.431 232.744 237.799 223.147L236.57 222.876C237.712 217.607 239.361 212.511 242.07 207.854L242.808 207.432C237.695 200.449 235.248 191.464 236.541 182.889L236.575 182.641ZM208.508 135.722C223.405 131.279 239.281 138.602 250.992 148.316C256.158 152.601 260.876 157.399 265.555 162.158L265.555 162.159C266.181 162.795 266.806 163.43 267.431 164.064C272.745 169.449 278.09 174.699 284.13 179.108C284.516 179.39 284.6 179.931 284.319 180.318C284.037 180.704 283.495 180.788 283.109 180.506C276.945 176.007 271.515 170.667 266.198 165.28C265.571 164.644 264.944 164.007 264.319 163.371C259.633 158.606 254.981 153.874 249.886 149.648C238.334 140.066 223.064 133.187 209.003 137.381C201.6 139.59 195.372 144.635 191.675 151.417C187.978 158.199 187.113 166.168 189.269 173.586C189.402 174.045 189.138 174.526 188.679 174.659C188.22 174.792 187.74 174.528 187.606 174.069C185.323 166.213 186.24 157.772 190.155 150.589C194.07 143.405 200.668 138.061 208.508 135.722Z" fill="black"/>
<path d="M113.827 358.69C112.182 359.948 112.909 362.544 113.816 364.409C117.238 371.421 121.138 378.19 125.49 384.666L125.859 384.418C126.423 383.077 127.364 381.928 128.567 381.11C129.771 380.293 131.185 379.842 132.64 379.813L133.05 379.513C128.629 373.459 124.208 367.407 119.788 361.357C119.131 360.326 118.276 359.435 117.272 358.738C116.228 358.107 114.797 357.951 113.827 358.69Z" fill="black" fill-opacity="0.15"/>
<path d="M125.86 384.417L125.491 384.665C127.678 387.926 129.979 391.111 132.393 394.222C134.447 396.878 138.226 400.616 141.488 397.286C144.835 393.882 140.357 389.507 138.331 386.737C136.571 384.331 134.811 381.922 133.051 379.511L132.641 379.811C131.186 379.841 129.771 380.292 128.568 381.109C127.364 381.927 126.423 383.076 125.86 384.417Z" fill="black" fill-opacity="0.15"/>
<path d="M217.63 199.648C216.989 200.635 215.379 200.606 214.542 199.775C214.155 199.326 213.889 198.785 213.77 198.205C213.65 197.623 213.682 197.022 213.861 196.457C214.233 195.333 214.774 194.272 215.466 193.311C216.156 192.348 216.633 191.248 216.862 190.085" stroke="black" stroke-width="2" stroke-linecap="round" stroke-linejoin="round"/>
<path d="M222.253 210.619C223.142 211.012 224.127 211.143 225.089 210.993C226.05 210.844 226.948 210.421 227.677 209.776" stroke="black" stroke-width="2" stroke-linecap="round" stroke-linejoin="round"/>
<path d="M242.069 207.854C239.361 212.511 237.712 217.607 236.569 222.876C235.438 228.058 234.786 233.408 234.088 238.677C234.03 239.133 233.972 239.583 233.909 240.031C232.414 251.077 230.083 262.648 222.684 270.987C221.674 272.124 220.215 273.284 218.778 272.776C217.306 272.251 216.937 270.364 216.874 268.8C216.696 263.989 217.231 259.177 218.461 254.522C219.523 250.529 221.11 246.53 221.231 242.45C221.254 241.759 221.231 241.067 221.162 240.378C220.7 235.877 218.121 231.854 215.091 228.49C212.061 225.125 208.529 222.24 205.569 218.811C199.592 211.893 196.226 203.099 196.058 193.957C195.891 184.816 198.931 175.904 204.652 168.771" stroke="black" stroke-width="2" stroke-linecap="round" stroke-linejoin="round"/>
<path d="M206.002 183.766C207.089 182.974 208.417 182.584 209.76 182.661C211.103 182.74 212.377 183.281 213.365 184.193" stroke="black" stroke-width="2" stroke-linecap="round" stroke-linejoin="round"/>
<path d="M223.533 186.61C224.627 185.738 225.989 185.273 227.387 185.295C228.786 185.317 230.133 185.825 231.197 186.732" stroke="black" stroke-width="2" stroke-linecap="round" stroke-linejoin="round"/>
<path d="M247.76 183.194C244.023 183.391 240.275 183.206 236.576 182.64C225.27 180.916 214.7 175.969 206.134 168.392C203.167 165.766 200.492 162.829 198.153 159.631" stroke="black" stroke-width="2" stroke-linecap="round" stroke-linejoin="round"/>
<path d="M250.819 215.156C247.719 213.069 245.008 210.456 242.809 207.434C237.696 200.452 235.249 191.466 236.542 182.891" stroke="black" stroke-width="2" stroke-linecap="round" stroke-linejoin="round"/>
<path d="M195.868 199.399C188.204 191.96 182.675 182.107 181.336 171.508C179.998 160.908 183.12 149.613 190.46 141.851C200.133 131.624 215.864 128.739 229.542 132.034C243.219 135.329 255.062 143.968 264.993 153.935C274.428 163.399 282.946 174.526 295.201 179.847C305.722 184.411 317.616 184.06 328.99 185.52C351.058 188.353 372.694 198.957 385.817 216.92C397.152 232.438 401.485 252.14 412.462 267.912C427.028 288.849 453.407 300.922 478.771 298.273C478.875 298.267 478.979 298.256 479.083 298.244" stroke="black" stroke-width="2" stroke-linecap="round" stroke-linejoin="round"/>
<path d="M237.799 223.147C247.431 232.744 262.303 234.718 275.876 233.858C289.449 232.998 302.988 229.858 316.501 231.347C326.57 232.476 336.19 236.13 344.467 241.972C360.141 253.07 369.536 270.948 383.438 284.212C408.825 308.427 447.501 314.486 478.81 298.651" stroke="black" stroke-width="2" stroke-linecap="round" stroke-linejoin="round"/>
<path d="M234.395 238.717C254.085 241.447 273.597 246.595 291.262 255.707C308.927 264.819 324.734 278.046 335.248 294.915C343.425 308.026 348.233 323.404 348.314 338.803C348.347 343.222 347.972 347.634 347.194 351.984C343.668 371.547 331.215 389.692 313.388 398.481C306.14 402.053 298.303 404.038 290.293 405.244C284.81 406.069 279.241 406.531 273.724 406.883C256.723 407.98 239.237 408.159 223.107 402.722C222.778 402.612 222.449 402.503 222.126 402.387" stroke="black" stroke-width="2" stroke-linecap="round" stroke-linejoin="round"/>
<path d="M223.026 402.815C223.054 402.786 223.081 402.755 223.107 402.723C223.303 402.504 223.499 402.284 223.684 402.059C231.856 392.387 233.673 377.746 228 366.406" stroke="black" stroke-width="2" stroke-linecap="round" stroke-linejoin="round"/>
<path d="M205.753 389.542C200.813 388.382 195.873 387.22 190.933 386.056C189.179 385.646 187.136 385.294 185.74 386.431C184.177 387.701 184.355 390.292 185.59 391.879C186.824 393.466 188.793 394.285 190.685 394.972C200.946 398.694 212.702 402.168 223.615 402.003" stroke="black" stroke-width="2" stroke-linecap="round" stroke-linejoin="round"/>
<path d="M205.753 389.542C208.114 390.2 210.495 390.759 212.897 391.221L205.753 389.542Z" stroke="black" stroke-width="2" stroke-linecap="round" stroke-linejoin="round"/>
<path d="M207.081 378.652C203.174 377.134 199.265 375.616 195.354 374.098C192.203 372.875 187.973 371.934 185.988 374.671C184.707 376.438 185.174 379.023 186.509 380.748C187.843 382.474 189.862 383.509 191.841 384.424C196.333 386.504 200.986 388.216 205.755 389.543" stroke="black" stroke-width="2" stroke-linecap="round" stroke-linejoin="round"/>
<path d="M207.081 378.652C209.274 379.633 211.519 380.499 213.799 381.26C211.559 380.395 209.32 379.526 207.081 378.652Z" stroke="black" stroke-width="2" stroke-linecap="round" stroke-linejoin="round"/>
<path d="M228.11 366.348C228.104 366.337 228.104 366.32 228.098 366.308C226.787 361.891 224.177 357.971 220.608 355.058C219.462 354.117 217.832 353.28 216.568 354.059C215.495 354.723 215.322 356.189 215.328 357.453C215.347 362.515 216.422 367.517 218.484 372.14C211.782 366.345 203.656 362.444 194.943 360.838C192.507 360.394 189.385 360.463 188.318 362.691C187.186 365.051 189.362 367.607 191.417 369.223C196.227 373.005 201.49 376.172 207.083 378.652" stroke="black" stroke-width="2" stroke-linecap="round" stroke-linejoin="round"/>
<path d="M95.6484 79.0286C96.0406 78.1281 96.4219 77.2281 96.8026 76.3203C97.5239 74.6063 98.2338 72.8307 98.2745 70.9708C98.3151 69.1109 97.5416 67.1099 95.9198 66.2042C93.975 65.1193 91.4239 65.9271 89.8427 67.4854C88.2614 69.0438 87.4239 71.1906 86.6333 73.2667C83.9323 80.3531 81.2318 87.4438 78.5312 94.5385C80.9146 88.2188 83.2979 81.8995 85.6812 75.5802C86.4625 73.5083 87.2573 71.3271 86.9745 69.1339C86.6916 66.9406 84.9375 64.7536 82.7213 64.8057C80.2687 64.8693 78.6989 67.3854 77.689 69.6245C73.0416 79.9307 70.2739 90.9849 69.5172 102.265" stroke="black" stroke-width="2" stroke-linecap="round" stroke-linejoin="round"/>
<path d="M95.6484 79.0281C92.301 84.7354 89.664 90.899 87.0672 96.9969C90.1484 91.1167 93.0088 85.1271 95.6484 79.0281Z" stroke="black" stroke-width="2" stroke-linecap="round" stroke-linejoin="round"/>
<path d="M92.7172 113.385C98.9453 112.337 105.003 110.448 110.723 107.77C112.425 106.974 114.33 105.751 114.347 103.869C114.358 102.559 113.348 101.411 112.154 100.874C110.925 100.409 109.608 100.226 108.299 100.337C103.053 100.478 97.8776 101.593 93.039 103.627C99.7911 95.0333 106.774 85.9391 108.511 75.1474C108.903 72.7349 108.603 69.6073 106.306 68.788C104.177 68.0318 102.07 69.8844 100.662 71.6526C98.8182 73.9917 97.1422 76.4583 95.6469 79.0339" stroke="black" stroke-width="2" stroke-linecap="round" stroke-linejoin="round"/>
<path d="M133.05 379.512C134.81 381.918 136.57 384.327 138.331 386.737C140.356 389.508 144.834 393.882 141.487 397.287C138.227 400.617 134.447 396.877 132.392 394.222C129.98 391.117 127.679 387.932 125.49 384.666C121.138 378.19 117.237 371.421 113.816 364.409C112.909 362.545 112.182 359.948 113.827 358.69C114.796 357.952 116.228 358.107 117.272 358.736C118.276 359.435 119.131 360.325 119.789 361.356C124.209 367.41 128.63 373.463 133.05 379.512Z" stroke="black" stroke-width="2" stroke-linecap="round" stroke-linejoin="round"/>
<path d="M125.86 384.417C126.423 383.076 127.364 381.927 128.568 381.11C129.771 380.292 131.186 379.842 132.641 379.812" stroke="black" stroke-width="2" stroke-linecap="round" stroke-linejoin="round"/>
<path d="M141.897 390.407C143.304 390.454 144.356 388.93 144.316 387.522C144.275 386.114 143.467 384.866 142.654 383.72C140.473 380.667 138.02 377.818 135.324 375.208" stroke="black" stroke-width="2" stroke-linecap="round" stroke-linejoin="round"/>
<path d="M168.213 333.361C168.623 332.138 182.439 288.342 182.439 288.342C161.241 291.078 139.381 286.547 120.314 276.887C101.247 267.227 84.9208 252.591 72.0224 235.549C58.801 218.081 48.9786 197.755 45.5854 176.114C42.1922 154.473 45.5276 131.498 56.7406 112.677C58.9854 108.902 61.7729 105.117 65.8703 103.518C67.0474 103.065 68.2869 102.796 69.5463 102.722C74.0359 102.433 78.7281 104.378 82.8797 106.484C86.4463 108.296 90.1281 110.432 92.6328 113.45C93.526 114.513 94.252 115.706 94.7854 116.987C97.3895 123.347 94.3411 130.428 92.2635 136.978C85.4536 158.464 89.5625 182.765 101.647 201.786C113.732 220.808 133.307 234.577 154.838 241.237C176.37 247.897 199.14 247.708 221.053 242.448" stroke="black" stroke-width="2" stroke-linecap="round" stroke-linejoin="round"/>
<path d="M278.404 336.553L261.875 284.042C275.841 284.591 289.662 290.436 299.254 300.599C308.603 310.508 313.652 324.508 312.164 338.035C312.129 338.382 312.083 338.734 312.036 339.08C310.161 352.931 301.123 365.765 288.416 371.577C283.573 373.733 278.389 375.017 273.099 375.368C268.168 375.722 263.212 375.498 258.333 374.699C248.229 373.106 238.55 369.563 228.947 366.043" stroke="black" stroke-width="2" stroke-linecap="round" stroke-linejoin="round"/>
<path d="M96.5198 332.952L20.7469 435.606L461.921 430.314L378.006 339.467" stroke="black" stroke-width="2" stroke-linecap="round" stroke-linejoin="round"/>
<path d="M311.056 337.921C300.149 337.73 289.259 337.518 278.386 337.286C241.585 336.512 204.922 335.526 168.184 334.603C144.349 334.003 120.46 333.452 96.5172 332.952" stroke="black" stroke-width="2" stroke-linecap="round" stroke-linejoin="round"/>
<path d="M378.006 339.467C367.993 339.571 358.759 338.417 349.018 338.798" stroke="black" stroke-width="2" stroke-linecap="round" stroke-linejoin="round"/>
<path d="M297.754 419.314L158.847 418.091L173.511 344.765H256.203" stroke="black" stroke-width="2" stroke-linecap="round" stroke-linejoin="round"/>
<path d="M290.321 405.966C292.97 409.977 295.279 414.594 297.754 419.315" stroke="black" stroke-width="2" stroke-linecap="round" stroke-linejoin="round"/>
<path d="M256.203 344.765C259.498 350.535 262.384 356.307 265.846 362.655C268.732 366.694 270.463 371.311 273.072 375.022" stroke="black" stroke-width="2" stroke-linecap="round" stroke-linejoin="round"/>
<path d="M273.675 322.441C270.106 328.274 262.343 330.338 255.579 329.316C248.815 328.294 242.715 324.827 236.606 321.75C230.497 318.673 223.892 315.875 217.069 316.365C211.721 316.748 206.74 319.125 201.982 321.596C197.224 324.067 192.441 326.713 187.173 327.715C181.906 328.717 175.942 327.785 172.212 323.933" stroke="black" stroke-width="2" stroke-linecap="round" stroke-linejoin="round"/>
<path d="M271.649 315.948C267.156 321.443 258.921 322.388 252.047 320.621C245.173 318.855 239.087 314.924 232.594 312.059C225.682 309.009 217.89 307.152 210.558 308.976C206.298 310.035 202.441 312.27 198.635 314.455C194.829 316.641 190.937 318.83 186.656 319.788C182.374 320.745 177.566 320.308 174.099 317.613" stroke="black" stroke-width="2" stroke-linecap="round" stroke-linejoin="round"/>
<path d="M269.256 308.397C263.977 312.627 256.464 312.984 249.9 311.346C243.337 309.708 237.36 306.346 231.141 303.683C224.921 301.021 218.072 299.03 211.438 300.35C207.35 301.165 203.617 303.186 199.993 305.246C196.369 307.305 192.731 309.454 188.712 310.558C184.693 311.663 180.163 311.617 176.605 309.446" stroke="black" stroke-width="2" stroke-linecap="round" stroke-linejoin="round"/>
<path d="M92.975 134.305C88.1349 128.872 82.1198 124.614 75.3875 121.855C68.6547 119.095 61.3812 117.907 54.1208 118.38" stroke="black" stroke-width="2" stroke-linecap="round" stroke-linejoin="round"/>
<path d="M90.5687 141.782C86.4661 135.295 80.388 130.299 73.2302 127.53C66.0724 124.76 58.2135 124.364 50.814 126.401" stroke="black" stroke-width="2" stroke-linecap="round" stroke-linejoin="round"/>
<path d="M243.245 371.178C244.583 377.111 244.432 383.285 242.806 389.146C241.179 395.008 238.127 400.376 233.922 404.771" stroke="black" stroke-width="2" stroke-linecap="round" stroke-linejoin="round"/>
<path d="M249.74 373.418C251.158 379.129 251.204 385.095 249.873 390.827C248.543 396.559 245.875 401.895 242.087 406.398" stroke="black" stroke-width="2" stroke-linecap="round" stroke-linejoin="round"/>
<path d="M176.482 145.99L165.425 135.047" stroke="black" stroke-width="2" stroke-linecap="round" stroke-linejoin="round"/>
<path d="M166.11 148.096L175.905 134.259" stroke="black" stroke-width="2" stroke-linecap="round" stroke-linejoin="round"/>
<path d="M279.629 155.014L286.987 148.798" stroke="black" stroke-width="2" stroke-linecap="round" stroke-linejoin="round"/>
<path d="M287.312 156.45C285.113 153.573 282.915 150.696 280.716 147.819" stroke="black" stroke-width="2" stroke-linecap="round" stroke-linejoin="round"/>
<path d="M272.942 130.659C273.456 128.264 273.969 125.868 274.483 123.472" stroke="black" stroke-width="2" stroke-linecap="round" stroke-linejoin="round"/>
<path d="M278.38 128.628L269.935 125.719" stroke="black" stroke-width="2" stroke-linecap="round" stroke-linejoin="round"/>
<path d="M98.101 276.803C85.0489 267.796 73.4922 256.795 63.8536 244.202" stroke="black" stroke-width="2" stroke-linecap="round" stroke-linejoin="round"/>
<path d="M400.965 227.928C397.04 214.607 388.916 202.911 377.804 194.583" stroke="black" stroke-width="2" stroke-linecap="round" stroke-linejoin="round"/>
<path d="M429.74 316.254C417.302 316.063 405.281 311.742 395.568 303.97" stroke="black" stroke-width="2" stroke-linecap="round" stroke-linejoin="round"/>
<path d="M178.416 108.061C177.745 107.498 177.196 106.804 176.802 106.022C176.608 105.629 176.514 105.195 176.528 104.757C176.542 104.319 176.663 103.892 176.881 103.511C177.594 102.425 179.141 102.277 180.416 102.527C181.583 102.761 182.692 103.226 183.677 103.894C184.661 104.562 185.504 105.42 186.154 106.418C185.399 104.449 185.18 102.167 186.102 100.272C187.023 98.3771 189.298 97.0714 191.305 97.7161C193.18 98.3177 194.274 100.382 194.34 102.348C194.406 104.314 193.663 106.209 192.895 108.019C191.51 111.278 190.905 115.522 189.415 114.928C186.15 113.624 180.995 110.451 178.416 108.061Z" fill="black" fill-opacity="0.15"/>
<path d="M217.404 109.906L212.069 108.935C212 108.922 211.93 108.931 211.867 108.96C211.803 108.989 211.75 109.037 211.715 109.097C211.679 109.157 211.663 109.227 211.668 109.296C211.673 109.366 211.699 109.432 211.744 109.486L215.165 113.692C215.208 113.744 215.234 113.808 215.24 113.876C215.246 113.943 215.233 114.01 215.2 114.069L212.628 118.842C212.595 118.904 212.581 118.974 212.59 119.043C212.597 119.113 212.626 119.178 212.672 119.23C212.719 119.282 212.78 119.319 212.847 119.336C212.915 119.352 212.986 119.347 213.052 119.322L218.109 117.368C218.172 117.344 218.241 117.339 218.307 117.354C218.372 117.368 218.433 117.402 218.479 117.451L222.224 121.372C222.272 121.423 222.334 121.457 222.403 121.471C222.471 121.485 222.542 121.478 222.606 121.45C222.67 121.422 222.724 121.376 222.761 121.316C222.797 121.257 222.815 121.188 222.811 121.118L222.516 115.702C222.512 115.634 222.529 115.568 222.562 115.509C222.597 115.452 222.647 115.405 222.708 115.376L227.595 113.026C227.658 112.996 227.71 112.947 227.744 112.886C227.779 112.826 227.793 112.756 227.787 112.686C227.78 112.617 227.753 112.552 227.707 112.498C227.662 112.445 227.602 112.407 227.535 112.389L222.294 110.997C222.229 110.98 222.17 110.944 222.126 110.893C222.081 110.843 222.053 110.78 222.044 110.713L221.319 105.34C221.31 105.27 221.28 105.206 221.233 105.154C221.185 105.103 221.123 105.067 221.055 105.052C220.987 105.036 220.916 105.043 220.851 105.069C220.787 105.096 220.732 105.141 220.694 105.2L217.751 109.754C217.715 109.81 217.662 109.855 217.6 109.882C217.538 109.909 217.47 109.918 217.404 109.906Z" fill="black"/>
<path d="M333.385 110.995C337.937 93.1646 359.199 81.6552 376.618 87.5938C394.036 93.5323 403.84 115.632 396.552 132.531C394.406 137.505 390.254 142.366 384.839 142.464C376.47 142.615 372.661 129.803 378.579 123.884C384.496 117.965 395.138 119.449 401.223 125.195C407.308 130.942 409.672 139.609 410.535 147.934C411.397 156.259 411.037 164.743 412.897 172.903C414.757 181.063 419.403 189.209 427.131 192.423" stroke="black" stroke-width="2" stroke-linecap="round" stroke-linejoin="round"/>
<path d="M58.4302 171.635L62.0963 166.747" stroke="black" stroke-width="2" stroke-linecap="round" stroke-linejoin="round"/>
<path d="M79.2057 202.188C77.6687 199.865 75.5661 197.973 73.0953 196.688" stroke="black" stroke-width="2" stroke-linecap="round" stroke-linejoin="round"/>
<path d="M78.5937 179.579L81.6489 175.302" stroke="black" stroke-width="2" stroke-linecap="round" stroke-linejoin="round"/>
<path d="M96.8348 247.355L99.9109 241.867" stroke="black" stroke-width="2" stroke-linecap="round" stroke-linejoin="round"/>
<path d="M117.206 231.993L110.596 226.363" stroke="black" stroke-width="2" stroke-linecap="round" stroke-linejoin="round"/>
<path d="M91.4265 223.574L92.6484 216.242" stroke="black" stroke-width="2" stroke-linecap="round" stroke-linejoin="round"/>
<path d="M134.199 271.847L129.311 263.903" stroke="black" stroke-width="2" stroke-linecap="round" stroke-linejoin="round"/>
<path d="M153.142 257.182L160.474 254.74" stroke="black" stroke-width="2" stroke-linecap="round" stroke-linejoin="round"/>
<path d="M175.75 280.402L172.084 273.683" stroke="black" stroke-width="2" stroke-linecap="round" stroke-linejoin="round"/>
<path d="M196.526 261.458C198.341 259.455 200.661 257.978 203.244 257.181" stroke="black" stroke-width="2" stroke-linecap="round" stroke-linejoin="round"/>
<path d="M205.692 288.958L202.025 283.458" stroke="black" stroke-width="2" stroke-linecap="round" stroke-linejoin="round"/>
<path d="M241.744 288.958L245.41 284.681" stroke="black" stroke-width="2" stroke-linecap="round" stroke-linejoin="round"/>
<path d="M257.02 262.681C254.982 260.237 252.946 257.793 250.909 255.349" stroke="black" stroke-width="2" stroke-linecap="round" stroke-linejoin="round"/>
<path d="M283.264 275.497C283.76 274.563 284.461 273.753 285.314 273.126C286.166 272.498 287.148 272.071 288.188 271.875" stroke="black" stroke-width="2" stroke-linecap="round" stroke-linejoin="round"/>
<path d="M318.767 301.159L314.087 293.094" stroke="black" stroke-width="2" stroke-linecap="round" stroke-linejoin="round"/>
<path d="M321.791 332.952L326.068 328.674" stroke="black" stroke-width="2" stroke-linecap="round" stroke-linejoin="round"/>
<path d="M340.191 321.905L335.948 315.77" stroke="black" stroke-width="2" stroke-linecap="round" stroke-linejoin="round"/>
<path d="M323.623 361.059L327.9 367.778" stroke="black" stroke-width="2" stroke-linecap="round" stroke-linejoin="round"/>
<path d="M309.57 379.391L313.847 374.503" stroke="black" stroke-width="2" stroke-linecap="round" stroke-linejoin="round"/>
<path d="M278.946 387.406L274.657 383.141" stroke="black" stroke-width="2" stroke-linecap="round" stroke-linejoin="round"/>
<path d="M290.625 397.111L294.902 393.445" stroke="black" stroke-width="2" stroke-linecap="round" stroke-linejoin="round"/>
<path d="M240.068 239.673C239.172 251.217 236.811 263.089 229.981 272.439C228.245 274.816 226.161 277.055 223.479 278.272C220.797 279.489 217.413 279.484 215.104 277.656C213.287 276.218 212.379 273.869 212.187 271.559C211.996 269.25 212.43 266.939 212.865 264.662C214.184 257.759 215.502 250.857 216.819 243.954" stroke="black" stroke-width="2" stroke-linecap="round" stroke-linejoin="round"/>
<g opacity="0.1">
<path d="M206.287 168.055C208.182 169.505 209.673 171.388 211.479 172.951C213.543 174.637 215.771 176.112 218.129 177.355C222.66 179.872 227.604 181.561 232.728 182.344L230.248 183L231.01 182.385C233.299 180.538 237.581 181.487 237.378 185.022C237.169 188.646 237.023 192.348 237.8 195.919C238.153 197.647 238.717 199.327 239.478 200.919C240.395 202.769 241.796 204.33 242.281 206.362C243.197 210.203 238.994 213.886 235.395 211.656C231.247 209.085 229.23 202.667 228.48 198.062C227.641 192.906 228.029 187.834 230.427 183.137V186.903L229.85 186.086L231.373 187.257C225.862 186.277 220.607 184.19 215.924 181.124C213.782 179.67 211.788 178.008 209.971 176.164C208.024 174.236 205.777 172.219 204.684 169.658C204.293 168.742 205.228 167.244 206.287 168.055Z" fill="black"/>
</g>
<g opacity="0.1">
<path d="M271.628 336.744C267.062 328.489 263.873 319.095 260.743 310.215C257.577 301.228 254.893 292.078 252.704 282.805C251.951 279.613 254.167 276.908 257.352 276.704C265.903 276.155 275.664 277.598 283.228 281.851C286.995 283.969 290.767 286.077 294.214 288.705C297.499 291.211 300.411 294.506 303.104 297.649C308.716 304.212 312.758 311.968 314.923 320.328C315.983 324.575 316.402 328.957 316.167 333.329C316.064 335.438 315.856 337.542 315.542 339.631C315.232 341.776 315.164 343.668 313.875 345.464C313.26 346.321 311.743 346.342 311.465 345.149C310.996 343.141 311.446 341.538 311.55 339.502C311.633 337.582 311.601 335.658 311.453 333.742C311.096 329.73 310.393 325.757 309.349 321.867C307.512 314.293 303.896 307.267 298.802 301.369C296.232 298.445 293.223 296.408 290.02 294.278C286.915 292.214 283.652 290.378 280.05 289.387C276.44 288.393 272.806 287.009 269.058 286.62C265.17 286.199 261.255 286.107 257.352 286.343L261.999 280.242C264.168 289.336 266.635 298.389 269.447 307.305C272.26 316.221 276.02 324.805 278.902 333.678C280.298 337.974 273.804 340.677 271.629 336.744H271.628Z" fill="black"/>
</g>
<g opacity="0.1">
<path d="M346.907 339.607C347.796 341.694 348.505 343.087 348.469 345.422C348.433 347.846 348.383 350.226 348.111 352.637C347.556 357.556 345.935 362.132 343.929 366.639C340.033 375.493 334.199 383.36 326.859 389.66C310.7 403.42 288.857 409.228 267.962 409.529C254.781 409.719 241.59 407.789 228.739 404.983C225.595 404.297 223.759 400.638 224.578 397.656C225.47 394.41 228.753 392.807 231.906 393.495C251.372 397.744 271.961 399.69 291.49 394.724C308.015 390.523 324.51 381.083 334.053 366.56C336.75 362.454 338.644 358.155 340.415 353.599C341.253 351.445 342.046 349.291 342.713 347.077C343.064 345.913 343.173 344.709 343.427 343.524C343.728 342.114 344.48 341.18 345.031 339.853C345.319 339.161 346.515 338.692 346.906 339.608L346.907 339.607Z" fill="black"/>
</g>
</g>
</g>
</g>
<defs>
<clipPath id="clip0_9_655">
<rect width="500" height="500" fill="white" transform="matrix(-1 0 0 1 500 0)"/>
</clipPath>
</defs>
</svg>