<svg xmlns="http://www.w3.org/2000/svg" width="20" height="20" viewBox="0 0 20 20" fill="none">
<path d="M3.97206 4.62951C4.39369 5.05907 4.98879 5.32678 5.64831 5.32678C6.92675 5.32678 7.96312 4.32088 7.96312 3.08004C7.96312 1.83921 6.92675 0.833313 5.64831 0.833313C4.80513 0.833313 4.06724 1.27088 3.66253 1.92481C3.30705 2.49921 2.77385 3.08004 2.0835 3.08004C1.39314 3.08004 0.833496 3.62323 0.833496 4.29328V17.9173C0.833496 18.6073 1.40979 19.1666 2.12068 19.1666H17.8796C18.5905 19.1666 19.1668 18.6073 19.1668 17.9173V4.32937C19.1668 3.63939 18.5905 3.08004 17.8796 3.08004H16.7594M12.6759 4.62951C13.0975 5.05907 13.6926 5.32678 14.3521 5.32678C15.6306 5.32678 16.6669 4.32088 16.6669 3.08004C16.6669 1.83921 15.6306 0.833313 14.3521 0.833313C13.5222 0.833313 12.7944 1.25717 12.3857 1.89401C12.01 2.47971 11.461 3.08004 10.7501 3.08004H8.05582M2.68534 7.84303H19.0742M7.39654 12.4172C7.45413 11.3874 9.47248 10.4307 9.77931 12.1574C9.96724 13.215 8.91513 14.3565 7.34862 15.2898C7.03685 15.4756 7.13947 15.9657 7.49879 15.9629L9.97098 15.9437M11.4393 11.9183L12.372 10.9882C12.5867 10.7741 12.9553 10.897 12.9514 11.1814L12.9514 15.9629" stroke="black" stroke-linecap="round"/>
</svg>