<svg xmlns="http://www.w3.org/2000/svg" width="20" height="20" viewBox="0 0 20 20" fill="none">
<path d="M6.01049 2.44703C5.29129 2.18402 3.78096 2.21032 3.49328 4.41957C3.13368 7.18114 3.49346 14.2822 3.49328 16.2547C3.49317 17.5022 3.85253 18.2273 5.65103 18.6217C7.44907 19.0161 16.5989 20.1949 16.4391 17.0437C16.079 9.9426 18.2371 2.05237 13.9219 2.44687M7.18766 12.0418C7.2824 12.728 8.61607 15.6496 9.2245 14.005C9.95082 12.0418 10.6416 10.0085 13.7502 8.08347M7.93194 1.20045C9.42308 0.49279 12.4835 0.824842 12.4835 2.05237C12.4835 3.6304 12.4835 4.02496 11.0451 4.02496C9.60665 4.02496 8.16824 4.41947 7.80864 3.63046C7.47845 2.90597 7.45145 1.84877 7.72763 1.37532C7.7739 1.29599 7.84896 1.23983 7.93194 1.20045Z" stroke="black" stroke-linecap="round"/>
</svg>