<svg xmlns="http://www.w3.org/2000/svg" width="500" height="500" viewBox="0 0 500 500" fill="none">
<g clip-path="url(#clip0_20_27108)">
<mask id="mask0_20_27108" style="mask-type:luminance" maskUnits="userSpaceOnUse" x="0" y="0" width="500" height="500">
<path d="M500 0H0V500H500V0Z" fill="white"/>
</mask>
<g mask="url(#mask0_20_27108)">
<mask id="mask1_20_27108" style="mask-type:luminance" maskUnits="userSpaceOnUse" x="19" y="41" width="462" height="418">
<path d="M480.729 41.6666H19.7917V458.854H480.729V41.6666Z" fill="white"/>
</mask>
<g mask="url(#mask1_20_27108)">
<path fill-rule="evenodd" clip-rule="evenodd" d="M142.915 158.187C160.501 152.586 176.479 142.828 189.493 129.74L189.867 130.106C195.025 140.529 198.591 151.87 199.112 163.492C199.483 171.017 198.424 178.545 195.99 185.676L196.316 185.789C207.645 185.85 218.965 185.129 230.195 183.632C220.623 179.099 214.513 169.16 211.571 158.952C209.428 151.501 208.675 143.762 207.922 136.023C207.623 132.951 207.324 129.879 206.939 126.824C205.581 116.074 202.912 105.032 196.023 96.6723C188.921 88.0593 177.972 83.2473 166.904 81.7963C143.668 78.7411 119.149 90.5224 107.014 110.57C101.483 119.704 98.4911 130.043 95.5115 140.342C94.8589 142.598 94.2068 144.852 93.5286 147.091C89.7682 159.491 84.8229 172.11 75.3115 180.903L75.7641 181.375C95.726 187.972 116.424 192.09 137.391 193.635C143.518 194.093 149.651 194.328 155.788 194.342C156.428 194.416 157.074 194.26 157.611 193.903C158.756 192.917 157.651 191.107 156.606 190.022C148.36 181.404 143.499 170.1 142.915 158.187ZM188.118 92.4104C187.736 92.0114 187.105 91.9973 186.706 92.3781C186.307 92.7588 186.293 93.3911 186.674 93.7895C192.328 99.7072 196.724 106.709 199.596 114.373C202.469 122.036 203.758 130.203 203.387 138.379C203.362 138.93 203.788 139.397 204.339 139.422C204.89 139.447 205.357 139.021 205.382 138.47C205.766 130.024 204.433 121.588 201.466 113.672C198.499 105.756 193.958 98.5229 188.118 92.4104Z" fill="black"/>
<path d="M440.625 256.843L419.92 441.059L419.488 441.013L209.606 432.327L227.065 254.507L228.263 242.274L306.523 247.645L360.03 251.312L440.625 256.843ZM354.646 345.72C354.646 341.074 353.268 336.532 350.688 332.67C348.106 328.807 344.438 325.796 340.145 324.018C335.853 322.24 331.13 321.775 326.574 322.682C322.017 323.588 317.832 325.825 314.547 329.11C311.261 332.395 309.024 336.581 308.118 341.137C307.212 345.694 307.677 350.417 309.455 354.709C311.233 359.001 314.243 362.67 318.106 365.25C321.969 367.832 326.51 369.209 331.156 369.209C337.386 369.209 343.361 366.734 347.766 362.33C352.171 357.924 354.646 351.949 354.646 345.72Z" fill="black" fill-opacity="0.15"/>
<path d="M419.92 441.059L418.077 457.459L208.062 448.061L209.606 432.326L419.488 441.012L419.92 441.059Z" fill="black" fill-opacity="0.15"/>
<path d="M375.208 218.259C375.833 219.297 375.288 220.615 374.742 221.7C369.85 231.378 364.96 241.058 360.072 250.74L360.032 251.312L306.526 247.645L306.532 247.579C315.428 235.296 322.897 222.041 328.796 208.069L335.119 209.347C346.015 211.55 356.909 213.751 367.8 215.95C369.411 216.276 371.015 216.602 372.626 216.929C373.602 217.128 374.693 217.4 375.208 218.259Z" fill="black"/>
<path d="M331.157 322.225C335.802 322.225 340.343 323.602 344.206 326.183C348.069 328.764 351.08 332.432 352.858 336.724C354.635 341.016 355.101 345.738 354.195 350.295C353.29 354.851 351.053 359.037 347.768 362.322C344.484 365.607 340.299 367.845 335.743 368.752C331.186 369.659 326.464 369.195 322.171 367.418C317.879 365.64 314.21 362.631 311.629 358.769C309.047 354.907 307.668 350.365 307.667 345.72C307.666 342.635 308.273 339.58 309.454 336.729C310.633 333.879 312.364 331.288 314.545 329.107C316.726 326.925 319.316 325.194 322.166 324.013C325.017 322.833 328.071 322.225 331.157 322.225Z" fill="black" fill-opacity="0.15"/>
<path d="M209.606 432.327L208.062 448.062L124.664 446.185L124.544 441.812L124.431 437.492L209.473 432.321L209.606 432.327Z" fill="black" fill-opacity="0.15"/>
<path d="M185.093 244.018C199.637 244.497 213.912 248.071 226.968 254.501L227.068 254.508L209.609 432.327L209.476 432.321L124.433 437.493L124.546 441.812L124.014 441.826C111.987 440.388 107.816 438.718 102.229 435.024C87.1401 425.033 75.3057 415.509 65.5417 400.273C53.638 381.704 51.0937 357.948 56.5068 336.563C61.9198 315.177 74.7771 296.115 90.9911 281.159C107.205 266.204 126.668 255.114 146.914 246.368L147.16 246.234C146.361 242.467 148.851 238.626 152.146 236.63C153.601 235.807 155.228 235.335 156.898 235.252C158.948 235.072 161.091 235.179 163.194 234.899C165.058 234.653 166.948 234.187 168.832 233.814C171.614 233.262 174.39 232.916 177.032 233.762C181.465 235.187 185.417 239.254 185.099 243.899L185.093 244.018Z" fill="black"/>
<path d="M142.917 158.189C160.504 152.588 176.481 142.83 189.495 129.742C192.974 126.222 196.207 122.468 199.172 118.506" stroke="black" stroke-linecap="round" stroke-linejoin="round"/>
<path d="M189.866 130.108C195.022 140.532 198.592 151.873 199.111 163.494C199.483 171.019 198.424 178.547 195.99 185.678C194.637 189.572 192.807 193.283 190.539 196.726C186.492 202.836 181.088 207.924 176.602 213.719C172.116 219.515 168.448 226.472 168.828 233.794" stroke="black" stroke-linecap="round" stroke-linejoin="round"/>
<path d="M142.917 158.189C143.501 170.102 148.362 181.406 156.608 190.025C157.653 191.11 158.758 192.92 157.613 193.905C157.076 194.262 156.43 194.418 155.79 194.344C149.653 194.331 143.52 194.095 137.393 193.638C116.426 192.092 95.7281 187.974 75.7661 181.378" stroke="black" stroke-linecap="round" stroke-linejoin="round"/>
<path d="M75.1901 181.019C75.2302 180.979 75.2698 180.945 75.3099 180.906C84.8214 172.113 89.7667 159.494 93.5271 147.094C97.301 134.634 100.27 121.708 107.012 110.573C119.147 90.5254 143.666 78.7441 166.902 81.7994C177.971 83.2504 188.92 88.0624 196.022 96.6754C202.911 105.035 205.58 116.077 206.938 126.827C208.295 137.576 208.575 148.546 211.57 158.955C214.511 169.163 220.622 179.102 230.193 183.635C230.386 183.729 230.579 183.815 230.772 183.901" stroke="black" stroke-linecap="round" stroke-linejoin="round"/>
<path d="M196.315 185.792C207.644 185.853 218.964 185.132 230.193 183.635L230.646 183.575" stroke="black" stroke-linecap="round" stroke-linejoin="round"/>
<path d="M137.37 193.858C143.457 198.689 148.369 204.836 151.739 211.838C155.108 218.841 156.846 226.516 156.823 234.286" stroke="black" stroke-linecap="round" stroke-linejoin="round"/>
<path d="M306.523 247.645L228.263 242.273L227.065 254.507L209.606 432.326L208.062 448.061L418.077 457.459L419.92 441.059L440.627 256.843L360.03 251.312L306.523 247.645Z" stroke="black" stroke-linecap="round" stroke-linejoin="round"/>
<path d="M208.062 448.062L124.664 446.185L124.544 441.812L124.431 437.492L209.473 432.321L209.606 432.327L419.488 441.013" stroke="black" stroke-linecap="round" stroke-linejoin="round"/>
<path d="M354.646 345.72C354.645 350.365 353.266 354.907 350.684 358.769C348.103 362.631 344.433 365.64 340.141 367.418C335.849 369.195 331.126 369.659 326.57 368.752C322.014 367.845 317.829 365.607 314.544 362.322C311.26 359.037 309.023 354.851 308.118 350.295C307.211 345.738 307.677 341.016 309.455 336.724C311.233 332.432 314.244 328.764 318.107 326.183C321.969 323.602 326.51 322.225 331.156 322.225C334.241 322.225 337.296 322.833 340.146 324.013C342.997 325.194 345.586 326.925 347.768 329.107C349.949 331.288 351.679 333.879 352.859 336.729C354.04 339.58 354.646 342.635 354.646 345.72Z" stroke="black" stroke-linecap="round" stroke-linejoin="round"/>
<path d="M173.485 168.793C174.838 168.601 176.146 168.169 177.345 167.514C178.504 166.789 179.409 165.511 179.295 164.147C179.176 162.715 178.017 161.624 177.026 160.579C175.715 159.286 174.675 157.746 173.964 156.048C173.25 154.333 173.181 152.418 173.77 150.657" stroke="black" stroke-linecap="round" stroke-linejoin="round"/>
<path d="M164.646 153.191C164.224 152.681 163.707 152.26 163.122 151.951C162.537 151.643 161.897 151.454 161.238 151.394" stroke="black" stroke-linecap="round" stroke-linejoin="round"/>
<path d="M179.342 148.911C179.695 148.141 180.239 147.473 180.92 146.97C181.602 146.468 182.4 146.146 183.24 146.035C184.08 145.925 184.934 146.029 185.722 146.339C186.511 146.649 187.208 147.154 187.748 147.806" stroke="black" stroke-linecap="round" stroke-linejoin="round"/>
<path d="M155.001 180.706C156.166 182.472 157.906 183.78 159.927 184.407C161.947 185.034 164.122 184.943 166.083 184.147" stroke="black" stroke-linecap="round" stroke-linejoin="round"/>
<path d="M124.01 441.823C111.983 440.385 107.812 438.714 102.226 435.021C87.1364 425.03 75.3021 415.506 65.538 400.27C53.638 381.702 51.0939 357.947 56.5068 336.562C61.9198 315.178 74.7771 296.114 90.9911 281.159C107.205 266.203 126.668 255.114 146.914 246.367" stroke="black" stroke-linecap="round" stroke-linejoin="round"/>
<path d="M147.16 246.234C146.361 242.467 148.851 238.626 152.146 236.63C153.602 235.807 155.229 235.335 156.898 235.252C158.948 235.072 161.091 235.179 163.194 234.899C165.058 234.653 166.948 234.187 168.832 233.814C171.614 233.262 174.39 232.916 177.032 233.762C181.465 235.187 185.417 239.254 185.099 243.899" stroke="black" stroke-linecap="round" stroke-linejoin="round"/>
<path d="M185.04 244.018H185.092C199.636 244.497 213.912 248.071 226.967 254.501" stroke="black" stroke-linecap="round" stroke-linejoin="round"/>
<path d="M306.53 247.578C315.426 235.295 322.895 222.04 328.794 208.069L335.117 209.347C346.013 211.55 356.907 213.751 367.798 215.949C369.409 216.275 371.012 216.601 372.623 216.928C373.602 217.127 374.693 217.4 375.206 218.259C375.831 219.298 375.285 220.615 374.74 221.7C369.847 231.378 364.957 241.058 360.07 250.74" stroke="black" stroke-linecap="round" stroke-linejoin="round"/>
<path d="M335.323 208.334C333.719 203.894 332.113 199.453 330.505 195.009C329.892 193.311 329.267 191.534 329.515 189.748C329.764 187.962 331.182 186.194 332.983 186.221C334.545 186.241 335.772 187.512 336.757 188.73C339.305 191.848 341.564 195.192 343.506 198.721" stroke="black" stroke-linecap="round" stroke-linejoin="round"/>
<path d="M365.389 197.892C366.52 194.996 367.398 192.014 367.465 188.926C367.511 186.889 366.693 184.326 364.663 184.16C363.279 184.04 362.12 185.15 361.255 186.237C359.249 188.751 357.672 191.581 356.59 194.61C356.231 195.617 355.929 196.643 355.684 197.683" stroke="black" stroke-linecap="round" stroke-linejoin="round"/>
<path d="M365.389 197.892C364.728 199.185 364.165 200.527 363.705 201.905C364.283 200.581 364.863 199.249 365.389 197.892Z" stroke="black" stroke-linecap="round" stroke-linejoin="round"/>
<path d="M367.924 215.33C370.908 209.49 373.559 203.486 375.865 197.346C376.364 196.015 376.855 194.644 376.803 193.226C376.75 191.808 376.031 190.324 374.726 189.778C372.729 188.945 370.593 190.559 369.195 192.201C367.709 193.944 366.431 195.854 365.387 197.892" stroke="black" stroke-linecap="round" stroke-linejoin="round"/>
<path d="M355.039 198.085C355.465 196.894 355.877 195.696 356.289 194.505H356.295C359.583 184.993 362.574 175.386 365.268 165.684C366.101 162.683 366.659 158.869 364.174 156.986C362.151 155.449 359.056 156.261 357.279 158.085C355.502 159.909 354.723 162.46 353.997 164.9C350.642 176.215 347.288 187.533 343.934 198.852C343.92 198.905 343.901 198.957 343.887 199.012" stroke="black" stroke-linecap="round" stroke-linejoin="round"/>
<path d="M191.411 85.1233C181.362 77.0176 167.592 74.0051 154.904 76.3946C142.217 78.7842 130.724 86.3426 122.835 96.5618C114.946 106.781 110.582 119.526 109.707 132.407C109.436 136.396 109.934 141.2 113.461 143.081C116.81 144.868 121.139 142.746 123.21 139.564C125.281 136.382 125.74 132.46 126.429 128.726C128.66 116.643 134.041 104.901 142.982 96.4691C151.923 88.0374 164.644 83.2686 176.76 85.3233C184.611 86.7009 191.68 90.9181 196.622 97.1723C197.812 98.6874 198.849 100.317 199.717 102.037C200.129 102.858 201.112 106.875 201.791 107.159C204.14 108.143 201.035 97.5759 200.526 96.4936C198.382 92.066 195.266 88.1795 191.411 85.1233Z" fill="black" fill-opacity="0.15" stroke="black" stroke-miterlimit="10"/>
<path d="M149.256 199.155C156.164 200.593 163.36 199.248 169.283 195.414C170.562 194.576 171.835 193.601 173.346 193.37C174.856 193.138 176.675 194.011 176.82 195.533C176.912 196.502 176.319 197.398 175.678 198.131C173.292 200.852 169.896 202.553 166.373 203.382C162.851 204.21 159.186 204.222 155.573 203.987C147.331 203.452 138.032 201.754 131.026 197.093C129.059 195.785 126.674 192.944 129.899 191.658C132.264 190.714 135.226 191.606 137.178 193.012C141.008 195.772 144.531 198.147 149.256 199.155Z" fill="black" fill-opacity="0.15" stroke="black" stroke-miterlimit="10"/>
<path d="M188.897 191.32L178.315 199.524C177.979 199.784 177.596 199.975 177.187 200.087C176.778 200.199 176.351 200.23 175.93 200.176C175.509 200.123 175.103 199.988 174.735 199.777C174.367 199.567 174.043 199.286 173.783 198.951L171.625 196.168C171.365 195.832 171.173 195.449 171.061 195.04C170.95 194.631 170.92 194.204 170.973 193.783C171.026 193.362 171.161 192.956 171.372 192.588C171.582 192.22 171.862 191.896 172.198 191.636L182.78 183.432C183.115 183.172 183.498 182.981 183.907 182.869C184.317 182.757 184.744 182.726 185.165 182.78C185.585 182.833 185.992 182.969 186.36 183.179C186.728 183.389 187.052 183.67 187.311 184.005L189.47 186.789C189.73 187.124 189.921 187.507 190.033 187.916C190.145 188.325 190.175 188.753 190.122 189.173C190.069 189.594 189.933 190 189.723 190.369C189.513 190.737 189.232 191.06 188.897 191.32Z" fill="black"/>
<path d="M207.581 417.047C186.827 417.156 165.692 416.721 145.973 410.246C126.255 403.77 107.853 390.323 100.176 371.041C95.0896 358.265 95.0719 343.788 98.7344 330.534C102.397 317.279 109.568 305.18 118.321 294.574" stroke="black" stroke-opacity="0.15" stroke-linecap="round" stroke-linejoin="round"/>
<path d="M177.988 243.501C177.539 241.106 177.089 238.71 176.639 236.314" stroke="black" stroke-opacity="0.15" stroke-linecap="round" stroke-linejoin="round"/>
<path d="M169.097 244.779C168.781 242.378 168.465 239.976 168.149 237.575" stroke="black" stroke-opacity="0.15" stroke-linecap="round" stroke-linejoin="round"/>
<path d="M159.993 245.407C159.785 243.528 159.578 241.648 159.371 239.769" stroke="black" stroke-opacity="0.15" stroke-linecap="round" stroke-linejoin="round"/>
<path d="M151.763 245.73C151.668 244.059 151.572 242.387 151.477 240.717" stroke="black" stroke-opacity="0.15" stroke-linecap="round" stroke-linejoin="round"/>
<path d="M325.11 223.851C338.544 227.027 352.086 229.688 365.735 231.835" stroke="black" stroke-opacity="0.15" stroke-linecap="round" stroke-linejoin="round"/>
<path d="M211.67 284.869C209.461 282.568 207.253 280.267 205.043 277.965" stroke="black" stroke-opacity="0.15" stroke-linecap="round" stroke-linejoin="round"/>
<path d="M181.557 318.052C183.441 315.132 185.326 312.212 187.21 309.292" stroke="black" stroke-opacity="0.15" stroke-linecap="round" stroke-linejoin="round"/>
<path d="M165.403 286.371L158.111 279.857" stroke="black" stroke-opacity="0.15" stroke-linecap="round" stroke-linejoin="round"/>
<path d="M138.629 324.305L143.972 316.173" stroke="black" stroke-opacity="0.15" stroke-linecap="round" stroke-linejoin="round"/>
<path d="M169.167 346.484C166.573 343.958 163.979 341.433 161.384 338.909" stroke="black" stroke-opacity="0.15" stroke-linecap="round" stroke-linejoin="round"/>
<path d="M208.118 338.23L200.641 331.296" stroke="black" stroke-opacity="0.15" stroke-linecap="round" stroke-linejoin="round"/>
<path d="M179.719 371.327C182.501 369.185 184.847 366.531 186.631 363.508" stroke="black" stroke-opacity="0.15" stroke-linecap="round" stroke-linejoin="round"/>
<path d="M141.816 375.708C144.52 373.394 146.939 370.765 149.02 367.878" stroke="black" stroke-opacity="0.15" stroke-linecap="round" stroke-linejoin="round"/>
<path d="M125.568 356.25L119.671 350.246" stroke="black" stroke-opacity="0.15" stroke-linecap="round" stroke-linejoin="round"/>
<path d="M200.785 392.541L194.47 386.012" stroke="black" stroke-opacity="0.15" stroke-linecap="round" stroke-linejoin="round"/>
<path d="M119.181 425.88L112.7 416.395" stroke="black" stroke-opacity="0.15" stroke-linecap="round" stroke-linejoin="round"/>
<path d="M94.7641 405.66L103.854 400.343" stroke="black" stroke-opacity="0.15" stroke-linecap="round" stroke-linejoin="round"/>
<path d="M85.5901 388.637L80.9615 380.142" stroke="black" stroke-opacity="0.15" stroke-linecap="round" stroke-linejoin="round"/>
<path d="M69.7516 364.4L77.5677 358.742" stroke="black" stroke-opacity="0.15" stroke-linecap="round" stroke-linejoin="round"/>
<path d="M86.7849 338.687L81.0812 329.646" stroke="black" stroke-opacity="0.15" stroke-linecap="round" stroke-linejoin="round"/>
<path d="M69.0307 320.48C71.4083 317.733 74.0854 315.261 77.0109 313.108" stroke="black" stroke-opacity="0.15" stroke-linecap="round" stroke-linejoin="round"/>
<path d="M102.84 295.782C101.938 292.879 101.034 289.976 100.132 287.074" stroke="black" stroke-opacity="0.15" stroke-linecap="round" stroke-linejoin="round"/>
<path d="M126.099 275.084L133.339 270.121" stroke="black" stroke-opacity="0.15" stroke-linecap="round" stroke-linejoin="round"/>
<path d="M69.6875 252.433C53.2969 244.44 31.9058 262.757 27.6386 278.083C23.5501 292.192 49.1689 317.611 55.026 296.033C51.598 283.565 35.1465 291.614 35.5892 302.432C35.373 314.351 41.3136 341.254 21.1329 337.061" stroke="black" stroke-linecap="round" stroke-linejoin="round"/>
<path d="M316.535 115.007C319.323 118.683 321.633 122.96 321.796 127.571C321.959 132.182 319.484 137.109 315.141 138.665C310.798 140.221 305.101 137.059 305.082 132.445C305.076 130.746 306.036 128.867 307.706 128.555C309.96 128.133 311.598 130.591 312.521 132.691C314.084 136.241 315.438 140.641 313.118 143.748C311.671 145.685 309.205 146.486 307.105 147.684C300.53 151.434 297.359 160.23 300.029 167.312" stroke="black" stroke-linecap="round" stroke-linejoin="round"/>
<path d="M470.806 245.312C469.205 247.567 468.385 250.284 468.474 253.049C468.562 255.813 469.554 258.472 471.296 260.62C473.147 262.795 475.767 264.341 477.12 266.856C479.594 271.452 476.856 277.12 473.532 281.145C471.998 283.001 470.193 284.826 467.855 285.405C465.516 285.984 462.597 284.78 462.132 282.417C461.548 279.448 464.807 277.246 467.653 276.227C470.023 275.379 472.683 274.73 475.009 275.691C477.117 276.561 478.546 278.646 479.111 280.855C479.676 283.064 479.484 285.395 479.111 287.644C478.397 291.957 476.857 296.417 473.425 299.124C469.993 301.832 464.272 301.931 461.719 298.383" stroke="black" stroke-linecap="round" stroke-linejoin="round"/>
<path d="M387.587 212.245C393.911 203.8 394.333 191.385 388.597 182.53" stroke="black" stroke-linecap="round" stroke-linejoin="round"/>
<path d="M232.917 85.8285C232.474 81.9098 232.031 77.9916 231.587 74.0739" stroke="black" stroke-linecap="round" stroke-linejoin="round"/>
<path d="M226.945 80.9447C230.605 79.8015 234.349 78.9494 238.143 78.3978" stroke="black" stroke-linecap="round" stroke-linejoin="round"/>
<path d="M210.13 56.3937L203.259 45.0114" stroke="black" stroke-linecap="round" stroke-linejoin="round"/>
<path d="M201.45 54.3056C205.007 51.183 208.332 47.8049 211.398 44.1985L210.745 45.3511" stroke="black" stroke-linecap="round" stroke-linejoin="round"/>
<path d="M403.981 170.393C404.627 167.767 405.919 165.344 407.74 163.345" stroke="black" stroke-linecap="round" stroke-linejoin="round"/>
<path d="M408.737 168.886L401.687 164.661" stroke="black" stroke-linecap="round" stroke-linejoin="round"/>
<path d="M236.676 159.498C247.197 154.074 257.275 147.834 266.82 140.833" stroke="black" stroke-linecap="round" stroke-linejoin="round"/>
<path d="M226.847 154.416L231.56 139.856" stroke="black" stroke-linecap="round" stroke-linejoin="round"/>
<path d="M242.456 169.745C246.909 172.167 251.53 174.263 256.285 176.02" stroke="black" stroke-linecap="round" stroke-linejoin="round"/>
<path d="M250.112 50.1163L256.147 53.7822C256.225 53.8296 256.286 53.8994 256.323 53.9822C256.36 54.0655 256.37 54.1577 256.353 54.2468C256.335 54.3358 256.291 54.4176 256.226 54.4812C256.161 54.5442 256.078 54.5858 255.989 54.6004L249.019 55.7384C248.932 55.753 248.852 55.7926 248.788 55.8525C248.723 55.9124 248.679 55.9895 248.658 56.0749L247.036 62.9499C247.016 63.0384 246.968 63.1181 246.901 63.1786C246.833 63.2395 246.748 63.2775 246.658 63.289C246.568 63.2999 246.477 63.2832 246.396 63.2405C246.316 63.1983 246.251 63.1322 246.209 63.0515L242.973 56.7707C242.933 56.6931 242.871 56.6285 242.794 56.5858C242.717 56.5437 242.63 56.5244 242.542 56.5317L235.505 57.1129C235.414 57.1207 235.323 57.0999 235.245 57.0546C235.167 57.0088 235.104 56.9405 235.066 56.8582C235.027 56.7759 235.015 56.6838 235.031 56.5942C235.046 56.5051 235.089 56.4223 235.153 56.3577L240.122 51.3407C240.183 51.2783 240.226 51.1991 240.242 51.1128C240.259 51.0266 240.25 50.9374 240.216 50.8564L237.489 44.3428C237.453 44.2591 237.445 44.1667 237.464 44.078C237.483 43.9893 237.529 43.9085 237.595 43.8467C237.661 43.7848 237.745 43.7447 237.835 43.7318C237.925 43.7189 238.017 43.7339 238.098 43.7746L244.405 46.9517C244.483 46.9911 244.572 47.0065 244.659 46.9958C244.746 46.9852 244.828 46.949 244.895 46.8918L250.247 42.285C250.316 42.2257 250.401 42.1889 250.491 42.1796C250.582 42.1703 250.673 42.1889 250.752 42.2329C250.832 42.277 250.896 42.3443 250.935 42.4259C250.976 42.5075 250.99 42.5994 250.976 42.6892L249.905 49.6683C249.891 49.7551 249.903 49.8442 249.94 49.924C249.977 50.0039 250.036 50.0708 250.112 50.1163Z" fill="black"/>
<path d="M397.228 150.664C396.785 146.746 396.342 142.828 395.899 138.909" stroke="black" stroke-linecap="round" stroke-linejoin="round"/>
<path d="M391.256 145.782C394.915 144.638 398.659 143.786 402.454 143.235" stroke="black" stroke-linecap="round" stroke-linejoin="round"/>
<path d="M115.975 204.22C130.419 204.22 142.129 188.409 142.129 168.905C142.129 149.4 130.419 133.589 115.975 133.589C101.531 133.589 89.8214 149.4 89.8214 168.905C89.8214 188.409 101.531 204.22 115.975 204.22Z" fill="black" fill-opacity="0.15" stroke="black" stroke-miterlimit="10"/>
<g opacity="0.1">
<path d="M109.29 134.755C107.584 135.123 106.309 136.351 104.873 137.276C103.289 138.197 101.832 139.322 100.541 140.621C98.1901 143.261 96.1646 146.174 94.5083 149.296C90.7161 156.359 88.7854 163.909 89.4995 171.957C90.2287 180.148 92.7667 188.265 98.2318 194.529C102.407 199.313 110.807 207.416 117.783 202.939C119.922 201.567 119.789 198.772 117.783 197.374C115.508 195.787 112.745 195.331 110.548 193.513C108.341 191.733 106.563 189.481 105.343 186.922C102.692 181.349 100.11 176.116 99.6234 169.827C99.1734 164.011 99.7276 157.839 101.707 152.332C102.748 149.616 104.086 147.023 105.694 144.599C106.541 143.245 107.21 141.795 108.027 140.433C108.832 139.087 110.117 138.094 110.749 136.658C110.87 136.435 110.923 136.182 110.903 135.929C110.882 135.676 110.789 135.435 110.635 135.234C110.48 135.033 110.271 134.881 110.032 134.796C109.793 134.711 109.534 134.698 109.288 134.757L109.29 134.755Z" fill="black"/>
</g>
<g opacity="0.1">
<path d="M144.089 195.596C143.957 196.115 143.946 196.656 144.057 197.179C144.168 197.701 144.398 198.192 144.729 198.611C145.018 199.107 145.433 199.518 145.931 199.802C146.43 200.087 146.994 200.236 147.568 200.233C148.142 200.231 148.705 200.078 149.202 199.79C149.697 199.501 150.109 199.087 150.395 198.589C150.68 198.091 150.83 197.527 150.829 196.953C150.828 196.379 150.676 195.816 150.388 195.319C150.1 194.822 149.687 194.41 149.19 194.124C148.692 193.837 148.129 193.686 147.555 193.686C146.18 193.542 144.498 194.119 144.089 195.596Z" fill="black"/>
</g>
<g opacity="0.1">
<path d="M149.728 205.791C149.681 208.112 150.814 210.191 151.69 212.284C152.612 214.486 153.386 216.759 154.085 219.043C154.794 221.34 155.339 223.684 155.717 226.058C156.087 228.429 156.051 230.841 156.511 233.193C156.858 234.964 158.839 236.024 160.503 235.797C162.438 235.537 163.422 234.053 163.657 232.224C164.291 227.276 162.673 221.312 161.165 216.622C159.815 212.426 157.535 205.809 153.292 203.743C151.688 202.962 149.766 203.899 149.729 205.788L149.728 205.791Z" fill="black"/>
</g>
</g>
</g>
</g>
<defs>
<clipPath id="clip0_20_27108">
<rect width="500" height="500" fill="white"/>
</clipPath>
</defs>
</svg>