<svg xmlns="http://www.w3.org/2000/svg" width="32" height="32" viewBox="0 0 32 32" fill="none">
<path d="M2.25694 12.8965L29.0117 8.0243C30.387 7.77385 31.2363 9.51956 30.2186 10.5049L18.9323 21.4317C18.8289 21.5319 18.7142 21.6206 18.5754 21.6513C17.7433 21.8349 15.9088 21.2849 14.0341 20.5605M1.3335 13.7761C2.23586 14.5087 4.16135 15.8691 5.86201 16.52C6.53527 16.7777 7.06246 17.4154 7.06136 18.1554C7.05865 19.9716 7.14474 22.27 7.45206 23.5601C7.61214 24.232 8.18235 24.0887 8.41059 23.438C8.46645 23.2787 8.52517 23.1089 8.58611 22.9298M9.76493 18.7607C12.9988 17.1878 21.1799 13.2486 28.033 10.0743M8.14971 23.8634L14.0341 20.5605M14.0341 20.5605C13.5449 20.3714 13.053 20.1705 12.5754 19.9676M8.35969 15.8652L16.7911 12.9698M8.58611 22.9298L13.278 20.3056L12.5754 19.9676M8.58611 22.9298C8.66943 22.6849 8.75689 22.4227 8.84688 22.1462M12.5754 19.9676L8.84688 22.1462M12.5754 19.9676C12.3058 19.8531 12.0408 19.738 11.7835 19.6241M8.84688 22.1462C8.94024 21.8594 9.03632 21.5573 9.13331 21.2435M9.13331 21.2435C9.21745 20.9713 9.30227 20.6902 9.3866 20.4025C9.40667 20.3341 9.43101 20.2682 9.45923 20.2052M9.13331 21.2435L11.7835 19.6241M11.7835 19.6241C11.65 19.5649 11.5186 19.5061 11.3896 19.4479C11.3174 19.4153 11.244 19.3892 11.1702 19.3694M11.1702 19.3694C10.4851 19.1855 9.75679 19.5403 9.45923 20.2052M11.1702 19.3694L9.45923 20.2052" stroke="black" stroke-linecap="round"/>
</svg>