<svg xmlns="http://www.w3.org/2000/svg" width="32" height="32" viewBox="0 0 32 32" fill="none">
<path d="M11.4808 18.9333L7.28333 16.5643C6.43563 16.0858 6.46873 14.8986 7.34188 14.4643L12.8333 11.7333M19.1862 11.7333L23.3837 14.1024C24.2314 14.5808 24.1983 15.7681 23.3251 16.2023L17.8337 18.9333M16.5836 9.33331L14.0834 21.3333M5.02798 28.2061C14.7324 30.264 28.5787 29.0363 28.5787 21.8144V6.17832C28.5787 5.2528 28.4776 4.40711 28.2557 3.69048M5.02798 28.2061C2.65803 27.7035 1.29828 24.9685 1.45014 22.2507C1.68923 17.9719 1.5431 12.5751 1.34034 8.28674C1.17095 4.70412 4.17204 1.55086 7.34721 1.66676C13.0214 1.87387 20.5029 1.60304 25.0552 1.34054C26.782 1.24096 27.7876 2.17844 28.2557 3.69048M5.02798 28.2061C6.08798 28.6298 7.3224 29.0505 8.66683 29.4211M28.2557 3.69048C30.8131 5.57621 30.8402 16.5588 30.534 21.8144C27.7972 32.0258 16.4083 31.5549 8.66683 29.4211M28.2557 3.69048C29.0151 6.01587 30.2939 12.8962 29.3335 21.8144C28.3731 30.7326 15.1555 30.6014 8.66683 29.4211" stroke="black" stroke-linecap="round"/>
</svg>