<svg xmlns="http://www.w3.org/2000/svg" width="32" height="32" viewBox="0 0 32 32" fill="none">
<path d="M30.6668 20.9091V29.6136C30.6668 29.7278 30.5677 29.8214 30.4425 29.8256L5.05836 30.6666M30.6668 20.9091L26.0435 19.6453C26.0218 19.6394 25.9992 19.6363 25.9766 19.6363L22.0943 19.9051M30.6668 20.9091L22.053 21.3372M5.05836 30.6666V22.1818M5.05836 30.6666L4.7883 30.5744M5.05836 22.1818L13.4393 21.7653M5.05836 22.1818L4.7883 22.0895M22.0943 19.9051L22.053 21.3372M22.0943 19.9051L22.2859 13.2727M21.8203 29.3939L22.053 21.3372M22.053 21.3372L13.4393 21.7653M22.2859 13.2727H13.4393M22.2859 13.2727L18.1312 12.0109C18.1075 12.0037 18.0826 12 18.0576 12H9.71445M13.4393 13.2727V21.7653M13.4393 13.2727L13.2952 13.2235M9.71445 12L9.24884 20.0606M9.71445 12L10.0177 12.1036M9.24884 20.0606L1.3335 20.9091M9.24884 20.0606L9.58937 20.1991M13.4393 21.7653V29.8182M13.4393 21.7653L13.0712 21.6155M1.3335 20.9091V29.2469C1.3335 29.3353 1.39369 29.4145 1.48456 29.4455L1.68575 29.5143M1.3335 20.9091L1.68575 21.0294M10.0177 12.1036L9.58937 20.1991M10.0177 12.1036L10.4043 12.2357M9.58937 20.1991L10.0318 20.3791M10.0318 20.3791L10.4043 12.2357M10.0318 20.3791L10.4292 20.5407M10.4043 12.2357L10.8492 12.3877M10.8492 12.3877L10.4292 20.5407M10.8492 12.3877L11.1113 12.4773M10.4292 20.5407L10.8171 20.6986M10.8171 20.6986L11.1113 12.4773M10.8171 20.6986L11.1515 20.8346M11.1113 12.4773L11.506 12.6121M11.506 12.6121L11.1515 20.8346M11.506 12.6121L11.8455 12.7281M11.1515 20.8346L11.4786 20.9677M11.4786 20.9677L11.8455 12.7281M11.4786 20.9677L11.7743 21.0879M11.8455 12.7281L12.1977 12.8485M12.1977 12.8485L11.7743 21.0879M12.1977 12.8485L12.5081 12.9545M11.7743 21.0879L12.0425 21.197M12.0425 21.197L12.5081 12.9545M12.0425 21.197L12.3775 21.3333M12.5081 12.9545L12.8629 13.0758M12.8629 13.0758L12.3775 21.3333M12.8629 13.0758L13.1511 13.1742M12.3775 21.3333L12.7031 21.4658M12.7031 21.4658L13.1511 13.1742M12.7031 21.4658L13.0712 21.6155M13.1511 13.1742L13.2952 13.2235M13.2952 13.2235L13.0712 21.6155M4.7883 30.5744V22.0895M4.7883 30.5744L4.5005 30.476M4.7883 22.0895L4.5005 21.9912M4.5005 21.9912V30.476M4.5005 21.9912L4.12715 21.8636M4.5005 30.476L4.12715 30.3485M4.12715 30.3485V21.8636M4.12715 30.3485L3.81674 30.2424M4.12715 21.8636L3.81674 21.7576M3.81674 21.7576V30.2424M3.81674 21.7576L3.41374 21.6199M3.81674 30.2424L3.41374 30.1047M3.41374 30.1047V21.6199M3.41374 30.1047L3.19593 30.0303M3.41374 21.6199L3.19593 21.5454M3.19593 21.5454V30.0303M3.19593 21.5454L2.84836 21.4267M3.19593 30.0303L2.84836 29.9115M2.84836 29.9115V21.4267M2.84836 29.9115L2.42704 29.7676M2.84836 21.4267L2.42704 21.2827M2.42704 21.2827V29.7676M2.42704 21.2827L2.03801 21.1498M2.42704 29.7676L2.03801 29.6346M2.03801 29.6346V21.1498M2.03801 29.6346L1.68575 29.5143M2.03801 21.1498L1.68575 21.0294M1.68575 21.0294V29.5143M17.2262 3.54613L19.6953 3.33431C19.9667 3.31103 20.1087 3.64157 19.9006 3.80442C18.9882 4.5185 17.9585 5.4757 18.1628 5.9095C18.4941 6.61278 19.6533 9.19148 18.9081 9.11333C18.1628 9.03519 16.3411 7.08163 15.8443 7.3942C15.3474 7.70677 13.3601 10.051 12.946 9.11333C12.532 8.17563 14.4366 6.53464 13.7741 5.9095C13.1117 5.28436 11.2071 4.26851 12.3664 4.03408C13.1584 3.87392 14.0068 3.81635 14.4783 3.80295C14.6004 3.79948 14.7068 3.72414 14.7401 3.61542C15.0674 2.54834 15.7176 0.865528 16.0927 1.45539C16.4391 2.0003 16.7688 2.86185 16.9391 3.36728C16.9777 3.48187 17.097 3.55721 17.2262 3.54613Z" stroke="black"/>
</svg>