<svg xmlns="http://www.w3.org/2000/svg" width="32" height="32" viewBox="0 0 32 32" fill="none">
<path d="M20.3748 26.6292V12.9174M20.3748 26.6292L25.4556 23.3209C25.8362 23.073 26.0661 22.6471 26.0661 22.1899V22.1821M20.3748 26.6292H18.6668M20.3748 26.6292C20.7321 26.6292 21.5082 26.5656 22.4884 26.429M20.3748 12.9174H6.14654M20.3748 12.9174L12.6509 3.65274M20.3748 12.9174L20.9784 12.6816M12.6509 3.65274L5.62049 12.5541C5.43461 12.7894 5.3335 13.0806 5.3335 13.3805V16.6666M12.6509 3.65274L13.2422 3.38322M26.0661 10.6939L18.9192 1.77842C18.5793 1.35437 17.9987 1.2152 17.5062 1.43969M26.0661 10.6939V22.1821M26.0661 10.6939L25.4112 10.9498M26.0661 22.1821C26.5155 22.1821 27.0371 22.1981 27.5643 22.2365M22.4884 26.429L27.5643 22.2365M22.4884 26.429C23.0499 26.3507 23.6784 26.2486 24.3335 26.1207M27.5643 22.2365C27.8323 22.256 28.1017 22.2814 28.3638 22.3135M28.3638 22.3135L24.3335 26.1207M28.3638 22.3135C28.7156 22.3565 29.0543 22.4115 29.3586 22.4808M24.3335 26.1207C24.8999 26.0101 25.4861 25.8804 26.0661 25.7303M26.0661 25.7303L29.3586 22.4808M26.0661 25.7303C26.7124 25.563 27.351 25.3705 27.9457 25.1512M29.3586 22.4808C29.6554 22.5482 29.9195 22.6292 30.1313 22.7255M30.1313 22.7255C30.7581 23.0105 30.9275 23.4302 30.1313 24.0351C29.5646 24.4656 28.8004 24.8361 27.9457 25.1512M30.1313 22.7255L27.9457 25.1512M13.2422 3.38322L20.9784 12.6816M13.2422 3.38322L13.8324 3.1142M20.9784 12.6816L21.6402 12.4231M21.6402 12.4231L13.8324 3.1142M21.6402 12.4231L22.3603 12.1417M13.8324 3.1142L14.5172 2.80207M14.5172 2.80207L22.3603 12.1417M14.5172 2.80207L15.2649 2.46126M22.3603 12.1417L23.182 11.8207M23.182 11.8207L15.2649 2.46126M23.182 11.8207L23.9534 11.5193M15.2649 2.46126L15.9684 2.14059M15.9684 2.14059L23.9534 11.5193M15.9684 2.14059L16.6701 1.82076M23.9534 11.5193L24.7562 11.2057M24.7562 11.2057L16.6701 1.82076M24.7562 11.2057L25.4112 10.9498M16.6701 1.82076L17.5062 1.43969M17.5062 1.43969L25.4112 10.9498M2.95702 26.6666V21.6698C2.95702 21.601 2.94274 21.533 2.93215 21.465C2.87786 21.1162 3.08409 20.5178 4.29386 20.2861C5.96492 19.9662 13.986 19.6463 14.3202 20.926C14.5875 21.9499 14.4316 25.0669 14.3202 26.6666M2.2886 28.2848C7.19036 28.0715 16.3253 27.645 15.9912 28.9247C15.5861 30.4767 14.3202 30.5244 13.3176 30.5244C12.3149 30.5244 3.29123 30.8444 2.62281 30.5244C1.95439 30.2045 0.283331 28.6047 2.2886 28.2848Z" stroke="black" stroke-linecap="round"/>
</svg>