<svg xmlns="http://www.w3.org/2000/svg" width="20" height="20" viewBox="0 0 20 20" fill="none">
<path d="M8.03302 6.71924C9.93313 6.45634 14.1534 6.16714 15.8335 7.1136M4.45069 7.51315C5.19631 7.6418 6.26018 7.56505 6.26018 7.1136V6.13618C6.26018 6.07832 6.25241 6.02546 6.23536 5.98066M4.45069 7.51315C4.2686 7.48174 4.16412 7.31077 4.17579 7.14087C4.19416 6.87341 4.18293 6.53605 4.16736 6.26798C4.15434 6.04402 4.38493 5.84691 4.62889 5.85416C5.06486 5.8671 5.63968 5.85017 5.98945 5.83376C6.12213 5.82754 6.19939 5.88614 6.23536 5.98066M4.45069 7.51315C5.0011 7.69213 6.16362 7.86278 6.41041 7.1136C6.43394 6.78507 6.43186 6.09854 6.23536 5.98066M8.03302 9.97706C9.93313 9.71415 14.1534 9.42496 15.8335 10.3714M4.45069 10.771C5.19631 10.8996 6.26018 10.8229 6.26018 10.3714V9.39399C6.26018 9.33614 6.25241 9.28327 6.23536 9.23848M4.45069 10.771C4.2686 10.7396 4.16412 10.5686 4.17579 10.3987C4.19416 10.1312 4.18293 9.79386 4.16736 9.52579C4.15434 9.30184 4.38493 9.10473 4.62889 9.11197C5.06486 9.12492 5.63968 9.10799 5.98945 9.09158C6.12213 9.08535 6.19939 9.14396 6.23536 9.23848M4.45069 10.771C4.96371 10.9588 6.06266 11.1968 6.35433 10.6467C6.39655 10.3955 6.43186 9.7622 6.23536 9.23848M8.03302 13.2349C9.93313 12.972 14.1534 12.6828 15.8335 13.6292M4.45069 14.0288C5.19631 14.1574 6.26018 14.0807 6.26018 13.6292V12.6518C6.26018 12.594 6.25241 12.5411 6.23536 12.4963M4.45069 14.0288C4.2686 13.9974 4.16412 13.8264 4.17579 13.6565C4.19416 13.389 4.18293 13.0517 4.16736 12.7836C4.15434 12.5597 4.38493 12.3625 4.62889 12.3698C5.06486 12.3827 5.63968 12.3658 5.98945 12.3494C6.12213 12.3432 6.19939 12.4018 6.23536 12.4963M4.45069 14.0288C4.96371 14.1621 6.35433 14.356 6.35433 13.741C6.35433 13.0534 6.23536 12.4963 6.23536 12.4963M17.6174 1.24354C14.5253 0.637613 4.86631 0.758861 2.0835 1.2436M18.7769 1.84954C18.9481 7.03987 19.2468 16.2865 19.1465 19.1666M18.3335 19.1666C17.1564 17.9846 6.2047 17.6889 3.85051 17.6889C1.49632 17.6889 0.891255 18.0674 1.20204 16.5068C1.45732 15.2251 1.27144 6.90122 0.833496 1.56655" stroke="black" stroke-linecap="round"/>
</svg>