<svg xmlns="http://www.w3.org/2000/svg" width="20" height="20" viewBox="0 0 20 20" fill="none">
<g clip-path="url(#clip0_49_40926)">
<path d="M13.5512 2.5C12.5456 2.1 11.365 1.875 9.99937 1.875C8.63375 1.875 7.4525 2.1 6.4475 2.5H3.94375C5.47187 1.31062 7.50312 0.625 10 0.625C12.4969 0.625 14.5269 1.31062 16.0562 2.5H13.5512ZM1.875 9.95V9.99937C1.875 12.2931 2.56625 14.3181 3.89687 15.7625C5.21937 17.1987 7.23 18.1237 9.99937 18.1237C12.7687 18.1237 14.7794 17.1987 16.1019 15.7625C17.4325 14.3181 18.1237 12.2937 18.1237 9.99937V9.95062C18.591 9.57655 18.9873 9.12163 19.2937 8.6075C19.3471 9.06417 19.3737 9.52812 19.3737 9.99937C19.3737 12.5375 18.6069 14.8869 17.0212 16.6094C15.4275 18.34 13.0644 19.3737 9.99937 19.3737C6.93437 19.3737 4.57062 18.34 2.97687 16.6094C1.39125 14.8875 0.625 12.5375 0.625 9.99937C0.625 9.52687 0.651667 9.06229 0.705 8.60562C1.01134 9.1202 1.40764 9.57556 1.875 9.95Z" fill="black"/>
<path d="M7.38375 11.5125C7.28613 11.3829 7.14197 11.2964 6.98171 11.2712C6.82146 11.246 6.65769 11.284 6.525 11.3774C6.39231 11.4707 6.30111 11.612 6.27067 11.7713C6.24023 11.9306 6.27293 12.0956 6.36187 12.2312L6.3625 12.2331L6.36375 12.2344L6.36562 12.2375L6.37187 12.2456C6.3916 12.2733 6.41245 12.3002 6.43437 12.3262C6.47437 12.3744 6.53 12.4381 6.60312 12.5112C6.74937 12.6581 6.96562 12.8456 7.26 13.03C7.85375 13.4019 8.74937 13.75 10 13.75C11.25 13.75 12.1456 13.4019 12.74 13.03C12.9774 12.8821 13.1975 12.7081 13.3963 12.5112C13.4738 12.4342 13.5463 12.3522 13.6131 12.2656L13.6213 12.255L13.6287 12.2456L13.6337 12.2375L13.6363 12.2344L13.6375 12.2331L13.6381 12.2319C13.7336 12.0964 13.7713 11.9285 13.743 11.7651C13.7147 11.6018 13.6227 11.4564 13.4872 11.3609C13.3517 11.2655 13.1838 11.2277 13.0205 11.256C12.8571 11.2843 12.7117 11.3764 12.6163 11.5119L12.6012 11.5306C12.573 11.5651 12.543 11.5981 12.5112 11.6294C12.4237 11.7169 12.2819 11.8419 12.0769 11.97C11.6725 12.2237 11.005 12.5 10 12.5C8.995 12.5 8.3275 12.2237 7.92312 11.97C7.7662 11.8728 7.62052 11.7586 7.48875 11.6294C7.45131 11.5925 7.41624 11.5538 7.38375 11.5125ZM6.875 3.125H3.125C2.46196 3.125 1.82607 3.38839 1.35723 3.85723C0.888392 4.32607 0.625 4.96196 0.625 5.625V6.04625C0.625144 6.85867 0.851496 7.655 1.2787 8.34603C1.7059 9.03705 2.31707 9.59548 3.04375 9.95875L3.62812 10.2519C4.06375 10.4677 4.53835 10.5937 5.02367 10.6224C5.50899 10.651 5.99511 10.5818 6.45312 10.4188C8.19437 9.79688 9.375 8.14062 9.375 6.29187V6.25C9.375 6.08424 9.44085 5.92527 9.55806 5.80806C9.67527 5.69085 9.83424 5.625 10 5.625C10.1658 5.625 10.3247 5.69085 10.4419 5.80806C10.5592 5.92527 10.625 6.08424 10.625 6.25V6.29187C10.625 8.14062 11.8056 9.79688 13.5469 10.4188C14.0049 10.5818 14.491 10.651 14.9763 10.6224C15.4617 10.5937 15.9362 10.4677 16.3719 10.2519L16.9569 9.95937C17.6835 9.59597 18.2946 9.03741 18.7217 8.34627C19.1488 7.65513 19.375 6.85871 19.375 6.04625V5.3125C19.375 4.73234 19.1445 4.17594 18.7343 3.7657C18.3241 3.35547 17.7677 3.125 17.1875 3.125H12.8125C12.11 3.125 11.485 3.45625 11.0844 3.97125V3.96875L11.0531 4C10.9337 4.12313 10.6894 4.3725 10.4625 4.37437H9.3725C9.145 4.3725 8.90125 4.12313 8.78125 4L8.75 3.96875V3.97062C8.51532 3.70475 8.22677 3.49185 7.90349 3.34605C7.58022 3.20025 7.22963 3.1249 6.875 3.125ZM7.74375 6.4175C7.37688 6.78375 6.68437 6.68437 6.19625 6.19625C5.70812 5.70812 5.60875 5.01563 5.97562 4.64938C6.34125 4.28375 7.03438 4.3825 7.5225 4.87063C8.01 5.35813 8.11 6.05125 7.74375 6.4175ZM17.5213 4.87063C18.01 5.35813 18.1087 6.05125 17.7425 6.4175C17.3762 6.78375 16.6837 6.68437 16.1956 6.19625C15.7081 5.70875 15.6081 5.01563 15.975 4.64938C16.3406 4.28375 17.0338 4.3825 17.5213 4.87063Z" fill="black"/>
</g>
<defs>
<clipPath id="clip0_49_40926">
<rect width="20" height="20" fill="white"/>
</clipPath>
</defs>
</svg>