<svg xmlns="http://www.w3.org/2000/svg" width="20" height="20" viewBox="0 0 20 20" fill="none">
<path d="M0.984232 6.46055C0.192546 10.2359 2.69663 11.3413 4.36903 11.2327C4.53478 11.2219 4.66969 11.3822 4.60813 11.5444C4.29506 12.3696 3.52273 13.6508 2.16495 14.1169C0.590557 14.6574 1.37775 15.8433 1.96815 16.3688C2.98026 17.2695 6.59416 16.3089 8.46253 10.9643C11.2177 3.08286 2.16478 0.830816 0.984232 6.46055Z" stroke="black" stroke-linecap="round"/>
<path d="M11.1694 6.46055C10.3777 10.2359 12.8818 11.3413 14.5542 11.2327C14.72 11.2219 14.8549 11.3822 14.7933 11.5444C14.4802 12.3696 13.7079 13.6508 12.3501 14.1169C10.7757 14.6574 11.5629 15.8433 12.1533 16.3688C13.1654 17.2695 16.7793 16.3089 18.6477 10.9643C21.4029 3.08286 12.35 0.830816 11.1694 6.46055Z" stroke="black" stroke-linecap="round"/>
</svg>