<svg xmlns="http://www.w3.org/2000/svg" width="20" height="20" viewBox="0 0 20 20" fill="none">
<g clip-path="url(#clip0_49_40872)">
<path d="M15.3124 7.03123C15.3124 7.56995 15.0984 8.0866 14.7175 8.46754C14.3366 8.84847 13.8199 9.06248 13.2812 9.06248C12.7425 9.06248 12.2258 8.84847 11.8449 8.46754C11.4639 8.0866 11.2499 7.56995 11.2499 7.03123C11.2499 6.4925 11.4639 5.97585 11.8449 5.59492C12.2258 5.21398 12.7425 4.99998 13.2812 4.99998C13.8199 4.99998 14.3366 5.21398 14.7175 5.59492C15.0984 5.97585 15.3124 6.4925 15.3124 7.03123Z" fill="white"/>
<path d="M19.1106 4.37935L19.0899 4.43248L19.0837 4.45623L19.0343 4.6231C18.9918 4.76685 18.9274 4.97248 18.8418 5.2281C18.6119 5.91192 18.3525 6.58547 18.0643 7.24685C17.3724 8.83498 16.3043 10.8294 14.8168 12.3169C13.3806 13.7531 12.2981 14.5606 11.2462 15.1369C11.1412 15.1944 11.0362 15.2496 10.9312 15.3025L9.93056 18.0225C9.89437 18.121 9.83395 18.2088 9.75488 18.2778C9.67582 18.3468 9.58065 18.3948 9.47815 18.4173C9.37565 18.4399 9.26913 18.4363 9.1684 18.4068C9.06768 18.3773 8.97599 18.323 8.90181 18.2487L7.33743 16.6844L7.32306 16.6987C7.22454 16.7972 7.10532 16.8724 6.97407 16.919C6.84283 16.9656 6.70285 16.9824 6.56431 16.9681C6.55391 17.0039 6.54244 17.0393 6.52993 17.0744L6.52618 17.0856C6.22681 17.9669 5.48056 18.5281 4.85618 18.8325C4.56364 18.9767 4.25352 19.0822 3.93368 19.1462C3.79743 19.1712 3.65181 19.1862 3.51243 19.1787C3.41431 19.1725 3.15306 19.1506 2.95118 18.9487C2.93391 18.9318 2.91763 18.9138 2.90243 18.895C2.71493 18.9781 2.46493 19.0675 2.22431 19.1256C2.08056 19.16 1.90931 19.1912 1.74306 19.1925C1.61806 19.1937 1.30743 19.1837 1.07243 18.9487C0.900559 18.7769 0.819309 18.5519 0.776184 18.3912C0.727733 18.1972 0.698013 17.999 0.687434 17.7994C0.664979 17.3246 0.702781 16.849 0.799934 16.3837C0.901809 15.8862 1.07681 15.3587 1.35243 14.9006C1.62743 14.4412 2.02556 14.0169 2.58056 13.7944H2.58243L2.58493 13.7925L2.59181 13.79L2.61306 13.7825C2.63014 13.7758 2.65285 13.7677 2.68118 13.7581C2.96224 13.665 3.25277 13.6034 3.54743 13.5744C3.59259 13.4124 3.68045 13.2657 3.80181 13.1494L1.94056 11.2875C1.86647 11.2133 1.81224 11.1216 1.78285 11.021C1.75347 10.9203 1.74988 10.8139 1.77241 10.7115C1.79495 10.6091 1.84288 10.514 1.9118 10.435C1.98072 10.356 2.06842 10.2956 2.16681 10.2594L4.60056 9.36373C4.63556 9.28998 4.67181 9.21602 4.70931 9.14185C5.24493 8.08935 6.06618 6.9956 7.69993 5.47935C9.36493 3.93373 11.3587 2.81123 12.9193 2.07873C13.5586 1.77841 14.2098 1.50402 14.8712 1.25623C15.1134 1.16594 15.3574 1.0805 15.6031 0.999976L15.6456 0.986226H15.6468L15.6543 0.983101L15.7168 0.961851C15.7697 0.944351 15.841 0.923726 15.9306 0.899976C16.1074 0.854351 16.3556 0.803101 16.6406 0.782476C17.1974 0.741226 17.9924 0.808101 18.6418 1.37123C19.3406 1.97748 19.3981 2.83373 19.3393 3.40623C19.3034 3.73878 19.2266 4.06563 19.1106 4.37935ZM14.5443 2.72748C14.2162 2.8631 13.8474 3.02373 13.4506 3.20998C11.9506 3.91435 10.0837 4.97185 8.55056 6.3956C6.98556 7.8481 6.27181 8.82685 5.82368 9.7081C5.59618 10.1556 5.42993 10.5912 5.25493 11.0825L5.15431 11.365C5.10764 11.4983 5.05848 11.6362 5.00681 11.7787L8.48806 10.4975C9.23868 10.2212 9.96806 10.9506 9.69181 11.7012L8.47868 14.9981L8.54118 14.9731C9.31868 14.6675 9.96243 14.4144 10.6462 14.0406C11.5674 13.5362 12.5568 12.8094 13.9331 11.4331C15.2581 10.1081 16.2512 8.27998 16.9181 6.7481C17.0999 6.3306 17.2556 5.9381 17.3868 5.58998L14.5443 2.72748ZM5.40556 16.1062L4.11806 14.8187C3.99828 14.806 3.87764 14.8035 3.75743 14.8112C3.51549 14.8274 3.27676 14.8755 3.04743 14.9544L3.04243 14.9562C2.81743 15.0469 2.60681 15.2394 2.42368 15.5437C2.24056 15.8494 2.10618 16.2331 2.02368 16.635C1.94858 16.9934 1.91876 17.3598 1.93493 17.7256C1.9391 17.7931 1.94473 17.8529 1.95181 17.905C2.14556 17.8569 2.34993 17.7769 2.45056 17.7269L2.60493 17.6481C2.72743 17.5844 2.85368 17.5194 2.94368 17.4825C3.01618 17.4531 3.14868 17.4037 3.30743 17.4037C3.45068 17.4039 3.59082 17.4455 3.711 17.5235C3.83119 17.6014 3.92631 17.7124 3.98493 17.8431C4.08493 17.8087 4.19493 17.7644 4.30868 17.7094C4.78806 17.475 5.19868 17.115 5.34431 16.6775L5.35056 16.6594L5.35493 16.6481L5.35618 16.645L5.35931 16.6356C5.36514 16.6189 5.37264 16.5902 5.38181 16.5494C5.41367 16.4039 5.42169 16.2542 5.40556 16.1062ZM3.58306 17.9312C3.56931 17.9291 3.57098 17.9291 3.58806 17.9312H3.58306Z" fill="white"/>
</g>
<defs>
<clipPath id="clip0_49_40872">
<rect width="20" height="20" fill="white"/>
</clipPath>
</defs>
</svg>