<svg xmlns="http://www.w3.org/2000/svg" width="500" height="500" viewBox="0 0 500 500" fill="none">
<mask id="mask0_20_23259" style="mask-type:luminance" maskUnits="userSpaceOnUse" x="19" y="73" width="462" height="354">
<path d="M480.208 73.9583H19.7916V426.562H480.208V73.9583Z" fill="white"/>
</mask>
<g mask="url(#mask0_20_23259)">
<path fill-rule="evenodd" clip-rule="evenodd" d="M274.302 373.213C286.877 365.765 286.18 358.53 286.18 358.53C292.405 359.658 298.527 359.712 304.021 358.222L304.025 358.217C311.023 356.321 317.007 351.905 320.882 343.989C327.172 331.136 340.643 292.95 346.126 272.739C347.794 266.577 348.724 262.089 348.477 260.495C348.061 257.797 347.592 255.145 346.617 252.858V252.854C345.142 249.37 342.499 246.722 337.124 245.99C336.762 245.94 336.394 245.89 336.02 245.838C331.187 245.171 325.463 244.38 320.451 245.074C316.318 245.648 312.67 247.227 310.399 250.711C305.156 258.748 302.708 261.811 302.708 261.811C293.77 245.174 279.23 237.819 271.346 234.914C269.552 234.23 267.713 233.671 265.843 233.241C272.58 242.283 276.999 256.115 260.791 271.323C232.498 297.874 195.816 291.584 195.816 291.584C195.816 291.584 144.114 291.584 159.134 248.266C158.538 247.543 157.989 246.783 157.491 245.989C157.491 245.989 147.652 254.11 141.848 273.787C138.789 284.151 136.849 297.716 138.057 314.992L138.061 315.101C139.509 315.029 141.061 314.992 142.719 314.992C152.447 314.992 163.279 314.756 174.037 314.522C195.337 314.058 216.35 313.6 227.955 314.992C245.42 317.087 245.771 343.638 245.771 343.638L250.987 375.94C250.987 375.94 261.726 380.661 274.302 373.213ZM279.065 244.914C278.701 244.682 278.218 244.79 277.986 245.154C277.755 245.518 277.862 246.001 278.226 246.232C286.671 251.606 303.481 268.778 302.864 294.252C302.854 294.683 303.196 295.042 303.627 295.052C304.058 295.062 304.417 294.721 304.427 294.29C305.06 268.097 287.808 250.477 279.065 244.914Z" fill="black" fill-opacity="0.15"/>
<path fill-rule="evenodd" clip-rule="evenodd" d="M275.465 202.157C282.102 180.847 267.779 173.508 267.779 173.508C267.779 173.508 280.005 142.066 254.854 125.996C229.703 109.927 205.948 143.115 205.948 143.115C205.948 143.115 190.576 131.584 175.556 144.862C160.536 158.14 166.123 181.895 172.76 194.47C172.76 194.47 152.147 195.866 150.752 216.479C150.436 220.894 150.65 225.332 151.39 229.697L151.395 229.702C152.333 235.48 154.405 241.016 157.492 245.99C157.99 246.783 158.539 247.543 159.135 248.266C144.115 291.584 195.817 291.584 195.817 291.584C195.817 291.584 232.499 297.875 260.792 271.324C276.999 256.116 272.58 242.283 265.844 233.241H265.839C262.662 229.052 258.836 225.398 254.506 222.418C254.506 222.418 268.828 223.468 275.465 202.157ZM242.089 126.059C241.667 125.969 241.252 126.239 241.163 126.661C241.073 127.083 241.343 127.498 241.765 127.587C247.561 128.814 255.525 132.681 260.554 140.256C265.555 147.792 267.742 159.132 261.766 175.514L261.579 176.027L261.997 176.379C265.449 179.284 269.397 184.608 270.069 191.103C270.735 197.534 268.206 205.299 258.365 213.193C258.029 213.462 257.975 213.954 258.245 214.291C258.514 214.628 259.006 214.681 259.343 214.411C269.503 206.263 272.355 198.012 271.623 190.942C270.925 184.196 266.981 178.694 263.417 175.541C269.298 159.065 267.134 147.344 261.855 139.392C256.549 131.399 248.185 127.349 242.089 126.059Z" fill="black"/>
<path d="M387.484 140.557L388.42 210.248L290.138 205.997V140.557H387.484Z" fill="black"/>
<path d="M304.02 358.223C303.812 358.679 290.292 387.729 280.121 397.202C269.877 406.753 255.194 402.022 255.194 402.022L250.989 375.941C250.989 375.941 261.728 380.667 274.304 373.213C286.879 365.76 286.181 358.53 286.181 358.53C292.405 359.658 298.527 359.713 304.02 358.223Z" fill="black"/>
<path d="M169.661 136.39C171.309 140.092 163.782 147.03 152.854 151.895C141.926 156.759 131.732 157.7 130.084 153.998C129.055 151.687 131.356 148.757 136.082 145.214L136.117 145.179L140.224 149.867C140.224 149.867 152.191 149.258 158.313 141.819C159.862 139.934 160.51 137.415 160.609 134.703C165.652 133.926 168.721 134.277 169.661 136.39Z" fill="black" fill-opacity="0.15"/>
<path d="M160.609 134.702C160.51 137.415 159.862 139.933 158.313 141.819C152.191 149.257 140.224 149.866 140.224 149.866L136.117 145.179L134.058 142.835L127.756 135.644L124.266 131.66C124.949 132.328 126.162 132.69 127.756 132.759C131.297 132.915 136.723 131.651 142.405 129.121C148.086 126.592 152.659 123.41 154.911 120.673C156.034 119.308 156.584 118.051 156.4 117.046L156.465 117.036C156.465 117.036 160.911 126.705 160.609 134.702Z" fill="black" fill-opacity="0.15"/>
<path d="M124.271 131.659C124.076 131.48 123.922 131.262 123.815 131.02C122.509 128.085 128.715 122.468 137.673 118.484C146.631 114.501 154.959 113.644 156.267 116.584C156.332 116.731 156.379 116.885 156.405 117.044C156.588 118.049 156.04 119.306 154.915 120.672C149.83 120.972 144.818 122.028 140.044 123.805C132.712 126.66 127.76 132.76 127.76 132.76C126.164 132.688 124.952 132.327 124.271 131.659Z" fill="black" fill-opacity="0.15"/>
<path d="M140.041 123.805C144.815 122.029 149.828 120.972 154.913 120.672C152.661 123.409 148.09 126.592 142.407 129.12C136.723 131.649 131.302 132.917 127.76 132.76C127.76 132.76 132.712 126.661 140.041 123.805Z" fill="black"/>
<path d="M151.389 229.698C150.649 225.333 150.435 220.895 150.751 216.48C152.146 195.867 172.759 194.471 172.759 194.471C166.122 181.896 160.535 158.141 175.555 144.863C190.575 131.585 205.947 143.116 205.947 143.116C205.947 143.116 229.702 109.928 254.853 125.997C280.004 142.067 267.78 173.508 267.78 173.508C267.78 173.508 282.102 180.847 275.465 202.157C268.828 223.468 254.507 222.418 254.507 222.418C258.837 225.398 262.663 229.052 265.839 233.241" stroke="black" stroke-linecap="round" stroke-linejoin="round"/>
<path d="M265.844 233.242C272.58 242.284 276.999 256.116 260.792 271.324C232.499 297.875 195.817 291.585 195.817 291.585C195.817 291.585 144.115 291.585 159.135 248.267C158.539 247.544 157.99 246.784 157.492 245.99C154.405 241.017 152.333 235.481 151.395 229.703" stroke="black" stroke-linecap="round" stroke-linejoin="round"/>
<path d="M157.491 245.989C157.491 245.989 147.653 254.11 141.848 273.788C138.789 284.152 136.848 297.716 138.057 314.992" stroke="black" stroke-linecap="round" stroke-linejoin="round"/>
<path d="M265.839 233.242H265.844C267.715 233.672 269.554 234.231 271.347 234.915C279.231 237.82 293.771 245.175 302.709 261.813C307.198 270.166 310.281 280.856 310.4 294.501" stroke="black" stroke-linecap="round" stroke-linejoin="round"/>
<path d="M346.614 252.855C345.139 249.371 342.496 246.723 337.122 245.991C332.074 245.303 325.848 244.328 320.448 245.075C316.316 245.648 312.669 247.228 310.396 250.712C305.158 258.75 302.708 261.812 302.708 261.812" stroke="black" stroke-linecap="round" stroke-linejoin="round"/>
<path d="M304.025 358.218C311.023 356.322 317.007 351.908 320.882 343.99C327.172 331.137 340.643 292.951 346.126 272.74C347.793 266.578 348.724 262.09 348.477 260.496C348.06 257.798 347.592 255.146 346.617 252.859" stroke="black" stroke-linecap="round" stroke-linejoin="round"/>
<path d="M263.414 300.671C263.414 300.671 261.494 351.324 278.261 356.565C280.857 357.382 283.501 358.039 286.178 358.53C292.404 359.658 298.525 359.713 304.019 358.223" stroke="black" stroke-linecap="round" stroke-linejoin="round"/>
<path d="M272.164 425.41C233.666 425.316 146.767 418.457 140.62 407.916C133.286 395.34 118.261 326.173 118.261 326.173C118.261 326.173 114.227 316.235 138.061 315.104C139.507 315.03 141.059 314.994 142.719 314.995C171.71 314.995 210.49 312.897 227.955 314.995C245.419 317.093 245.771 343.641 245.771 343.641L250.987 375.943L255.194 402.024L257.121 413.976C257.121 413.976 260.042 424.965 272.161 425.412" stroke="black" stroke-linecap="round" stroke-linejoin="round"/>
<path d="M272.164 425.41H272.204" stroke="black" stroke-linecap="round" stroke-linejoin="round"/>
<path d="M323.792 344.336C323.792 344.336 352.75 344.688 348.517 350.972C344.283 357.257 306.017 421.54 288.12 424.683C285.229 425.192 279.617 425.425 272.204 425.412" stroke="black" stroke-linecap="round" stroke-linejoin="round"/>
<path d="M137.096 299.969H50.4893L122.106 106.439L479.13 118.317L414.501 314.059L338.697 310.099" stroke="black" stroke-linecap="round" stroke-linejoin="round"/>
<path d="M343.469 242.095C343.474 242.085 343.481 242.075 343.489 242.066C343.514 242.011 343.593 241.867 343.706 241.649C343.746 241.57 343.791 241.486 343.84 241.392C345.879 237.581 355.712 219.666 359.771 221.017C364.274 222.516 346.906 252.364 346.617 252.854V252.858" stroke="black" stroke-linecap="round" stroke-linejoin="round"/>
<path d="M336.95 239.883C336.951 239.879 336.953 239.876 336.956 239.873V239.869C336.958 239.86 336.961 239.852 336.966 239.844C336.972 239.83 336.977 239.815 336.98 239.799C337.564 238.265 345.972 216.296 350.808 217.643C355.292 218.893 345.854 237.523 343.839 241.393" stroke="black" stroke-linecap="round" stroke-linejoin="round"/>
<path d="M320.411 244.807C320.411 244.807 306.906 241.63 308.767 236.043C310.628 230.455 328.681 239.185 328.681 239.185C328.681 239.185 334.619 215.197 339.742 215.895C344.686 216.568 337.495 238.259 336.982 239.802" stroke="black" stroke-linecap="round" stroke-linejoin="round"/>
<path d="M346.121 272.74H346.126H371.415L393.542 215.881V135.198L285.946 136.831L286.877 210.249L271.347 234.915" stroke="black" stroke-linecap="round" stroke-linejoin="round"/>
<path d="M286.878 210.249L393.543 215.881" stroke="black" stroke-linecap="round" stroke-linejoin="round"/>
<path d="M290.138 140.557V205.997L388.42 210.248L387.484 140.557H290.138Z" stroke="black" stroke-linecap="round" stroke-linejoin="round"/>
<path d="M151.394 229.703L151.389 229.698L141.318 210.249L97.7671 224.863L110.11 283.553L141.848 273.789" stroke="black" stroke-linecap="round" stroke-linejoin="round"/>
<path d="M124.271 131.659C124.076 131.48 123.922 131.262 123.815 131.02C122.509 128.085 128.715 122.468 137.673 118.484C146.631 114.501 154.959 113.644 156.267 116.584C156.332 116.731 156.379 116.885 156.405 117.044C156.588 118.049 156.04 119.306 154.915 120.672C152.663 123.409 148.093 126.591 142.409 129.12C136.726 131.648 131.302 132.916 127.76 132.76C126.164 132.688 124.952 132.327 124.271 131.659Z" stroke="black" stroke-linecap="round" stroke-linejoin="round"/>
<path d="M124.08 131.446L124.268 131.659L127.758 135.643L134.06 142.833L136.119 145.177L140.226 149.865C140.226 149.865 152.193 149.256 158.315 141.817C159.864 139.932 160.512 137.413 160.611 134.701C160.913 126.703 156.469 117.033 156.469 117.033" stroke="black" stroke-linecap="round" stroke-linejoin="round"/>
<path d="M160.573 134.708C160.583 134.708 160.598 134.703 160.608 134.703C165.65 133.926 168.719 134.277 169.659 136.391C171.307 140.092 163.78 147.031 152.853 151.895C141.925 156.76 131.73 157.7 130.082 153.999C129.053 151.687 131.354 148.758 136.081 145.215" stroke="black" stroke-linecap="round" stroke-linejoin="round"/>
<path d="M127.76 135.643C127.76 135.643 123.673 139.008 126.686 142.641C129.7 146.273 134.06 142.833 134.06 142.833" stroke="black" stroke-linecap="round" stroke-linejoin="round"/>
<path d="M127.76 132.76C127.76 132.76 132.715 126.663 140.044 123.807C144.818 122.031 149.83 120.974 154.916 120.674" stroke="black" stroke-linecap="round" stroke-linejoin="round"/>
<path d="M110.575 233.711L135.731 226.026" stroke="black" stroke-linecap="round" stroke-linejoin="round"/>
<path d="M114.767 244.808L142.353 235.578" stroke="black" stroke-linecap="round" stroke-linejoin="round"/>
<path d="M121.29 255.839C122.22 255.373 144.347 248.153 144.347 248.153" stroke="black" stroke-linecap="round" stroke-linejoin="round"/>
<path d="M255.194 402.022C255.194 402.022 269.878 406.753 280.122 397.202C290.292 387.729 303.813 358.679 304.021 358.223L304.025 358.218" stroke="black" stroke-linecap="round" stroke-linejoin="round"/>
<path d="M250.989 375.94C250.989 375.94 261.728 380.666 274.304 373.213C286.879 365.76 286.181 358.53 286.181 358.53" stroke="black" stroke-linecap="round" stroke-linejoin="round"/>
<path d="M345.115 297.998C347.713 292.558 349.414 286.732 350.152 280.748" stroke="black" stroke-linecap="round" stroke-linejoin="round"/>
<path d="M161.424 187.344C159.398 181.108 158.917 174.474 160.021 168.011" stroke="black" stroke-linecap="round" stroke-linejoin="round"/>
<path d="M137.019 112.658C134.786 111.094 132.991 108.984 131.803 106.531C130.615 104.077 130.074 101.36 130.231 98.638C130.495 94.8187 132.148 91.1698 132.182 87.3417C132.163 84.6932 131.382 82.1062 129.933 79.8891C128.484 77.6719 126.428 75.9187 124.01 74.838" stroke="black" stroke-linecap="round" stroke-linejoin="round"/>
<path d="M128.172 115.029C125.33 113.487 123.912 110.145 123.536 106.934C123.16 103.723 123.619 100.472 123.474 97.2422C123.329 94.0125 122.446 90.5885 119.995 88.4807" stroke="black" stroke-linecap="round" stroke-linejoin="round"/>
<path d="M272.78 133.286C270.393 128.019 266.313 123.699 261.191 121.016" stroke="black" stroke-linecap="round" stroke-linejoin="round"/>
<path d="M336.622 271.669L335.219 265.033" stroke="black" stroke-linecap="round" stroke-linejoin="round"/>
<path d="M315.638 262.242C317.015 260.923 318.695 259.964 320.53 259.447" stroke="black" stroke-linecap="round" stroke-linejoin="round"/>
<path d="M321.543 285.94L326.092 283.158" stroke="black" stroke-linecap="round" stroke-linejoin="round"/>
<path d="M328.215 304.513L326.468 298.224" stroke="black" stroke-linecap="round" stroke-linejoin="round"/>
<path d="M308.302 310.104L312.844 307.659" stroke="black" stroke-linecap="round" stroke-linejoin="round"/>
<path d="M315.706 330.698L314.287 324.065" stroke="black" stroke-linecap="round" stroke-linejoin="round"/>
<path d="M296.42 336.292L302.005 333.14" stroke="black" stroke-linecap="round" stroke-linejoin="round"/>
<path d="M281.753 347.83C281.291 345.448 280.339 343.188 278.958 341.193" stroke="black" stroke-linecap="round" stroke-linejoin="round"/>
<path d="M290.553 321.242L287.74 316.36" stroke="black" stroke-linecap="round" stroke-linejoin="round"/>
<path d="M271.972 305.211L276.164 302.416" stroke="black" stroke-linecap="round" stroke-linejoin="round"/>
<path d="M291.949 284.561L289.486 280.379" stroke="black" stroke-linecap="round" stroke-linejoin="round"/>
<path d="M277.212 263.989L281.933 261.519L281.055 261.543" stroke="black" stroke-linecap="round" stroke-linejoin="round"/>
<path d="M258.04 292.239L254.186 288.76" stroke="black" stroke-linecap="round" stroke-linejoin="round"/>
<path d="M259.075 359.025L262.212 353.431" stroke="black" stroke-linecap="round" stroke-linejoin="round"/>
<path d="M253.437 335.269C252.873 334.501 252.155 333.858 251.33 333.381C250.504 332.904 249.589 332.604 248.642 332.498L249.616 331.76" stroke="black" stroke-linecap="round" stroke-linejoin="round"/>
<path d="M238.437 306.259L241.581 302.416" stroke="black" stroke-linecap="round" stroke-linejoin="round"/>
<path d="M213.651 305.531C212.25 304.587 211.131 303.282 210.409 301.755" stroke="black" stroke-linecap="round" stroke-linejoin="round"/>
<path d="M177.301 309.053L181.842 304.162" stroke="black" stroke-linecap="round" stroke-linejoin="round"/>
<path d="M164.049 298.539C162.687 297.637 161.662 296.309 161.136 294.763" stroke="black" stroke-linecap="round" stroke-linejoin="round"/>
<path d="M144.114 305.21L146.909 302.066" stroke="black" stroke-linecap="round" stroke-linejoin="round"/>
<path d="M150.401 280.757L147.956 276.915" stroke="black" stroke-linecap="round" stroke-linejoin="round"/>
<path d="M201.786 126.678L198.309 121.427" stroke="black" stroke-linecap="round" stroke-linejoin="round"/>
<path d="M196.8 126.628L202.324 121.665" stroke="black" stroke-linecap="round" stroke-linejoin="round"/>
<path d="M236.339 100.497C237.728 98.7036 239.524 97.2666 241.579 96.3052" stroke="black" stroke-linecap="round" stroke-linejoin="round"/>
<path d="M240.266 100.788L235.341 93.736C235.383 93.8245 235.447 93.9011 235.527 93.9578C235.607 94.0146 235.7 94.05 235.798 94.0604C235.895 94.0714 235.994 94.0563 236.084 94.0177C236.174 93.9792 236.254 93.9177 236.313 93.8401" stroke="black" stroke-linecap="round" stroke-linejoin="round"/>
<path d="M363.137 232.187C364.115 230.974 364.837 229.577 365.262 228.077C365.686 226.578 365.803 225.008 365.606 223.463" stroke="black" stroke-linecap="round" stroke-linejoin="round"/>
<path d="M303.432 233.26C304.168 232.179 305.153 231.291 306.305 230.671C307.456 230.05 308.739 229.716 310.047 229.696" stroke="black" stroke-linecap="round" stroke-linejoin="round"/>
<path d="M29.2007 286.559C26.0457 294.329 24.5817 302.681 24.9063 311.06C25.2309 319.44 27.3365 327.654 31.0831 335.156C34.8296 342.659 40.1312 349.277 46.6349 354.571C53.1384 359.864 60.6952 363.712 68.802 365.857C73.8114 367.183 79.1629 367.836 84.1499 366.43C89.1369 365.024 93.6786 361.215 94.8108 356.158C95.9431 351.102 92.7567 345.137 87.6535 344.237C82.0905 343.257 77.214 348.007 74.1791 352.771C68.6291 361.485 65.964 373.946 73.0108 381.501C79.365 388.316 91.5114 388.698 95.7223 397.011C96.6947 398.931 97.1051 401.086 96.9062 403.229C96.7072 405.372 95.9072 407.415 94.5983 409.122C93.289 410.83 91.5244 412.133 89.5072 412.882C87.4895 413.631 85.302 413.795 83.1957 413.354" stroke="black" stroke-linecap="round" stroke-linejoin="round"/>
<path d="M386.912 413.484C383.46 414.942 379.271 413.352 376.839 410.501C374.408 407.65 373.448 403.819 373.114 400.084C372.21 389.974 375.358 379.919 381.865 372.129C388.372 364.339 397.706 359.452 407.815 358.541C412.138 358.152 417.268 358.953 419.335 362.768C421.854 367.418 417.031 373.689 411.751 373.372C406.472 373.056 402.467 367.615 402.585 362.328C402.703 357.041 406.136 352.261 410.474 349.236C414.812 346.211 419.986 344.664 425.093 343.288C430.199 341.912 435.408 340.635 440.021 338.049C452.313 331.156 458.076 314.545 452.693 301.521" stroke="black" stroke-linecap="round" stroke-linejoin="round"/>
<path d="M430.572 321.805L437.384 317.612" stroke="black" stroke-linecap="round" stroke-linejoin="round"/>
<path d="M435.781 323.393L431.103 314.465" stroke="black" stroke-linecap="round" stroke-linejoin="round"/>
<path d="M364.023 379.445L370.833 376.302" stroke="black" stroke-linecap="round" stroke-linejoin="round"/>
<path d="M367.687 382.067C366.437 379.458 365.901 376.565 366.133 373.682" stroke="black" stroke-linecap="round" stroke-linejoin="round"/>
<path d="M99.9224 383.113L105.162 379.969" stroke="black" stroke-linecap="round" stroke-linejoin="round"/>
<path d="M102.448 385.763L99.7645 376.875" stroke="black" stroke-linecap="round" stroke-linejoin="round"/>
<path d="M20.7966 352.721L27.0831 347.481" stroke="black" stroke-linecap="round" stroke-linejoin="round"/>
<path d="M25.2268 353.557C23.3492 351.437 22.2199 348.758 22.0127 345.934" stroke="black" stroke-linecap="round" stroke-linejoin="round"/>
<path d="M203.62 97.9989L200.781 91.7318" stroke="black" stroke-linecap="round" stroke-linejoin="round"/>
<path d="M198.245 96.6224L206.494 92.512" stroke="black" stroke-linecap="round" stroke-linejoin="round"/>
<g opacity="0.1">
<path d="M129.75 136.1C130.644 138.562 132.443 140.09 134.287 141.855C136.158 143.644 137.95 145.529 139.674 147.458C142.549 150.675 147.267 145.931 144.405 142.728C142.597 140.699 140.652 138.798 138.583 137.036C136.504 135.271 134.534 133.731 131.728 133.504C131.412 133.506 131.102 133.58 130.82 133.721C130.537 133.862 130.292 134.066 130.1 134.316C129.909 134.567 129.778 134.858 129.717 135.168C129.656 135.477 129.667 135.796 129.749 136.1H129.75Z" fill="black"/>
</g>
<g opacity="0.1">
<path d="M256.266 408.415C258.747 410.195 262.561 409.892 265.445 409.579C268.46 409.229 271.416 408.482 274.236 407.358C280.382 404.958 285.947 400.986 290.59 396.333C300.4 386.505 306.011 373.509 311.397 360.945C312.219 359.028 311.952 356.857 310.022 355.701C308.421 354.741 305.586 355.173 304.778 357.076C299.905 368.537 294.922 380.495 286.488 389.867C282.597 394.237 277.896 397.813 272.645 400.396C270.071 401.639 267.368 402.596 264.586 403.249C261.885 403.898 258.753 403.778 256.264 405.042C254.845 405.763 255.161 407.624 256.264 408.415H256.266Z" fill="black"/>
</g>
<g opacity="0.1">
<path d="M123.847 319.195C121.538 321.449 120.59 324.918 120.229 328.007C119.801 331.67 120.563 335.385 121.205 338.997C122.622 346.959 124.474 354.815 126.428 362.66C130.329 378.323 134.997 393.799 140.102 409.109C141.813 414.24 149.968 412.045 148.248 406.864C143.422 392.333 139.148 377.648 135.158 362.869C133.186 355.565 131.467 348.196 129.504 340.89C128.601 337.531 127.618 334.16 127.044 330.724C126.741 328.909 126.563 327.122 126.32 325.307C126.197 324.392 125.829 323.616 125.851 322.666C125.873 321.792 126.085 321 126.054 320.114C126.046 319.861 125.967 319.616 125.823 319.408C125.68 319.199 125.479 319.037 125.246 318.94C125.012 318.843 124.756 318.816 124.507 318.863C124.258 318.908 124.028 319.025 123.845 319.199L123.847 319.195Z" fill="black"/>
</g>
</g>
</svg>