<svg xmlns="http://www.w3.org/2000/svg" width="500" height="500" viewBox="0 0 500 500" fill="none">
<g clip-path="url(#clip0_20_20763)">
<mask id="mask0_20_20763" style="mask-type:luminance" maskUnits="userSpaceOnUse" x="0" y="0" width="500" height="500">
<path d="M500 0H0V500H500V0Z" fill="white"/>
</mask>
<g mask="url(#mask0_20_20763)">
<mask id="mask1_20_20763" style="mask-type:luminance" maskUnits="userSpaceOnUse" x="64" y="19" width="373" height="462">
<path d="M436.458 19.7917H64.0625V480.729H436.458V19.7917Z" fill="white"/>
</mask>
<g mask="url(#mask1_20_20763)">
<path fill-rule="evenodd" clip-rule="evenodd" d="M279.743 409.635L300.481 274.958L300.136 274.912C299.835 276.843 298.45 280.654 292.243 281.306C284.902 282.078 283.297 275.758 283.009 274.153L282.62 274.229L262.208 410.687L261.87 411.828L263.97 412.453L272.333 414.948L280.363 410.858L279.743 409.635ZM292.754 286.656C292.796 286.138 292.411 285.684 291.894 285.642C291.376 285.599 290.922 285.984 290.88 286.502C287.713 325.128 282.419 363.549 275.022 401.592C274.923 402.102 275.256 402.595 275.766 402.694C276.276 402.793 276.769 402.46 276.869 401.951C284.278 363.84 289.582 325.35 292.754 286.656Z" fill="black" fill-opacity="0.15"/>
<path d="M367.905 235.902L374.55 232.184L369.096 262.84C364.005 262.57 360.093 283.616 359.949 293.471L359.955 293.502C355.11 294.602 350.428 296.326 346.025 298.63C344.233 299.577 342.446 300.649 341.173 302.229C339.901 303.808 339.236 306.009 339.932 307.915C340.628 309.821 343.486 311.401 345.348 310.585L345.38 310.642C345.235 310.717 345.098 310.805 344.954 310.886C342.301 312.479 339.493 314.911 339.819 317.983C340.126 320.842 344.013 322.716 346.552 321.374L346.571 321.406C345.775 321.864 344.991 322.334 344.207 322.812C343.104 323.483 341.968 324.219 341.305 325.326C340.642 326.433 340.603 328.041 341.574 328.899C342.489 329.708 343.875 329.583 345.072 329.368C349.183 328.703 353.223 327.658 357.141 326.246L357.297 326.666L351.962 357.961L348.884 376.004L280.364 410.86L279.744 409.638L300.481 274.958L300.136 274.906C300.195 274.533 300.22 274.156 300.211 273.778L367.905 235.902Z" fill="black" fill-opacity="0.15"/>
<path d="M331.061 205.296C331.674 205.383 332.293 205.416 332.91 205.396L332.935 206.073C332.522 208.834 331.469 212.932 328.817 214.167C327.143 214.944 325.171 214.681 323.331 214.399C320.818 214.017 318.302 213.633 315.783 213.245C314.103 212.994 312.242 212.631 311.27 211.315C310.26 209.942 311.031 208.167 311.402 206.523C311.742 205.114 312.154 203.723 312.637 202.356C314.146 202.902 315.717 203.257 317.313 203.416L331.061 205.296Z" fill="black" fill-opacity="0.15"/>
<path d="M310.562 195.171C311.499 195.867 312.937 196.099 314.919 196.262C321.345 196.795 327.827 196.991 334.271 197.356C335.11 197.429 335.955 197.415 336.792 197.312L338.522 197.356C339.168 201.002 338.346 204.427 335.695 205.048C334.782 205.264 333.848 205.382 332.911 205.399C332.293 205.419 331.674 205.385 331.062 205.298L317.312 203.418C315.715 203.259 314.144 202.904 312.635 202.359C311.913 202.073 311.244 201.668 310.656 201.16C308.901 199.624 308.506 196.516 310.506 195.249L310.562 195.171Z" fill="black" fill-opacity="0.15"/>
<path d="M173.418 463.796C170.379 461.452 168.044 458.315 166.672 454.729C165.3 451.144 164.943 447.25 165.641 443.475C166.339 439.701 168.064 436.191 170.628 433.334C173.192 430.476 176.493 428.381 180.17 427.279C181.374 427.227 182.577 427.203 183.756 427.191C197.002 427.021 210.247 426.854 223.489 426.689C227.79 426.633 232.573 427.184 236.661 425.573L236.705 425.678C241.388 424.023 247.218 425.239 251.838 427.891L251.7 428.135C245.62 430.605 238.992 430.85 232.367 430.568C229.814 430.464 227.262 430.273 224.744 430.11C222.894 429.985 221.02 429.884 219.145 429.841C213.937 429.696 208.701 429.972 203.855 431.433C201.862 432.022 199.944 432.838 198.137 433.865C193.342 436.617 189.279 441.934 190.52 447.319C191.555 451.807 195.849 454.748 200.068 456.597C201.865 457.381 203.707 458.055 205.585 458.616C210.361 460.017 215.294 460.814 220.268 460.985C223.927 461.133 227.594 461.026 231.238 460.666C233.433 460.453 235.62 460.164 237.796 459.813C246.058 458.484 254.189 456.271 262.275 454.071L262.676 454.133C261.9 458.72 260.402 463.155 258.238 467.273L258.446 468.659C253.124 469.468 247.787 470.164 242.435 470.746C224.179 472.759 205.516 473.605 187.611 469.505C182.634 468.364 177.6 466.745 173.155 464.277L173.418 463.796Z" fill="black" fill-opacity="0.15"/>
<path d="M217.629 148.962C219.577 147.159 221.895 145.802 224.42 144.985C226.946 144.167 229.619 143.909 232.255 144.229C233.333 144.367 234.518 144.68 235.094 145.608C235.322 146.033 235.434 146.51 235.419 146.992C235.403 147.474 235.261 147.944 235.007 148.354C234.488 149.165 233.804 149.859 233.001 150.391C230.821 152.017 228.445 153.361 225.929 154.391C228.898 153.651 232.43 153.933 235.395 154.685C236.775 155.03 238.317 155.77 238.567 157.168C238.831 158.667 237.445 159.929 236.116 160.666C231.395 163.299 225.908 163.606 220.443 163.01C217.992 162.728 215.556 162.322 213.146 161.794C205.473 160.17 197.469 158.114 189.932 160.277C187.004 161.117 184.077 162.772 182.829 165.549C181.989 167.43 182.02 169.573 182.07 171.636C182.19 176.57 182.311 181.502 182.435 186.431H182.322C181.118 187.522 180.535 189.115 179.883 190.606C179.231 192.098 178.366 193.634 176.887 194.318C176.52 194.516 176.107 194.611 175.691 194.593C175.275 194.576 174.871 194.446 174.524 194.218C173.777 193.628 173.696 192.537 173.752 191.584C173.846 190.106 174.122 188.645 174.574 187.234C174.2 187.77 173.738 188.239 173.207 188.619C171.702 189.672 169.239 189.534 168.43 187.89C167.753 186.504 168.524 184.887 169.239 183.52C172.185 177.859 174.335 171.697 174.759 165.334C174.904 163.158 174.847 160.964 175.211 158.82C175.575 156.676 176.409 154.513 178.024 153.053C179.846 151.41 182.406 150.871 184.857 150.67C188.951 150.338 193.063 150.774 197.169 150.614C201.276 150.453 205.52 149.611 208.755 147.078C211.595 144.859 213.519 141.448 216.792 139.937C218.127 139.317 220.052 139.248 220.747 140.546C221.044 141.258 221.074 142.054 220.829 142.785C220.273 145.066 219.14 147.164 217.538 148.879L217.629 148.962Z" fill="black"/>
<path d="M209.011 330.929C207.882 328.133 204.604 328.152 201.638 328.709L201.625 328.672C202.296 328.446 202.967 328.208 203.638 327.964C205.03 327.456 206.45 326.904 207.55 325.907C208.649 324.91 209.362 323.349 208.967 321.92C208.547 320.434 207.042 319.469 205.519 319.224C203.995 318.98 202.446 319.324 200.942 319.663C196.053 320.76 191.156 322.108 186.267 323.268L186.26 323.23C186.429 322.293 186.567 321.368 186.686 320.453H186.705L194.447 252.095L200.353 253.543L282.957 273.78C282.957 273.78 282.97 273.911 283.013 274.149L282.625 274.225L262.213 410.683L261.874 411.824L178.958 387.068L179.798 379.501L182.5 355.057L182.474 354.757C189.004 354.248 195.439 352.884 201.614 350.7C203.689 349.955 205.771 349.058 207.343 347.523C208.916 345.989 209.888 343.656 209.28 341.543C208.672 339.43 205.686 337.636 203.688 338.559L203.663 338.49C205.115 337.984 206.448 337.186 207.581 336.146C208.94 334.803 209.717 332.703 209.011 330.929Z" fill="black" fill-opacity="0.15"/>
<path d="M95.6124 365.108C103.198 369.891 112.658 370.393 121.635 370.393C126.964 370.393 132.431 370.217 137.942 369.891L137.948 369.954C175.932 378.624 176.522 378.699 179.18 379.433L179.794 379.502L178.954 387.069L261.871 411.826L263.971 412.451L263.919 412.62C257.173 415.276 241.67 423.014 237.921 425.002C237.513 425.218 237.092 425.409 236.66 425.574C232.573 427.185 227.789 426.634 223.489 426.69C210.243 426.859 196.998 427.027 183.756 427.192C182.577 427.204 181.373 427.23 180.17 427.28C174.515 427.518 168.779 428.383 164.622 432.063C161.582 434.753 160.046 438.545 159.779 442.557L159.339 442.532C136.482 442.639 115.098 439.442 93.0624 433.354C83.6087 430.74 73.5217 426.966 68.5129 418.534C64.5697 411.883 64.6197 403.57 66.1556 395.991C68.2306 385.722 73.3212 375.654 82.029 369.817C91.7837 363.284 95.1019 364.833 95.1019 364.833L95.1269 364.789C95.2863 364.901 95.4493 365 95.6124 365.108Z" fill="black"/>
<path d="M206.615 224.109C203.831 221.163 205.313 214.266 208.05 211.277C210.788 208.287 215.41 207.409 217.567 203.973C219.748 200.506 219.097 194.983 219.279 190.896C219.686 181.636 220.07 172.379 220.432 163.124" stroke="black" stroke-linecap="round" stroke-linejoin="round"/>
<path d="M213.51 175.863C212.03 175.43 210.553 174.998 209.078 174.565" stroke="black" stroke-linecap="round" stroke-linejoin="round"/>
<path d="M214.807 167.544C211.104 166.691 207.265 166.609 203.529 167.305C203.068 175.526 204.247 183.756 206.996 191.517C206.429 192.089 205.706 192.481 204.918 192.644C204.129 192.807 203.31 192.733 202.563 192.432" stroke="black" stroke-linecap="round" stroke-linejoin="round"/>
<path d="M197.542 173.769C195.522 173.161 193.368 173.161 191.348 173.769" stroke="black" stroke-linecap="round" stroke-linejoin="round"/>
<path d="M198.871 205.157C196.124 205.227 193.444 204.308 191.319 202.567" stroke="black" stroke-linecap="round" stroke-linejoin="round"/>
<path d="M145.358 279.115C136.281 284.892 129.203 293.323 125.084 303.263C122.595 309.294 121.736 317.3 126.808 321.406C129.835 323.857 134.055 324.077 137.954 324.083C148.626 324.108 159.287 323.406 169.864 321.983C169.916 323.099 169.964 324.208 170.02 325.324C170.478 335.267 170.937 345.212 171.399 355.159C171.569 358.877 171.741 362.594 171.914 366.311" stroke="black" stroke-linecap="round" stroke-linejoin="round"/>
<path d="M171.915 366.311C160.977 367.923 149.371 369.22 137.942 369.891C132.432 370.217 126.965 370.393 121.636 370.393C112.659 370.393 103.198 369.891 95.613 365.108C95.45 365.004 95.2869 364.899 95.1239 364.788C87.6135 359.817 83.1625 351.298 80.1911 342.765C75.0692 328.083 73.389 311.921 77.364 296.887C82.813 276.268 98.6723 259.329 117.661 249.625C134.927 240.798 154.555 237.494 173.996 237.6C175.94 237.607 177.879 237.649 179.813 237.726" stroke="black" stroke-linecap="round" stroke-linejoin="round"/>
<path d="M173.995 237.288C173.343 235.288 172.679 233.244 172.722 231.138C172.766 229.032 173.657 226.83 175.468 225.758C176.828 224.956 178.477 224.894 180.051 224.85C181.155 224.819 182.264 224.793 183.368 224.761L206.614 224.142C207.617 224.116 208.626 224.085 209.629 224.06C213.027 223.972 216.6 223.922 219.597 225.533C222.593 227.145 223.91 230.755 222.311 233.752" stroke="black" stroke-linecap="round" stroke-linejoin="round"/>
<path d="M215.797 234.284C217.954 234.14 220.127 234.012 222.317 233.902C258.007 232.109 297.967 234.823 331.481 245.606" stroke="black" stroke-linecap="round" stroke-linejoin="round"/>
<path d="M186.477 322.459L186.703 320.453L194.445 252.095L200.35 253.543L282.955 273.78C282.955 273.78 282.967 273.911 283.011 274.149C283.299 275.754 284.905 282.073 292.245 281.303C298.452 280.651 299.837 276.839 300.139 274.908C300.198 274.535 300.223 274.157 300.213 273.78L367.907 235.902L374.553 232.184L369.098 262.84" stroke="black" stroke-linecap="round" stroke-linejoin="round"/>
<path d="M357.297 326.666L351.962 357.961L348.884 376.004L280.363 410.86L272.332 414.947L263.969 412.452L261.869 411.825L178.954 387.069L179.794 379.502L182.496 355.058" stroke="black" stroke-linecap="round" stroke-linejoin="round"/>
<path d="M282.62 274.226L262.208 410.685" stroke="black" stroke-linecap="round" stroke-linejoin="round"/>
<path d="M300.544 274.557L300.481 274.958L279.742 409.638" stroke="black" stroke-linecap="round" stroke-linejoin="round"/>
<path d="M199.974 253.756L200.35 253.543L206.839 249.882L288.262 269.799L331.638 245.889L357.297 231.739L367.905 235.902L368.212 236.021" stroke="black" stroke-linecap="round" stroke-linejoin="round"/>
<path d="M359.948 293.471C360.093 283.616 364.004 262.57 369.095 262.84C373.226 263.309 371.502 271.046 370.857 275.472C369.607 284.042 371.239 292.756 371.095 301.414C370.951 310.072 368.456 319.506 361.315 324.403" stroke="black" stroke-linecap="round" stroke-linejoin="round"/>
<path d="M361.317 324.403C359.963 325.099 358.568 325.715 357.141 326.246C353.224 327.657 349.184 328.702 345.074 329.368C343.876 329.581 342.49 329.706 341.575 328.899C340.603 328.04 340.638 326.442 341.305 325.325C341.973 324.209 343.105 323.483 344.208 322.812C344.989 322.335 345.776 321.865 346.572 321.406C352.124 318.189 357.927 315.426 363.925 313.143" stroke="black" stroke-linecap="round" stroke-linejoin="round"/>
<path d="M346.602 321.349C346.583 321.356 346.571 321.368 346.55 321.374C344.011 322.716 340.124 320.842 339.817 317.983C339.491 314.91 342.299 312.479 344.951 310.886C345.096 310.805 345.233 310.717 345.377 310.642C351.225 307.206 357.674 304.917 364.379 303.896" stroke="black" stroke-linecap="round" stroke-linejoin="round"/>
<path d="M345.348 310.585C343.486 311.4 340.621 309.821 339.932 307.915C339.242 306.009 339.907 303.809 341.173 302.229C342.44 300.648 344.233 299.577 346.025 298.63C350.427 296.326 355.11 294.602 359.955 293.502C362 293.033 364.069 292.68 366.153 292.443" stroke="black" stroke-linecap="round" stroke-linejoin="round"/>
<path d="M186.257 323.229C186.426 322.292 186.564 321.367 186.684 320.452C187.035 317.7 187.179 315.01 187.298 312.07C187.342 310.948 187.656 309.701 186.954 308.823C186.025 307.669 184.076 307.958 182.995 308.973C181.914 309.989 181.447 311.473 180.895 312.854C178.759 318.105 174.931 322.493 170.019 325.323C169.956 325.361 169.893 325.392 169.83 325.43" stroke="black" stroke-linecap="round" stroke-linejoin="round"/>
<path d="M184.271 323.732C184.935 323.582 185.6 323.425 186.265 323.268C191.154 322.109 196.05 320.761 200.94 319.664C202.445 319.325 203.993 318.98 205.517 319.225C207.04 319.47 208.545 320.435 208.965 321.921C209.36 323.35 208.645 324.905 207.548 325.908C206.451 326.911 205.028 327.456 203.636 327.964C202.965 328.208 202.294 328.447 201.623 328.672C195.133 330.92 188.484 332.68 181.732 333.939" stroke="black" stroke-linecap="round" stroke-linejoin="round"/>
<path d="M201.635 328.709C204.601 328.152 207.88 328.133 209.008 330.929C209.717 332.703 208.939 334.803 207.579 336.145C206.446 337.185 205.112 337.982 203.66 338.489C203.309 338.633 202.952 338.765 202.601 338.896C196.134 341.271 189.435 342.96 182.615 343.936" stroke="black" stroke-linecap="round" stroke-linejoin="round"/>
<path d="M203.685 338.558C205.685 337.636 208.676 339.43 209.278 341.542C209.879 343.655 208.913 345.981 207.341 347.523C205.768 349.065 203.685 349.955 201.611 350.7C195.436 352.883 189.002 354.247 182.472 354.756C178.848 355.076 175.187 355.189 171.489 355.151" stroke="black" stroke-linecap="round" stroke-linejoin="round"/>
<path d="M352.314 358.024C360.971 354.15 367.428 351.667 376.907 351.912C386.386 352.157 396.347 357.234 399.557 366.155C402.78 375.108 398.554 384.962 393.508 393.024C382.355 410.822 366.833 425.517 349.147 436.958C346 438.996 342.791 440.927 339.518 442.751C338.032 443.584 336.534 444.388 335.03 445.171C332.466 446.519 329.874 447.797 327.256 449.008C324.773 450.161 322.272 451.26 319.752 452.305C315.332 454.136 310.856 455.816 306.323 457.346C303.754 458.217 301.167 459.045 298.563 459.828C293.742 461.276 288.881 462.58 283.98 463.74C275.554 465.746 267.022 467.364 258.446 468.661C253.123 469.47 247.786 470.166 242.434 470.749C224.179 472.761 205.516 473.608 187.611 469.508C182.633 468.367 177.599 466.747 173.155 464.279C169.675 462.41 166.609 459.857 164.14 456.775C161.027 452.712 159.478 447.666 159.777 442.556C160.046 438.546 161.582 434.751 164.62 432.062C168.777 428.382 174.513 427.517 180.168 427.279C181.371 427.227 182.575 427.203 183.754 427.191C197 427.021 210.244 426.854 223.487 426.689C227.787 426.633 232.571 427.184 236.658 425.573C237.09 425.408 237.511 425.217 237.919 425.001C241.669 423.014 257.171 415.278 263.917 412.619" stroke="black" stroke-linecap="round" stroke-linejoin="round"/>
<path d="M95.0984 364.832C95.0984 364.832 91.7822 363.284 82.0255 369.816C73.3198 375.653 68.2291 385.721 66.1541 395.99C64.6182 403.569 64.5682 411.882 68.5114 418.533C73.5203 426.965 83.6073 430.739 93.0609 433.353C115.097 439.441 136.481 442.638 159.338 442.531" stroke="black" stroke-linecap="round" stroke-linejoin="round"/>
<path d="M179.18 379.433C176.523 378.7 175.932 378.624 137.948 369.954" stroke="black" stroke-linecap="round" stroke-linejoin="round"/>
<path d="M284.056 464.066C294.67 470.628 305.804 474.66 318.047 477.074C320.385 477.538 322.761 477.914 325.144 478.165C331.607 478.848 338.152 478.61 344.296 476.591C352.702 473.831 360.225 467.225 362.207 458.599C363.974 450.901 359.241 441.828 352.107 438.387C351.254 437.972 350.361 437.642 349.443 437.403" stroke="black" stroke-linecap="round" stroke-linejoin="round"/>
<path d="M183.368 224.806V224.762C183.056 211.984 182.744 199.208 182.434 186.433C182.308 181.499 182.187 176.567 182.069 171.638C182.017 169.575 181.988 167.431 182.827 165.551C184.077 162.773 187.003 161.118 189.931 160.278C197.466 158.115 205.472 160.174 213.145 161.795C215.555 162.323 217.991 162.729 220.442 163.011C225.911 163.607 231.395 163.3 236.115 160.668C237.444 159.928 238.83 158.668 238.566 157.17C238.316 155.772 236.773 155.034 235.394 154.687C232.429 153.935 228.899 153.653 225.928 154.393" stroke="black" stroke-linecap="round" stroke-linejoin="round"/>
<path d="M225.929 154.391C228.445 153.361 230.821 152.017 233 150.391C233.804 149.859 234.487 149.166 235.007 148.354C235.261 147.944 235.403 147.474 235.419 146.993C235.434 146.51 235.322 146.033 235.094 145.608C234.517 144.68 233.333 144.367 232.254 144.229C229.619 143.909 226.946 144.167 224.42 144.985C221.895 145.802 219.577 147.159 217.628 148.962C217.829 148.786 218.029 148.617 218.237 148.448" stroke="black" stroke-linecap="round" stroke-linejoin="round"/>
<path d="M174.572 187.229C175.218 186.246 175.747 185.192 176.152 184.087" stroke="black" stroke-linecap="round" stroke-linejoin="round"/>
<path d="M217.302 149.138C217.384 149.05 217.465 148.969 217.54 148.881C219.143 147.166 220.276 145.067 220.832 142.787C221.076 142.055 221.047 141.259 220.75 140.547C220.054 139.249 218.13 139.318 216.794 139.939C213.522 141.449 211.597 144.86 208.757 147.08C205.522 149.613 201.272 150.453 197.172 150.616C193.072 150.779 188.953 150.34 184.859 150.672C182.408 150.872 179.85 151.411 178.026 153.054C176.409 154.513 175.575 156.671 175.213 158.822C174.852 160.972 174.906 163.16 174.762 165.335C174.336 171.698 172.185 177.861 169.241 183.522C168.526 184.889 167.755 186.506 168.432 187.892C169.241 189.534 171.705 189.672 173.209 188.621C173.741 188.24 174.203 187.772 174.576 187.235" stroke="black" stroke-linecap="round" stroke-linejoin="round"/>
<path d="M175.938 184.062C175.383 185.072 174.925 186.132 174.571 187.229V187.235C174.12 188.646 173.844 190.107 173.75 191.585C173.694 192.539 173.775 193.629 174.521 194.219C174.869 194.447 175.273 194.577 175.689 194.594C176.105 194.612 176.518 194.517 176.885 194.319C178.364 193.635 179.228 192.093 179.881 190.607C180.534 189.121 181.116 187.523 182.32 186.432" stroke="black" stroke-linecap="round" stroke-linejoin="round"/>
<path d="M312.637 202.356C312.154 203.723 311.742 205.114 311.402 206.522C311.031 208.165 310.26 209.939 311.27 211.314C312.241 212.63 314.103 212.994 315.783 213.245C318.297 213.633 320.814 214.018 323.331 214.398C325.168 214.68 327.143 214.944 328.817 214.166C331.469 212.931 332.522 208.831 332.935 206.073" stroke="black" stroke-linecap="round" stroke-linejoin="round"/>
<path d="M310.505 195.247C308.506 196.513 308.9 199.622 310.656 201.158C311.244 201.666 311.912 202.07 312.635 202.356C314.144 202.902 315.715 203.257 317.311 203.416L331.061 205.296C331.674 205.383 332.293 205.417 332.911 205.397C333.848 205.38 334.782 205.262 335.695 205.046C338.346 204.425 339.168 201.002 338.522 197.354" stroke="black" stroke-linecap="round" stroke-linejoin="round"/>
<path d="M310.561 195.171C311.499 195.867 312.937 196.099 314.918 196.262C321.344 196.795 327.826 196.991 334.271 197.356C335.11 197.429 335.955 197.414 336.791 197.312C337.198 197.251 337.594 197.135 337.97 196.967C339.361 196.255 340.452 195.067 341.042 193.619C344.584 185.827 344.376 184.742 354.276 176.398C387.183 148.651 374.112 122.935 351.782 119.55C335.043 117.011 295.867 125.048 307.415 158.431C315.577 182.028 309.189 187.049 309.196 191.419C309.195 193.36 309.639 194.494 310.561 195.171Z" stroke="black" stroke-linecap="round" stroke-linejoin="round"/>
<path d="M332.115 193.447C336.34 184.119 340.566 174.789 344.792 165.456C345.268 164.409 345.82 163.281 346.886 162.754C347.907 162.253 349.136 162.428 350.284 162.353C351.384 162.273 352.455 161.961 353.425 161.437C354.395 160.913 355.244 160.189 355.913 159.312C356.486 158.602 356.882 157.767 357.071 156.875C357.26 155.982 357.234 155.058 356.998 154.178C356.706 153.288 356.14 152.514 355.38 151.967C354.622 151.419 353.708 151.127 352.772 151.131C350.866 151.212 349.13 152.999 349.481 154.773C349.561 155.232 349.784 155.653 350.118 155.977C350.453 156.3 350.882 156.508 351.343 156.572C352.296 156.648 353.261 155.726 352.973 154.867" stroke="black" stroke-linecap="round" stroke-linejoin="round"/>
<path d="M316.116 193.297C319.821 180.669 322.505 167.762 324.14 154.703C322.228 154.584 321.062 152.07 322.259 150.647C323.457 149.224 326.316 149.726 326.867 151.468" stroke="black" stroke-linecap="round" stroke-linejoin="round"/>
<path d="M330.14 152.348C329.745 154.128 331.369 155.858 333.225 156.316C335.08 156.774 337.055 156.285 338.873 155.683C340.691 155.081 342.522 154.354 344.44 154.347" stroke="black" stroke-linecap="round" stroke-linejoin="round"/>
<path d="M233.57 113.567C237.589 114.557 241.908 113.542 245.507 111.498C249.199 109.398 252.315 106.157 253.857 102.201C257.361 93.1739 249.69 80.5667 239.338 81.7703C229.696 82.8984 221.208 93.6812 223.759 103.229C225.038 108.012 228.649 112.351 233.57 113.567Z" stroke="black" stroke-linecap="round" stroke-linejoin="round"/>
<path d="M234.454 77.6385C230.523 79.0948 227.112 81.6818 224.649 85.0734C223.479 83.0781 221.798 81.4307 219.778 80.3026L213.91 87.788L219.853 92.8281" stroke="black" stroke-linecap="round" stroke-linejoin="round"/>
<path d="M218.274 95.9C218.317 98.3516 218.361 100.803 218.405 103.254C218.457 103.853 218.386 104.457 218.197 105.028C217.451 106.859 214.718 107.003 213.652 108.67C214.9 110.607 216.148 112.547 217.395 114.488C217.583 114.777 217.802 115.096 218.141 115.159C218.483 115.168 218.815 115.044 219.068 114.814C220.586 113.73 222.101 112.643 223.614 111.554" stroke="black" stroke-linecap="round" stroke-linejoin="round"/>
<path d="M225.665 114.469C227.318 115.931 229.3 116.97 231.443 117.497C233.585 118.025 235.823 118.025 237.965 117.497C238.209 119.855 238.46 122.218 238.705 124.575C242.291 123.927 245.833 123.057 249.312 121.971C248.34 120.096 247.368 118.221 246.395 116.346C246.461 116.369 246.532 116.379 246.602 116.374C246.672 116.37 246.741 116.351 246.803 116.32C246.866 116.288 246.921 116.244 246.967 116.191C247.012 116.137 247.046 116.074 247.066 116.007" stroke="black" stroke-linecap="round" stroke-linejoin="round"/>
<path d="M249.682 113.429C251.605 112.58 253.326 111.335 254.736 109.777C256.146 108.218 257.212 106.38 257.865 104.382C258.141 103.53 258.391 102.57 259.132 102.069C260.548 101.116 262.561 102.489 264.128 101.818C263.989 98.1698 263.851 94.5188 263.714 90.8661C261.946 91.387 260.185 91.9078 258.417 92.4333" stroke="black" stroke-linecap="round" stroke-linejoin="round"/>
<path d="M256.453 89.274C256.154 87.3063 255.348 85.45 254.116 83.887C252.883 82.3245 251.266 81.1089 249.422 80.3594C249.578 78.2339 249.742 76.1089 249.898 73.9833L243.325 73.1771C242.823 73.0703 242.301 73.1005 241.815 73.2646C241.509 73.4302 241.253 73.6755 241.075 73.9745C240.898 74.274 240.805 74.6156 240.806 74.9635C240.819 75.6604 240.959 76.3484 241.22 76.9948" stroke="black" stroke-linecap="round" stroke-linejoin="round"/>
<path d="M236.706 425.68C241.388 424.025 247.219 425.241 251.839 427.893C253.265 428.701 254.591 429.675 255.788 430.795C260.547 435.284 262.948 441.923 263.08 448.462C263.113 450.361 262.978 452.26 262.678 454.135C261.902 458.722 260.405 463.157 258.24 467.276" stroke="black" stroke-linecap="round" stroke-linejoin="round"/>
<path d="M251.701 428.138C245.62 430.607 238.993 430.852 232.367 430.57C229.815 430.466 227.263 430.275 224.744 430.112C222.895 429.987 221.02 429.886 219.146 429.843C213.937 429.698 208.701 429.974 203.855 431.435C201.862 432.024 199.944 432.84 198.138 433.867C193.342 436.619 189.28 441.936 190.521 447.321C191.555 451.809 195.85 454.75 200.069 456.599C201.865 457.383 203.707 458.057 205.586 458.618C210.361 460.019 215.294 460.816 220.268 460.988C223.927 461.135 227.594 461.029 231.239 460.668C233.433 460.455 235.621 460.166 237.796 459.815C246.059 458.486 254.19 456.273 262.275 454.073" stroke="black" stroke-miterlimit="10" stroke-linecap="round"/>
<path d="M298.669 460.179C300.914 461.172 303.209 462.049 305.544 462.806C309.598 464.117 313.754 465.087 317.969 465.708C319.85 465.99 321.743 466.203 323.637 466.354C326.352 466.607 329.085 466.603 331.799 466.341C333.761 466.144 335.689 465.693 337.535 464.999C341.917 463.32 345.792 459.728 346.732 455.126C347.672 450.524 344.895 445.164 340.306 444.18" stroke="black" stroke-miterlimit="10" stroke-linecap="round"/>
<path d="M237.789 459.784C239.447 454.933 239.817 449.736 238.864 444.699C237.91 439.663 235.664 434.961 232.348 431.053" stroke="black" stroke-miterlimit="10" stroke-linecap="round"/>
<path d="M220.299 460.317C225.383 451.377 224.901 439.554 219.108 431.053" stroke="black" stroke-miterlimit="10" stroke-linecap="round"/>
<path d="M205.598 458.58C207.603 454.327 208.501 449.636 208.212 444.943C207.923 440.249 206.455 435.705 203.943 431.73" stroke="black" stroke-miterlimit="10" stroke-linecap="round"/>
<path d="M335.156 444.74C335.112 444.884 335.075 445.028 335.031 445.172C333.112 451.853 332.003 458.74 331.727 465.684" stroke="black" stroke-miterlimit="10" stroke-linecap="round"/>
<path d="M317.978 465.677C318.586 461.258 319.192 456.836 319.796 452.412" stroke="black" stroke-miterlimit="10" stroke-linecap="round"/>
<path d="M305.665 462.442C305.576 460.915 305.881 459.39 306.551 458.015" stroke="black" stroke-miterlimit="10" stroke-linecap="round"/>
<path d="M180.26 427.254C180.229 427.26 180.204 427.272 180.173 427.279C176.496 428.381 173.194 430.476 170.631 433.334C168.067 436.191 166.342 439.7 165.644 443.475C164.946 447.25 165.303 451.144 166.674 454.729C168.047 458.315 170.381 461.452 173.421 463.796C173.584 463.921 173.747 464.047 173.916 464.166" stroke="black" stroke-miterlimit="10" stroke-linecap="round"/>
<path d="M325.119 478.416C332.397 479.293 339.826 479.978 347.01 478.516C354.195 477.054 361.198 473.125 364.758 466.719C366.219 464.087 367.047 461.152 367.178 458.145C367.308 455.138 366.737 452.142 365.51 449.393C364.283 446.645 362.433 444.22 360.107 442.31C357.78 440.401 355.042 439.058 352.107 438.389C352.044 438.37 351.982 438.358 351.919 438.345" stroke="black" stroke-miterlimit="10" stroke-linecap="round"/>
<path d="M212.149 286.023L260.528 297.527" stroke="black" stroke-linecap="round" stroke-linejoin="round"/>
<path d="M220.406 298.123L251.087 306.084" stroke="black" stroke-linecap="round" stroke-linejoin="round"/>
<path d="M285.898 289.86L272.627 388.103" stroke="black" stroke-linecap="round" stroke-linejoin="round"/>
<path d="M143.754 188.698L149.699 186.791C149.789 186.763 149.884 186.762 149.974 186.789C150.064 186.817 150.143 186.871 150.201 186.945C150.258 187.019 150.292 187.108 150.297 187.202C150.302 187.296 150.278 187.389 150.229 187.468L146.952 192.781C146.904 192.858 146.881 192.947 146.884 193.037C146.887 193.128 146.917 193.215 146.97 193.289L150.62 198.354C150.675 198.429 150.705 198.52 150.706 198.614C150.708 198.707 150.68 198.798 150.628 198.876C150.576 198.954 150.502 199.013 150.415 199.047C150.328 199.081 150.232 199.087 150.141 199.066L144.074 197.591C143.986 197.57 143.894 197.575 143.809 197.606C143.724 197.637 143.651 197.693 143.597 197.766L139.909 202.803C139.854 202.878 139.777 202.934 139.689 202.965C139.6 202.995 139.504 202.998 139.415 202.972C139.324 202.946 139.245 202.894 139.185 202.821C139.127 202.749 139.091 202.66 139.084 202.567L138.612 196.342C138.605 196.252 138.572 196.166 138.517 196.094C138.461 196.023 138.385 195.97 138.299 195.942L132.369 193.99C132.28 193.961 132.203 193.905 132.146 193.83C132.09 193.756 132.058 193.666 132.055 193.572C132.052 193.479 132.077 193.386 132.128 193.308C132.178 193.229 132.252 193.168 132.338 193.133L138.113 190.76C138.196 190.726 138.268 190.667 138.318 190.592C138.369 190.517 138.396 190.429 138.396 190.339L138.419 184.095C138.42 184.002 138.449 183.91 138.503 183.834C138.556 183.758 138.632 183.699 138.72 183.667C138.808 183.635 138.903 183.631 138.994 183.655C139.084 183.678 139.165 183.729 139.226 183.801L143.266 188.559C143.325 188.628 143.403 188.677 143.49 188.702C143.576 188.727 143.668 188.726 143.754 188.698Z" stroke="black" stroke-miterlimit="10"/>
<path d="M361.105 86.1932L370.086 88.1427C370.22 88.1724 370.342 88.2422 370.435 88.3432C370.528 88.4437 370.588 88.5708 370.608 88.7068C370.626 88.8427 370.604 88.9807 370.542 89.1036C370.481 89.226 370.383 89.3271 370.262 89.3927L362.17 93.7505C362.053 93.8135 361.957 93.9099 361.895 94.0276C361.832 94.1448 361.806 94.2786 361.82 94.4109L362.74 103.556C362.754 103.693 362.725 103.83 362.659 103.951C362.591 104.071 362.489 104.168 362.365 104.228C362.242 104.289 362.102 104.309 361.967 104.289C361.831 104.267 361.705 104.205 361.605 104.11L354.96 97.7609C354.863 97.6693 354.742 97.6078 354.611 97.5849C354.48 97.562 354.345 97.5781 354.223 97.6312L345.811 101.333C345.685 101.389 345.545 101.404 345.41 101.377C345.275 101.351 345.151 101.283 345.056 101.184C344.96 101.085 344.897 100.959 344.875 100.823C344.853 100.687 344.873 100.548 344.933 100.424L348.918 92.1432C348.975 92.0229 348.996 91.8891 348.977 91.7573C348.959 91.6255 348.902 91.5021 348.814 91.4026L342.693 84.5458C342.601 84.4432 342.543 84.3146 342.526 84.1781C342.51 84.0411 342.536 83.9026 342.6 83.7812C342.665 83.6594 342.765 83.5604 342.888 83.4974C343.01 83.4349 343.149 83.4109 343.286 83.4297L352.394 84.6604C352.526 84.6781 352.66 84.6568 352.78 84.5979C352.899 84.5396 352.999 84.4474 353.066 84.3323L357.696 76.3927C357.765 76.274 357.869 76.1792 357.994 76.1208C358.119 76.063 358.258 76.0448 358.394 76.0687C358.53 76.0927 358.655 76.1573 358.752 76.2542C358.85 76.3516 358.915 76.476 358.94 76.6114L360.585 85.6542C360.608 85.7854 360.67 85.9062 360.763 86.0026C360.855 86.0984 360.974 86.1646 361.105 86.1932Z" stroke="black" stroke-miterlimit="10"/>
<path d="M384.731 229.971L435.179 185.276" stroke="black" stroke-linecap="round" stroke-linejoin="round"/>
<path d="M378.093 221.12L383.846 209.173" stroke="black" stroke-linecap="round" stroke-linejoin="round"/>
<path d="M368.357 218.908L372.34 175.098" stroke="black" stroke-linecap="round" stroke-linejoin="round"/>
<path d="M383.846 245.459L395.794 245.902" stroke="black" stroke-linecap="round" stroke-linejoin="round"/>
<path d="M384.289 259.178L421.46 287.942" stroke="black" stroke-linecap="round" stroke-linejoin="round"/>
<path d="M401.562 399.03C405.335 394.474 407.983 389.093 409.292 383.324C410.6 377.555 410.533 371.559 409.095 365.82" stroke="black" stroke-opacity="0.15" stroke-linecap="round" stroke-linejoin="round"/>
<path fill-rule="evenodd" clip-rule="evenodd" d="M263.919 412.622C257.173 415.28 241.671 423.016 237.921 425.004C237.513 425.22 237.091 425.411 236.66 425.576L236.704 425.68C241.387 424.026 247.217 425.242 251.838 427.893C253.264 428.701 254.59 429.676 255.787 430.796C260.546 435.285 262.947 441.923 263.079 448.462C263.112 450.361 262.977 452.26 262.677 454.136C261.901 458.722 260.403 463.158 258.239 467.276L258.448 468.661C267.024 467.364 275.556 465.746 283.982 463.74C288.883 462.58 293.744 461.276 298.565 459.828C301.169 459.045 303.755 458.217 306.325 457.346C310.858 455.816 315.334 454.136 319.753 452.305C322.274 451.26 324.775 450.161 327.258 449.008C329.876 447.797 332.467 446.519 335.032 445.171C336.536 444.388 338.034 443.584 339.52 442.751C342.792 440.927 346.002 438.996 349.149 436.958C366.835 425.517 382.357 410.822 393.51 393.024C398.556 384.962 402.782 375.108 399.559 366.155C396.349 357.234 386.388 352.157 376.909 351.912C367.43 351.667 360.973 354.15 352.315 358.024L351.964 357.961L348.886 376.004L280.365 410.86L272.334 414.948L263.971 412.453L263.919 412.622ZM394.923 366.301C394.797 365.797 394.286 365.491 393.782 365.617C393.278 365.743 392.972 366.254 393.099 366.758C393.802 369.566 394.172 372.097 393.938 375.056C393.703 378.027 392.854 381.481 391.051 386.118C388.334 393.103 384.712 396.984 381.418 400.512C380.381 401.623 379.376 402.699 378.442 403.827C378.111 404.227 378.167 404.82 378.567 405.151C378.967 405.482 379.56 405.427 379.891 405.027C380.733 404.01 381.676 403.001 382.674 401.933C386.002 398.372 389.943 394.156 392.804 386.799C394.647 382.061 395.558 378.42 395.813 375.204C396.068 371.977 395.657 369.231 394.923 366.301Z" fill="black"/>
<path d="M260.545 251.823C273.353 239.115 274.959 216.758 264.096 202.353C258.476 194.898 249.993 189.351 246.738 180.601C242.635 169.57 248.232 157.376 254.863 147.649C261.494 137.922 269.56 128.364 271.043 116.689" stroke="black" stroke-opacity="0.15" stroke-linecap="round" stroke-linejoin="round"/>
<path d="M301.146 252.243C298.988 245.08 303.784 237.392 310.078 233.349C316.373 229.306 323.933 227.88 331.068 225.641C336.46 223.948 341.775 221.704 346.141 218.117C350.508 214.53 353.863 209.453 354.45 203.833" stroke="black" stroke-opacity="0.15" stroke-linecap="round" stroke-linejoin="round"/>
<path d="M189.858 126.583L179.238 115.962" stroke="black" stroke-opacity="0.15" stroke-linecap="round" stroke-linejoin="round"/>
<path d="M179.74 127.688L187.785 114.458" stroke="black" stroke-opacity="0.15" stroke-linecap="round" stroke-linejoin="round"/>
<path d="M390.395 168.308L402.407 161.337" stroke="black" stroke-opacity="0.15" stroke-linecap="round" stroke-linejoin="round"/>
<path d="M398.362 172.025C397.165 167.677 395.428 163.496 393.191 159.58" stroke="black" stroke-opacity="0.15" stroke-linecap="round" stroke-linejoin="round"/>
<path d="M159.929 164.92C158.158 162.707 156.387 160.495 154.616 158.282" stroke="black" stroke-opacity="0.15" stroke-linecap="round" stroke-linejoin="round"/>
<path d="M152.821 165.781C155.479 162.833 158.136 159.885 160.794 156.938" stroke="black" stroke-opacity="0.15" stroke-linecap="round" stroke-linejoin="round"/>
<path d="M301.094 85.7083C298.788 82.687 297.13 79.2219 296.226 75.5307" stroke="black" stroke-linecap="round" stroke-linejoin="round"/>
<path d="M293.213 84.4573C295.871 81.5094 298.529 78.5615 301.187 75.6141" stroke="black" stroke-linecap="round" stroke-linejoin="round"/>
<path d="M254.513 222.24C251.72 220.84 249.455 218.574 248.055 215.782" stroke="black" stroke-linecap="round" stroke-linejoin="round"/>
<path d="M247.548 223.777C250.241 221.146 252.353 217.98 253.746 214.483" stroke="black" stroke-linecap="round" stroke-linejoin="round"/>
<path d="M145.768 339.275L125.855 341.266L142.006 356.976L145.768 339.275Z" stroke="black" stroke-opacity="0.15" stroke-linecap="round" stroke-linejoin="round"/>
<path d="M100.63 347.905L108.153 316.264L86.4692 332.859L100.63 347.905Z" stroke="black" stroke-opacity="0.15" stroke-linecap="round" stroke-linejoin="round"/>
<path d="M118.995 287.279L132.713 277.321L120.986 272.011L118.995 287.279Z" stroke="black" stroke-opacity="0.15" stroke-linecap="round" stroke-linejoin="round"/>
<path d="M155.282 294.359L156.389 313.166L170.107 303.43L155.282 294.359Z" stroke="black" stroke-opacity="0.15" stroke-linecap="round" stroke-linejoin="round"/>
<path d="M171.213 266.036L155.503 254.531L174.753 247.008L171.213 266.036Z" stroke="black" stroke-opacity="0.15" stroke-linecap="round" stroke-linejoin="round"/>
<path d="M190.905 243.247L206.172 241.698L196.436 233.512L190.905 243.247Z" stroke="black" stroke-opacity="0.15" stroke-linecap="round" stroke-linejoin="round"/>
<path d="M230.511 240.37L240.246 251.876L248.876 239.928L230.511 240.37Z" stroke="black" stroke-opacity="0.15" stroke-linecap="round" stroke-linejoin="round"/>
<path d="M286.048 242.584L276.976 260.727L298.217 258.072L286.048 242.584Z" stroke="black" stroke-opacity="0.15" stroke-linecap="round" stroke-linejoin="round"/>
<path d="M278.985 254.4C289.565 247.553 295.617 234.316 293.875 221.835C292.244 210.152 284.656 200.315 279.698 189.612C272.082 173.182 270.878 153.165 279.464 137.22C289.073 119.372 308.81 109.323 320.806 92.9833C325.785 86.1203 329.312 78.3135 331.172 70.0406C333.032 61.7682 333.185 53.2031 331.623 44.8689C330.4 38.5455 328.074 32.246 323.685 27.533C319.296 22.8199 312.56 19.959 306.286 21.4137C300.012 22.8684 294.94 29.3512 296.192 35.6689" stroke="black" stroke-linecap="round" stroke-linejoin="round"/>
<path d="M104.768 299.277L95.6343 296.29" stroke="black" stroke-linecap="round" stroke-linejoin="round"/>
<path d="M99.1545 301.365C99.704 298.569 100.7 295.879 102.105 293.399" stroke="black" stroke-linecap="round" stroke-linejoin="round"/>
<path d="M137.029 261.118L130.782 255.568" stroke="black" stroke-linecap="round" stroke-linejoin="round"/>
<path d="M129.219 262.093C132.13 259.709 134.813 257.06 137.235 254.181" stroke="black" stroke-linecap="round" stroke-linejoin="round"/>
<path d="M179.515 291.208L171.51 283.873" stroke="black" stroke-linecap="round" stroke-linejoin="round"/>
<path d="M171.091 292.481L176.971 284.206" stroke="black" stroke-linecap="round" stroke-linejoin="round"/>
<path d="M270.209 258.021C269.328 256.053 268.448 254.084 267.567 252.115" stroke="black" stroke-linecap="round" stroke-linejoin="round"/>
<path d="M265.208 257.005C267.971 255.981 270.536 254.486 272.788 252.588" stroke="black" stroke-linecap="round" stroke-linejoin="round"/>
<path d="M121.281 357.124L115.969 350.634" stroke="black" stroke-linecap="round" stroke-linejoin="round"/>
<path d="M114.792 358.008C117.054 355.746 119.315 353.484 121.577 351.222" stroke="black" stroke-linecap="round" stroke-linejoin="round"/>
<path d="M380.568 150.37C382.044 143.171 381.793 135.724 379.835 128.641" stroke="black" stroke-linecap="round" stroke-linejoin="round"/>
<path d="M206.448 95.0521C205.932 90.9625 206.432 86.8083 207.905 82.9578C209.377 79.1073 211.776 75.6792 214.889 72.9771" stroke="black" stroke-linecap="round" stroke-linejoin="round"/>
<path d="M268.483 108.349C270.087 105.286 270.982 101.903 271.103 98.4469C271.224 94.9917 270.567 91.5531 269.181 88.3854" stroke="black" stroke-linecap="round" stroke-linejoin="round"/>
<path d="M387.407 143.966C386.958 140.625 386.508 137.284 386.058 133.943" stroke="black" stroke-linecap="round" stroke-linejoin="round"/>
<path fill-rule="evenodd" clip-rule="evenodd" d="M362.207 458.597C363.974 450.898 359.242 441.827 352.107 438.385C351.253 437.969 350.359 437.64 349.439 437.401L349.145 436.956C345.991 438.994 342.782 440.925 339.515 442.748L340.305 444.178C344.894 445.162 347.671 450.522 346.731 455.124C345.791 459.726 341.916 463.318 337.534 464.997C335.688 465.691 333.76 466.142 331.798 466.339C329.084 466.601 326.351 466.605 323.636 466.352C321.742 466.201 319.849 465.988 317.968 465.706C313.753 465.085 309.597 464.114 305.543 462.804C303.208 462.047 300.913 461.17 298.668 460.177L298.564 459.826C293.737 461.267 288.876 462.571 283.98 463.737L284.056 464.064C294.67 470.627 305.803 474.658 318.047 477.072C320.385 477.538 322.761 477.912 325.143 478.163C331.607 478.846 338.15 478.608 344.296 476.589C352.702 473.831 360.227 467.223 362.207 458.597ZM352.15 445.135C351.739 444.816 351.149 444.891 350.83 445.301C350.512 445.711 350.586 446.302 350.996 446.62C352.663 447.915 353.96 449.624 354.758 451.579C355.554 453.533 355.823 455.662 355.537 457.753C355.466 458.268 355.827 458.742 356.341 458.813C356.856 458.883 357.33 458.523 357.4 458.008C357.732 455.591 357.421 453.128 356.499 450.868C355.577 448.609 354.077 446.631 352.15 445.135Z" fill="black" fill-opacity="0.15"/>
</g>
</g>
</g>
<defs>
<clipPath id="clip0_20_20763">
<rect width="500" height="500" fill="white"/>
</clipPath>
</defs>
</svg>