<svg xmlns="http://www.w3.org/2000/svg" width="500" height="500" viewBox="0 0 500 500" fill="none">
<g clip-path="url(#clip0_20_25374)">
<mask id="mask0_20_25374" style="mask-type:luminance" maskUnits="userSpaceOnUse" x="0" y="0" width="500" height="500">
<path d="M500 0H0V500H500V0Z" fill="white"/>
</mask>
<g mask="url(#mask0_20_25374)">
<path fill-rule="evenodd" clip-rule="evenodd" d="M333.328 437.703C330.151 441.662 324.63 443.432 319.526 444.63C310.724 446.662 300.932 447.964 292.859 444.422C292.859 449.854 292.813 455.292 292.76 460.724H292.964L293.703 460.736C309.653 460.992 325.554 461.248 341.505 461.453C346.714 461.557 351.979 461.61 356.979 460.203C361.979 458.797 366.719 455.672 368.906 450.984L369.615 450.552C369.091 449.244 368.326 448.046 367.359 447.021C366.97 446.61 366.557 446.22 366.125 445.854C364.455 444.481 362.534 443.446 360.469 442.807C356.88 441.698 353.115 441.495 349.349 441.344C348.521 441.313 347.693 441.281 346.87 441.245C342.339 440.984 337.599 440.412 333.693 438.016L333.328 437.703ZM340.55 445.596C342.886 445.168 345.265 445.035 347.634 445.2H347.634C352.235 445.517 356.694 446.922 360.645 449.3C361.009 449.519 361.482 449.402 361.701 449.038C361.92 448.674 361.803 448.201 361.439 447.981C357.279 445.477 352.584 443.998 347.741 443.664C345.244 443.49 342.735 443.63 340.272 444.081C339.855 444.158 339.578 444.559 339.654 444.977C339.731 445.395 340.132 445.673 340.55 445.596Z" fill="black" fill-opacity="0.15"/>
<path fill-rule="evenodd" clip-rule="evenodd" d="M218.806 289.303C216.231 299.654 213.634 310.097 209.046 319.776C204.411 329.516 197.536 338.583 188.161 343.948C173.109 352.594 154.203 350.615 137.588 345.51C137.343 345.434 137.097 345.358 136.85 345.281C132.539 343.937 128.058 342.54 123.625 343.427C121.235 343.915 119.011 345.009 117.166 346.604C117.161 346.609 117.151 346.615 117.145 346.62L117.192 346.677L117.218 346.708C113.312 349.938 110.5 354.938 108.208 359.625C105.395 365.422 102.692 371.365 102.364 377.51C102.316 378.328 102.318 379.147 102.369 379.964C102.395 380.386 102.427 380.813 102.479 381.24C102.55 381.976 102.671 382.707 102.843 383.427C103.302 385.5 103.932 386.943 104.828 387.964C104.977 388.133 105.139 388.292 105.312 388.438C107.376 390.22 110.643 390.354 115.915 390.569C117.853 390.649 120.063 390.74 122.583 390.927C182.536 395.406 223.739 383.271 240.25 351.396C244.781 342.698 246.968 333.057 248.843 323.37C248.853 323.391 248.863 323.412 248.871 323.434C248.876 323.447 248.88 323.461 248.885 323.474C251.125 328.807 253.203 333.912 255.13 338.88C255.484 339.792 255.833 340.693 256.177 341.594C256.52 342.495 256.859 343.386 257.192 344.281C257.357 344.72 257.523 345.165 257.688 345.609L257.692 345.62C258.187 346.953 258.671 348.281 259.145 349.604C259.937 351.807 260.703 354 261.442 356.182C262.182 358.365 262.89 360.537 263.578 362.719C263.58 362.721 263.582 362.725 263.583 362.729C268.411 378.005 272.088 393.464 275.25 412.182C276.364 418.625 277.739 425.484 280.463 431.37C280.755 431.99 281.052 432.599 281.375 433.193C283.312 436.99 286.19 440.229 289.734 442.599C290.707 443.245 291.735 443.803 292.807 444.266C292.822 444.271 292.843 444.281 292.859 444.287C300.921 447.802 310.692 446.5 319.473 444.474C324.578 443.276 330.151 441.505 333.276 437.547C333.752 436.945 334.17 436.3 334.526 435.62C337.286 430.255 335.151 423.745 332.963 418.068C323.614 393.646 314.348 369.506 305.078 345.355C296.547 323.129 288.012 300.894 279.406 278.422H279.364C275.213 278.24 271.32 278.045 267.428 277.85C263.525 277.654 259.622 277.458 255.458 277.276H255.354L253.895 291.964L228.171 293.057L228.166 293.109L219.817 288.787L219.208 288.474L219.166 288.453L218.895 288.943L218.806 289.303ZM277.157 287.393C276.992 287.002 276.54 286.818 276.149 286.983C275.757 287.149 275.573 287.601 275.739 287.992C295.509 334.834 313.49 382.337 329.681 430.501C329.817 430.904 330.254 431.12 330.656 430.985C331.059 430.85 331.276 430.413 331.141 430.01C314.937 381.809 296.942 334.27 277.157 287.393Z" fill="black"/>
<path d="M140.14 264.667C142.119 268.63 144.463 272.849 141.39 276.86C138.421 280.766 132.687 282.849 128.416 284.724C122.848 287.173 117.08 289.142 111.177 290.61C109.666 290.974 93.5203 294.203 93.4161 293.422C91.964 284.332 89.964 275.338 87.4265 266.49C92.3223 263.834 97.8953 262.636 103.364 261.542C108.833 260.448 114.406 259.354 119.354 256.75C124.302 254.198 128.624 249.875 129.874 244.406C133.26 251.177 136.697 258 140.14 264.667Z" fill="black" fill-opacity="0.15"/>
<path d="M370 451.766C370.989 455.88 369.114 460.36 365.937 463.172C362.76 465.985 358.542 467.339 354.323 467.755C350.104 468.172 345.88 467.755 341.661 467.443C339.859 467.307 338.055 467.189 336.25 467.089C336.229 467.09 336.208 467.088 336.187 467.083C324.113 466.406 312.008 466.474 299.943 467.287C298.078 467.37 295.911 467.386 294.448 466.391C294.354 466.323 294.266 466.255 294.177 466.188C294.088 466.12 294.005 466.037 293.927 465.953C293.844 465.873 293.765 465.788 293.693 465.698C293.62 465.61 293.552 465.511 293.484 465.412C292.755 464.318 292.755 462.912 292.755 461.61C292.76 461.313 292.76 461.021 292.76 460.724H292.963C309.161 460.985 325.307 461.245 341.505 461.453C346.713 461.557 351.974 461.61 356.979 460.203C361.984 458.797 366.719 455.672 368.906 450.985L369.614 450.552C369.769 450.948 369.898 451.353 370 451.766Z" fill="black" fill-opacity="0.15"/>
<path d="M294.448 466.391C295.911 467.386 298.078 467.37 299.943 467.287C298.073 467.412 295.906 467.401 294.448 466.391Z" fill="black" fill-opacity="0.15"/>
<path d="M294.177 466.188C294.266 466.255 294.354 466.323 294.448 466.391C294.355 466.328 294.264 466.26 294.177 466.188Z" fill="black" fill-opacity="0.15"/>
<path d="M293.692 465.698C293.765 465.788 293.843 465.873 293.927 465.953C293.842 465.875 293.764 465.789 293.692 465.698Z" fill="black" fill-opacity="0.15"/>
<path d="M283.333 90.4167C283.411 90.323 283.49 90.224 283.568 90.1251C283.495 90.224 283.417 90.323 283.333 90.4167Z" fill="black"/>
<path d="M282.849 91.0053L283.292 90.4688C283.151 90.6459 283 90.8282 282.849 91.0053Z" fill="black"/>
<path d="M282.348 91.5886C282.499 91.4115 282.65 91.2345 282.807 91.0574C282.661 91.2345 282.505 91.4115 282.348 91.5886Z" fill="black"/>
<path d="M281.843 92.1667C281.994 91.9896 282.151 91.8178 282.307 91.6407C282.156 91.8178 282 91.9896 281.843 92.1667Z" fill="black"/>
<path d="M280.348 267.953C280.041 271.396 279.734 274.896 279.374 278.339C279.369 278.333 279.369 278.323 279.364 278.318C271.031 277.953 263.739 277.537 255.406 277.172H255.364L256.343 267.287L256.656 267.328C258.107 267.197 259.568 267.194 261.02 267.323L261.022 267.325C261.023 267.325 261.024 267.325 261.025 267.325C261.027 267.325 261.028 267.325 261.028 267.325C261.029 267.324 261.031 267.323 261.031 267.323C262.536 267.448 264.036 267.667 265.541 267.906C265.796 267.948 266.046 267.99 266.302 268.026C267.052 268.151 267.802 268.271 268.557 268.386C269.312 268.5 270.067 268.599 270.822 268.682C273.999 269.047 277.38 268.995 280.348 267.953Z" fill="black" fill-opacity="0.15"/>
<path d="M270.823 268.682C274.052 268.995 277.437 268.943 280.354 267.901C280.354 267.917 280.349 267.938 280.349 267.953C277.38 268.995 274 269.047 270.823 268.682Z" fill="black" fill-opacity="0.15"/>
<path d="M279.406 278.422H279.364C279.369 278.396 279.369 278.365 279.374 278.339C279.385 278.365 279.395 278.396 279.406 278.422Z" fill="black"/>
<path d="M274.688 89.2553C274.464 89.5522 274.25 89.8439 274.052 90.1251L274.13 90.0001C274.307 89.7553 274.49 89.5053 274.688 89.2553Z" fill="black"/>
<path d="M266.302 268.026C267.052 268.146 267.807 268.271 268.557 268.385C267.802 268.271 267.052 268.151 266.302 268.026Z" fill="black" fill-opacity="0.15"/>
<path d="M266.916 97.6772C270.95 97.9459 275.002 97.7715 278.999 97.1564C282.462 96.5912 285.864 95.7022 289.161 94.5001C290.232 94.1095 291.219 93.5173 292.067 92.7553C291.208 93.5428 290.203 94.1532 289.109 94.5522C285.81 95.748 282.409 96.6371 278.947 97.2084C278.603 97.2605 278.254 97.3126 277.906 97.3595C274.249 97.8777 270.547 98.0017 266.864 97.7293C261.692 97.3959 255.598 96.6199 251.937 99.9376C255.593 96.5574 261.718 97.3386 266.916 97.6772Z" fill="black"/>
<path d="M265.218 87.7604C266.645 86.8073 267.984 85.625 269.327 84.7344C267.994 85.6406 266.656 86.8229 265.218 87.7604Z" fill="black"/>
<path d="M264.938 161.641L264.901 161.693H248.818L248.792 161.641H264.938Z" fill="black" fill-opacity="0.15"/>
<path d="M264.901 161.693L257.453 171.958L257.229 171.797C256.031 171.693 254.781 171.536 253.583 171.432L248.818 161.693H264.901Z" fill="black" fill-opacity="0.15"/>
<path d="M275.25 412.182C276.365 418.625 277.74 425.484 280.464 431.37C277.703 425.458 276.318 418.563 275.198 412.078C272.068 393.422 268.406 377.995 263.583 362.729C268.412 378.005 272.089 393.464 275.25 412.182Z" fill="black"/>
<path d="M263.062 200.5L256.291 267.276V267.281L256.239 267.276L255.26 277.172H255.249L253.791 291.86L228.182 292.948L236.291 196.021H236.286L236.291 195.979L263.062 200.5ZM248.583 287.797L255.822 222.375L240.406 220.917L232.958 288.11H233.015L233.01 288.162L248.583 287.797ZM255.249 208.521C255.284 207.74 255.161 206.961 254.886 206.229C254.611 205.497 254.19 204.828 253.65 204.264C253.11 203.699 252.461 203.249 251.742 202.942C251.023 202.635 250.25 202.477 249.468 202.477C248.687 202.477 247.913 202.635 247.194 202.942C246.475 203.249 245.826 203.699 245.286 204.264C244.746 204.828 244.326 205.497 244.051 206.229C243.776 206.961 243.652 207.74 243.687 208.521C243.687 208.93 243.727 209.338 243.807 209.74C244.002 210.837 244.501 211.858 245.248 212.686C245.995 213.514 246.959 214.115 248.031 214.422C248.121 214.45 248.213 214.473 248.307 214.49C248.496 214.531 248.687 214.563 248.88 214.584C249.271 214.625 249.665 214.625 250.057 214.584C250.249 214.563 250.441 214.531 250.63 214.49C250.723 214.469 250.817 214.448 250.906 214.422C251.977 214.115 252.942 213.514 253.688 212.686C254.435 211.858 254.935 210.837 255.13 209.74C255.209 209.338 255.249 208.93 255.249 208.521Z" fill="black" fill-opacity="0.15"/>
<path d="M263.063 200.5L236.292 195.979V195.969L263.063 200.5Z" fill="black" fill-opacity="0.15"/>
<path d="M261.442 356.182C262.182 358.365 262.89 360.537 263.578 362.719C262.89 360.542 262.178 358.363 261.442 356.182Z" fill="black"/>
<path d="M261.031 267.323C262.536 267.443 264.042 267.667 265.542 267.906C264.036 267.667 262.536 267.448 261.031 267.323Z" fill="black" fill-opacity="0.15"/>
<path d="M256.656 267.328C258.108 267.194 259.568 267.192 261.02 267.323C259.568 267.194 258.108 267.196 256.656 267.328Z" fill="black" fill-opacity="0.15"/>
<path d="M256.177 341.594C256.52 342.495 256.859 343.385 257.192 344.281C256.859 343.391 256.52 342.495 256.177 341.594Z" fill="black"/>
<path d="M256.343 267.287L255.364 277.172H255.312L256.291 267.281L256.343 267.287Z" fill="black" fill-opacity="0.15"/>
<path d="M256.344 267.276V267.287L256.292 267.281V267.276L263.063 200.5L256.344 267.276Z" fill="black" fill-opacity="0.15"/>
<path d="M256.292 267.281L255.313 277.172H255.26L256.24 267.276L256.292 267.281Z" fill="black" fill-opacity="0.15"/>
<path d="M279.364 278.422C271.051 278.057 263.775 277.641 255.458 277.276H255.354L255.364 277.172H255.406C263.739 277.536 271.031 277.953 279.364 278.318C279.369 278.323 279.369 278.333 279.374 278.339C279.369 278.365 279.369 278.396 279.364 278.422Z" fill="black" fill-opacity="0.15"/>
<path d="M255.365 277.172L255.354 277.276H255.302L255.313 277.172H255.365Z" fill="black" fill-opacity="0.15"/>
<path d="M253.896 291.964L228.172 293.057L253.792 291.964L255.302 277.276H255.354L253.896 291.964Z" fill="black" fill-opacity="0.15"/>
<path d="M255.313 277.172L255.302 277.276H255.25L255.26 277.172H255.313Z" fill="black" fill-opacity="0.15"/>
<path d="M253.792 291.964L228.172 293.057L228.182 292.948L253.792 291.859L255.25 277.172H255.26L255.25 277.276H255.302L253.792 291.964Z" fill="black" fill-opacity="0.15"/>
<path d="M248.583 287.797L233.01 288.162L233.015 288.11L248.583 287.797Z" fill="black" fill-opacity="0.15"/>
<path d="M246.083 92.3126C245.979 92.4219 245.88 92.5313 245.787 92.6459C245.865 92.5521 245.948 92.4584 246.031 92.3646C246.048 92.3459 246.065 92.3287 246.083 92.3126Z" fill="black"/>
<path d="M245.786 92.6459C245.692 92.7553 245.598 92.8699 245.51 92.9897C245.598 92.8699 245.687 92.7553 245.786 92.6459Z" fill="black"/>
<path d="M243.807 209.74C244.01 210.834 244.511 211.851 245.257 212.678C246.003 213.504 246.963 214.108 248.031 214.422C246.959 214.115 245.995 213.514 245.248 212.686C244.501 211.858 244.002 210.837 243.807 209.74Z" fill="black" fill-opacity="0.15"/>
<path d="M244.266 95.2449C244.224 95.3491 244.182 95.4533 244.151 95.5574C244.188 95.4533 244.224 95.3491 244.266 95.2449Z" fill="black"/>
<path d="M243.864 96.474C243.823 96.6146 243.792 96.7553 243.755 96.9011C243.792 96.7553 243.828 96.6146 243.864 96.474Z" fill="black"/>
<path d="M243.588 127.109C243.666 127.125 243.739 127.141 243.817 127.151C243.74 127.142 243.663 127.128 243.588 127.109Z" fill="black"/>
<path d="M242.734 126.771C242.997 126.931 243.286 127.045 243.588 127.109C243.285 127.05 242.995 126.935 242.734 126.771Z" fill="black"/>
<path d="M274.937 88.9375C277.729 85.4063 282.088 81.3125 285.203 82.9375C287.193 83.7917 286.5 85.9688 284.818 88.4479C284.443 88.9948 284.021 89.5573 283.568 90.125C283.489 90.224 283.411 90.3229 283.333 90.4167C283.318 90.4375 283.302 90.4531 283.292 90.4688L282.849 91.0052C282.832 91.0203 282.818 91.0375 282.807 91.0573C282.651 91.2344 282.5 91.4115 282.349 91.5886C282.334 91.6047 282.32 91.6219 282.307 91.6406C282.151 91.8177 281.995 91.9896 281.844 92.1667C281.505 92.5521 281.161 92.9323 280.823 93.3021C280.805 93.3182 280.787 93.3354 280.771 93.3542C283 91.724 285.219 91.0313 286.864 89.6719C286.953 89.6042 287.041 89.5261 287.13 89.4479C288.797 87.9375 291.87 87.1042 293.068 89.0313C293.76 90.1771 293.349 91.3646 292.453 92.3698C292.333 92.5057 292.204 92.6349 292.068 92.7552C291.22 93.5172 290.233 94.1094 289.161 94.5C285.865 95.7021 282.463 96.5917 279 97.1563C275.003 97.7714 270.951 97.9458 266.916 97.6771C261.719 97.3386 255.594 96.5573 251.937 99.9375C251.791 100.065 251.652 100.201 251.521 100.344C251.348 100.523 251.185 100.71 251.031 100.906C249.052 103.406 248.896 106.792 248.791 109.969C248.635 114.552 248.479 119.188 248.323 123.776C248.322 123.893 248.313 124.009 248.297 124.125C248.282 124.239 248.259 124.352 248.229 124.464C248.213 124.516 248.198 124.573 248.177 124.625C248.135 124.734 248.088 124.844 248.041 124.948C247.709 125.534 247.246 126.036 246.689 126.417C246.132 126.796 245.496 127.044 244.828 127.141C244.765 127.151 244.708 127.156 244.646 127.167C244.37 127.193 244.092 127.188 243.818 127.151C243.739 127.141 243.667 127.125 243.588 127.109C243.287 127.045 242.998 126.931 242.734 126.771C242.672 126.729 242.604 126.688 242.541 126.641C240.614 125.182 241.239 121.688 243.375 120.75C241.604 121.427 239.833 122.891 238.114 122C233.271 119.865 242.75 111.635 243.062 106.01C243.208 103.344 243.109 100.469 243.568 97.8386C243.62 97.5209 243.682 97.2084 243.755 96.9011C243.792 96.7552 243.823 96.6146 243.864 96.474C243.948 96.1667 244.041 95.8594 244.151 95.5573C244.182 95.4531 244.224 95.349 244.265 95.2448C244.318 95.1094 244.37 94.9792 244.427 94.8438C244.541 94.5834 244.667 94.3281 244.807 94.0781C244.864 93.9688 244.927 93.8646 244.989 93.7604C245.042 93.6719 245.094 93.5834 245.151 93.5C245.265 93.3229 245.385 93.1563 245.51 92.9896C245.599 92.8698 245.693 92.7552 245.786 92.6459C245.88 92.5365 245.979 92.4219 246.083 92.3125C246.216 92.1677 246.357 92.0302 246.505 91.9011C250.036 88.7136 255.63 89.1979 260.458 89.3958C261.906 89.4068 263.324 88.9865 264.531 88.1875C264.765 88.0573 264.995 87.9115 265.219 87.7604C266.656 86.8229 267.995 85.6406 269.328 84.7344C269.541 84.5886 269.75 84.4531 269.963 84.3229C270.926 83.6844 272.064 83.3636 273.219 83.4063C276.552 83.4063 275.354 88.0938 274 90.1771C274.042 90.1198 274.083 90.0573 274.13 90L274.052 90.125C274.25 89.8438 274.463 89.5521 274.687 89.2552C274.771 89.1511 274.849 89.0417 274.937 88.9375Z" fill="black"/>
<path d="M236.292 196.021L228.182 292.948H228.177L236.287 196.021H236.292Z" fill="black" fill-opacity="0.15"/>
<path d="M236.286 196.021L228.177 292.948L228.125 292.953L236.234 196.026L236.286 196.021Z" fill="black" fill-opacity="0.15"/>
<path d="M230.823 207.74L211.24 203.104C211.245 203.094 211.25 203.078 211.255 203.068L230.823 207.74Z" fill="black" fill-opacity="0.15"/>
<path d="M228.182 292.948L228.172 293.057H228.167L228.177 292.948H228.182Z" fill="black" fill-opacity="0.15"/>
<path d="M228.177 292.948L228.167 293.057H228.115L228.125 292.953L228.177 292.948Z" fill="black" fill-opacity="0.15"/>
<path d="M228.166 293.057H228.171L228.166 293.11L219.817 288.787L228.114 293.057H228.166Z" fill="black" fill-opacity="0.15"/>
<path d="M228.062 292.953H228.124L228.114 293.057L219.817 288.786L219.208 288.474L219.166 288.453V288.448L219.208 288.37L228.062 292.953Z" fill="black" fill-opacity="0.15"/>
<path d="M213.323 198.208L213.635 198.417L236.234 196.026L228.125 292.953H228.062L219.208 288.37L219.166 288.448L207.588 282.432L207.484 282.38L207.187 282.224L203.161 280.141L202.901 280.089V279.516C202.89 279.443 202.88 279.375 202.864 279.302C202.575 278.24 202.013 277.273 201.234 276.495C199.276 274.125 197.239 271.88 195.083 269.714C194.776 269.401 194.463 269.094 194.151 268.787L192.745 268.682L193.682 268.37C194.774 267.886 195.761 267.194 196.588 266.333C196.607 266.316 196.625 266.296 196.64 266.276C196.734 266.177 196.828 266.073 196.916 265.969L197.015 266.021L218.114 281.287L230.823 207.74L211.255 203.068C211.406 202.766 211.557 202.469 211.708 202.167C211.806 202.049 211.878 201.912 211.922 201.765C211.966 201.619 211.98 201.465 211.963 201.313C211.969 201.162 211.969 201 211.974 200.849C211.965 200.719 211.983 200.588 212.027 200.465C212.071 200.343 212.139 200.23 212.229 200.136C212.594 199.511 212.958 198.833 213.323 198.208Z" fill="black" fill-opacity="0.15"/>
<path d="M196.916 265.969C196.828 266.073 196.734 266.177 196.64 266.276C196.734 266.177 196.822 266.073 196.911 265.969H196.916Z" fill="black" fill-opacity="0.15"/>
<path d="M195.083 269.714C197.239 271.88 199.275 274.125 201.234 276.495C199.275 274.172 197.234 271.885 195.083 269.714Z" fill="black" fill-opacity="0.15"/>
<path d="M173.213 265.813C173.523 266.353 173.909 266.846 174.359 267.276L173.995 267.38C173.883 267.756 173.796 268.139 173.734 268.526L173.672 268.516L173.422 268.474L168.005 264.823L168.01 264.808L169.255 257.948V257.792C170.239 257.749 171.225 257.784 172.203 257.896V257.906C172.18 257.946 172.169 257.991 172.172 258.037V258.052C172.021 258.764 171.923 259.487 171.88 260.214C171.855 260.637 171.854 261.061 171.875 261.485C171.948 263.017 172.408 264.506 173.213 265.813Z" fill="black" fill-opacity="0.15"/>
<path d="M172.223 257.896C172.219 257.896 172.216 257.897 172.212 257.899C172.208 257.901 172.205 257.903 172.203 257.906V257.896H172.223Z" fill="black" fill-opacity="0.15"/>
<path d="M172.172 258.052V258.104C172.023 258.799 171.925 259.504 171.88 260.214C171.923 259.487 172.021 258.764 172.172 258.052Z" fill="black" fill-opacity="0.15"/>
<path d="M210.875 174.193C239.922 181.938 250.708 174.302 253.094 172.094C250.818 174.24 240.094 182.052 210.823 174.245C207.901 173.464 205.036 172.734 202.172 172.005C175.385 165.261 150.932 161.958 135.891 180.511C150.714 162.12 174.724 165.115 201.104 171.672C201.474 171.766 201.849 171.859 202.224 171.953C205.089 172.682 207.953 173.412 210.875 174.193Z" fill="black" fill-opacity="0.15"/>
<path d="M140.089 207.74L125.344 211.386L125.349 211.37L140.036 207.74C140.036 207.74 156.266 183.516 189.333 182.026C156.302 183.542 140.089 207.74 140.089 207.74Z" fill="black" fill-opacity="0.15"/>
<path d="M105.969 341.292C107.262 341.041 108.599 341.139 109.844 341.573C105.948 343.807 102.573 346.823 99.2499 349.781C93.9894 354.417 88.7811 359.052 83.5207 363.688C81.5936 365.406 79.6665 367.073 78.104 369.104C76.4884 371.103 75.4285 373.492 75.0311 376.031C74.8426 378.782 75.4962 381.526 76.9061 383.896C78.2603 386.292 80.1353 388.271 82.1144 390.198L82.203 390.5C81.4202 390.772 80.5754 390.811 79.7707 390.615C78.9462 390.323 78.2212 389.804 77.6769 389.12C77.578 389.011 77.4842 388.891 77.3905 388.771C77.1665 388.485 76.9582 388.193 76.7499 387.906C75.2394 385.771 73.6769 383.688 72.1665 381.552C72.0155 381.344 71.8644 381.136 71.7134 380.922C71.5519 380.693 71.3957 380.453 71.2394 380.214C71.1665 380.104 71.0988 379.99 71.0311 379.88C70.9634 379.771 70.8957 379.656 70.828 379.542C70.7082 379.334 70.5936 379.125 70.4894 378.917C69.8228 377.742 69.5868 376.372 69.8228 375.042C70.1874 373.375 71.4894 372.125 72.6874 370.927L99.4061 345.459C101.333 343.636 103.364 341.761 105.969 341.292Z" fill="black" fill-opacity="0.15"/>
<path d="M108.208 359.573C110.494 354.896 113.302 349.906 117.192 346.677L117.218 346.708C113.312 349.938 110.499 354.938 108.208 359.625C105.395 365.422 102.692 371.365 102.364 377.511C102.677 371.349 105.385 365.386 108.208 359.573Z" fill="black" fill-opacity="0.15"/>
<path d="M102.479 381.24C102.549 381.977 102.671 382.707 102.843 383.427C103.301 385.5 103.932 386.943 104.827 387.964C103.9 386.943 103.255 385.485 102.791 383.375C102.645 382.682 102.541 381.99 102.442 381.297L102.479 381.292C102.426 380.849 102.39 380.406 102.369 379.964C102.395 380.386 102.426 380.813 102.479 381.24Z" fill="black"/>
<path d="M102.369 379.964C102.39 380.406 102.427 380.849 102.479 381.292L102.442 381.297L102.427 381.188C101.593 373.688 104.822 366.5 108.156 359.521C110.442 354.844 113.249 349.849 117.145 346.62L117.192 346.677C113.302 349.906 110.494 354.896 108.208 359.573C105.385 365.386 102.677 371.349 102.364 377.511C102.317 378.328 102.318 379.147 102.369 379.964Z" fill="black" fill-opacity="0.15"/>
<path d="M102.062 381.344C96.1245 384.156 90.1349 386.969 84.1974 389.781C82.8433 390.459 81.2808 391.084 79.8224 390.667C78.9641 390.386 78.2141 389.846 77.6766 389.12C78.2209 389.804 78.9464 390.323 79.7704 390.615C80.5756 390.811 81.4198 390.771 82.2027 390.5L82.1141 390.198C80.1349 388.271 78.2599 386.292 76.9058 383.896C75.4964 381.526 74.8422 378.782 75.0308 376.031C75.4282 373.492 76.4881 371.103 78.1037 369.104C79.6662 367.073 81.5933 365.406 83.5204 363.688C88.7808 359.052 93.9891 354.417 99.2495 349.781C102.572 346.823 105.947 343.807 109.843 341.573C110.098 341.656 110.354 341.75 110.609 341.854C110.906 341.979 111.203 342.12 111.494 342.271C111.703 342.38 111.906 342.495 112.114 342.615C112.208 342.672 112.307 342.729 112.406 342.792C113.58 343.534 114.691 344.369 115.729 345.292C115.838 345.386 115.942 345.479 116.046 345.573C116.354 345.849 116.661 346.12 116.958 346.396L117.145 346.62C113.25 349.849 110.442 354.844 108.156 359.521C104.822 366.5 101.593 373.688 102.427 381.188L102.442 381.297L102.062 381.344Z" fill="black" fill-opacity="0.15"/>
<path d="M71.0308 379.88C71.0985 379.99 71.1662 380.104 71.2391 380.214C71.1662 380.104 71.0933 379.995 71.0308 379.88Z" fill="black" fill-opacity="0.15"/>
<path d="M70.8279 379.542C70.8956 379.656 70.9633 379.766 71.031 379.88C70.9581 379.771 70.8904 379.656 70.8279 379.542Z" fill="black" fill-opacity="0.15"/>
<path d="M265.667 149.297C264.104 146.484 265.042 143.464 266.865 140.859C268.687 138.255 271.292 136.276 273.375 133.88C277.49 129.089 279.469 122.734 279.99 116.427C280.51 110.12 279.729 103.823 279 97.5209" stroke="black" stroke-linecap="round" stroke-linejoin="round"/>
<path d="M243.374 120.75C241.239 121.688 240.614 125.182 242.541 126.641C242.604 126.688 242.671 126.729 242.734 126.771C242.997 126.931 243.286 127.045 243.588 127.11C243.666 127.125 243.739 127.141 243.817 127.151C244.092 127.188 244.369 127.193 244.645 127.167C244.708 127.162 244.77 127.151 244.828 127.141C245.496 127.05 246.135 126.804 246.693 126.424C247.25 126.043 247.712 125.538 248.041 124.948C248.094 124.844 248.139 124.736 248.177 124.625C248.197 124.573 248.213 124.516 248.229 124.464C248.258 124.352 248.281 124.239 248.296 124.125C248.313 124.01 248.321 123.893 248.322 123.776V123.516" stroke="black" stroke-linecap="round" stroke-linejoin="round"/>
<path d="M243.947 120.594C243.739 120.646 243.583 120.698 243.374 120.75" stroke="black" stroke-linecap="round" stroke-linejoin="round"/>
<path d="M247.542 149.557V149.453C247.802 140.912 248.062 132.318 248.375 123.776C248.531 119.136 248.687 114.552 248.844 109.917C248.948 106.74 249.156 103.302 251.083 100.854C251.224 100.677 251.37 100.505 251.521 100.344C251.652 100.201 251.791 100.065 251.937 99.9376C255.594 96.5574 261.719 97.3386 266.917 97.6772C270.952 97.9459 275.003 97.7714 279 97.1563C282.463 96.5912 285.865 95.7022 289.161 94.5001C290.233 94.1095 291.219 93.5173 292.068 92.7553C292.204 92.6345 292.332 92.5058 292.453 92.3699C293.385 91.3543 293.823 90.1459 293.12 88.9793C291.922 87.0522 288.849 87.8855 287.182 89.3959C287.078 89.4897 286.974 89.5834 286.865 89.672C285.229 90.9949 283.073 91.6928 280.823 93.3022C281.161 92.9324 281.505 92.5522 281.844 92.1668C281.995 91.9897 282.151 91.8178 282.307 91.6407C282.32 91.622 282.333 91.6048 282.349 91.5886C282.5 91.4116 282.651 91.2345 282.807 91.0574C282.818 91.0376 282.832 91.0204 282.849 91.0053L283.292 90.4688C283.302 90.4532 283.318 90.4376 283.333 90.4168C283.411 90.323 283.49 90.224 283.568 90.1251C284.021 89.5574 284.443 88.9949 284.818 88.448C286.526 85.9636 287.255 83.7761 285.255 82.8855C282.12 81.2501 277.693 85.3959 274.938 88.9376C274.849 89.0418 274.771 89.1511 274.688 89.2553C274.464 89.5522 274.25 89.8438 274.052 90.1251L274.13 90.0001C275.448 87.8595 276.49 83.3543 273.271 83.3543C272.093 83.3157 270.934 83.6553 269.964 84.323C269.75 84.4532 269.542 84.5886 269.328 84.7345C267.995 85.6407 266.656 86.823 265.219 87.7605C264.995 87.9116 264.766 88.0574 264.531 88.1876C263.331 88.9532 261.934 89.3548 260.51 89.3438C255.656 89.1459 250.036 88.6563 246.505 91.9011C246.357 92.0303 246.216 92.1673 246.083 92.3126C245.979 92.422 245.88 92.5313 245.786 92.6459C245.693 92.7605 245.599 92.8699 245.51 92.9897C245.385 93.1563 245.266 93.323 245.151 93.5001C245.094 93.5834 245.042 93.672 244.99 93.7605C244.927 93.8647 244.865 93.9688 244.807 94.0782C244.667 94.3282 244.542 94.5834 244.427 94.8438C244.37 94.9793 244.318 95.1095 244.266 95.2449C244.224 95.3491 244.182 95.4532 244.151 95.5574C244.042 95.8595 243.948 96.1668 243.865 96.4741C243.823 96.6147 243.792 96.7553 243.755 96.9011C243.682 97.2084 243.62 97.5209 243.568 97.8386C243.12 100.438 243.229 103.287 243.115 105.958C242.802 111.583 233.323 119.813 238.167 121.948C239.885 122.839 241.656 121.375 243.427 120.698" stroke="black" stroke-linecap="round" stroke-linejoin="round"/>
<path d="M238.322 157.995C237.958 156.38 237.697 155.703 237.906 154.037C238.114 152.37 238.947 150.703 240.51 149.974C241.575 149.582 242.711 149.423 243.843 149.505H247.593C253.619 149.505 259.64 149.557 265.666 149.557H267.489C270.145 149.557 272.906 149.609 275.249 150.912C277.52 152.203 279.176 155.078 278.14 157.464C278.134 157.486 278.125 157.506 278.114 157.526" stroke="black" stroke-linecap="round" stroke-linejoin="round"/>
<path d="M238.062 158.255H238.375C251.604 158.724 264.99 159.141 278.063 157.474C278.089 157.469 278.115 157.469 278.141 157.464C281.5 157.047 284.813 156.479 288.12 155.755C309.251 151.064 328.324 139.729 342.547 123.412C346.297 119.083 350.151 114.135 355.729 112.833C356.195 112.726 356.666 112.642 357.141 112.583C357.172 112.578 357.208 112.578 357.24 112.573C358.765 112.428 360.303 112.56 361.781 112.964C361.813 112.974 361.844 112.979 361.875 112.99C365.364 114.013 368.386 116.223 370.417 119.24L370.448 119.287C370.815 119.843 371.153 120.418 371.458 121.01C374.271 126.745 373.594 133.724 370.99 139.557C368.333 145.391 363.906 150.182 359.167 154.453C338.276 173.203 310.776 182.995 283.12 188.151C283.068 188.162 283.016 188.167 282.964 188.177C281.818 188.375 280.667 188.578 279.573 188.776" stroke="black" stroke-linecap="round" stroke-linejoin="round"/>
<path d="M357.083 112.104C357.812 110.646 357.447 108.875 356.718 107.417C355.989 105.958 354.947 104.656 354.27 103.198C353.593 101.74 353.276 99.9167 354.057 98.5105C355 96.8438 356.979 96.2709 358.906 95.9584C359.145 95.9016 359.389 95.8667 359.635 95.8542C361.822 95.5417 364.114 95.2292 366.25 95.698C366.26 95.698 366.27 95.7032 366.281 95.7032C366.734 95.7948 367.178 95.9328 367.604 96.1146C368.734 96.5047 369.693 97.2787 370.312 98.3021C370.614 98.8131 370.778 99.3943 370.787 99.9881C370.796 100.582 370.651 101.167 370.364 101.688C369.583 102.938 367.916 103.354 366.406 103.406C365.677 103.406 364.895 103.406 364.166 103.458C363.438 103.448 362.714 103.571 362.031 103.823" stroke="black" stroke-linecap="round" stroke-linejoin="round"/>
<path d="M370.208 119.292H370.364C370.39 119.292 370.422 119.287 370.448 119.287C378.073 118.745 385.39 122.224 392.239 125.651C402.396 130.703 412.604 135.807 422.76 140.859C430.057 115.229 437.333 89.6198 444.588 64.0313C444.83 63.4172 444.866 62.7412 444.693 62.1042C444.378 61.5469 443.908 61.0943 443.338 60.8021C435.318 55.9063 427.193 50.9584 418.541 47.2032C409.89 43.448 400.521 41.0053 391.094 41.2657C387.917 41.3698 384.479 41.8386 382.083 43.9219C379.687 46.0053 378.75 49.2865 377.916 52.3646L369.948 82.0521C369.943 82.0782 369.932 82.1094 369.927 82.1355C368.734 86.5886 367.547 90.9844 366.354 95.3855" stroke="black" stroke-linecap="round" stroke-linejoin="round"/>
<path d="M364.167 103.458C363.042 106.535 362.242 109.72 361.781 112.964C361.776 112.99 361.776 113.016 361.771 113.042C361.771 113.146 361.719 113.25 361.719 113.354" stroke="black" stroke-linecap="round" stroke-linejoin="round"/>
<path d="M358.906 95.698C358.747 92.561 359.687 89.4673 361.562 86.948C363.446 84.4319 366.157 82.6615 369.218 81.948" stroke="black" stroke-linecap="round" stroke-linejoin="round"/>
<path d="M282.963 188.099V188.203C285.879 208.373 287.757 228.679 288.588 249.042C288.848 254.927 288.64 261.646 284.317 265.604C283.164 266.641 281.816 267.439 280.353 267.953H280.348C277.379 268.995 273.999 269.047 270.822 268.682C270.067 268.599 269.312 268.495 268.557 268.385C267.801 268.276 267.051 268.151 266.301 268.026C266.046 267.99 265.796 267.948 265.541 267.906C264.036 267.667 262.536 267.448 261.031 267.323L261.028 267.325C261.027 267.325 261.026 267.325 261.025 267.325C261.024 267.325 261.024 267.325 261.023 267.325C261.022 267.324 261.021 267.323 261.02 267.323C259.568 267.194 258.108 267.196 256.656 267.328" stroke="black" stroke-linecap="round" stroke-linejoin="round"/>
<path d="M280.406 267.953C280.094 271.443 279.729 274.932 279.417 278.422H279.365C271.052 278.057 263.776 277.641 255.458 277.276" stroke="black" stroke-linecap="round" stroke-linejoin="round"/>
<path d="M279.416 278.422C297.39 325.349 315.046 371.24 333.015 418.172C335.203 423.849 337.338 430.36 334.578 435.724C334.222 436.404 333.804 437.049 333.328 437.651C330.203 441.61 324.63 443.38 319.525 444.578C310.723 446.61 300.932 447.912 292.859 444.37C291.787 443.907 290.759 443.349 289.786 442.703C286.098 440.318 283.406 437.011 281.374 433.193C281.052 432.599 280.755 431.99 280.463 431.37C277.739 425.485 276.364 418.625 275.249 412.183C272.088 393.464 268.411 378.005 263.583 362.729C263.582 362.725 263.581 362.722 263.578 362.719C262.89 360.537 262.182 358.365 261.442 356.183C260.703 354 259.937 351.808 259.145 349.604C258.671 348.281 258.187 346.953 257.692 345.62C257.525 345.172 257.359 344.724 257.192 344.282C256.859 343.386 256.52 342.495 256.177 341.594C255.833 340.693 255.484 339.792 255.13 338.88C253.203 333.912 251.124 328.808 248.885 323.474C248.873 323.439 248.859 323.404 248.843 323.37C248.27 321.964 247.645 320.558 247.02 319.099" stroke="black" stroke-linecap="round" stroke-linejoin="round"/>
<path d="M218.947 288.995C216.343 299.516 213.739 310.089 209.099 319.828C204.463 329.62 197.588 338.63 188.213 344C173.161 352.646 154.203 350.667 137.64 345.563C133.104 344.156 128.312 342.542 123.677 343.479C121.295 343.989 119.076 345.081 117.218 346.656C117.208 346.662 117.203 346.672 117.192 346.677C113.302 349.906 110.494 354.896 108.208 359.573C105.385 365.386 102.677 371.349 102.364 377.511C102.316 378.328 102.318 379.147 102.369 379.964C102.395 380.386 102.427 380.813 102.479 381.24C102.55 381.976 102.671 382.707 102.843 383.427C103.302 385.5 103.932 386.943 104.828 387.964C104.977 388.133 105.139 388.292 105.312 388.438C108.119 390.932 113.203 390.281 122.635 390.979C182.588 395.406 223.791 383.271 240.302 351.448C244.822 342.766 247.01 333.146 248.885 323.474C248.89 323.458 248.89 323.438 248.895 323.422C249.625 319.568 250.354 315.662 251.135 311.859" stroke="black" stroke-linecap="round" stroke-linejoin="round"/>
<path d="M192.745 182.37C190.123 186.178 187.971 190.289 186.339 194.615C185.922 195.656 185.557 196.698 185.193 197.74C184.203 200.552 183.318 203.365 182.432 206.229C178.37 223.573 175.297 239.927 172.224 257.792C172.226 257.811 172.223 257.831 172.214 257.849C172.213 257.865 172.209 257.881 172.203 257.896V257.906C172.187 257.948 172.176 257.992 172.172 258.036V258.052C172.02 258.764 171.923 259.487 171.88 260.214C171.855 260.636 171.853 261.061 171.875 261.484C171.956 262.999 172.417 264.469 173.214 265.76C173.525 266.3 173.911 266.793 174.359 267.224C176.703 269.411 180.453 269.464 183.474 269.88C186.703 270.349 189.932 269.568 192.797 268.63L193.734 268.318C194.803 267.843 195.771 267.17 196.589 266.333C196.607 266.316 196.625 266.296 196.641 266.276C196.734 266.177 196.828 266.073 196.917 265.969C196.932 265.953 196.948 265.932 196.964 265.917C197.163 265.678 197.347 265.428 197.516 265.167C197.524 265.157 197.531 265.147 197.537 265.135C199.099 262.844 199.724 259.927 200.401 257.01C203.261 239.427 203.005 221.891 209.865 205.917C209.87 205.901 209.88 205.88 209.886 205.865C210.276 204.906 210.717 203.969 211.208 203.057C211.219 203.036 211.229 203.021 211.24 203L211.708 202.063C211.888 201.855 211.979 201.586 211.964 201.313C211.969 201.161 211.969 201 211.974 200.849C211.956 200.702 211.97 200.554 212.014 200.413C212.058 200.272 212.131 200.142 212.229 200.031C212.594 199.406 212.958 198.729 213.323 198.104C216.466 193.181 220.328 188.755 224.781 184.974" stroke="black" stroke-linecap="round" stroke-linejoin="round"/>
<path d="M238.323 158.359C228.058 158.251 217.975 161.069 209.255 166.484C206.8 168.003 204.466 169.709 202.276 171.589" stroke="black" stroke-linecap="round" stroke-linejoin="round"/>
<path d="M274.104 104.24C271.726 103.876 269.321 103.719 266.916 103.771C266.41 103.738 265.906 103.846 265.458 104.083C264.781 104.604 264.781 105.594 264.833 106.427C265.197 110.698 265.562 115.021 265.927 119.292C266.044 120.009 265.972 120.745 265.718 121.427C265.493 121.846 265.164 122.201 264.762 122.457C264.361 122.713 263.902 122.863 263.427 122.891C262.478 122.944 261.528 122.839 260.614 122.578" stroke="black" stroke-linecap="round" stroke-linejoin="round"/>
<path d="M269.052 109.708C269.075 109.668 269.101 109.63 269.13 109.594C269.156 109.552 269.188 109.51 269.214 109.474C269.24 109.438 269.261 109.417 269.281 109.385" stroke="black" stroke-linecap="round" stroke-linejoin="round"/>
<path d="M269.281 109.385C269.26 109.412 269.234 109.443 269.213 109.474" stroke="black" stroke-linecap="round" stroke-linejoin="round"/>
<path d="M269.281 109.385C269.322 109.333 269.367 109.284 269.417 109.24" stroke="black" stroke-linecap="round" stroke-linejoin="round"/>
<path d="M273.426 109.813C273.239 109.401 272.939 109.051 272.561 108.802C272.184 108.553 271.744 108.416 271.291 108.406C270.939 108.413 270.592 108.49 270.269 108.633C269.947 108.776 269.657 108.982 269.416 109.24" stroke="black" stroke-linecap="round" stroke-linejoin="round"/>
<path d="M258.844 109.24C258.722 108.742 258.453 108.292 258.072 107.948C257.691 107.605 257.216 107.383 256.709 107.313C256.21 107.257 255.706 107.352 255.261 107.583C254.815 107.815 254.449 108.174 254.208 108.615" stroke="black" stroke-linecap="round" stroke-linejoin="round"/>
<path d="M258.27 129.609C257.789 129.852 257.252 129.961 256.714 129.926C256.176 129.891 255.657 129.713 255.211 129.41C254.765 129.107 254.408 128.691 254.177 128.204C253.945 127.717 253.848 127.178 253.895 126.641" stroke="black" stroke-linecap="round" stroke-linejoin="round"/>
<path d="M116.958 346.396C116.661 346.12 116.353 345.849 116.046 345.573C115.942 345.479 115.833 345.385 115.728 345.292C114.691 344.369 113.58 343.533 112.406 342.792C112.307 342.729 112.208 342.672 112.114 342.615C111.906 342.495 111.702 342.38 111.494 342.271C111.202 342.12 110.906 341.979 110.609 341.854C110.359 341.745 110.109 341.651 109.859 341.562C108.595 341.117 107.236 341.005 105.916 341.24C103.312 341.708 101.281 343.635 99.3535 345.406L72.6347 370.875C71.3847 372.021 70.1347 373.323 69.7701 374.99C69.5363 376.342 69.791 377.734 70.4889 378.917C70.5931 379.125 70.7076 379.333 70.8274 379.542C70.8951 379.656 70.9628 379.766 71.0305 379.88C71.0983 379.995 71.166 380.104 71.2389 380.214C71.3951 380.453 71.5514 380.693 71.7128 380.922C71.8483 381.12 71.9785 381.312 72.1139 381.5C73.6243 383.635 75.1868 385.719 76.6972 387.854C76.9212 388.161 77.1503 388.474 77.3899 388.771C77.4837 388.891 77.5774 389.01 77.6764 389.12C78.2207 389.804 78.9462 390.322 79.7701 390.615C80.5753 390.811 81.4196 390.771 82.2024 390.5C82.866 390.285 83.5149 390.027 84.1451 389.729C90.0826 386.917 96.0722 384.104 102.01 381.292" stroke="black" stroke-linecap="round" stroke-linejoin="round"/>
<path d="M292.859 444.005V444.422C292.807 450.151 292.755 455.88 292.755 461.609C292.755 462.912 292.755 464.318 293.484 465.412C293.552 465.511 293.62 465.609 293.693 465.698C293.765 465.788 293.844 465.873 293.927 465.953C294.005 466.037 294.094 466.115 294.177 466.188C294.26 466.26 294.354 466.323 294.448 466.391C295.911 467.385 298.078 467.37 299.943 467.287C312.009 466.5 324.112 466.432 336.187 467.083C336.208 467.088 336.229 467.09 336.25 467.089C338.057 467.188 339.861 467.306 341.661 467.443C345.88 467.755 350.099 468.172 354.323 467.755C358.547 467.339 362.76 465.984 365.937 463.172C369.114 460.359 370.989 455.88 370 451.766C369.898 451.353 369.769 450.947 369.614 450.552C369.091 449.244 368.325 448.046 367.359 447.021C366.972 446.607 366.56 446.217 366.125 445.854C364.454 444.47 362.534 443.418 360.469 442.755C356.891 441.604 353.13 441.432 349.375 441.287C348.536 441.261 347.703 441.229 346.87 441.193C342.286 440.984 337.547 440.412 333.693 437.964" stroke="black" stroke-linecap="round" stroke-linejoin="round"/>
<path d="M203.109 280.089L207.187 282.224L207.484 282.38L207.51 282.396L207.588 282.432L219.166 288.453L219.208 288.474L219.817 288.787L228.114 293.057M228.114 293.057L228.124 292.953L236.234 196.026L236.239 195.969L236.291 195.979L263.062 200.5L256.291 267.276V267.281L255.312 277.172L255.301 277.276L253.791 291.964L228.171 293.057H228.166H228.114Z" stroke="black" stroke-linecap="round" stroke-linejoin="round"/>
<path d="M236.24 195.969L213.583 198.365" stroke="black" stroke-linecap="round" stroke-linejoin="round"/>
<path d="M210.979 203L211.188 203.052L211.208 203.057L211.255 203.068L230.823 207.74L218.115 281.287L197.016 266.021" stroke="black" stroke-linecap="round" stroke-linejoin="round"/>
<path d="M209.99 205.969L225.927 208.469L217.229 274.776L197.536 265.188L197.516 265.167L197.484 265.135" stroke="black" stroke-linecap="round" stroke-linejoin="round"/>
<path d="M184.359 197.479C181.287 195.761 177.224 197.479 175.141 200.292C173.057 203.104 172.38 206.698 171.807 210.188C169.359 224.979 166.859 239.719 164.412 254.511C164.151 255.969 163.943 257.479 163.682 258.938C165.45 258.256 167.312 257.852 169.203 257.74C170.194 257.696 171.187 257.731 172.172 257.844" stroke="black" stroke-linecap="round" stroke-linejoin="round"/>
<path d="M163.942 254.406C162.9 254.406 161.911 254.406 160.921 254.354C163.213 235.188 165.956 216.056 169.15 196.958C174.354 193.965 180.522 193.124 186.338 194.615H186.442" stroke="black" stroke-linecap="round" stroke-linejoin="round"/>
<path d="M194.151 268.786C194.464 269.094 194.776 269.401 195.083 269.714C197.24 271.88 199.276 274.125 201.234 276.495C201.917 277.323 202.646 278.245 202.865 279.302C202.88 279.375 202.891 279.443 202.901 279.516V280.089C202.775 280.933 202.384 281.716 201.785 282.324C201.186 282.932 200.41 283.335 199.568 283.474C197.693 283.786 196.026 282.589 195.141 280.922C194.255 279.255 194.151 278.005 193.891 276.286" stroke="black" stroke-linecap="round" stroke-linejoin="round"/>
<path d="M183.057 284.464H182.848C179.151 284.516 175.765 281.807 174.307 278.422C172.958 275.307 173.005 271.839 173.671 268.516C173.677 268.5 173.677 268.49 173.682 268.474C173.786 268.109 173.838 267.693 173.942 267.328" stroke="black" stroke-linecap="round" stroke-linejoin="round"/>
<path d="M179.724 276.547C180.259 278.964 181.307 281.237 182.797 283.214C183.021 283.516 183.25 283.813 183.489 284.094C184.157 284.897 184.901 285.631 185.713 286.287C188.474 288.474 192.484 289.151 195.661 287.537" stroke="black" stroke-linecap="round" stroke-linejoin="round"/>
<path d="M187.068 276.86C187.068 281.391 191.13 285.714 195.557 287.172C195.594 287.172 195.635 287.203 195.698 287.214C195.72 287.22 195.743 287.224 195.766 287.224C197.896 287.914 200.197 287.856 202.29 287.061C204.383 286.265 206.142 284.779 207.276 282.849" stroke="black" stroke-linecap="round" stroke-linejoin="round"/>
<path d="M169.202 257.896L167.952 264.771L168.01 264.807L173.369 268.422" stroke="black" stroke-linecap="round" stroke-linejoin="round"/>
<path d="M233.015 288.11L233.01 288.162L248.583 287.797L255.822 222.375L240.406 220.969L233.015 288.11Z" stroke="black" stroke-linecap="round" stroke-linejoin="round"/>
<path d="M243.807 209.74C243.728 209.338 243.688 208.93 243.688 208.521C243.653 207.74 243.777 206.96 244.052 206.229C244.326 205.497 244.746 204.828 245.287 204.264C245.827 203.698 246.476 203.249 247.195 202.942C247.914 202.635 248.687 202.477 249.469 202.477C250.251 202.477 251.024 202.635 251.743 202.942C252.462 203.249 253.111 203.698 253.651 204.264C254.191 204.828 254.612 205.497 254.887 206.229C255.161 206.96 255.285 207.74 255.25 208.521C255.25 208.93 255.21 209.338 255.13 209.74C254.928 210.834 254.426 211.851 253.68 212.678C252.935 213.504 251.975 214.108 250.906 214.422C250.818 214.448 250.724 214.469 250.63 214.49C250.441 214.531 250.25 214.562 250.057 214.583C249.666 214.625 249.271 214.625 248.88 214.583C248.688 214.562 248.496 214.531 248.307 214.49C248.214 214.472 248.122 214.45 248.031 214.422C246.96 214.115 245.995 213.514 245.249 212.685C244.502 211.858 244.003 210.837 243.807 209.74Z" stroke="black" stroke-linecap="round" stroke-linejoin="round"/>
<path d="M387.604 54.448C403.199 55.6626 418.445 59.6855 432.609 66.323" stroke="black" stroke-linecap="round" stroke-linejoin="round"/>
<path d="M384.739 67.7292C399.538 69.0865 413.963 73.1464 427.297 79.7084" stroke="black" stroke-linecap="round" stroke-linejoin="round"/>
<path d="M380.885 81.7917C393.995 81.4688 406.922 84.922 418.124 91.7397" stroke="black" stroke-linecap="round" stroke-linejoin="round"/>
<path d="M129.874 244.406C128.624 249.875 124.302 254.198 119.354 256.75C114.406 259.354 108.833 260.448 103.364 261.542C97.8953 262.636 92.3223 263.834 87.4265 266.49C89.964 275.338 91.964 284.332 93.4161 293.422C93.5203 294.203 109.666 290.974 111.177 290.61C117.08 289.142 122.848 287.173 128.416 284.724C132.687 282.849 138.421 280.766 141.39 276.86C144.463 272.849 142.119 268.63 140.14 264.667C136.697 258 133.26 251.177 129.874 244.406Z" stroke="black" stroke-linecap="round" stroke-linejoin="round"/>
<path d="M97.0618 236.073C91.9577 235.031 86.7493 233.99 82.0098 231.698C77.3223 229.458 73.0514 225.813 71.0723 220.969C73.9889 216.177 76.9056 211.333 79.8223 206.542C78.8848 208.104 89.4056 213.833 90.6035 214.302C95.0306 216.073 99.3014 216.177 103.937 216.281C103.208 222.74 99.2493 229.927 97.0618 236.073Z" stroke="black" stroke-linecap="round" stroke-linejoin="round"/>
<path d="M47.2133 261.229C41.4748 266.184 36.9189 272.362 33.88 279.307C33.1508 281.026 32.4737 282.901 32.7341 284.724C33.1508 287.537 35.5466 289.62 37.9946 291.182C39.7133 292.276 41.2758 293.057 42.63 294.255C42.7721 294.375 42.94 294.46 43.1204 294.504C43.3009 294.549 43.4891 294.551 43.6704 294.511C43.8518 294.47 44.0214 294.389 44.1662 294.272C44.3109 294.155 44.4269 294.007 44.505 293.839C45.4946 291.495 47.8383 288.057 48.255 287.12C49.8485 283.936 51.8061 280.947 54.088 278.214C58.411 273.109 59.661 273.63 56.588 270.193C53.7235 267.016 50.2862 264.198 47.2133 261.229Z" stroke="black" stroke-linecap="round" stroke-linejoin="round"/>
<path d="M224.781 184.87C248.948 186.172 256.448 181.536 257.229 172.318L264.937 161.693H248.739L253.583 171.589C253.583 171.589 253.526 171.661 253.406 171.792C253.328 171.87 253.224 171.974 253.093 172.094C250.817 174.24 240.093 182.052 210.822 174.245C207.901 173.464 205.036 172.734 202.171 172.005C175.385 165.26 150.932 161.958 135.89 180.51C135.573 180.901 135.255 181.307 134.942 181.724C133.3 183.93 131.848 186.271 130.604 188.724L125.291 211.385L125.349 211.37L140.036 207.74C140.036 207.74 156.265 183.516 189.333 182.026C190.453 181.974 191.59 181.95 192.744 181.953C193.916 181.953 195.111 181.983 196.328 182.042C198.354 182.146 200.44 182.342 202.588 182.63C211.187 183.828 218.531 184.505 224.781 184.87Z" stroke="black" stroke-linecap="round" stroke-linejoin="round"/>
<path d="M174.807 110.922C172.855 116.023 168.997 120.165 164.047 122.474C158.005 125.13 151.078 124.557 144.464 123.828C137.849 123.099 131.021 122.266 124.823 124.557C118.625 126.797 113.313 133.255 114.771 139.714" stroke="black" stroke-linecap="round" stroke-linejoin="round"/>
<path d="M174.807 110.922C174.311 110.958 173.813 110.953 173.317 110.906C170.088 110.594 166.963 107.781 167.015 104.5C167.067 101.219 171.234 98.5105 173.942 100.386C176.182 101.896 176.286 105.125 175.765 107.729C175.535 108.818 175.214 109.886 174.807 110.922Z" stroke="black" stroke-linecap="round" stroke-linejoin="round"/>
<path d="M179.723 82.0001C182.119 81.1667 184.932 82.2605 186.598 84.1876C188.265 86.1147 188.942 88.7188 189.098 91.2709C189.251 94.3178 188.717 97.3595 187.536 100.172C186.355 102.985 184.557 105.496 182.275 107.521C180.161 109.328 177.52 110.724 174.807 110.922" stroke="black" stroke-linecap="round" stroke-linejoin="round"/>
<path d="M380.255 219.057C380.949 218.518 381.595 217.92 382.187 217.271C388.698 210.084 388.333 197.688 381.406 190.86" stroke="black" stroke-linecap="round" stroke-linejoin="round"/>
<path d="M380.255 219.057C379.812 215.974 378.416 212.865 375.833 211.177C373.124 209.406 368.906 209.771 367.135 212.531C365.051 215.865 367.916 220.656 371.718 221.49C374.682 222.141 377.775 220.985 380.255 219.057Z" stroke="black" stroke-linecap="round" stroke-linejoin="round"/>
<path d="M328.641 254.979C328.901 248 334.161 241.49 340.932 239.771C348.589 237.792 356.719 241.542 364.531 240.292C374.01 238.781 381.406 229.042 380.313 219.51C380.297 219.359 380.276 219.208 380.255 219.057" stroke="black" stroke-linecap="round" stroke-linejoin="round"/>
<path d="M300.307 58.0417C300.333 56.2136 300.359 54.4011 300.385 52.5834C300.411 50.7761 300.437 48.9688 300.463 47.1511" stroke="black" stroke-linecap="round" stroke-linejoin="round"/>
<path d="M295.359 53.4063C297.036 53.1251 298.708 52.8543 300.385 52.5834C302.094 52.3074 303.807 52.0312 305.516 51.7396" stroke="black" stroke-linecap="round" stroke-linejoin="round"/>
<path d="M273.843 68.198C273.156 67.0938 272.467 65.9897 271.775 64.8855C271.255 64.0626 270.729 63.2397 270.197 62.4167" stroke="black" stroke-linecap="round" stroke-linejoin="round"/>
<path d="M269 67.4168C269.927 66.5731 270.848 65.7293 271.776 64.8856C272.619 64.1147 273.468 63.3439 274.312 62.5731" stroke="black" stroke-linecap="round" stroke-linejoin="round"/>
<path d="M308.641 82.8855C309.078 81.9376 309.51 80.9897 309.948 80.0417C310.396 79.0626 310.849 78.0834 311.297 77.1042" stroke="black" stroke-linecap="round" stroke-linejoin="round"/>
<path d="M312.546 81.8959C311.687 81.2813 310.817 80.6615 309.948 80.0417C309.125 79.4532 308.302 78.8594 307.494 78.2501" stroke="black" stroke-linecap="round" stroke-linejoin="round"/>
<path d="M99.7188 287.485L95.9688 271.078" stroke="black" stroke-linecap="round" stroke-linejoin="round"/>
<path d="M104.562 286.547C103.989 284.151 103.468 281.703 102.895 279.307" stroke="black" stroke-linecap="round" stroke-linejoin="round"/>
<path d="M114.927 284.568C113.886 279.88 112.844 275.245 111.802 270.557" stroke="black" stroke-linecap="round" stroke-linejoin="round"/>
<path d="M84.7188 228.573C85.137 226.743 86.0568 225.066 87.375 223.729" stroke="black" stroke-linecap="round" stroke-linejoin="round"/>
<path d="M79.3535 226.594C80.7103 223.004 82.5311 219.606 84.7702 216.49" stroke="black" stroke-linecap="round" stroke-linejoin="round"/>
<path d="M50.911 275.401C49.5969 273.384 47.8761 271.663 45.8589 270.349" stroke="black" stroke-linecap="round" stroke-linejoin="round"/>
<path d="M48.0463 279.047C47.4734 278.318 46.9005 277.589 46.3796 276.86" stroke="black" stroke-linecap="round" stroke-linejoin="round"/>
<path d="M243.323 281.234C244.521 264.25 246.552 247.271 249.417 230.5" stroke="black" stroke-linecap="round" stroke-linejoin="round"/>
<path d="M210.979 263.104C213.427 247.635 215.927 232.167 218.375 216.698" stroke="black" stroke-linecap="round" stroke-linejoin="round"/>
<path d="M206.807 246.438C208.422 236.281 209.989 226.125 211.604 216.021" stroke="black" stroke-linecap="round" stroke-linejoin="round"/>
<path d="M354.219 144.714C354.844 142.318 355.469 139.87 356.146 137.474" stroke="black" stroke-linecap="round" stroke-linejoin="round"/>
<path d="M341.297 139.349C339.734 138.828 338.172 138.255 336.661 137.734L336.922 137.995" stroke="black" stroke-linecap="round" stroke-linejoin="round"/>
<path d="M327.078 163.828C327.964 161.745 328.797 159.609 329.682 157.526" stroke="black" stroke-linecap="round" stroke-linejoin="round"/>
<path d="M314.474 157.995C313.126 157.266 311.629 156.856 310.099 156.797" stroke="black" stroke-linecap="round" stroke-linejoin="round"/>
<path d="M301.609 176.849L303.797 172.005" stroke="black" stroke-linecap="round" stroke-linejoin="round"/>
<path d="M286.869 168.724C285.307 167.995 283.692 167.318 282.13 166.589" stroke="black" stroke-linecap="round" stroke-linejoin="round"/>
<path d="M264.208 185.339C264.904 183.397 266.025 181.635 267.489 180.182" stroke="black" stroke-linecap="round" stroke-linejoin="round"/>
<path d="M277.177 208.156C275.822 207.323 274.468 206.542 273.114 205.708" stroke="black" stroke-linecap="round" stroke-linejoin="round"/>
<path d="M265.719 226.177C266.604 224.771 267.438 223.417 268.323 222.011" stroke="black" stroke-linecap="round" stroke-linejoin="round"/>
<path d="M282.078 243.781C280.875 242.479 279.677 241.229 278.427 239.927" stroke="black" stroke-linecap="round" stroke-linejoin="round"/>
<path d="M262.958 259.719C263.999 258.417 264.989 257.115 266.031 255.813" stroke="black" stroke-linecap="round" stroke-linejoin="round"/>
<path d="M239.573 192.526C238.505 191.711 237.618 190.682 236.969 189.505" stroke="black" stroke-linecap="round" stroke-linejoin="round"/>
<path d="M229.625 170.078C230.51 168.776 231.395 167.474 232.281 166.224" stroke="black" stroke-linecap="round" stroke-linejoin="round"/>
<path d="M205.974 196.438C205.557 194.927 205.14 193.359 204.776 191.849" stroke="black" stroke-linecap="round" stroke-linejoin="round"/>
<path d="M185.974 211.646C187.276 210.5 188.526 209.406 189.828 208.26" stroke="black" stroke-linecap="round" stroke-linejoin="round"/>
<path d="M198.474 231.959C197.082 230.41 195.971 228.629 195.193 226.698" stroke="black" stroke-linecap="round" stroke-linejoin="round"/>
<path d="M179.463 255.396C180.659 253.42 182.074 251.585 183.682 249.927" stroke="black" stroke-linecap="round" stroke-linejoin="round"/>
<path d="M194.463 248.573L192.276 245.917" stroke="black" stroke-linecap="round" stroke-linejoin="round"/>
<path d="M382.552 32.9324L382.24 18.2449" stroke="black" stroke-linecap="round" stroke-linejoin="round"/>
<path d="M369.843 33.9219C363.437 25.7969 357.083 17.724 350.671 9.599" stroke="black" stroke-linecap="round" stroke-linejoin="round"/>
<path d="M365.989 46.8906C361.302 45.5885 356.562 44.2864 351.87 43.0364" stroke="black" stroke-linecap="round" stroke-linejoin="round"/>
<path d="M420.312 149.662C425.521 151.068 431.568 147.422 432.714 142.109" stroke="black" stroke-linecap="round" stroke-linejoin="round"/>
<path d="M320.776 191.328C334.18 188.166 346.344 181.096 355.729 171.016" stroke="black" stroke-linecap="round" stroke-linejoin="round"/>
<path d="M178.995 400.094C190.678 400.989 202.293 397.642 211.708 390.667" stroke="black" stroke-linecap="round" stroke-linejoin="round"/>
<path d="M195.922 406.917C198.63 405.667 201.391 404.417 204.099 403.167" stroke="black" stroke-linecap="round" stroke-linejoin="round"/>
<path d="M96.3849 382.906C93.8739 379.663 92.7 375.582 93.1036 371.5" stroke="black" stroke-linecap="round" stroke-linejoin="round"/>
<path d="M89.3536 385.615C88.0771 384.824 87.0458 383.694 86.3745 382.352C85.7031 381.009 85.4182 379.506 85.5515 378.011" stroke="black" stroke-linecap="round" stroke-linejoin="round"/>
<path d="M349.421 441.193L349.374 441.286C349.369 441.307 349.36 441.326 349.348 441.344C348.861 442.407 348.306 443.439 347.687 444.432C346.03 447.129 343.941 449.536 341.505 451.557" stroke="black" stroke-linecap="round" stroke-linejoin="round"/>
<path d="M339.891 440.672C336.992 444.476 333.224 447.53 328.901 449.578" stroke="black" stroke-linecap="round" stroke-linejoin="round"/>
<path d="M292.963 460.724C309.161 460.985 325.307 461.245 341.505 461.453C346.713 461.557 351.974 461.61 356.979 460.203C361.984 458.797 366.719 455.672 368.906 450.984" stroke="black" stroke-linecap="round" stroke-linejoin="round"/>
<path d="M109.875 341.552C109.869 341.557 109.864 341.557 109.859 341.563C109.854 341.568 109.848 341.568 109.843 341.573C105.947 343.807 102.572 346.823 99.2495 349.781C93.9891 354.417 88.7808 359.052 83.5204 363.688C81.5933 365.406 79.6662 367.073 78.1037 369.104C76.4881 371.103 75.4282 373.492 75.0308 376.031C74.8422 378.782 75.4964 381.526 76.9058 383.896C78.2599 386.292 80.1349 388.271 82.1141 390.198" stroke="black" stroke-linecap="round" stroke-linejoin="round"/>
<path d="M253.583 171.432C254.781 171.536 256.031 171.693 257.229 171.797" stroke="black" stroke-linecap="round" stroke-linejoin="round"/>
<path fill-rule="evenodd" clip-rule="evenodd" d="M224.781 184.818C248.948 186.12 256.448 181.484 257.229 172.266L257.453 171.958L257.229 171.797C256.63 171.745 256.018 171.68 255.406 171.615C254.794 171.55 254.182 171.484 253.583 171.432L253.635 171.536C253.635 171.536 253.562 171.63 253.406 171.792C253.328 171.87 253.224 171.974 253.094 172.094C250.818 174.24 240.094 182.052 210.823 174.245C207.901 173.464 205.037 172.734 202.173 172.005H202.172C175.385 165.26 150.932 161.958 135.891 180.51C135.573 180.901 135.255 181.307 134.943 181.724C133.322 183.916 131.888 186.24 130.656 188.672L125.349 211.37L140.036 207.74C140.036 207.74 156.266 183.516 189.333 182.026C190.451 181.972 191.588 181.948 192.745 181.953C193.915 181.955 195.109 181.984 196.328 182.042C198.37 182.137 200.474 182.333 202.641 182.63C211.24 183.776 218.583 184.505 224.781 184.818ZM152.492 174.111C169.158 170.459 186.539 171.934 202.351 178.344C202.745 178.503 203.194 178.314 203.353 177.919C203.513 177.526 203.323 177.077 202.929 176.917C186.83 170.391 169.132 168.888 152.162 172.607C151.747 172.698 151.484 173.109 151.575 173.524C151.667 173.94 152.077 174.203 152.492 174.111Z" fill="black" fill-opacity="0.15"/>
<g opacity="0.1">
<path d="M262.452 96.9271C261.068 96.5724 259.626 96.5037 258.216 96.7256C256.805 96.9469 255.454 97.4542 254.246 98.2162C251.283 100.104 249.655 102.537 248.621 105.877C247.433 109.725 247.31 113.893 247.031 117.887C246.725 122.265 246.543 126.651 246.517 131.04C246.494 135.095 246.769 139.152 246.737 143.204C246.725 144.698 246.667 145.965 245.288 146.711C244.001 147.409 242.456 147.592 241.156 148.314C239.874 149.016 238.817 150.065 238.104 151.341C237.187 153.014 237.329 154.826 236.769 156.58C235.916 159.255 230.715 158.501 228.405 158.854C219.938 160.215 211.938 163.642 205.112 168.832C201.98 171.176 205.044 176.521 208.217 174.144C215.903 168.387 224.436 165.814 233.829 164.509C237.515 163.997 241.393 162.823 242.867 159.04C243.456 157.53 243.103 154.978 244.488 154.013C245.895 153.035 247.918 152.935 249.406 151.981C253.328 149.473 253.422 144.812 253.285 140.653C253.118 135.591 253.119 130.53 253.25 125.468C253.386 120.201 253.709 114.946 254.221 109.704C254.637 105.456 256.066 98.3396 261.813 99.2297C263.298 99.4599 263.968 97.3584 262.45 96.923L262.452 96.9271Z" fill="black"/>
</g>
<g opacity="0.1">
<path d="M195.23 180.175C187.747 183.319 185.315 193.777 183.62 200.834C181.258 210.66 179.105 220.541 177.049 230.435C175.009 240.249 172.965 250.114 172.211 260.128C171.856 264.595 172.28 269.088 173.464 273.41C174.506 277.29 174.791 280.682 177.564 283.839C179.413 285.945 182.477 282.862 180.637 280.766C178.06 277.831 177.561 273.345 178.374 269.631C179.236 265.696 179.263 261.668 179.66 257.636C180.565 248.459 182.57 239.41 184.467 230.399C186.326 221.57 188.223 212.746 190.236 203.95C190.996 200.276 192.023 196.662 193.309 193.138C193.996 191.373 194.864 189.724 195.683 188.021C196.48 186.365 197.591 184.901 198.232 183.181C198.838 181.551 196.907 179.472 195.228 180.177L195.23 180.175Z" fill="black"/>
</g>
<g opacity="0.1">
<path d="M278.653 189.12C282.659 188.647 286.697 188.322 290.638 187.435C294.768 186.453 298.844 185.26 302.852 183.86C310.605 181.215 318.203 178.133 325.609 174.63C333.096 171.127 340.481 167.331 347.604 163.132C354.252 159.214 360.81 154.675 365.823 148.738C368.631 145.473 370.923 141.799 372.623 137.843C374.165 134.182 375.388 129.534 373.86 125.701C373.183 124.002 370.631 123.208 369.621 125.146C367.605 129.021 366.974 133.439 364.909 137.334C362.879 141.086 360.241 144.476 357.104 147.366C350.115 153.937 341.368 158.389 332.965 162.853C324.345 167.507 315.446 171.622 306.318 175.177C301.762 176.914 297.139 178.478 292.45 179.819C287.616 181.201 282.85 182.815 277.952 183.939C275.118 184.589 275.66 189.47 278.653 189.118V189.12Z" fill="black"/>
</g>
</g>
</g>
<defs>
<clipPath id="clip0_20_25374">
<rect width="500" height="500" fill="white"/>
</clipPath>
</defs>
</svg>