<svg xmlns="http://www.w3.org/2000/svg" width="500" height="500" viewBox="0 0 500 500" fill="none">
<g clip-path="url(#clip0_20_21221)">
<mask id="mask0_20_21221" style="mask-type:luminance" maskUnits="userSpaceOnUse" x="0" y="0" width="500" height="500">
<path d="M500 0H0V500H500V0Z" fill="white"/>
</mask>
<g mask="url(#mask0_20_21221)">
<mask id="mask1_20_21221" style="mask-type:luminance" maskUnits="userSpaceOnUse" x="45" y="19" width="410" height="462">
<path d="M454.167 19.7917H45.8335V480.208H454.167V19.7917Z" fill="white"/>
</mask>
<g mask="url(#mask1_20_21221)">
<path fill-rule="evenodd" clip-rule="evenodd" d="M449.609 398.512C451.596 396.101 453.577 392.976 452.457 390.059C451.449 387.432 448.181 386.269 445.401 386.73C442.62 387.192 440.221 388.878 437.932 390.514C413.978 407.641 390.026 424.769 366.075 441.896L366.081 441.903C369.136 442.294 371.948 443.77 374.005 446.061C376.063 448.353 377.229 451.306 377.291 454.385L377.629 454.915C390.557 446.656 403.191 437.984 415.532 428.897C427.818 419.854 439.913 410.299 449.609 398.512ZM441.479 401.562C441.845 401.207 441.853 400.623 441.498 400.257C441.142 399.892 440.558 399.884 440.193 400.239C425.006 415.002 408.196 427.997 390.084 438.974C389.648 439.239 389.509 439.806 389.773 440.242C390.037 440.678 390.604 440.817 391.04 440.553C409.272 429.503 426.193 416.423 441.479 401.562Z" fill="black" fill-opacity="0.15"/>
<path fill-rule="evenodd" clip-rule="evenodd" d="M224.502 229.998C225.239 230.033 225.978 229.971 226.699 229.814C227.073 229.726 227.428 229.57 227.745 229.353C229.419 228.194 229.308 225.746 229.068 223.728C228.767 221.175 228.551 218.616 228.422 216.05C228.162 211.008 228.232 205.955 228.63 200.922C229.119 194.611 230.111 188.348 231.595 182.195C232.488 178.497 233.552 174.851 234.789 171.257L235.355 171.46L247.167 172.74L247.191 172.525C249.957 156.853 247.366 140.705 239.834 126.685C231.91 131.982 224.496 137.876 218.356 144.963C212.44 151.747 207.927 159.636 205.08 168.175C203.756 172.043 202.695 175.995 201.905 180.006C201.409 182.506 201.001 185.014 200.681 187.53C199.15 199.459 199.408 211.542 199.832 223.563C199.9 225.501 200.103 227.705 201.629 228.903C201.906 229.121 202.215 229.295 202.545 229.42C203.607 229.771 204.725 229.923 205.843 229.869L224.502 229.998ZM239.093 151.471C239.349 151.03 239.199 150.466 238.757 150.21C238.317 149.954 237.752 150.104 237.496 150.545C226.062 170.261 220.111 192.678 220.261 215.469C220.265 215.979 220.68 216.389 221.19 216.386C221.7 216.382 222.111 215.967 222.107 215.457C221.959 192.995 227.824 170.902 239.093 151.471Z" fill="black" fill-opacity="0.15"/>
<path fill-rule="evenodd" clip-rule="evenodd" d="M289.819 155.908C289.451 153.565 289.118 151.215 288.823 148.858L289.121 148.824C301.574 154.78 315.342 157.369 329.012 155.481C342.682 153.592 355.817 146.911 364.645 136.305C373.498 125.666 377.608 111.934 380.881 98.4922C381.312 96.7328 381.668 94.6839 380.542 93.263C379.632 92.1182 378.057 91.7984 376.611 91.5589C376.18 91.4849 375.748 91.4115 375.315 91.338C375.025 91.2885 374.734 91.2391 374.445 91.1896C369.038 90.2708 363.63 89.3562 358.223 88.4458C358.196 88.4411 358.171 88.437 358.145 88.4323C357.994 88.4062 357.846 88.3807 357.693 88.3594C357.05 88.2307 356.386 88.2479 355.75 88.4089C353.206 89.1776 353.215 92.6969 353.362 95.3484C354.027 107.407 346.232 118.95 335.669 124.793C325.105 130.635 312.285 131.368 300.442 129.011C297.511 128.426 294.615 127.676 291.767 126.766C289.956 126.193 288.168 125.566 286.403 124.883C284.296 135.32 285.404 146.151 289.58 155.945L289.819 155.908ZM374.967 100.841C375.008 100.333 374.629 99.888 374.121 99.8464C373.613 99.8052 373.168 100.184 373.127 100.692C371.609 119.41 359.915 137.007 343.246 145.657C342.794 145.892 342.617 146.448 342.852 146.901C343.087 147.354 343.644 147.53 344.096 147.295C361.33 138.352 373.397 120.193 374.967 100.841Z" fill="black" fill-opacity="0.15"/>
<path fill-rule="evenodd" clip-rule="evenodd" d="M276.685 105.805C288.152 102.853 296.938 91.9995 298.051 80.212C299.159 68.4307 292.867 56.4099 282.889 50.0487C272.91 43.6878 259.733 42.9742 248.843 47.6128C237.953 52.2516 229.482 61.9411 225.692 73.1568C224.958 75.3312 224.346 77.6229 223.732 79.9234C221.737 87.3922 219.717 94.9552 213.401 98.9156C208.518 101.978 202.689 101.793 196.782 101.606C192.545 101.471 188.267 101.336 184.271 102.397C173.849 105.166 167.26 115.532 163.944 125.788C162.701 129.633 161.762 133.585 160.824 137.533C159.26 144.114 157.699 150.684 154.734 156.733C149.991 166.41 140 174.827 129.375 173.012L128.059 173.443C131.021 176.374 134.597 178.612 138.528 179.995C142.46 181.379 146.649 181.873 150.795 181.442C154.94 181.011 158.938 179.667 162.502 177.505C166.065 175.342 169.104 172.417 171.4 168.939C174.978 163.524 176.528 157.168 178.08 150.808C178.693 148.294 179.307 145.779 180.046 143.322C182.654 134.647 187.983 125.61 196.804 123.573C200.795 122.65 204.872 123.315 208.965 123.982C212.457 124.551 215.96 125.122 219.432 124.711C224.51 124.106 229.003 121.483 233.494 118.861C238.04 116.207 242.585 113.555 247.732 112.998C248.15 112.953 248.572 112.921 248.995 112.889C250.48 112.778 251.973 112.665 253.275 111.977C255.674 110.703 256.548 108.076 256.548 105.258C256.526 103.5 256.24 101.756 255.699 100.083C255.548 99.6109 255.389 99.1323 255.229 98.65C253.968 94.849 252.623 90.7948 254.397 87.312L254.304 86.7151C261.333 85.5797 267.932 82.5896 273.419 78.0531C275.166 76.6156 276.782 75.026 278.249 73.3036L279.342 73.3589C284.375 82.9135 283.569 95.2599 277.337 104.076C276.999 104.556 276.65 105.018 276.285 105.479L276.685 105.805ZM270.957 47.2016C270.46 47.0892 269.965 47.401 269.853 47.8982C269.74 48.3954 270.052 48.8895 270.55 49.002C274.349 49.8613 277.937 51.4765 281.099 53.7516C284.261 56.0266 286.934 58.9146 288.956 62.2437C290.979 65.5729 292.311 69.275 292.873 73.1297C293.435 76.9849 293.215 80.913 292.227 84.6812C292.097 85.1745 292.392 85.6786 292.885 85.8083C293.378 85.9375 293.883 85.6427 294.012 85.1495C295.063 81.1417 295.297 76.9635 294.699 72.8635C294.102 68.7641 292.685 64.826 290.534 61.2854C288.383 57.7443 285.54 54.6724 282.177 52.2531C278.814 49.8335 274.998 48.1156 270.957 47.2016Z" fill="black"/>
<path d="M348.671 472.447C346.394 473.758 344.107 475.052 341.811 476.33C338.058 478.421 330.479 481.639 327.957 475.96C325.527 470.479 333.679 465.065 337.296 462.475C346.887 455.616 356.48 448.756 366.076 441.896L366.082 441.902C369.137 442.294 371.949 443.77 374.006 446.061C376.064 448.352 377.23 451.306 377.292 454.385L377.63 454.914C368.118 460.998 358.465 466.843 348.671 472.447Z" fill="black" fill-opacity="0.15"/>
<path d="M286.012 418.186C285.624 422.05 285.236 425.914 284.849 429.777C284.857 430.239 284.7 430.688 284.406 431.044C283.945 431.469 283.225 431.352 282.622 431.204L276.107 429.654C275.781 429.574 275.774 429.476 275.651 429.161C275.651 429.143 275.658 429.119 275.658 429.1C276.045 425.593 276.404 422.082 276.734 418.568C277.073 415.085 277.378 411.601 277.651 408.115L277.915 408.134C283.966 409.098 290.093 409.499 296.218 409.332C300.162 418.74 307.097 426.586 315.948 431.658C310.029 431.898 303.963 432.113 298.34 430.268C292.718 428.422 287.525 424.056 286.448 418.229L286.012 418.186Z" fill="black"/>
<path d="M294.102 177.275L293.77 177.355C287.187 170.206 283.471 160.787 281.681 151.227C280.875 146.735 280.369 142.195 280.167 137.636C279.907 132.493 279.915 127.324 279.921 122.176C282.068 123.148 284.221 124.051 286.405 124.884C284.298 135.321 285.406 146.152 289.58 155.946L289.82 155.909C290.94 163.089 292.367 170.21 294.102 177.275Z" fill="black"/>
<path d="M280.167 137.636L278.969 137.691C278.477 130.641 275.665 123.898 271.076 118.097L271.143 117.961C274.065 119.444 276.981 120.865 279.923 122.176C279.915 127.325 279.908 132.493 280.167 137.636Z" fill="black" fill-opacity="0.15"/>
<path d="M278.967 137.692C279.193 140.936 278.919 144.196 278.154 147.357L277.908 147.413C276.844 142.214 273.959 137.981 269.061 135.902L268.821 135.668C269.935 134.451 270.228 132.5 270.267 130.765C270.461 125.712 269.493 120.682 267.438 116.061C268.674 116.702 269.909 117.335 271.141 117.963L271.073 118.098C275.663 123.899 278.475 130.642 278.967 137.692Z" fill="black" fill-opacity="0.15"/>
<path d="M276.611 418.555L276.734 418.567C276.408 422.08 276.049 425.591 275.658 429.099L275.165 429.051C269.038 415.079 257.841 403.944 244.183 397.145C230.568 390.424 215.06 388.572 200.245 391.898C202.859 389.91 205.482 387.931 208.113 385.96C208.341 385.788 208.575 385.616 208.802 385.444C222.208 382.189 236.702 384.853 249.105 390.888C261.563 396.948 270.908 405.931 276.611 418.555Z" fill="black"/>
<path d="M277.909 147.412L278.155 147.356C278.92 144.196 279.194 140.936 278.968 137.692L280.165 137.636C280.368 142.195 280.873 146.735 281.679 151.226C283.469 160.786 287.185 170.205 293.768 177.354L294.1 177.274C296.772 188.127 300.161 198.789 304.245 209.192C304.725 210.422 305.193 211.892 304.442 212.975C303.716 214.017 302.255 214.126 300.984 214.132L299.161 214.15C290.591 214.261 280.354 214.593 272.049 214.667L271.913 214.636C275.125 200.185 278.127 186.656 278.127 186.656L275.482 186.404L275.519 186.004L277.044 177.976L276.632 177.951L273.715 177.785L273.764 176.96C274.173 163.148 272.537 149.352 268.911 136.018L268.542 135.938C268.638 135.853 268.731 135.762 268.819 135.667L269.058 135.901C273.959 137.981 276.845 142.213 277.909 147.412Z" fill="black" fill-opacity="0.15"/>
<path d="M268.915 136.019C272.541 149.352 274.177 163.149 273.768 176.961L273.719 177.785L269.443 177.54L269.05 177.472L269.443 175.152L252.587 173.325L252.673 172.526C254.009 155.911 251.27 139.222 244.693 123.906L244.528 123.642C248.717 121.015 252.999 118.51 257.268 116.062C254.931 120.114 252.159 123.899 249 127.351C256.561 133.276 261.317 140.714 263.802 149.991L263.846 150.004C265.359 145.432 266.874 140.864 268.392 136.296L268.275 136.155C268.369 136.088 268.46 136.016 268.546 135.94L268.915 136.019Z" fill="black" fill-opacity="0.15"/>
<path d="M286.406 124.883C284.223 124.052 282.069 123.148 279.923 122.174C276.981 120.864 274.065 119.443 271.143 117.96C269.913 117.333 268.678 116.699 267.44 116.059L267.388 116.022C267.973 115.14 268.604 114.289 269.277 113.47C269.455 113.249 269.634 113.034 269.824 112.818L269.904 112.886C275.004 113.151 279.649 113.433 284.743 113.692C286.546 113.784 288.533 113.956 289.788 115.248C290.938 116.436 291.142 118.226 291.283 119.875C291.474 122.083 291.664 124.296 291.856 126.513L291.77 126.765C289.961 126.193 288.174 125.566 286.406 124.883Z" fill="black"/>
<path d="M267.912 136.387C268.039 136.319 268.161 136.241 268.276 136.154L268.394 136.295C266.88 140.867 265.364 145.435 263.847 150.003L263.804 149.99C261.319 140.712 256.564 133.274 249.002 127.35C252.16 123.898 254.933 120.113 257.27 116.061L257.344 115.932C257.817 120.953 258.808 125.912 260.302 130.729C260.875 132.452 261.587 134.199 262.91 135.435C264.233 136.672 266.325 137.261 267.912 136.387Z" fill="black" fill-opacity="0.15"/>
<path d="M239.834 126.686C231.91 131.983 224.496 137.877 218.356 144.964C218.161 142.316 218.2 139.656 218.473 137.015C218.751 134.33 219.748 131.769 221.359 129.602C223.272 127.19 226.071 125.677 228.84 124.348C238.08 119.921 247.277 117.015 257.041 113.92L257.139 113.914C257.201 114.584 257.268 115.261 257.342 115.932L257.268 116.061C252.998 118.509 248.717 121.014 244.528 123.641C242.947 124.635 241.378 125.646 239.834 126.686Z" fill="black"/>
<path d="M244.693 123.906C251.269 139.222 254.009 155.912 252.673 172.527L252.586 173.326L247.166 172.742L247.191 172.527C249.957 156.854 247.366 140.706 239.833 126.687C241.377 125.645 242.946 124.638 244.527 123.642L244.693 123.906Z" fill="black"/>
<path d="M199.26 392.552C181.099 374.545 154.879 364.99 129.39 367.094L129.249 366.922C133.77 363.28 138.502 359.417 143.54 355.227C167.535 358.736 189.936 369.33 207.873 385.649L208.113 385.961C205.486 387.93 202.863 389.909 200.244 391.899C199.932 392.138 199.619 392.372 199.303 392.612L199.26 392.552Z" fill="black"/>
<path d="M158.324 285.946L158.293 285.952C151.875 287.872 145.257 289.046 138.569 289.452C136.472 285.622 133.478 282.358 129.844 279.938C126.21 277.518 122.043 276.014 117.701 275.555C124.641 274.681 131.131 270.138 138.052 271.149C143.128 271.882 147.262 275.469 151.083 278.895C150.467 274.773 149.85 270.656 149.231 266.542C151.786 266.132 154.303 265.51 156.755 264.684L157.119 264.696C156.831 271.802 157.235 278.919 158.324 285.946Z" fill="black"/>
<path d="M73.0612 427.002L73.1539 427.106C98.0273 425.928 122.946 428.149 147.219 433.708C147.287 433.634 147.354 433.56 147.427 433.493C147.569 433.622 147.71 433.757 147.844 433.893L147.93 434.114C166.052 427.174 186.115 427.273 204.167 434.391C224.986 442.709 241 460.298 263.092 464.099L263.509 464.02C264.511 463.472 265.514 462.918 266.517 462.371L266.535 462.193C268.021 462.372 269.518 462.433 271.014 462.377C275.358 460.064 279.7 457.748 284.039 455.431L284.051 455.13C287.71 455.333 291.379 454.989 294.936 454.109L295.151 454.256C322.078 428.03 357.885 412.485 387.28 389.364L405.656 393.805L292.748 478.342L147.127 436.944L47.2471 433.757L79.1669 411.32L79.1487 411.247C81.32 410.794 83.532 410.566 85.7497 410.564V410.742C82.2305 414.717 72.8362 420.493 69.3112 424.468C71.7351 424.184 74.1674 423.959 76.6075 423.791L76.6138 423.858C75.4247 424.904 74.2404 425.952 73.0612 427.002Z" fill="black" fill-opacity="0.15"/>
<path d="M264.257 124.551C264.405 121.481 265.672 118.608 267.382 116.024H267.389C267.975 115.141 268.605 114.29 269.278 113.472C269.456 113.251 269.634 113.035 269.825 112.82C271.923 110.328 274.267 108.028 276.283 105.48C276.648 105.019 276.997 104.558 277.335 104.078C283.567 95.2615 284.373 82.9146 279.341 73.3599" stroke="black" stroke-linecap="round" stroke-linejoin="round"/>
<path d="M246.865 87.1276C249.352 87.2458 251.844 87.1078 254.303 86.7151C261.332 85.5797 267.93 82.5896 273.417 78.0531C275.165 76.6156 276.781 75.026 278.247 73.3036C279.938 71.3313 281.411 69.1818 282.64 66.8932" stroke="black" stroke-linecap="round" stroke-linejoin="round"/>
<path d="M276.685 105.805C288.152 102.853 296.938 92 298.051 80.2125C299.165 68.425 292.877 56.4104 282.892 50.0482C272.908 43.6862 259.736 42.9732 248.847 47.6123C237.958 52.2516 229.486 61.9406 225.696 73.1562C222.577 82.3906 221.666 93.7349 213.404 98.9151C205.019 104.176 193.841 99.8562 184.274 102.397C173.852 105.166 167.27 115.532 163.948 125.787C160.626 136.043 159.487 147.049 154.738 156.733C149.988 166.416 140.003 174.826 129.378 173.011" stroke="black" stroke-linecap="round" stroke-linejoin="round"/>
<path d="M127.563 172.938C127.73 173.11 127.896 173.276 128.062 173.442C131.024 176.374 134.6 178.612 138.532 179.995C142.463 181.379 146.653 181.872 150.798 181.442C154.943 181.011 158.942 179.666 162.505 177.504C166.068 175.342 169.107 172.417 171.404 168.939C176.393 161.386 177.445 151.996 180.049 143.321C182.654 134.647 187.985 125.609 196.808 123.573C204.204 121.862 211.893 125.604 219.435 124.711C229.654 123.493 237.504 114.105 247.735 112.997C249.618 112.794 251.605 112.862 253.278 111.976C255.678 110.703 256.551 108.076 256.551 105.257C256.53 103.499 256.244 101.755 255.702 100.083C254.361 95.8875 252.398 91.2365 254.4 87.3115" stroke="black" stroke-linecap="round" stroke-linejoin="round"/>
<path d="M256.615 105.233V105.258C256.707 108.039 256.867 110.961 257.136 113.914C257.197 114.584 257.265 115.261 257.339 115.932C257.814 120.953 258.806 125.912 260.302 130.729C260.875 132.452 261.587 134.199 262.91 135.435C264.233 136.672 266.325 137.263 267.91 136.389C268.038 136.321 268.16 136.243 268.275 136.155C268.369 136.089 268.46 136.017 268.545 135.94C268.642 135.855 268.735 135.764 268.822 135.669C269.936 134.451 270.228 132.501 270.268 130.766C270.462 125.713 269.493 120.683 267.438 116.062" stroke="black" stroke-linecap="round" stroke-linejoin="round"/>
<path d="M267.438 116.061C268.674 116.701 269.909 117.335 271.141 117.962C274.063 119.445 276.979 120.866 279.92 122.176C282.067 123.148 284.22 124.051 286.405 124.884C288.17 125.567 289.959 126.194 291.769 126.767C294.617 127.677 297.513 128.427 300.444 129.012C312.286 131.369 325.107 130.636 335.671 124.794C346.234 118.951 354.029 107.408 353.364 95.3495C353.217 92.6979 353.208 89.1786 355.752 88.4099C356.388 88.249 357.052 88.2318 357.695 88.3604C357.874 88.3854 358.046 88.4161 358.225 88.4469C363.632 89.3573 369.04 90.2719 374.447 91.1906C375.167 91.3135 375.893 91.4365 376.613 91.5599C378.059 91.7995 379.634 92.1193 380.544 93.2641C381.67 94.6849 381.314 96.7338 380.883 98.4932C377.61 111.935 373.5 125.667 364.647 136.306C355.819 146.912 342.684 153.593 329.014 155.482C315.344 157.37 301.576 154.781 289.123 148.826" stroke="black" stroke-linecap="round" stroke-linejoin="round"/>
<path d="M288.792 148.624C288.804 148.704 288.811 148.78 288.823 148.857C289.119 151.214 289.451 153.564 289.82 155.908C290.939 163.088 292.366 170.21 294.101 177.274C296.774 188.126 300.163 198.789 304.247 209.192C304.726 210.422 305.194 211.892 304.444 212.975C303.717 214.017 302.253 214.126 300.986 214.132L299.163 214.15C290.592 214.261 280.356 214.593 272.05 214.667" stroke="black" stroke-linecap="round" stroke-linejoin="round"/>
<path d="M257.312 116.036C257.299 116.043 257.281 116.055 257.269 116.061C252.998 118.509 248.718 121.014 244.528 123.641C242.947 124.637 241.378 125.646 239.834 126.686C231.91 131.983 224.496 137.877 218.357 144.964C212.44 151.747 207.927 159.637 205.08 168.177C203.757 172.044 202.696 175.997 201.906 180.007C201.407 182.505 200.999 185.013 200.682 187.531C199.149 199.458 199.408 211.542 199.833 223.565C199.9 225.503 200.103 227.705 201.629 228.905C201.907 229.122 202.215 229.297 202.546 229.421C203.608 229.773 204.726 229.925 205.843 229.87L224.502 229.999C225.239 230.034 225.978 229.972 226.699 229.815C227.073 229.727 227.427 229.57 227.745 229.354C229.418 228.197 229.307 225.748 229.068 223.729C228.766 221.176 228.551 218.616 228.421 216.051C228.161 211.009 228.231 205.955 228.629 200.922C229.119 194.611 230.11 188.349 231.595 182.195C232.481 178.498 233.545 174.852 234.788 171.258C237.32 163.897 240.581 156.808 244.521 150.095" stroke="black" stroke-linecap="round" stroke-linejoin="round"/>
<path d="M232.315 243.906L232.623 243.962C246.552 246.373 255.202 247.838 259.858 248.533C262.842 248.976 264.19 249.111 264.233 248.976C264.35 248.631 268.269 231.042 271.917 214.634C275.129 200.183 278.131 186.655 278.131 186.655L275.485 186.403L273.996 186.261L267.678 185.658L231.812 182.244" stroke="black" stroke-linecap="round" stroke-linejoin="round"/>
<path d="M201.481 179.927L195.84 179.274L181.019 221.89L176.731 234.213C176.731 234.213 181.679 235.154 202.133 238.698" stroke="black" stroke-linecap="round" stroke-linejoin="round"/>
<path d="M259.889 248.326L273.996 186.263L274.002 186.226" stroke="black" stroke-linecap="round" stroke-linejoin="round"/>
<path d="M275.522 186.005L277.048 177.976L276.636 177.952L273.719 177.785L269.444 177.539" stroke="black" stroke-linecap="round" stroke-linejoin="round"/>
<path d="M267.709 185.359L268.872 178.53L269.05 177.472L269.444 175.152L252.587 173.325L247.167 172.741L235.355 171.461" stroke="black" stroke-linecap="round" stroke-linejoin="round"/>
<path d="M204.52 167.984L197.575 167.548L177.814 221.397L180.853 221.834" stroke="black" stroke-linecap="round" stroke-linejoin="round"/>
<path d="M269.432 178.229C269.383 178.352 269.348 178.48 269.327 178.61C269.252 179.183 269.361 179.765 269.637 180.273C269.913 180.78 270.343 181.187 270.865 181.434C271.463 181.681 272.114 181.767 272.754 181.685C273.395 181.603 274.003 181.355 274.52 180.966C275.514 180.199 276.252 179.147 276.636 177.951C276.653 177.913 276.667 177.874 276.679 177.834" stroke="black" stroke-linecap="round" stroke-linejoin="round"/>
<path d="M228.624 216.042C230.95 216.109 233.109 214.454 234.075 212.332C235.041 210.209 234.955 207.736 234.315 205.497C233.992 204.174 233.323 202.962 232.377 201.984C231.897 201.502 231.302 201.152 230.648 200.967C229.994 200.781 229.304 200.767 228.643 200.926" stroke="black" stroke-linecap="round" stroke-linejoin="round"/>
<path d="M299.167 214.237C305.233 227.223 311.297 240.21 317.358 253.198C317.654 253.823 317.949 254.553 317.671 255.185C317.295 256.053 316.145 256.182 315.197 256.188C312.22 256.213 309.246 256.287 306.277 256.41C295.486 256.846 284.726 257.861 273.991 259.086C271.044 259.412 268.105 259.763 265.162 260.119C262.53 260.44 259.898 260.762 257.269 261.085C249.954 261.983 242.638 262.883 235.318 263.786C230.963 264.321 226.609 264.857 222.257 265.392C222.861 259.484 224.21 253.678 226.275 248.11" stroke="black" stroke-linecap="round" stroke-linejoin="round"/>
<path d="M202.595 229.223C202.576 229.291 202.558 229.352 202.546 229.42C201.744 232.436 201.681 235.602 202.361 238.648C202.879 241.037 203.85 243.305 205.222 245.329C206.524 247.248 208.335 249.014 210.617 249.444C212.899 249.873 215.607 247.85 215.889 245.549C216.32 247.477 217.95 249.69 219.888 250.084C221.826 250.478 225.296 249.659 224.392 245.248C224.734 246.359 225.403 247.341 226.311 248.066C227.194 248.882 228.28 249.446 229.455 249.696C231.226 249.93 233.7 249.708 234.106 247.973C234.45 246.528 233.601 245.144 232.623 243.963C232.451 243.755 232.273 243.551 232.103 243.354C230.995 242.111 229.888 240.866 228.781 239.619C227.587 238.284 226.397 236.949 225.212 235.615" stroke="black" stroke-linecap="round" stroke-linejoin="round"/>
<path d="M226.44 229.672C226.526 229.716 226.613 229.765 226.701 229.814C230.226 231.747 233.352 234.334 235.911 237.436C236.44 238.082 236.969 238.981 236.532 239.694C236.115 240.39 235.129 240.371 234.323 240.273C232.49 240.039 230.657 239.809 228.823 239.584" stroke="black" stroke-linecap="round" stroke-linejoin="round"/>
<path d="M157.124 264.567C157.124 264.61 157.118 264.654 157.118 264.697C156.571 278.183 158.519 291.655 162.865 304.433C165.012 310.735 167.774 316.897 171.798 322.207C173.235 324.11 174.846 325.878 176.608 327.485C179.742 330.412 183.451 332.656 187.498 334.074C198.11 337.668 210.328 334.197 218.788 326.845C223.281 322.858 226.928 318.009 229.511 312.585C231.78 307.882 233.436 302.907 234.439 297.783C236.635 286.793 236.241 275.457 235.38 264.284" stroke="black" stroke-linecap="round" stroke-linejoin="round"/>
<path d="M138.249 289.73C140.709 305.615 146.463 321.253 156.644 333.699C158.32 335.747 160.117 337.693 162.027 339.525C171.747 348.876 184.353 355.311 197.759 356.296C211.515 357.298 225.462 352.469 236.173 343.776C242.895 338.246 248.412 331.398 252.384 323.653C254.74 319.108 256.589 314.317 257.896 309.367C262.141 293.298 260.805 276.158 265.161 260.119C265.174 260.082 265.18 260.04 265.192 260.003" stroke="black" stroke-linecap="round" stroke-linejoin="round"/>
<path d="M138.698 289.692L138.568 289.452C136.471 285.622 133.477 282.358 129.843 279.938C126.209 277.518 122.042 276.014 117.7 275.555C124.64 274.681 131.13 270.138 138.051 271.149C143.127 271.882 147.261 275.469 151.082 278.895C150.466 274.773 149.849 270.656 149.23 266.542C151.785 266.132 154.302 265.51 156.754 264.684" stroke="black" stroke-linecap="round" stroke-linejoin="round"/>
<path d="M273.953 258.784C273.965 258.882 273.978 258.987 273.99 259.085C277.297 284.483 279.227 310.042 279.771 335.648C280.298 359.824 279.59 384.011 277.649 408.114C277.371 411.603 277.066 415.087 276.732 418.567C276.406 422.08 276.047 425.591 275.656 429.099C275.656 429.118 275.649 429.142 275.649 429.16" stroke="black" stroke-linecap="round" stroke-linejoin="round"/>
<path d="M306.25 256.152C306.257 256.237 306.269 256.323 306.275 256.412C308.445 279.392 308.959 302.499 307.813 325.554C306.426 353.736 302.568 381.743 296.284 409.252" stroke="black" stroke-linecap="round" stroke-linejoin="round"/>
<path d="M296.125 409.115L296.218 409.336C300.162 418.744 307.096 426.59 315.948 431.662C310.03 431.902 303.963 432.117 298.34 430.272C292.718 428.427 287.524 424.055 286.448 418.229" stroke="black" stroke-linecap="round" stroke-linejoin="round"/>
<path d="M286.036 417.916C286.03 418.008 286.018 418.094 286.012 418.187C285.624 422.051 285.236 425.914 284.849 429.778C284.857 430.24 284.7 430.689 284.406 431.045C283.945 431.469 283.225 431.353 282.622 431.205L276.107 429.654C275.781 429.574 275.774 429.476 275.651 429.162" stroke="black" stroke-linecap="round" stroke-linejoin="round"/>
<path d="M138.073 289.483C138.126 289.482 138.18 289.478 138.233 289.471L138.572 289.452C145.259 289.046 151.876 287.872 158.295 285.952" stroke="black" stroke-linecap="round" stroke-linejoin="round"/>
<path d="M277.917 408.134C283.968 409.098 290.095 409.499 296.22 409.332H296.373" stroke="black" stroke-linecap="round" stroke-linejoin="round"/>
<path d="M357.709 88.2901C355.192 87.1828 352.51 85.9401 351.126 83.5656C350.677 82.7901 350.406 81.7693 350.917 81.0307C351.119 80.7786 351.379 80.5802 351.675 80.4526C351.971 80.325 352.294 80.2719 352.615 80.2984C353.258 80.3589 353.886 80.525 354.474 80.7906C356.467 81.5599 358.462 82.3333 360.46 83.1104" stroke="black" stroke-linecap="round" stroke-linejoin="round"/>
<path d="M374.48 91.0219C376.322 83.9891 377.547 76.8089 378.14 69.5635C378.259 68.7526 378.213 67.926 378.005 67.1339C377.892 66.7411 377.67 66.3885 377.363 66.1182C377.057 65.8479 376.68 65.6708 376.276 65.6078C375.921 65.6063 375.571 65.6948 375.259 65.8646C374.947 66.0349 374.683 66.2807 374.492 66.5797C374.113 67.1797 373.845 67.8422 373.698 68.5365C373.341 69.8406 373.009 71.151 372.701 72.4677C371.864 75.9745 371.184 79.5161 370.659 83.0927" stroke="black" stroke-linecap="round" stroke-linejoin="round"/>
<path d="M372.621 72.4479C372.893 70.5453 372.681 68.6052 372.006 66.8062C371.882 66.374 371.618 65.9948 371.255 65.7297C370.95 65.5953 370.608 65.5672 370.285 65.6495C369.961 65.7318 369.675 65.9203 369.471 66.1849C369.085 66.7312 368.835 67.362 368.742 68.0245C368.391 69.6364 368.09 71.2604 367.85 72.8911C367.338 76.2656 367.058 79.6719 367.013 83.0849" stroke="black" stroke-linecap="round" stroke-linejoin="round"/>
<path d="M367.773 72.8792C367.703 70.6458 367.156 68.4536 366.168 66.45C365.743 65.5828 365.122 64.6792 364.168 64.5307C363.777 64.5 363.385 64.5729 363.032 64.7427C362.679 64.9125 362.377 65.1724 362.157 65.4969C361.723 66.1484 361.432 66.8844 361.302 67.6562C360.139 72.7005 360.336 77.9365 360.552 83.1042V83.1469C360.65 83.0547 360.755 82.9625 360.86 82.8703" stroke="black" stroke-linecap="round" stroke-linejoin="round"/>
<path d="M277.854 86.4385C277.7 86.0271 277.452 85.6573 277.13 85.3583C276.808 85.0594 276.421 84.8401 275.999 84.7172C275.577 84.5938 275.133 84.5708 274.701 84.65C274.269 84.7287 273.861 84.9073 273.51 85.1714" stroke="black" stroke-linecap="round" stroke-linejoin="round"/>
<path d="M273.35 78.0594C273.375 78.0594 273.393 78.0531 273.418 78.0531C275.182 77.8885 276.959 77.9464 278.709 78.2255" stroke="black" stroke-linecap="round" stroke-linejoin="round"/>
<path d="M266.263 84.8203C266.154 84.4875 265.943 84.1969 265.661 83.9885C265.379 83.7807 265.039 83.6651 264.688 83.6578" stroke="black" stroke-linecap="round" stroke-linejoin="round"/>
<path d="M269.936 85.3188C269.852 86.5339 270.064 87.7521 270.551 88.8688C270.834 89.412 271.073 89.9781 271.265 90.5604C271.356 90.8521 271.376 91.162 271.321 91.463C271.267 91.7641 271.14 92.0474 270.952 92.2891C270.853 92.4026 270.731 92.4938 270.594 92.5563C270.456 92.6188 270.308 92.6516 270.157 92.6521C270.006 92.6526 269.857 92.6214 269.719 92.5599C269.582 92.4979 269.459 92.4078 269.359 92.2953" stroke="black" stroke-linecap="round" stroke-linejoin="round"/>
<path d="M265.549 99.9422C265.252 100.149 264.906 100.277 264.545 100.311C264.184 100.346 263.82 100.286 263.488 100.139C263.178 99.9974 262.918 99.7656 262.743 99.4734C262.566 99.1812 262.484 98.8427 262.504 98.5026" stroke="black" stroke-linecap="round" stroke-linejoin="round"/>
<path d="M387.239 389.351L387.282 389.364L405.658 393.805L292.748 478.342L147.127 436.944L47.2471 433.757L79.1643 411.32" stroke="black" stroke-linecap="round" stroke-linejoin="round"/>
<path d="M279.558 335.655C275.326 338.448 271.109 341.264 266.909 344.102C247.21 357.416 227.841 371.196 208.802 385.445C208.575 385.617 208.341 385.789 208.113 385.961C205.486 387.93 202.863 389.909 200.245 391.899C199.932 392.139 199.62 392.372 199.303 392.612C185.566 403.071 172.014 413.765 158.65 424.696C155.396 427.36 152.149 430.038 148.91 432.73L148.129 433.383C148.375 433.222 148.627 433.07 148.879 432.914" stroke="black" stroke-linecap="round" stroke-linejoin="round"/>
<path d="M147.158 433.776C147.176 433.751 147.201 433.733 147.22 433.708C147.287 433.634 147.355 433.56 147.428 433.493C147.57 433.333 147.717 433.18 147.865 433.024C151.041 429.743 154.673 426.938 158.649 424.694C164.136 421.609 170.074 419.406 176.245 418.167C187.196 415.903 198.546 416.296 209.638 417.736C222.786 419.44 236.241 422.848 246.447 431.308C252.55 436.365 257.219 443.015 263.562 447.771C269.523 452.182 276.649 454.741 284.055 455.129C287.713 455.332 291.383 454.988 294.94 454.108" stroke="black" stroke-linecap="round" stroke-linejoin="round"/>
<path d="M295.153 454.256C322.08 428.03 357.886 412.485 387.281 389.364C393.567 384.472 399.497 379.139 405.024 373.405" stroke="black" stroke-linecap="round" stroke-linejoin="round"/>
<path d="M404.792 372.747C393.115 370.778 380.485 368.293 372.629 359.433C367.842 354.038 365.486 346.926 361.315 341.045C355.643 333.041 346.728 327.639 337.211 325.258C327.694 322.878 317.616 323.357 308.056 325.566" stroke="black" stroke-linecap="round" stroke-linejoin="round"/>
<path d="M266.657 343.727C264.425 335.558 259.368 328.445 252.386 323.653C252.361 323.634 252.343 323.622 252.318 323.6" stroke="black" stroke-linecap="round" stroke-linejoin="round"/>
<path d="M202.57 309.435C193.053 316.793 186.642 320.822 176.621 327.473" stroke="black" stroke-linecap="round" stroke-linejoin="round"/>
<path d="M161.892 339.667C155.291 345.364 149.224 350.5 143.54 355.226C138.501 359.415 133.771 363.279 129.249 366.92C106.191 385.487 88.4601 398.327 62.9841 418.912C62.9476 418.937 62.9127 418.964 62.8799 418.992" stroke="black" stroke-linecap="round" stroke-linejoin="round"/>
<path d="M62.6338 419.134C62.7505 419.06 62.8676 418.978 62.9843 418.912C69.764 414.55 74.4025 412.268 79.1463 411.247C81.3176 410.794 83.5291 410.565 85.7473 410.564C89.6291 410.515 94.102 410.957 100.063 411.553C117.719 413.39 134.273 421.01 147.152 433.227C147.244 433.314 147.336 433.399 147.429 433.492C147.57 433.621 147.712 433.756 147.845 433.892" stroke="black" stroke-linecap="round" stroke-linejoin="round"/>
<path d="M85.7471 410.742C82.2279 414.717 72.8336 420.493 69.3086 424.468" stroke="black" stroke-linecap="round" stroke-linejoin="round"/>
<path d="M69.3086 424.468C71.7326 424.184 74.1648 423.959 76.6049 423.791C100.347 422.105 124.179 425.371 146.592 433.382C146.789 433.455 146.986 433.523 147.183 433.597" stroke="black" stroke-linecap="round" stroke-linejoin="round"/>
<path d="M146.511 433.406C146.538 433.401 146.565 433.393 146.591 433.382C146.775 433.33 146.966 433.278 147.151 433.226C147.39 433.158 147.624 433.09 147.864 433.022C148.215 432.924 148.56 432.826 148.91 432.727C159.806 429.676 170.849 426.932 182.132 426.139C194.239 425.29 206.752 426.809 217.568 432.328C226.919 437.095 234.547 444.577 242.896 450.944C250.045 456.389 257.858 461.169 266.539 462.19C268.025 462.369 269.522 462.431 271.018 462.374" stroke="black" stroke-linecap="round" stroke-linejoin="round"/>
<path d="M271.018 462.377C275.362 460.064 279.703 457.748 284.043 455.431" stroke="black" stroke-linecap="round" stroke-linejoin="round"/>
<path d="M147.736 434.188C147.804 434.164 147.865 434.139 147.933 434.114C166.055 427.174 186.118 427.273 204.17 434.391C224.988 442.709 241.002 460.298 263.095 464.099" stroke="black" stroke-linecap="round" stroke-linejoin="round"/>
<path d="M263.513 464.02C264.516 463.472 265.518 462.918 266.522 462.371" stroke="black" stroke-linecap="round" stroke-linejoin="round"/>
<path d="M147.57 433.788C147.453 433.764 147.336 433.733 147.219 433.708C122.946 428.149 98.0278 425.928 73.1538 427.107" stroke="black" stroke-linecap="round" stroke-linejoin="round"/>
<path d="M72.9263 427.119C72.969 427.076 73.0185 427.039 73.0612 427.002C74.2414 425.95 75.4247 424.902 76.6112 423.858" stroke="black" stroke-linecap="round" stroke-linejoin="round"/>
<path d="M257.355 115.914C257.348 115.919 257.348 115.926 257.342 115.932L257.268 116.061C254.931 120.113 252.158 123.898 249 127.35" stroke="black" stroke-linecap="round" stroke-linejoin="round"/>
<path d="M249 127.35C256.561 133.274 261.317 140.713 263.802 149.99" stroke="black" stroke-linecap="round" stroke-linejoin="round"/>
<path d="M263.79 150.174C263.809 150.119 263.827 150.058 263.846 150.003C265.359 145.431 266.874 140.862 268.392 136.295" stroke="black" stroke-linecap="round" stroke-linejoin="round"/>
<path d="M269.062 135.902C273.958 137.981 276.845 142.214 277.909 147.412C277.924 147.463 277.936 147.515 277.946 147.568" stroke="black" stroke-linecap="round" stroke-linejoin="round"/>
<path d="M278.155 147.357C278.92 144.196 279.194 140.936 278.967 137.692C278.475 130.642 275.664 123.899 271.074 118.097" stroke="black" stroke-linecap="round" stroke-linejoin="round"/>
<path d="M244.693 123.906C251.269 139.222 254.009 155.911 252.673 172.526" stroke="black" stroke-linecap="round" stroke-linejoin="round"/>
<path d="M247.192 172.525C249.958 156.853 247.366 140.705 239.834 126.685C239.828 126.679 239.828 126.667 239.821 126.66" stroke="black" stroke-linecap="round" stroke-linejoin="round"/>
<path d="M279.921 122.158V122.176C279.915 127.326 279.908 132.493 280.167 137.636C280.369 142.195 280.875 146.735 281.68 151.227C283.47 160.787 287.186 170.206 293.769 177.355" stroke="black" stroke-linecap="round" stroke-linejoin="round"/>
<path d="M286.423 124.785C286.417 124.816 286.411 124.853 286.405 124.883C284.298 135.32 285.405 146.151 289.579 155.945" stroke="black" stroke-linecap="round" stroke-linejoin="round"/>
<path d="M291.856 126.514C291.665 124.299 291.474 122.086 291.283 119.876C291.141 118.227 290.938 116.438 289.788 115.249C288.533 113.957 286.545 113.785 284.743 113.693C279.649 113.432 275.003 113.151 269.904 112.886" stroke="black" stroke-linecap="round" stroke-linejoin="round"/>
<path d="M218.363 145.052C218.364 145.023 218.362 144.994 218.356 144.965C218.161 142.318 218.2 139.658 218.473 137.017C218.751 134.332 219.748 131.771 221.359 129.604C223.272 127.192 226.071 125.678 228.84 124.349C238.08 119.922 247.277 117.016 257.041 113.922" stroke="black" stroke-linecap="round" stroke-linejoin="round"/>
<path d="M228.95 312.314C220.354 310.019 211.458 309.048 202.57 309.435" stroke="black" stroke-linecap="round" stroke-linejoin="round"/>
<path d="M275.165 429.051C269.037 415.079 257.84 403.944 244.182 397.146C230.567 390.424 215.06 388.572 200.244 391.898C200.036 391.941 199.832 391.991 199.623 392.04" stroke="black" stroke-linecap="round" stroke-linejoin="round"/>
<path d="M276.611 418.555C270.908 405.931 261.563 396.949 249.105 390.889C236.702 384.854 222.207 382.191 208.802 385.445L208.646 385.481" stroke="black" stroke-linecap="round" stroke-linejoin="round"/>
<path d="M199.26 392.552C181.099 374.545 154.879 364.99 129.39 367.094" stroke="black" stroke-linecap="round" stroke-linejoin="round"/>
<path d="M207.873 385.647C189.937 369.328 167.536 358.735 143.542 355.225C143.487 355.219 143.431 355.206 143.376 355.2" stroke="black" stroke-linecap="round" stroke-linejoin="round"/>
<path d="M366.075 441.896C356.484 448.756 346.891 455.616 337.296 462.476C333.678 465.066 325.525 470.48 327.957 475.961C330.479 481.638 338.061 478.422 341.811 476.33C344.105 475.051 346.392 473.756 348.671 472.448C358.465 466.844 368.118 460.999 377.629 454.915C390.549 446.665 403.184 437.992 415.533 428.897C427.818 419.854 439.913 410.299 449.609 398.512C451.596 396.1 453.577 392.975 452.458 390.059C451.449 387.432 448.182 386.269 445.401 386.73C442.62 387.192 440.221 388.878 437.933 390.514C413.976 407.642 390.023 424.769 366.075 441.896Z" stroke="black" stroke-linecap="round" stroke-linejoin="round"/>
<path d="M343.484 466.979C344.528 469.188 346.216 471.027 348.327 472.255C350.438 473.483 352.872 474.042 355.307 473.857C359.066 473.501 362.395 471.378 365.563 469.317L403.035 444.911" stroke="black" stroke-linecap="round" stroke-linejoin="round"/>
<path d="M377.292 454.385C377.23 451.307 376.064 448.353 374.006 446.061C371.949 443.77 369.137 442.294 366.083 441.903" stroke="black" stroke-linecap="round" stroke-linejoin="round"/>
<path d="M268.914 136.018C272.541 149.352 274.177 163.148 273.768 176.96" stroke="black" stroke-miterlimit="10"/>
<path d="M412.418 148.118C396.23 150.045 381.324 160.008 372.828 173.921C364.332 187.833 362.232 205.354 366.603 221.059C368.69 228.559 372.321 235.841 378.209 240.93C384.097 246.019 392.492 248.59 399.917 246.254C407.341 243.919 413.017 236.033 411.606 228.379C411.197 226.157 410.257 224.067 408.866 222.286C407.475 220.506 405.675 219.087 403.619 218.151C401.563 217.215 399.311 216.789 397.055 216.91C394.799 217.031 392.605 217.694 390.661 218.845C383.369 223.159 381.494 233.348 384.011 241.44C386.528 249.532 392.353 256.089 397.761 262.61C403.169 269.132 408.497 276.298 409.651 284.694C410.805 293.089 406.225 302.856 397.928 304.577" stroke="black" stroke-opacity="0.15" stroke-linecap="round" stroke-linejoin="round"/>
<path d="M85.1321 242.301C81.0415 230.313 77.0165 218.056 76.805 205.391C76.5935 192.726 80.7633 179.376 90.555 171.343C95.4441 167.332 101.464 164.832 106.149 160.583C109.177 157.798 111.548 154.374 113.088 150.559C114.627 146.744 115.299 142.633 115.052 138.527C114.675 132.934 111.661 126.725 106.146 125.728C102.126 124.999 98.0352 127.419 95.7071 130.777C91.7066 136.545 92.4399 145.12 97.3618 150.126C102.284 155.131 110.846 156.007 116.68 152.105C123.475 147.559 125.509 138.314 124.624 130.186C123.062 115.827 113.778 102.541 100.831 96.138" stroke="black" stroke-opacity="0.15" stroke-linecap="round" stroke-linejoin="round"/>
<path d="M122.812 225.19L112.404 212.15" stroke="black" stroke-opacity="0.15" stroke-linecap="round" stroke-linejoin="round"/>
<path d="M111.094 225.409C114.566 219.914 118.554 214.762 123.004 210.024" stroke="black" stroke-opacity="0.15" stroke-linecap="round" stroke-linejoin="round"/>
<path d="M241.565 32.5846L233.742 25.208" stroke="black" stroke-opacity="0.15" stroke-linecap="round" stroke-linejoin="round"/>
<path d="M233.19 34.9842C235.751 30.262 238.313 25.5398 240.874 20.8176" stroke="black" stroke-opacity="0.15" stroke-linecap="round" stroke-linejoin="round"/>
<path d="M403.634 87.6448L399.292 81.1313" stroke="black" stroke-opacity="0.15" stroke-linecap="round" stroke-linejoin="round"/>
<path d="M397.058 88.4474L404.908 81.1036" stroke="black" stroke-opacity="0.15" stroke-linecap="round" stroke-linejoin="round"/>
<path d="M335.365 181.519L328.872 173.251" stroke="black" stroke-opacity="0.15" stroke-linecap="round" stroke-linejoin="round"/>
<path d="M294.632 48.9952L304.62 29.0192" stroke="black" stroke-linecap="round" stroke-linejoin="round"/>
<path d="M299.41 54.6406L308.095 52.4688" stroke="black" stroke-linecap="round" stroke-linejoin="round"/>
<path d="M287.25 44.6524L283.776 32.0592" stroke="black" stroke-linecap="round" stroke-linejoin="round"/>
<path d="M394.514 202.727L404.503 192.738" stroke="black" stroke-linecap="round" stroke-linejoin="round"/>
<path d="M394.514 191.87L404.068 201.858" stroke="black" stroke-linecap="round" stroke-linejoin="round"/>
<path d="M345.008 309.557L358.035 227.045" stroke="black" stroke-linecap="round" stroke-linejoin="round"/>
<path d="M354.127 315.202L369.327 298.266" stroke="black" stroke-linecap="round" stroke-linejoin="round"/>
<path d="M331.545 307.384L325.9 284.369" stroke="black" stroke-linecap="round" stroke-linejoin="round"/>
<path d="M327.982 180.632L336.25 174.139" stroke="black" stroke-opacity="0.15" stroke-linecap="round" stroke-linejoin="round"/>
<path d="M154.942 84.5135L162.393 82.8125L157.838 88.9479L161.758 95.5078L154.515 93.0724L149.488 98.8276L149.566 91.1859L142.539 88.1833L149.83 85.8964L150.514 78.2849L154.942 84.5135Z" fill="black"/>
<path d="M326.091 99.0136L332.35 102.273L325.475 103.866L324.309 110.827L320.67 104.781L313.689 105.823L318.315 100.493L315.167 94.176L321.665 96.9287L326.7 91.9828L326.091 99.0136Z" stroke="black" stroke-linecap="round" stroke-linejoin="round"/>
<path fill-rule="evenodd" clip-rule="evenodd" d="M273.99 259.086C284.725 257.861 295.485 256.846 306.276 256.41C309.245 256.287 312.218 256.213 315.195 256.189C316.143 256.183 317.293 256.054 317.669 255.186C317.947 254.553 317.652 253.824 317.356 253.199C311.294 240.211 305.23 227.223 299.165 214.238V214.151C295.213 214.202 290.906 214.301 286.599 214.398C281.564 214.514 276.528 214.628 272.052 214.668L271.917 214.637C268.268 231.045 264.35 248.634 264.233 248.979C264.189 249.114 262.842 248.979 259.858 248.535C255.201 247.84 246.551 246.376 232.623 243.965C233.601 245.145 234.45 246.529 234.105 247.975C233.699 249.71 231.225 249.931 229.454 249.698C228.279 249.447 227.193 248.884 226.311 248.067L226.274 248.11C224.209 253.678 222.86 259.484 222.256 265.392C226.608 264.857 230.962 264.321 235.317 263.786C242.637 262.883 249.953 261.983 257.268 261.085C259.897 260.762 262.529 260.44 265.161 260.119C268.104 259.763 271.043 259.412 273.99 259.086ZM295.673 219.081C295.45 218.623 294.897 218.432 294.439 218.656C293.981 218.88 293.791 219.432 294.014 219.89C298.93 229.968 303.647 240.137 308.166 250.396C308.371 250.863 308.916 251.074 309.382 250.869C309.849 250.664 310.061 250.119 309.855 249.653C305.327 239.371 300.6 229.181 295.673 219.081Z" fill="black"/>
<path d="M246.139 260.05L262.352 279.737" stroke="black" stroke-linecap="round" stroke-linejoin="round"/>
<path d="M235.717 262.945L260.036 298.265" stroke="black" stroke-linecap="round" stroke-linejoin="round"/>
<path d="M235.717 279.447L257.719 311.004" stroke="black" stroke-linecap="round" stroke-linejoin="round"/>
<path d="M233.69 299.714L251.93 324.901" stroke="black" stroke-linecap="round" stroke-linejoin="round"/>
<path d="M227.9 317.663L242.665 338.218" stroke="black" stroke-linecap="round" stroke-linejoin="round"/>
<path d="M219.215 326.059L234.849 345.456" stroke="black" stroke-linecap="round" stroke-linejoin="round"/>
<path d="M209.95 332.139L223.557 352.115" stroke="black" stroke-linecap="round" stroke-linejoin="round"/>
<path d="M198.948 335.613L210.239 355.3" stroke="black" stroke-linecap="round" stroke-linejoin="round"/>
<path d="M185.631 333.007L197.791 356.168" stroke="black" stroke-linecap="round" stroke-linejoin="round"/>
<path d="M172.024 323.164L185.632 353.562" stroke="black" stroke-linecap="round" stroke-linejoin="round"/>
<path d="M151.758 287.264L175.498 349.22" stroke="black" stroke-linecap="round" stroke-linejoin="round"/>
<path d="M143.941 288.133L162.18 338.797" stroke="black" stroke-linecap="round" stroke-linejoin="round"/>
<path d="M292.75 256.576L306.937 271.92" stroke="black" stroke-linecap="round" stroke-linejoin="round"/>
<path d="M279.144 255.128L308.384 289.58" stroke="black" stroke-linecap="round" stroke-linejoin="round"/>
<path d="M275.091 266.419L308.384 308.688" stroke="black" stroke-linecap="round" stroke-linejoin="round"/>
<path d="M277.117 287.264L307.805 326.927" stroke="black" stroke-linecap="round" stroke-linejoin="round"/>
<path d="M278.565 310.715L305.779 346.324" stroke="black" stroke-linecap="round" stroke-linejoin="round"/>
<path d="M279.722 330.691L304.621 361.379" stroke="black" stroke-linecap="round" stroke-linejoin="round"/>
<path d="M280.302 349.509L302.015 377.013" stroke="black" stroke-linecap="round" stroke-linejoin="round"/>
<path d="M279.433 366.011L299.41 392.936" stroke="black" stroke-linecap="round" stroke-linejoin="round"/>
<path d="M278.565 385.119L296.514 405.674" stroke="black" stroke-linecap="round" stroke-linejoin="round"/>
<path d="M297.383 252.523L276.827 282.632" stroke="black" stroke-linecap="round" stroke-linejoin="round"/>
<path d="M306.647 262.655L278.854 306.951" stroke="black" stroke-linecap="round" stroke-linejoin="round"/>
<path d="M307.805 288.711L280.013 327.506" stroke="black" stroke-linecap="round" stroke-linejoin="round"/>
<path d="M308.963 310.425L280.302 349.509" stroke="black" stroke-linecap="round" stroke-linejoin="round"/>
<path d="M307.805 336.191L279.722 374.117" stroke="black" stroke-linecap="round" stroke-linejoin="round"/>
<path d="M304.91 362.827L278.854 400.753" stroke="black" stroke-linecap="round" stroke-linejoin="round"/>
<path d="M250.482 259.76L234.559 299.713" stroke="black" stroke-linecap="round" stroke-linejoin="round"/>
<path d="M262.062 259.76L214.583 354.141" stroke="black" stroke-linecap="round" stroke-linejoin="round"/>
<path d="M261.411 285.889L227.321 349.943" stroke="black" stroke-linecap="round" stroke-linejoin="round"/>
<path d="M209.95 332.139L195.475 356.168" stroke="black" stroke-linecap="round" stroke-linejoin="round"/>
<path d="M194.606 335.902L182.157 352.405" stroke="black" stroke-linecap="round" stroke-linejoin="round"/>
<path d="M181.867 331.559L169.708 345.745" stroke="black" stroke-linecap="round" stroke-linejoin="round"/>
<path d="M169.997 320.847L161.312 338.797" stroke="black" stroke-linecap="round" stroke-linejoin="round"/>
<path d="M164.207 308.688L153.496 330.111" stroke="black" stroke-linecap="round" stroke-linejoin="round"/>
<path d="M161.312 298.266L147.706 319.69" stroke="black" stroke-linecap="round" stroke-linejoin="round"/>
<path d="M158.417 289.001L143.941 312.452" stroke="black" stroke-linecap="round" stroke-linejoin="round"/>
<path d="M140.177 300.292L150.311 287.843" stroke="black" stroke-linecap="round" stroke-linejoin="round"/>
<g opacity="0.1">
<path d="M255.814 117.726C240.762 123.812 226.932 133.105 217.144 146.158C206.24 160.7 200.234 177.724 199.168 195.872C198.587 206.358 199.756 216.868 202.626 226.971C204.498 233.615 214.882 230.787 212.985 224.115C208.407 208.018 208.561 190.943 213.43 174.931C215.657 167.477 218.83 160.339 222.872 153.692C226.812 147.328 231.808 141.788 236.512 136.01C241.888 129.406 249.481 124.307 256.887 120.269C258.236 119.534 257.303 117.124 255.814 117.726Z" fill="black"/>
</g>
<g opacity="0.1">
<path d="M253.256 87.1146C252.947 90.4167 253.881 93.9313 254.263 97.2089C254.659 100.589 254.922 103.98 255.206 107.365C255.47 110.537 255.862 113.664 256.234 116.822C256.59 119.849 256.219 123.77 258.036 126.382C258.155 126.572 258.319 126.729 258.515 126.837C258.71 126.945 258.93 127.003 259.153 127.003C259.377 127.003 259.597 126.945 259.793 126.837C259.988 126.729 260.152 126.572 260.271 126.382C262.146 123.862 261.805 120.028 261.996 117.052C262.265 113.489 262.283 109.911 262.048 106.347C261.797 102.99 261.381 99.6391 260.932 96.3036C260.451 92.7292 260.172 88.9536 258.625 85.6578C257.29 82.8135 253.494 84.5724 253.257 87.112L253.256 87.1146Z" fill="black"/>
</g>
<g opacity="0.1">
<path d="M152.989 286.874C150.162 292.13 152.155 299.62 153.602 305.114C155.12 310.811 157.445 316.263 160.505 321.302C166.681 331.524 175.704 340.72 187.157 344.74C198.379 348.675 211.298 346.003 220.944 339.358C230.916 332.489 237.331 321.886 240.724 310.406C242.77 303.482 243.372 296.277 243.658 289.092C243.968 281.32 243.739 273.574 243.284 265.814C242.981 260.629 234.874 260.594 235.179 265.814C235.89 277.963 236.258 289.902 233.112 301.751C230.601 311.207 226.411 320.195 219.138 326.93C212.563 333.02 203.114 337.03 194.059 335.267C184.717 333.447 176.948 326.348 171.638 318.764C168.456 314.206 165.872 309.258 163.952 304.041C162.932 301.219 162.094 298.333 161.445 295.403C160.765 292.419 160.584 289.465 158.849 286.877C157.495 284.857 154.263 284.507 152.989 286.877V286.874Z" fill="black"/>
</g>
<g opacity="0.1">
<path d="M274.147 260.312C273.612 265.385 274.572 270.442 275.125 275.495C275.68 280.566 276.16 285.644 276.619 290.724C277.538 300.889 278.198 311.072 278.598 321.275C279.398 341.696 278.969 362.078 277.917 382.48C277.654 387.573 277.326 392.661 276.933 397.744C276.75 400.115 276.563 402.486 276.373 404.856C276.175 407.318 276.086 410.235 278.383 411.799C279.711 412.704 281.28 412.336 282.428 411.278C284.341 409.513 284.385 406.741 284.674 404.351C285.288 399.278 285.78 394.192 286.221 389.101C287.907 368.75 288.438 348.32 287.811 327.908C287.504 316.516 286.871 305.139 285.915 293.777C285.429 288.011 284.836 282.256 284.137 276.512C283.448 270.783 283.136 264.766 280.96 259.393C279.478 255.736 274.572 256.312 274.15 260.315L274.147 260.312Z" fill="black"/>
</g>
</g>
</g>
</g>
<defs>
<clipPath id="clip0_20_21221">
<rect width="500" height="500" fill="white"/>
</clipPath>
</defs>
</svg>