<svg xmlns="http://www.w3.org/2000/svg" width="500" height="500" viewBox="0 0 500 500" fill="none">
<g clip-path="url(#clip0_9_1895)">
<mask id="mask0_9_1895" style="mask-type:luminance" maskUnits="userSpaceOnUse" x="-13" y="-13" width="526" height="526">
<path d="M513 -13H-13V513H513V-13Z" fill="white"/>
</mask>
<g mask="url(#mask0_9_1895)">
<mask id="mask1_9_1895" style="mask-type:luminance" maskUnits="userSpaceOnUse" x="8" y="82" width="484" height="336">
<path d="M491.631 82.8853H8.36877V417.662H491.631V82.8853Z" fill="white"/>
</mask>
<g mask="url(#mask1_9_1895)">
<path fill-rule="evenodd" clip-rule="evenodd" d="M375.982 328.269C380.158 354.926 381.305 382.033 376.248 408.34L377.223 408.524C378.122 407.89 379.017 407.241 379.908 406.588C404.983 388.106 424.789 363.386 437.358 334.883C450.25 305.503 455.182 273.508 451.064 241.693C432.448 250.837 415.821 264.44 402.532 280.759C390.996 294.855 382.127 310.935 376.359 328.212L375.982 328.269ZM447.417 270.857C447.458 270.438 447.152 270.064 446.733 270.022C446.313 269.981 445.939 270.287 445.898 270.706C441.78 312.294 424.332 351.437 396.155 382.3C395.871 382.612 395.893 383.094 396.204 383.378C396.515 383.663 396.997 383.641 397.282 383.329C425.681 352.223 443.266 312.772 447.417 270.857Z" fill="black"/>
<path fill-rule="evenodd" clip-rule="evenodd" d="M358.568 253.433C362.882 269.322 367.198 285.213 370.793 301.275C372.791 310.189 374.563 319.205 375.98 328.269L376.358 328.212C382.126 310.935 390.995 294.855 402.53 280.759L402.206 280.498C411.857 256.411 411.3 227.551 400.537 203.936L400.445 203.98C381.15 213.991 365.813 229.997 357.682 250.154H357.678C357.975 251.247 358.271 252.34 358.568 253.433ZM401.268 215.052C401.146 214.649 400.719 214.421 400.316 214.543C399.913 214.665 399.685 215.092 399.807 215.495C405.025 232.715 405.054 251.091 399.891 268.328C399.771 268.731 400 269.156 400.404 269.277C400.807 269.398 401.232 269.169 401.353 268.766C406.602 251.242 406.573 232.559 401.268 215.052Z" fill="black" fill-opacity="0.15"/>
<path fill-rule="evenodd" clip-rule="evenodd" d="M354.895 360.269C358.177 351.751 354.818 344.356 347.839 339.222C342.511 335.306 337.99 334.474 331.612 336.236C327.048 337.5 322.775 339.315 319.407 342.756C314.495 347.782 312.268 355.383 314.025 362.192C315.782 369 321.59 374.672 328.505 375.945C334.24 377 340.231 375.132 345.095 371.908C349.393 369.063 353.042 365.079 354.895 360.269ZM340.407 340.24C339.994 340.156 339.591 340.422 339.507 340.835C339.422 341.247 339.688 341.651 340.1 341.735C343.369 342.405 346.242 344.334 348.1 347.106C349.956 349.877 350.648 353.268 350.024 356.545C349.945 356.959 350.217 357.359 350.631 357.438C351.045 357.516 351.445 357.244 351.523 356.831C352.222 353.16 351.447 349.36 349.367 346.256C347.287 343.151 344.068 340.99 340.407 340.24Z" fill="black" fill-opacity="0.15"/>
<path fill-rule="evenodd" clip-rule="evenodd" d="M108.895 403.873L108.875 403.777L108.875 403.776C109.647 403.578 110.456 403.566 111.235 403.74C112.013 403.914 112.739 404.27 113.354 404.778C113.969 405.286 114.455 405.932 114.772 406.664C115.09 407.396 115.229 408.192 115.181 408.988C115.173 409.112 115.162 409.239 115.15 409.367C115.085 410.103 115.016 410.886 115.544 411.365C115.943 411.651 116.427 411.798 116.918 411.781C122.757 412.185 128.596 412.594 134.437 413.005C135.556 413.082 136.843 413.097 137.588 412.26C137.902 411.846 138.071 411.342 138.071 410.823C138.071 410.303 137.902 409.799 137.588 409.385C136.938 408.568 136.034 407.991 135.019 407.745C134.545 407.601 134.06 407.494 133.575 407.387C133.047 407.271 132.52 407.154 132.005 406.99C128.951 406.012 126.633 403.4 125.341 400.462C124.049 397.524 123.652 394.281 123.41 391.087L123.405 390.903C116.658 390.984 109.912 390.686 103.199 390.012L103.19 390.133C102.811 396.151 102.431 402.17 102.048 408.19C101.985 408.673 102.019 409.163 102.15 409.632C102.287 409.957 102.494 410.248 102.756 410.485C103.017 410.721 103.328 410.898 103.665 411.002C104.34 411.207 105.041 411.312 105.747 411.312C106.646 411.355 107.726 411.304 108.19 410.537C108.364 410.19 108.455 409.807 108.457 409.42L108.895 403.873ZM120.034 394.525C120.056 394.104 119.732 393.745 119.311 393.724C118.89 393.702 118.531 394.025 118.51 394.446C118.394 396.672 118.817 398.894 119.743 400.922C120.668 402.95 122.07 404.725 123.827 406.096C124.159 406.356 124.639 406.296 124.898 405.964C125.157 405.632 125.098 405.152 124.766 404.893C123.202 403.673 121.955 402.093 121.131 400.289C120.307 398.484 119.931 396.507 120.034 394.525Z" fill="black" fill-opacity="0.15"/>
<path fill-rule="evenodd" clip-rule="evenodd" d="M45.7872 397.509C46.5921 395.534 47.3937 393.556 48.192 391.576C49.3005 392.039 50.4779 392.315 51.6762 392.393C51.508 394.429 51.5875 396.478 51.9135 398.495C52.2493 400.53 53.3139 402.372 54.9089 403.679C56.373 404.78 58.2008 405.173 60.0089 405.561C60.4182 405.649 60.8264 405.736 61.2292 405.832C62.6022 406.158 63.9682 406.591 65.333 407.024C68.6353 408.071 71.9311 409.115 75.3079 408.629C74.4515 407.382 73.2335 406.467 72.0138 405.551C70.89 404.706 69.7646 403.861 68.9197 402.754C66.9839 400.215 66.8579 396.657 67.797 393.604C68.7362 390.55 70.6139 387.888 72.462 385.285L72.5058 385.077C64.8547 383.441 57.2518 381.578 49.7021 379.632L49.673 379.738C47.2534 384.388 44.8333 389.035 42.4137 393.681C42.2389 393.979 42.1118 394.303 42.0362 394.64C42 395.082 42.0954 395.524 42.3096 395.913C42.5244 396.301 42.8482 396.618 43.2416 396.822C44.0361 397.219 44.9018 397.452 45.7872 397.509ZM66.5264 387.891C66.8228 387.591 66.8195 387.108 66.5193 386.811C66.2196 386.516 65.7363 386.519 65.4404 386.819C63.6416 388.642 62.3946 390.936 61.8434 393.437C61.2922 395.939 61.4593 398.545 62.3255 400.955C62.468 401.351 62.9047 401.558 63.3014 401.415C63.6981 401.273 63.9041 400.835 63.7616 400.439C62.9923 398.3 62.8439 395.986 63.3332 393.766C63.8224 391.545 64.9298 389.509 66.5264 387.891Z" fill="black" fill-opacity="0.15"/>
<path fill-rule="evenodd" clip-rule="evenodd" d="M143.17 387.298C144.849 385.076 144.457 381.979 143.983 379.235C140.729 360.389 137.373 341.559 133.915 322.745C131.026 307.021 128.065 291.307 125.03 275.603C123.948 270.008 122.857 264.414 121.759 258.819L121.618 258.306C115.743 259.904 109.844 261.403 103.876 262.599C92.6335 264.855 81.0478 266.035 69.6796 264.481C68.0726 264.269 66.4782 263.97 64.9029 263.586L64.8306 263.86C65.1971 267.079 65.4596 270.301 65.619 273.53C65.95 280.03 65.8744 286.545 65.3917 293.036C63.9999 311.826 59.2879 330.22 51.4746 347.365C48.3372 354.255 44.7051 360.91 40.6066 367.276L40.5862 367.308C39.6859 368.712 38.7367 370.193 38.6889 371.854C38.5722 375.866 43.3155 377.972 47.197 378.983C48.0287 379.201 48.8665 379.419 49.7037 379.632C57.2529 381.578 64.8563 383.44 72.5075 385.076C82.6368 387.3 92.8839 388.948 103.2 390.012C109.913 390.686 116.659 390.984 123.405 390.903C124.631 390.89 125.859 390.86 127.088 390.811C129.998 390.708 132.91 390.516 135.824 390.235C138.529 389.974 141.53 389.466 143.17 387.298ZM117.383 262.238C117.295 261.826 116.889 261.563 116.477 261.651C116.065 261.74 115.803 262.146 115.891 262.558C124.096 300.763 131.167 339.189 137.103 377.835C137.167 378.251 137.557 378.537 137.973 378.473C138.39 378.41 138.675 378.02 138.611 377.603C132.67 338.927 125.595 300.472 117.383 262.238Z" fill="black"/>
<path fill-rule="evenodd" clip-rule="evenodd" d="M75.7539 171.074C82.0072 169.995 87.8119 167.12 92.4604 162.8C95.8476 166.148 96.2251 171.603 95.1282 176.26C94.5403 178.74 93.6077 181.117 92.6752 183.497C91.8347 185.64 90.9942 187.785 90.4046 190.005C89.3915 193.809 89.2628 198.14 90.9805 201.571V201.576C91.3788 202.38 91.8834 203.128 92.4807 203.798L92.7037 204.151C92.936 204.219 93.1678 204.281 93.4001 204.335C95.0981 204.742 96.8547 204.844 98.5883 204.636C101.221 204.311 103.727 203.319 105.867 201.751C108.325 199.965 110.227 197.52 111.355 194.7C114.307 187.31 110.818 177.96 103.747 174.306C106.351 174.17 108.389 171.601 108.505 168.997C108.621 166.393 107.169 163.916 105.229 162.178C103.288 160.44 100.887 159.318 98.5209 158.214C98.482 157.149 98.4387 156.08 98.3954 155.015L100.447 155.125L113.2 132.355L53.1885 150.343L60.8188 165.377L70.038 162.188C70.2687 163.441 70.4977 164.695 70.7256 165.948L71.0643 166.287C70.9958 166.591 70.9289 166.897 70.8621 167.202C70.7958 167.504 70.73 167.807 70.6626 168.107C68.4896 168.465 66.4618 169.43 64.8125 170.89C63.1638 172.35 61.9612 174.247 61.3426 176.361C60.724 178.475 60.7158 180.72 61.3174 182.839C61.9195 184.958 63.1074 186.863 64.7451 188.336C60.7278 190.616 59.1893 196.21 61.1009 200.416C62.6444 203.808 66.0996 206.093 69.7975 206.63C70.6769 206.763 71.5689 206.788 72.4543 206.707C73.7649 206.592 75.0416 206.226 76.2141 205.628C77.5023 205.004 78.5915 204.034 79.3603 202.826C79.5619 202.497 79.7328 202.15 79.8726 201.79C80.0567 201.306 80.1865 200.803 80.2599 200.29C80.5164 198.571 80.221 196.757 79.9213 195.019C78.5433 187.08 77.1626 179.141 75.7785 171.199L75.7539 171.074ZM103.546 165.902C103.245 165.607 102.762 165.612 102.467 165.913C102.172 166.214 102.177 166.697 102.478 166.992C103.002 167.506 103.392 168.14 103.614 168.839C103.836 169.538 103.884 170.281 103.752 171.003C103.62 171.725 103.314 172.403 102.859 172.979C102.405 173.555 101.816 174.011 101.144 174.306C100.874 174.425 100.697 174.688 100.688 174.982C100.68 175.277 100.841 175.55 101.103 175.684C102.751 176.529 104.191 177.731 105.316 179.203C106.441 180.675 107.224 182.379 107.607 184.192C107.991 186.004 107.964 187.879 107.531 189.68C107.098 191.482 106.268 193.164 105.102 194.604C104.838 194.932 104.888 195.412 105.216 195.677C105.544 195.942 106.024 195.892 106.289 195.564C107.597 193.947 108.529 192.059 109.015 190.038C109.501 188.016 109.53 185.911 109.1 183.876C108.67 181.841 107.791 179.928 106.528 178.276C105.538 176.981 104.331 175.871 102.964 174.996C103.371 174.688 103.738 174.328 104.057 173.925C104.666 173.154 105.077 172.245 105.253 171.277C105.43 170.31 105.366 169.314 105.069 168.377C104.771 167.44 104.248 166.59 103.546 165.902Z" fill="black"/>
<path d="M462.005 307.822C464.74 317.231 464.14 327.296 460.306 336.314L460.34 336.343C459.696 337.142 459.043 337.935 458.375 338.714L458.249 338.605C456.482 332.061 455.275 325.38 454.639 318.631C454.291 314.987 454.126 311.251 455.119 307.728C455.338 306.804 455.754 305.937 456.338 305.187C456.634 304.815 457.013 304.517 457.445 304.319C457.877 304.12 458.35 304.026 458.825 304.045C460.568 304.207 461.511 306.138 462.005 307.822Z" fill="black" fill-opacity="0.15"/>
<path d="M460.707 336.129C468.644 332.272 476.746 328.367 485.486 327.147C486.382 326.978 487.301 326.967 488.201 327.113C488.65 327.19 489.075 327.369 489.446 327.634C489.815 327.9 490.121 328.246 490.338 328.647C491.03 330.118 489.999 331.817 488.866 332.983C485.072 336.879 479.661 338.873 474.261 339.521C468.903 340.165 463.473 339.604 458.106 339.023C458.198 338.921 458.286 338.819 458.372 338.713C459.04 337.933 459.693 337.14 460.338 336.341C460.42 336.24 460.507 336.138 460.589 336.032L460.707 336.129Z" fill="black" fill-opacity="0.15"/>
<path d="M375.434 191.532L375.493 190.952L375.904 190.995C379.901 180.814 386.677 171.96 395.46 165.442C397.343 168.811 396.128 173.05 394.401 176.506C390.187 184.869 383.335 191.611 374.906 195.69C374.915 195.648 374.922 195.606 374.926 195.564C375.115 194.222 375.28 192.877 375.434 191.532Z" fill="black"/>
<path d="M391.308 145.87C392.483 146.839 392.517 148.61 392.309 150.12C391.65 154.513 389.834 158.653 387.047 162.112C384.26 165.572 380.602 168.228 376.45 169.807L376.285 169.812C376.256 168.819 376.213 167.832 376.16 166.845L376.242 166.84C378.502 160.244 380.84 153.507 385.173 148.043C385.877 147.048 386.799 146.227 387.869 145.643C388.407 145.358 389.013 145.229 389.621 145.269C390.228 145.309 390.812 145.518 391.308 145.87Z" fill="black"/>
<path d="M376.286 169.813C376.291 169.909 376.296 170.007 376.296 170.103L375.889 170.118C373.406 167.505 370.116 165.85 367.062 163.933C364.008 162.015 361.008 159.635 359.701 156.272C359.164 154.888 358.975 153.218 359.817 151.994C360.164 151.534 360.613 151.162 361.129 150.906C361.645 150.65 362.212 150.517 362.788 150.518C363.941 150.527 365.074 150.829 366.079 151.395C368.866 152.832 371.001 155.32 372.53 158.059C374.059 160.798 375.037 163.798 376.005 166.785L376.159 166.799V166.848C376.213 167.834 376.255 168.822 376.286 169.813Z" fill="black"/>
<path d="M362.813 170.114C369.181 175.739 373.6 183.238 375.435 191.533C375.28 192.878 375.115 194.224 374.927 195.564L374.708 195.535C368.392 189.508 361.955 183.321 357.987 175.543C357.368 174.324 356.797 173.017 356.855 171.647C356.913 170.277 357.76 168.853 359.101 168.569C360.46 168.278 361.762 169.197 362.813 170.114Z" fill="black"/>
<path d="M360.819 352.39C361.511 363.516 355.395 374.899 345.526 380.078C335.657 385.256 322.543 383.688 314.465 376.008C306.388 368.327 304.219 354.994 309.819 345.353C312.399 340.92 316.334 337.474 320.747 334.939C328.679 330.374 335.043 329.32 343.735 331.474C353.971 334.014 360.161 341.806 360.819 352.39ZM354.895 360.269C358.176 351.751 354.818 344.357 347.839 339.222C342.511 335.306 337.99 334.474 331.612 336.235C327.048 337.496 322.775 339.314 319.407 342.756C314.494 347.779 312.268 355.387 314.025 362.191C315.782 368.996 321.59 374.673 328.505 375.944C334.24 376.999 340.23 375.132 345.095 371.908C349.392 369.062 353.042 365.079 354.895 360.269Z" fill="black" fill-opacity="0.15"/>
<path d="M154.279 340.142C155.285 359.185 154.787 378.181 151.646 396.784C137.147 395.835 127.09 390.899 127.09 390.899L127.085 390.812C129.998 390.706 132.91 390.514 135.82 390.236C138.525 389.975 141.526 389.469 143.167 387.298C144.846 385.077 144.454 381.979 143.979 379.236C140.722 360.39 137.367 341.562 133.913 322.749H133.918C133.918 322.749 138.523 324.791 154.279 340.142Z" fill="black" fill-opacity="0.15"/>
<path d="M116.058 235.277C118.976 234.745 121.885 234.121 124.764 233.404C127.097 232.823 129.821 232.276 131.859 233.298C132.245 233.487 132.601 233.733 132.914 234.029C134.351 235.379 134.641 237.513 134.854 239.473C135.137 241.675 135.229 243.897 135.128 246.114C134.949 248.668 134.301 251.094 132.68 253.048C130.41 255.792 126.771 256.896 123.339 257.839C122.763 257.999 122.192 258.154 121.616 258.309C115.741 259.906 109.841 261.406 103.874 262.602C92.6313 264.857 81.0456 266.038 69.6775 264.485C68.0704 264.272 66.476 263.973 64.9007 263.589C60.9081 262.592 57.1236 260.913 54.3895 257.912C51.4664 254.709 50.0922 250.3 49.9755 245.963C49.8588 241.627 50.9245 237.334 52.3808 233.245C56.0486 222.956 61.6538 214.211 69.7547 206.884L69.7936 206.627C70.673 206.76 71.565 206.786 72.4505 206.705C73.7616 206.59 75.0383 206.223 76.2108 205.625L76.2689 205.741C74.7539 210.131 76.7812 215.396 80.7213 217.855C84.6613 220.313 90.1098 219.902 93.8028 217.081C95.6186 215.619 97.0174 213.705 97.8585 211.532C98.6995 209.358 98.9532 207.001 98.5938 204.698L98.5844 204.635C101.217 204.31 103.723 203.317 105.863 201.75C116.148 204.722 126.585 207.14 137.129 208.993C137.826 215.897 138.707 222.936 139.728 230.252L139.815 230.432C139.583 230.548 139.346 230.664 139.103 230.78L138.972 230.506C139.058 228.702 138.711 226.903 137.961 225.26C137.554 224.369 136.741 223.402 135.788 223.639C135.499 223.756 135.238 223.932 135.02 224.155C134.803 224.378 134.634 224.645 134.524 224.936C133.755 226.445 133.213 228.06 132.918 229.727L132.332 229.572L118.738 226.942C118.056 226.812 117.272 226.7 116.72 227.127C116.13 227.581 116.072 228.428 116.058 229.169C116.033 231.056 116.005 232.944 115.975 234.831L116.058 235.277Z" fill="black"/>
<path d="M89.2759 211.515C90.4901 210.921 91.5087 209.992 92.2122 208.838C92.9152 207.684 93.273 206.352 93.2439 205.001L93.399 204.333C95.097 204.74 96.8536 204.841 98.5872 204.634L98.5965 204.697C98.9554 206.999 98.7017 209.356 97.8607 211.53C97.0196 213.704 95.6208 215.618 93.8055 217.079C90.1126 219.901 84.6685 220.312 80.724 217.854C76.7796 215.395 74.7567 210.128 76.2711 205.74L76.2163 205.624C77.5045 205 78.5937 204.03 79.3619 202.822L79.7734 203.045C79.34 204.33 79.2945 205.715 79.6419 207.026C79.9898 208.337 80.7147 209.517 81.7278 210.42C82.7404 211.322 83.9962 211.907 85.3386 212.101C86.681 212.296 88.0513 212.091 89.2787 211.514L89.2759 211.515Z" fill="black" fill-opacity="0.15"/>
<path d="M65.2568 293.028L65.3921 293.037C64.0004 311.827 59.2883 330.222 51.475 347.366L51.4202 347.342C35.5028 331.217 25.374 309.497 28.341 287.031C37.323 287.963 44.8677 289.069 50.7479 290.075C60.1173 291.678 65.2568 293.028 65.2568 293.028Z" fill="black" fill-opacity="0.15"/>
<path d="M375.062 113.562C371.702 111.916 367.911 111.364 364.221 111.984C358.544 112.967 353.879 116.408 350.279 120.957C347.284 124.836 344.986 129.205 343.485 133.869C342.841 135.81 342.289 137.775 341.825 139.749C337.9 156.426 340.068 174.202 343.325 191.159C347.143 211.04 352.375 230.602 357.68 250.154C362.287 267.136 366.952 284.108 370.795 301.275C372.794 310.189 374.565 319.205 375.983 328.269C380.159 354.926 381.307 382.032 376.249 408.34C375.895 410.15 375.516 411.957 375.112 413.761" stroke="black" stroke-width="2" stroke-linecap="round" stroke-linejoin="round"/>
<path d="M377.641 115.145C376.834 114.542 375.973 114.014 375.071 113.566" stroke="black" stroke-width="2" stroke-linecap="round" stroke-linejoin="round"/>
<path d="M368.734 119.431C368.679 119.436 368.632 119.446 368.579 119.455C362.297 120.442 358.842 128.934 362.259 134.328C364.176 137.358 367.689 138.959 371.26 139.056C374.13 139.176 376.942 138.226 379.15 136.389C384.014 132.174 384.684 124.189 381.135 118.817C380.198 117.406 379.024 116.168 377.665 115.158" stroke="black" stroke-width="2" stroke-linecap="round" stroke-linejoin="round"/>
<path d="M374.932 413.785C299.788 411.209 222.223 411.196 147.225 416.568" stroke="black" stroke-width="2" stroke-linecap="round" stroke-linejoin="round"/>
<path d="M139.728 230.254C138.707 222.936 137.826 215.898 137.129 208.994C135.072 188.591 134.627 169.38 136.969 147.745C137.937 138.806 139.849 129.161 146.634 123.257C152.301 118.326 160.189 117.057 167.633 116.051C218.775 109.133 270.273 105.169 321.871 104.18C340.097 103.831 359.407 104.563 375.063 113.563C375.065 113.564 375.067 113.564 375.069 113.565C375.07 113.566 375.072 113.567 375.073 113.568C375.939 114.067 376.796 114.593 377.643 115.146C377.647 115.147 377.651 115.149 377.655 115.151C377.658 115.154 377.661 115.157 377.662 115.161C377.836 115.271 378.005 115.384 378.18 115.5" stroke="black" stroke-width="2" stroke-linecap="round" stroke-linejoin="round"/>
<path d="M147.225 416.567C149.058 410.057 150.535 403.453 151.648 396.782C154.789 378.179 155.287 359.183 154.281 340.14C153.28 321.159 150.777 302.129 147.907 283.391C147.852 283.018 147.798 282.64 147.738 282.268C145.304 266.453 144.51 261.1 142.293 245.197" stroke="black" stroke-width="2" stroke-linecap="round" stroke-linejoin="round"/>
<path d="M72.7776 171.439C73.7753 171.366 74.7687 171.244 75.7539 171.071C82.0072 169.992 87.8119 167.117 92.4604 162.797C92.8818 162.405 93.2927 161.999 93.6943 161.583" stroke="black" stroke-width="2" stroke-linecap="round" stroke-linejoin="round"/>
<path d="M90.9788 201.574C91.3777 202.378 91.8823 203.125 92.479 203.796" stroke="black" stroke-width="2" stroke-linecap="round" stroke-linejoin="round"/>
<path d="M92.3245 162.662C92.3732 162.705 92.4182 162.752 92.4598 162.802C95.8476 166.151 96.2251 171.606 95.1265 176.261C94.0082 180.973 91.6467 185.321 90.4024 190.005C89.3915 193.809 89.2605 198.141 90.9783 201.572" stroke="black" stroke-width="2" stroke-linecap="round" stroke-linejoin="round"/>
<path d="M75.7778 171.196C77.1618 179.138 78.5426 187.078 79.9206 195.017C80.2203 196.754 80.5156 198.569 80.2592 200.288C80.1858 200.8 80.0559 201.303 79.8724 201.787C79.7326 202.147 79.5611 202.494 79.3595 202.823C78.5913 204.031 77.5015 205.001 76.2134 205.625C75.0408 206.223 73.7642 206.589 72.4536 206.705C71.5681 206.786 70.6761 206.76 69.7967 206.628C66.0988 206.091 62.6437 203.806 61.1002 200.414C59.1885 196.208 60.7271 190.613 64.7444 188.334C63.1072 186.86 61.9193 184.955 61.3172 182.836C60.7156 180.718 60.7243 178.472 61.3424 176.358C61.961 174.245 63.1636 172.348 64.8123 170.888C66.461 169.427 68.4888 168.462 70.6619 168.104C70.7972 167.501 70.9276 166.889 71.0635 166.284" stroke="black" stroke-width="2" stroke-linecap="round" stroke-linejoin="round"/>
<path d="M70.7256 165.946C70.4983 164.692 70.2692 163.438 70.0386 162.185L60.8188 165.375L53.1885 150.343L113.2 132.355L100.447 155.125L98.3954 155.015C98.4393 156.08 98.482 157.149 98.5209 158.214C100.887 159.318 103.288 160.44 105.229 162.178C107.169 163.916 108.621 166.393 108.505 168.997C108.389 171.601 106.351 174.17 103.747 174.306C110.818 177.96 114.307 187.31 111.356 194.7C110.227 197.52 108.325 199.965 105.867 201.751C103.727 203.319 101.221 204.311 98.5883 204.636C96.8547 204.844 95.0981 204.742 93.4006 204.335C93.1678 204.281 92.936 204.219 92.7037 204.151" stroke="black" stroke-width="2" stroke-linecap="round" stroke-linejoin="round"/>
<path d="M80.7629 170.132C81.3628 169.686 82.0976 169.458 82.845 169.488C83.5912 169.518 84.3041 169.806 84.8629 170.301" stroke="black" stroke-width="2" stroke-linecap="round" stroke-linejoin="round"/>
<path d="M90.011 170.577C90.4138 170.32 90.8669 170.154 91.3397 170.089C91.8126 170.023 92.2937 170.061 92.7506 170.199" stroke="black" stroke-width="2" stroke-linecap="round" stroke-linejoin="round"/>
<path d="M87.9263 168.196C88.7027 167.688 89.5975 167.391 90.5229 167.333C91.4489 167.276 92.3738 167.46 93.2066 167.867" stroke="black" stroke-width="2" stroke-linecap="round" stroke-linejoin="round"/>
<path d="M87.7843 173.205C87.9306 173.609 88.2221 173.944 88.6023 174.144C88.987 174.357 89.3404 174.623 89.6522 174.933C89.8313 175.141 89.9431 175.398 89.9743 175.671C90.005 175.943 89.9535 176.219 89.8258 176.462C89.6702 176.718 89.4549 176.933 89.1974 177.087C88.9404 177.242 88.6495 177.331 88.3498 177.347" stroke="black" stroke-width="2" stroke-linecap="round" stroke-linejoin="round"/>
<path d="M87.4605 184.776C87.1372 184.985 86.7641 185.104 86.3794 185.12C85.9948 185.136 85.6129 185.049 85.2732 184.869C84.5812 184.489 83.9631 183.988 83.4486 183.389" stroke="black" stroke-width="2" stroke-linecap="round" stroke-linejoin="round"/>
<path d="M69.7573 206.884C61.6558 214.211 56.0518 222.956 52.3835 233.245C50.9265 237.334 49.8669 241.622 49.9781 245.963C50.0893 250.304 51.4684 254.708 54.3921 257.912C57.1262 260.913 60.9123 262.592 64.9034 263.589C66.4786 263.972 68.073 264.271 69.6801 264.485C81.0483 266.038 92.634 264.858 103.877 262.602C109.844 261.406 115.743 259.906 121.619 258.309C122.195 258.154 122.766 257.999 123.341 257.839C126.772 256.896 130.412 255.792 132.682 253.048C134.304 251.093 134.952 248.668 135.131 246.113C135.231 243.896 135.14 241.674 134.857 239.473C134.644 237.513 134.354 235.379 132.916 234.029C132.603 233.733 132.248 233.487 131.861 233.298C129.824 232.277 127.099 232.824 124.767 233.404C121.887 234.121 118.978 234.745 116.06 235.277C110.84 236.236 105.569 236.902 100.274 237.271C95.6957 237.591 91.0253 237.683 86.5921 236.507C82.1589 235.331 77.929 232.726 75.6688 228.729" stroke="black" stroke-width="2" stroke-linecap="round" stroke-linejoin="round"/>
<path d="M105.72 201.705L105.866 201.749C116.15 204.721 126.586 207.139 137.129 208.993C137.144 208.993 137.153 208.998 137.168 208.998" stroke="black" stroke-width="2" stroke-linecap="round" stroke-linejoin="round"/>
<path d="M132.653 233.24C132.578 230.361 133.221 227.508 134.526 224.939C134.635 224.648 134.804 224.382 135.021 224.159C135.239 223.935 135.5 223.759 135.788 223.642C136.742 223.405 137.556 224.373 137.962 225.263C138.713 226.906 139.06 228.705 138.973 230.51" stroke="black" stroke-width="2" stroke-linecap="round" stroke-linejoin="round"/>
<path d="M135.45 246.132C137.738 245.928 140.005 245.528 142.225 244.937C146.023 243.934 149.656 242.389 153.012 240.349C153.574 240.05 154.07 239.64 154.469 239.144C154.666 238.894 154.791 238.595 154.831 238.28C154.87 237.963 154.822 237.643 154.692 237.353C154.257 236.559 153.182 236.438 152.281 236.448C151.575 236.453 150.863 236.477 150.157 236.515C146.147 236.743 142.188 237.519 138.39 238.823" stroke="black" stroke-width="2" stroke-linecap="round" stroke-linejoin="round"/>
<path d="M150.085 236.531C150.109 236.528 150.134 236.523 150.158 236.516C151.532 236.303 152.742 235.34 153.774 234.401C154.326 233.902 154.824 233.201 154.66 232.48C154.573 232.197 154.412 231.942 154.193 231.743C153.974 231.544 153.706 231.407 153.416 231.347C152.837 231.23 152.241 231.232 151.663 231.352C150.966 231.454 150.274 231.571 149.587 231.706C145.693 232.564 141.862 233.688 138.122 235.069" stroke="black" stroke-width="2" stroke-linecap="round" stroke-linejoin="round"/>
<path d="M149.552 231.535C150.274 231.007 150.911 230.37 151.44 229.648C151.651 229.355 151.773 229.008 151.793 228.648C151.812 228.288 151.727 227.929 151.549 227.615C150.954 226.745 149.662 226.831 148.64 227.078C145.581 227.859 142.619 228.985 139.814 230.432C139.581 230.548 139.343 230.664 139.101 230.781C139.028 230.819 138.951 230.853 138.874 230.89" stroke="black" stroke-width="2" stroke-linecap="round" stroke-linejoin="round"/>
<path d="M132.333 229.576L118.739 226.946C118.057 226.816 117.273 226.704 116.721 227.13C116.13 227.585 116.072 228.432 116.058 229.173C116.034 231.06 116.007 232.947 115.976 234.835" stroke="black" stroke-width="2" stroke-linecap="round" stroke-linejoin="round"/>
<path d="M64.831 263.863C65.1937 267.081 65.4567 270.304 65.62 273.532C65.9504 280.032 65.8748 286.547 65.3926 293.038C64.0009 311.828 59.2888 330.222 51.4755 347.367C48.3365 354.257 44.7033 360.911 40.6037 367.276C39.6991 368.69 38.7359 370.18 38.686 371.855C38.5698 375.867 43.3127 377.972 47.1941 378.984C48.0264 379.203 48.862 379.419 49.7008 379.632C57.2506 381.578 64.8535 383.441 72.5046 385.077C82.6339 387.3 92.881 388.948 103.197 390.013C109.91 390.687 116.656 390.984 123.403 390.904C124.627 390.888 125.854 390.858 127.085 390.812C129.999 390.705 132.911 390.513 135.821 390.236C138.526 389.974 141.527 389.469 143.167 387.298C144.846 385.077 144.455 381.979 143.98 379.235C140.723 360.39 137.367 341.561 133.913 322.748C131.024 307.024 128.062 291.311 125.028 275.606C123.949 270.011 122.859 264.417 121.757 258.822" stroke="black" stroke-width="2" stroke-linecap="round" stroke-linejoin="round"/>
<path d="M79.7706 203.044C79.4473 204.005 79.3388 205.025 79.4534 206.032C79.5679 207.039 79.9027 208.009 80.4336 208.873C80.964 209.737 81.6785 210.474 82.5255 211.031C83.3726 211.588 84.3315 211.953 85.3352 212.098C86.3385 212.244 87.362 212.167 88.3324 211.874C89.3027 211.58 90.1969 211.077 90.9514 210.399C91.7059 209.722 92.302 208.888 92.6982 207.954C93.0943 207.021 93.2806 206.012 93.2439 204.998" stroke="black" stroke-width="2" stroke-linecap="round" stroke-linejoin="round"/>
<path d="M76.2716 205.741C74.7572 210.131 76.7845 215.396 80.7246 217.855C84.6646 220.313 90.1131 219.902 93.8055 217.08C95.6213 215.619 97.0202 213.705 97.8612 211.532C98.7023 209.358 98.9559 207.001 98.5971 204.698" stroke="black" stroke-width="2" stroke-linecap="round" stroke-linejoin="round"/>
<path d="M80.6468 200.34C81.0983 201.458 81.6884 202.515 82.4034 203.486C83.1283 204.461 84.1946 205.129 85.3896 205.353C85.9862 205.413 86.5889 205.354 87.1621 205.179C87.7357 205.005 88.2694 204.719 88.7318 204.337C89.6545 203.572 90.4178 202.634 90.9783 201.574V201.569" stroke="black" stroke-width="2" stroke-linecap="round" stroke-linejoin="round"/>
<path d="M377.22 408.524C378.12 407.891 379.016 407.242 379.905 406.588C404.981 388.106 424.787 363.387 437.356 334.885C450.249 305.505 455.18 273.51 451.062 241.695" stroke="black" stroke-width="2" stroke-linecap="round" stroke-linejoin="round"/>
<path d="M451.063 241.695C432.445 250.837 415.821 264.44 402.531 280.761C390.996 294.856 382.127 310.937 376.359 328.214" stroke="black" stroke-width="2" stroke-linecap="round" stroke-linejoin="round"/>
<path d="M402.207 280.498C411.857 256.412 411.302 227.549 400.537 203.936C400.521 203.895 400.503 203.855 400.483 203.815" stroke="black" stroke-width="2" stroke-linecap="round" stroke-linejoin="round"/>
<path d="M400.445 203.98C381.15 213.993 365.813 229.997 357.683 250.154" stroke="black" stroke-width="2" stroke-linecap="round" stroke-linejoin="round"/>
<path d="M410.057 271.763C416.298 260.891 421.5 249.454 425.592 237.605C425.606 237.567 425.616 237.528 425.63 237.489C425.989 236.448 426.343 235.403 426.681 234.353C426.947 233.56 427.198 232.764 427.448 231.972C430.33 222.779 432.551 213.392 434.092 203.883C434.17 203.428 434.242 202.968 434.311 202.513C434.447 201.656 434.575 200.8 434.695 199.943C434.719 199.808 434.739 199.672 434.753 199.537C436.304 188.518 436.927 177.388 436.616 166.265" stroke="black" stroke-width="2" stroke-linecap="round" stroke-linejoin="round"/>
<path d="M436.486 166.255C444.675 162.328 451.619 156.211 456.546 148.581C457.247 147.613 457.762 146.523 458.065 145.367C458.212 144.787 458.218 144.181 458.083 143.598C457.947 143.015 457.674 142.474 457.286 142.018C455.708 140.378 452.931 141.196 451.004 142.415C444.084 146.794 440.159 154.524 436.558 161.885C436.558 161.89 436.554 161.894 436.554 161.899" stroke="black" stroke-width="2" stroke-linecap="round" stroke-linejoin="round"/>
<path d="M436.437 161.827C434.264 158.79 431.47 156.251 428.24 154.378C425.01 152.505 421.418 151.34 417.704 150.962C416.604 150.808 415.485 150.877 414.413 151.165C413.878 151.315 413.386 151.59 412.978 151.967C412.57 152.344 412.257 152.812 412.065 153.333C411.669 154.616 412.308 156.034 413.3 156.939C414.348 157.781 415.542 158.421 416.823 158.826C423.337 161.319 429.848 163.812 436.356 166.303" stroke="black" stroke-width="2" stroke-linecap="round" stroke-linejoin="round"/>
<path d="M434.661 199.992C434.671 199.977 434.68 199.958 434.69 199.943C439.911 190.988 446.615 182.986 454.518 176.278C455.565 175.279 456.805 174.505 458.162 174.003C459.546 173.587 461.206 173.795 462.169 174.869C462.836 175.746 463.179 176.827 463.14 177.928C463.285 182.433 460.967 186.76 457.729 189.896C454.492 193.032 450.402 195.133 446.278 196.952C442.251 198.724 438.104 200.287 434.31 202.513C434.218 202.567 434.131 202.619 434.036 202.673" stroke="black" stroke-width="2" stroke-linecap="round" stroke-linejoin="round"/>
<path d="M434.434 199.537C432.387 189.214 425.597 179.061 416.643 173.534C415.404 172.769 413.788 172.077 412.564 172.871C411.62 173.491 411.349 174.812 411.639 175.905C412.003 176.98 412.588 177.965 413.357 178.799C420.084 187.196 426.881 195.54 433.747 203.83" stroke="black" stroke-width="2" stroke-linecap="round" stroke-linejoin="round"/>
<path d="M426.884 234.421C432.204 225.176 439.767 217.42 448.875 211.869C450.53 210.862 452.307 209.913 454.245 209.783C456.183 209.653 458.31 210.576 459.026 212.377C459.958 214.729 458.223 217.246 456.462 219.061C448.123 227.664 437.05 233.023 425.982 237.607L426.66 236.799" stroke="black" stroke-width="2" stroke-linecap="round" stroke-linejoin="round"/>
<path d="M427.15 231.88C426.776 222.1 423.97 212.567 418.986 204.144C418.431 203.063 417.646 202.115 416.688 201.366C415.686 200.684 414.283 200.456 413.271 201.129C411.737 202.155 411.935 204.435 412.361 206.23C414.938 217.202 419.181 227.713 424.943 237.398" stroke="black" stroke-width="2" stroke-linecap="round" stroke-linejoin="round"/>
<path d="M357.296 248.669C366.365 232.238 372.334 214.28 374.907 195.69C374.916 195.649 374.922 195.607 374.927 195.564C375.115 194.224 375.28 192.879 375.435 191.533L375.493 190.952C376.241 184.029 376.509 177.063 376.295 170.103C376.295 170.006 376.29 169.909 376.285 169.812C376.256 168.82 376.212 167.833 376.16 166.845V166.797" stroke="black" stroke-width="2" stroke-linecap="round" stroke-linejoin="round"/>
<path d="M376.451 169.807C380.604 168.228 384.261 165.572 387.048 162.112C389.835 158.653 391.652 154.513 392.31 150.12C392.519 148.611 392.484 146.839 391.309 145.871C390.813 145.518 390.228 145.309 389.621 145.269C389.013 145.229 388.406 145.358 387.868 145.644C386.798 146.228 385.876 147.049 385.172 148.045C380.844 153.509 378.503 160.245 376.241 166.842" stroke="black" stroke-width="2" stroke-linecap="round" stroke-linejoin="round"/>
<path d="M376.006 166.782C375.038 163.797 374.059 160.791 372.531 158.057C371.002 155.323 368.867 152.83 366.079 151.393C365.075 150.827 363.942 150.525 362.789 150.516C362.213 150.515 361.645 150.648 361.13 150.904C360.614 151.16 360.165 151.533 359.817 151.992C358.975 153.217 359.164 154.886 359.701 156.27C361.008 159.633 364.008 162.019 367.062 163.931C370.116 165.842 373.408 167.502 375.89 170.116" stroke="black" stroke-width="2" stroke-linecap="round" stroke-linejoin="round"/>
<path d="M375.468 191.692C375.459 191.637 375.444 191.585 375.435 191.532C373.6 183.237 369.18 175.738 362.813 170.114C361.762 169.199 360.461 168.279 359.101 168.57C357.761 168.855 356.909 170.277 356.855 171.648C356.8 173.018 357.368 174.324 357.987 175.543C361.955 183.321 368.392 189.51 374.707 195.536" stroke="black" stroke-width="2" stroke-linecap="round" stroke-linejoin="round"/>
<path d="M374.873 195.709C374.886 195.704 374.897 195.698 374.907 195.69C383.336 191.61 390.187 184.868 394.401 176.506C396.128 173.05 397.343 168.811 395.461 165.442C386.678 171.96 379.902 180.813 375.905 190.995" stroke="black" stroke-width="2" stroke-linecap="round" stroke-linejoin="round"/>
<path d="M380.168 406.942C390.779 410.125 401.935 411.073 412.93 409.725C423.926 408.377 434.523 404.763 444.05 399.112C448.338 396.533 452.384 393.546 456.744 391.088C461.105 388.629 465.886 386.684 470.886 386.442" stroke="black" stroke-width="2" stroke-linecap="round" stroke-linejoin="round"/>
<path d="M415.531 372.053C419.925 368.547 425.996 367.93 431.588 368.511C438.848 369.261 445.846 371.768 452.369 375.044C458.844 378.306 464.904 382.328 470.949 386.345C470.987 386.374 471.031 386.399 471.07 386.427" stroke="black" stroke-width="2" stroke-linecap="round" stroke-linejoin="round"/>
<path d="M400.787 388.938C406.985 386.05 413.6 384.157 420.387 383.329C426.993 382.526 434.059 382.632 439.716 379.124" stroke="black" stroke-width="2" stroke-linecap="round" stroke-linejoin="round"/>
<path d="M417.2 369.812C432.908 362.639 446.867 352.133 458.109 339.023C458.201 338.921 458.288 338.82 458.374 338.713C459.042 337.934 459.696 337.141 460.34 336.342C460.422 336.24 460.509 336.139 460.591 336.032L460.707 335.887" stroke="black" stroke-width="2" stroke-linecap="round" stroke-linejoin="round"/>
<path d="M460.306 336.313C464.139 327.295 464.739 317.231 462.005 307.821C461.512 306.137 460.567 304.205 458.827 304.041C458.352 304.022 457.879 304.116 457.447 304.315C457.015 304.513 456.635 304.811 456.339 305.183C455.755 305.932 455.34 306.799 455.12 307.724C454.128 311.247 454.292 314.983 454.641 318.627C455.277 325.375 456.485 332.057 458.251 338.6" stroke="black" stroke-width="2" stroke-linecap="round" stroke-linejoin="round"/>
<path d="M457.997 339.013C458.033 339.019 458.07 339.023 458.107 339.023C463.476 339.604 468.904 340.165 474.261 339.522C479.662 338.873 485.073 336.879 488.867 332.984C489.999 331.817 491.031 330.118 490.338 328.647C490.121 328.247 489.816 327.901 489.446 327.635C489.076 327.37 488.65 327.191 488.201 327.113C487.302 326.967 486.383 326.979 485.487 327.147C476.746 328.367 468.645 332.272 460.708 336.13" stroke="black" stroke-width="2" stroke-linecap="round" stroke-linejoin="round"/>
<path d="M369.864 294.823C372.623 287.767 375.226 280.655 377.676 273.485C382.408 259.669 386.554 245.669 390.113 231.488" stroke="black" stroke-width="2" stroke-linecap="round" stroke-linejoin="round"/>
<path d="M380.003 375.353C384.127 369.033 388.231 362.717 392.248 356.358C396.429 349.738 400.513 343.078 404.414 336.337C409.317 327.882 413.924 319.302 418.071 310.522C424.397 297.141 429.663 283.295 433.277 268.704" stroke="black" stroke-width="2" stroke-linecap="round" stroke-linejoin="round"/>
<path d="M417.365 311.293C417.36 311.238 417.355 311.186 417.35 311.133C416.546 303.274 415.308 295.465 413.643 287.743" stroke="black" stroke-width="2" stroke-linecap="round" stroke-linejoin="round"/>
<path d="M417.132 311.317C417.205 311.253 417.277 311.196 417.351 311.132C417.593 310.929 417.83 310.726 418.072 310.522C424.243 305.31 430.412 300.098 436.579 294.886" stroke="black" stroke-width="2" stroke-linecap="round" stroke-linejoin="round"/>
<path d="M403.712 336.584C403.765 326.496 402.799 316.428 400.828 306.535" stroke="black" stroke-width="2" stroke-linecap="round" stroke-linejoin="round"/>
<path d="M403.267 336.879C403.651 336.7 404.032 336.521 404.414 336.337C413.784 331.888 422.641 326.432 430.828 320.064" stroke="black" stroke-width="2" stroke-linecap="round" stroke-linejoin="round"/>
<path d="M391.86 356.46C391.991 356.426 392.116 356.397 392.247 356.358C397.73 354.977 403.128 353.282 408.416 351.282" stroke="black" stroke-width="2" stroke-linecap="round" stroke-linejoin="round"/>
<path d="M391.318 356.566C392.271 347.864 392.05 339.074 390.66 330.431" stroke="black" stroke-width="2" stroke-linecap="round" stroke-linejoin="round"/>
<path d="M377.695 273.708C377.69 273.636 377.68 273.558 377.676 273.485C377.003 265.636 375.767 257.846 373.978 250.173" stroke="black" stroke-width="2" stroke-linecap="round" stroke-linejoin="round"/>
<path d="M377.695 273.709C383.568 270.192 389.663 267.058 395.94 264.325" stroke="black" stroke-width="2" stroke-linecap="round" stroke-linejoin="round"/>
<path d="M385.138 249.283C384.037 241.142 382.081 233.14 379.301 225.41" stroke="black" stroke-width="2" stroke-linecap="round" stroke-linejoin="round"/>
<path d="M385.351 249.472C389.489 245.406 392.959 241.53 397.092 237.465" stroke="black" stroke-width="2" stroke-linecap="round" stroke-linejoin="round"/>
<path d="M368.514 119.093C362.416 119.515 356.338 120.136 350.279 120.956" stroke="black" stroke-width="2" stroke-linecap="round" stroke-linejoin="round"/>
<path d="M371.857 139.183L371.254 139.168C361.366 138.936 351.949 138.96 342.081 139.811" stroke="black" stroke-width="2" stroke-linecap="round" stroke-linejoin="round"/>
<path d="M181.751 181.955C182.5 178.364 183.318 174.632 185.593 171.747C187.868 168.863 192.054 167.141 195.311 168.829C199.129 170.809 200.151 176.432 204.187 177.933C207.168 179.036 210.503 177.299 212.705 175C214.906 172.702 216.455 169.822 218.812 167.682C221.168 165.543 224.842 164.285 227.524 165.994C230.364 167.802 230.848 172.033 233.694 173.829C236.264 175.45 239.739 174.381 242.158 172.542C244.577 170.703 246.432 168.177 248.933 166.454C251.435 164.73 255.071 163.988 257.398 165.941C259.199 167.461 259.683 170.137 261.488 171.652C263.752 173.548 267.276 172.9 269.754 171.288C272.231 169.676 274.119 167.296 276.51 165.563C278.901 163.831 282.254 162.819 284.783 164.348C287.178 165.795 287.997 168.984 290.267 170.625C292.541 172.275 295.803 171.932 298.242 170.538C300.681 169.145 302.497 166.889 304.243 164.682" stroke="black" stroke-width="2" stroke-linecap="round" stroke-linejoin="round"/>
<path d="M181.751 229.484L309.515 221.63" stroke="black" stroke-width="2" stroke-linecap="round" stroke-linejoin="round"/>
<path d="M184.485 251.349L312.249 241.443" stroke="black" stroke-width="2" stroke-linecap="round" stroke-linejoin="round"/>
<path d="M187.214 276.627L313.27 265.012" stroke="black" stroke-width="2" stroke-linecap="round" stroke-linejoin="round"/>
<path d="M309.819 345.353C304.22 354.997 306.383 368.332 314.465 376.007C322.547 383.682 335.657 385.256 345.526 380.078C355.394 374.899 361.511 363.516 360.819 352.39C360.161 341.806 353.97 334.014 343.735 331.473C335.043 329.32 328.679 330.377 320.747 334.939C316.333 337.474 312.399 340.92 309.819 345.353Z" stroke="black" stroke-width="2" stroke-linecap="round" stroke-linejoin="round"/>
<path d="M319.407 342.755C314.494 347.778 312.268 355.386 314.025 362.19C315.782 368.995 321.59 374.671 328.505 375.943C334.24 376.998 340.23 375.13 345.095 371.906C349.392 369.061 353.04 365.078 354.895 360.268C358.176 351.75 354.818 344.355 347.839 339.22C342.511 335.305 337.99 334.472 331.612 336.234C327.049 337.498 322.775 339.314 319.407 342.755Z" stroke="black" stroke-width="2" stroke-linecap="round" stroke-linejoin="round"/>
<path d="M244.171 387.07C243.931 387.374 243.801 387.751 243.804 388.137C243.806 388.525 243.941 388.9 244.186 389.2C244.821 389.847 245.644 390.279 246.538 390.434C255.451 392.844 264.847 392.824 273.751 390.376" stroke="black" stroke-width="2" stroke-linecap="round" stroke-linejoin="round"/>
<path d="M244.176 387.066C244.277 387.004 244.374 386.936 244.466 386.863C244.359 386.914 244.261 386.982 244.176 387.066Z" stroke="black" stroke-width="2" stroke-linecap="round" stroke-linejoin="round"/>
<path d="M244.175 387.066C244.175 387.07 244.175 387.07 244.171 387.07" stroke="black" stroke-width="2" stroke-linecap="round" stroke-linejoin="round"/>
<path d="M237.003 381.355C236.955 381.485 236.911 381.616 236.877 381.747C236.61 382.693 236.64 383.698 236.961 384.627C237.282 385.557 237.879 386.365 238.673 386.945C239.467 387.524 240.42 387.846 241.403 387.869C242.385 387.891 243.351 387.613 244.171 387.07" stroke="black" stroke-width="2" stroke-linecap="round" stroke-linejoin="round"/>
<path d="M211.281 390.386C211.46 390.526 211.644 390.66 211.833 390.782C213.633 391.933 216.111 392.123 217.901 390.952C221.159 388.827 221.381 383.194 225.134 382.158C223.3 383.866 224.021 387.274 226.17 388.566C228.318 389.858 231.227 389.272 233.177 387.694C235.021 386.208 236.139 384.006 236.879 381.746" stroke="black" stroke-width="2" stroke-linecap="round" stroke-linejoin="round"/>
<path d="M211.281 390.386C212.404 389.001 213.196 387.379 213.599 385.642C213.917 384.552 213.917 383.394 213.599 382.303C213.468 381.735 213.153 381.227 212.703 380.857C212.253 380.488 211.693 380.277 211.11 380.259C210.528 380.241 209.956 380.416 209.483 380.757C209.011 381.097 208.665 381.585 208.498 382.143C208.112 383.241 208.075 384.431 208.392 385.55C208.789 387.439 209.806 389.141 211.281 390.386Z" stroke="black" stroke-width="2" stroke-linecap="round" stroke-linejoin="round"/>
<path d="M201.219 392.917C202.352 393.447 203.592 393.709 204.842 393.679C206.093 393.65 207.319 393.331 208.426 392.747C209.525 392.158 210.496 391.355 211.281 390.386" stroke="black" stroke-width="2" stroke-linecap="round" stroke-linejoin="round"/>
<path d="M201.22 392.917C202.278 391.375 203.047 389.653 203.49 387.835C204.017 386.03 204.245 383.616 202.594 382.72C201.334 382.038 199.714 382.797 198.838 383.925C196.985 386.311 197.619 390.105 199.918 392.061C200.316 392.396 200.753 392.684 201.22 392.917Z" stroke="black" stroke-width="2" stroke-linecap="round" stroke-linejoin="round"/>
<path d="M193.627 394.368C194.299 394.898 195.092 395.253 195.935 395.404C197.866 395.714 199.816 394.644 201.055 393.13C201.113 393.057 201.165 392.989 201.22 392.917" stroke="black" stroke-width="2" stroke-linecap="round" stroke-linejoin="round"/>
<path d="M193.626 394.368C193.14 396.075 192.2 397.616 190.907 398.831C188.419 401.091 184.281 401.633 181.668 399.513C180.508 398.574 179.741 397.237 179.513 395.763C179.286 394.288 179.616 392.782 180.439 391.538C181.262 390.294 182.519 389.401 183.965 389.033C185.41 388.665 186.941 388.849 188.259 389.548C190.364 390.666 191.768 392.994 193.626 394.368Z" stroke="black" stroke-width="2" stroke-linecap="round" stroke-linejoin="round"/>
<path d="M186.348 363.289C186.269 365.815 186.588 368.338 187.292 370.766C188.235 373.994 189.832 376.985 191.255 380.034C192.678 383.083 193.946 386.277 194.159 389.63C194.269 391.229 194.089 392.834 193.627 394.368" stroke="black" stroke-width="2" stroke-linecap="round" stroke-linejoin="round"/>
<path d="M186.347 363.289C188.198 364.094 190.216 364.437 192.229 364.288C194.241 364.139 196.187 363.503 197.899 362.434C199.611 361.365 201.037 359.895 202.053 358.152C203.07 356.409 203.648 354.445 203.736 352.429C203.886 349.21 202.269 345.525 199.124 344.84C196.239 344.211 193.476 346.33 191.637 348.639C188.348 352.829 186.494 357.965 186.347 363.289Z" stroke="black" stroke-width="2" stroke-linecap="round" stroke-linejoin="round"/>
<path d="M182.709 360.956C183.769 361.949 185.002 362.739 186.348 363.289" stroke="black" stroke-width="2" stroke-linecap="round" stroke-linejoin="round"/>
<path d="M103.19 390.133C102.807 396.154 102.426 402.173 102.047 408.19C101.984 408.673 102.019 409.163 102.149 409.632C102.287 409.957 102.494 410.248 102.755 410.485C103.017 410.721 103.327 410.898 103.664 411.002C104.339 411.207 105.041 411.311 105.746 411.312C106.646 411.355 107.725 411.306 108.19 410.538C108.364 410.19 108.455 409.807 108.456 409.419C108.602 407.571 108.749 405.722 108.894 403.873" stroke="black" stroke-width="2" stroke-linecap="round" stroke-linejoin="round"/>
<path d="M108.445 403.91C108.585 403.861 108.73 403.818 108.875 403.779C109.648 403.58 110.457 403.568 111.235 403.742C112.014 403.916 112.74 404.271 113.355 404.78C113.97 405.288 114.456 405.934 114.774 406.666C115.091 407.398 115.231 408.194 115.182 408.99C115.127 409.823 114.925 410.806 115.545 411.367C115.945 411.653 116.428 411.799 116.919 411.783C122.757 412.189 128.597 412.597 134.438 413.007C135.557 413.084 136.844 413.099 137.589 412.262C137.903 411.848 138.073 411.344 138.073 410.825C138.073 410.306 137.903 409.801 137.589 409.388C136.94 408.569 136.036 407.991 135.02 407.744C134.027 407.444 132.992 407.306 132.006 406.989C128.953 406.011 126.637 403.393 125.342 400.461C124.047 397.529 123.653 394.281 123.411 391.087" stroke="black" stroke-width="2" stroke-linecap="round" stroke-linejoin="round"/>
<path d="M49.6736 379.738C47.254 384.383 44.8338 389.031 42.4142 393.681C42.2395 393.979 42.1118 394.303 42.0367 394.64C42.0006 395.082 42.0959 395.524 42.3101 395.913C42.5249 396.301 42.8487 396.618 43.2421 396.823C44.0366 397.219 44.9023 397.453 45.7878 397.51C46.5916 395.53 47.3932 393.553 48.1926 391.576C48.2172 391.521 48.2364 391.467 48.2605 391.412" stroke="black" stroke-width="2" stroke-linecap="round" stroke-linejoin="round"/>
<path d="M48.004 391.498C48.067 391.527 48.1294 391.553 48.1925 391.576C49.3003 392.04 50.4784 392.316 51.6772 392.394C51.5084 394.43 51.5884 396.479 51.9144 398.496C52.2498 400.531 53.3149 402.373 54.9099 403.68C56.7054 405.03 59.0478 405.315 61.2301 405.834C65.9247 406.946 70.5365 409.318 75.3088 408.631C73.6651 406.235 70.6822 405.064 68.9207 402.755C66.9843 400.214 66.8545 396.653 67.798 393.605C68.7415 390.558 70.6148 387.889 72.463 385.286" stroke="black" stroke-width="2" stroke-linecap="round" stroke-linejoin="round"/>
<path d="M65.2568 293.028C65.2568 293.028 60.1168 291.678 50.7479 290.076C44.8677 289.069 37.3242 287.966 28.3383 287.032" stroke="black" stroke-width="2" stroke-linecap="round" stroke-linejoin="round"/>
<path d="M154.319 340.18L154.281 340.142C138.523 324.79 133.92 322.748 133.92 322.748" stroke="black" stroke-width="2" stroke-linecap="round" stroke-linejoin="round"/>
<path d="M127.092 390.899C127.092 390.899 137.149 395.835 151.648 396.784C151.662 396.789 151.677 396.79 151.692 396.789" stroke="black" stroke-width="2" stroke-linecap="round" stroke-linejoin="round"/>
<path d="M28.3403 287.032C25.3738 309.497 35.5026 331.217 51.4202 347.342" stroke="black" stroke-width="2" stroke-linecap="round" stroke-linejoin="round"/>
<path d="M65.0869 273.554C57.1969 274.014 50.9123 273.679 43.225 271.846" stroke="black" stroke-width="2" stroke-linecap="round" stroke-linejoin="round"/>
<path d="M147.665 283.431C135.639 276.975 125.04 275.605 125.04 275.605" stroke="black" stroke-width="2" stroke-linecap="round" stroke-linejoin="round"/>
<path d="M42.951 272.193C43.3543 278.686 46.1859 284.788 50.8832 289.288C50.6361 289.124 50.3901 288.955 50.138 288.79" stroke="black" stroke-width="2" stroke-linecap="round" stroke-linejoin="round"/>
<path d="M139.376 90.903L145.622 89.1886C145.716 89.1628 145.815 89.1666 145.906 89.199C145.998 89.2313 146.077 89.291 146.134 89.3699C146.19 89.4488 146.221 89.5431 146.223 89.64C146.224 89.737 146.195 89.8324 146.141 89.9124L142.508 95.277C142.456 95.3548 142.427 95.4463 142.427 95.54C142.426 95.6337 142.453 95.7258 142.504 95.8041L146.066 101.217C146.119 101.298 146.146 101.393 146.144 101.49C146.141 101.587 146.109 101.682 146.051 101.759C145.993 101.838 145.914 101.896 145.822 101.928C145.73 101.959 145.631 101.961 145.538 101.934L139.313 100.136C139.222 100.111 139.126 100.112 139.037 100.14C138.947 100.169 138.868 100.223 138.81 100.296L134.762 105.356C134.701 105.432 134.619 105.487 134.526 105.515C134.433 105.542 134.334 105.541 134.242 105.51C134.15 105.479 134.069 105.421 134.011 105.343C133.953 105.266 133.92 105.172 133.917 105.075L133.703 98.5996C133.699 98.5059 133.669 98.4149 133.614 98.3388C133.559 98.2626 133.483 98.2045 133.395 98.1711L127.333 95.8852C127.242 95.8512 127.164 95.7899 127.11 95.7099C127.054 95.6299 127.025 95.5351 127.026 95.4376C127.027 95.3406 127.057 95.2463 127.113 95.1669C127.169 95.088 127.248 95.0277 127.339 94.9943L133.431 92.7895C133.52 92.7577 133.596 92.7007 133.652 92.6251C133.708 92.5495 133.74 92.4591 133.744 92.3654L134.045 85.8928C134.049 85.7959 134.084 85.7027 134.143 85.626C134.202 85.5488 134.283 85.4918 134.376 85.4627C134.468 85.4331 134.568 85.4331 134.66 85.4616C134.753 85.4901 134.835 85.5471 134.894 85.6233L138.873 90.7364C138.931 90.8109 139.01 90.8668 139.099 90.8964C139.188 90.926 139.285 90.9282 139.376 90.903Z" stroke="black" stroke-width="2" stroke-miterlimit="10"/>
<path d="M18.4296 218.265L23.5252 216.625C23.6016 216.601 23.6836 216.6 23.7603 216.624C23.8369 216.647 23.9046 216.694 23.9541 216.757C24.0036 216.82 24.0325 216.896 24.0371 216.976C24.0416 217.056 24.0215 217.136 23.9795 217.204L21.173 221.765C21.1324 221.831 21.1123 221.907 21.1152 221.985C21.1182 222.062 21.144 222.137 21.1895 222.2L24.3241 226.54C24.371 226.605 24.3969 226.683 24.3983 226.763C24.3996 226.843 24.3764 226.922 24.3317 226.988C24.2869 227.055 24.2229 227.106 24.1482 227.135C24.0735 227.165 23.9916 227.17 23.9137 227.151L18.7085 225.891C18.6331 225.873 18.554 225.877 18.4812 225.904C18.4083 225.93 18.3451 225.978 18.2992 226.041L15.1399 230.363C15.0926 230.428 15.0266 230.477 14.9508 230.503C14.875 230.529 14.793 230.531 14.7159 230.509C14.6388 230.487 14.5702 230.442 14.5195 230.38C14.4687 230.318 14.4382 230.242 14.432 230.162L14.0216 224.823C14.0159 224.746 13.9872 224.672 13.9393 224.611C13.8914 224.55 13.8264 224.504 13.7526 224.48L8.66463 222.811C8.58853 222.786 8.5219 222.738 8.47374 222.674C8.42558 222.61 8.39824 222.533 8.39528 222.453C8.39237 222.373 8.41402 222.294 8.45741 222.227C8.50075 222.159 8.56371 222.107 8.63778 222.076L13.5888 220.037C13.6605 220.007 13.7218 219.957 13.7651 219.892C13.8084 219.828 13.8317 219.753 13.832 219.675L13.8474 214.32C13.8478 214.24 13.8727 214.162 13.9188 214.097C13.9649 214.031 14.0299 213.981 14.1052 213.954C14.1804 213.926 14.2623 213.922 14.3398 213.942C14.4173 213.962 14.4868 214.006 14.5388 214.067L18.0083 218.145C18.0584 218.205 18.1254 218.248 18.2005 218.27C18.2756 218.291 18.3554 218.29 18.4296 218.265Z" fill="black"/>
<path d="M425.437 127.051L431.686 125.337C431.78 125.311 431.879 125.314 431.97 125.347C432.062 125.379 432.141 125.439 432.198 125.518C432.255 125.597 432.285 125.691 432.287 125.788C432.288 125.885 432.26 125.98 432.205 126.061L428.572 131.425C428.519 131.503 428.49 131.595 428.49 131.688C428.489 131.782 428.517 131.874 428.568 131.952L432.13 137.365C432.183 137.446 432.21 137.542 432.208 137.639C432.205 137.736 432.173 137.829 432.115 137.908C432.057 137.986 431.977 138.044 431.886 138.075C431.794 138.107 431.695 138.109 431.602 138.083L425.377 136.285C425.287 136.259 425.191 136.26 425.101 136.288C425.012 136.317 424.933 136.371 424.874 136.444L420.826 141.504C420.765 141.579 420.683 141.635 420.59 141.662C420.498 141.689 420.398 141.688 420.306 141.658C420.214 141.627 420.134 141.569 420.076 141.491C420.018 141.414 419.984 141.32 419.981 141.223L419.767 134.747C419.764 134.654 419.733 134.563 419.678 134.487C419.624 134.41 419.548 134.352 419.46 134.319L413.396 132.034C413.306 131.999 413.228 131.938 413.173 131.858C413.118 131.778 413.089 131.683 413.089 131.586C413.09 131.489 413.12 131.395 413.176 131.315C413.233 131.236 413.312 131.176 413.403 131.143L419.495 128.938C419.584 128.906 419.66 128.849 419.716 128.773C419.771 128.698 419.804 128.608 419.808 128.514L420.108 122.042C420.113 121.945 420.147 121.852 420.206 121.774C420.265 121.697 420.347 121.64 420.439 121.611C420.531 121.581 420.631 121.581 420.724 121.61C420.816 121.638 420.898 121.695 420.958 121.772L424.937 126.885C424.995 126.959 425.073 127.015 425.162 127.044C425.251 127.073 425.347 127.075 425.437 127.051Z" stroke="black" stroke-opacity="0.15" stroke-width="2" stroke-miterlimit="10"/>
<path d="M135.118 127.684C131.873 123.926 128.627 120.168 125.382 116.41" stroke="black" stroke-width="2" stroke-linecap="round" stroke-linejoin="round"/>
<path d="M125.641 127.331C127.655 124.063 129.669 120.796 131.682 117.528" stroke="black" stroke-width="2" stroke-linecap="round" stroke-linejoin="round"/>
<path d="M164.325 94.6487L170.856 83.8087" stroke="black" stroke-opacity="0.15" stroke-width="2" stroke-linecap="round" stroke-linejoin="round"/>
<path d="M171.352 94.5281L162.174 83.7281" stroke="black" stroke-opacity="0.15" stroke-width="2" stroke-linecap="round" stroke-linejoin="round"/>
<path d="M37.0742 256.472L26.3137 247.249" stroke="black" stroke-opacity="0.15" stroke-width="2" stroke-linecap="round" stroke-linejoin="round"/>
<path d="M28.3083 257.982C30.363 253.885 32.4173 249.788 34.4713 245.691" stroke="black" stroke-opacity="0.15" stroke-width="2" stroke-linecap="round" stroke-linejoin="round"/>
<path d="M37.0741 351.272L27.3382 341.535" stroke="black" stroke-width="2" stroke-linecap="round" stroke-linejoin="round"/>
<path d="M28.9434 350.806L35.0702 342.08" stroke="black" stroke-width="2" stroke-linecap="round" stroke-linejoin="round"/>
<path d="M473.392 229.685L466.591 217.979" stroke="black" stroke-opacity="0.15" stroke-width="2" stroke-linecap="round" stroke-linejoin="round"/>
<path d="M465.93 228.754L473.627 221.591" stroke="black" stroke-opacity="0.15" stroke-width="2" stroke-linecap="round" stroke-linejoin="round"/>
<path d="M469.152 164.658C467.092 162.276 465.031 159.895 462.97 157.514" stroke="black" stroke-width="2" stroke-linecap="round" stroke-linejoin="round"/>
<path d="M463.381 164.205L467.99 159.594" stroke="black" stroke-width="2" stroke-linecap="round" stroke-linejoin="round"/>
<path d="M406.533 165.773L401.921 158.087" stroke="black" stroke-width="2" stroke-linecap="round" stroke-linejoin="round"/>
<path d="M400.996 164.865L408.15 158.692" stroke="black" stroke-width="2" stroke-linecap="round" stroke-linejoin="round"/>
<path d="M153.886 368.417L141.252 360.631C141.053 360.509 140.973 360.252 140.781 360.12C140.589 359.988 140.223 360.209 140.385 360.377" stroke="black" stroke-width="2" stroke-linecap="round" stroke-linejoin="round"/>
<path d="M60.1546 320.542C52.1714 315.052 45.129 308.306 39.3004 300.565" stroke="black" stroke-width="2" stroke-linecap="round" stroke-linejoin="round"/>
<path d="M52.1539 279.259C56.317 281.989 60.9568 283.909 65.831 284.92" stroke="black" stroke-width="2" stroke-linecap="round" stroke-linejoin="round"/>
<path d="M129.611 298.347C137.179 302.146 144.432 306.54 151.303 311.487" stroke="black" stroke-width="2" stroke-linecap="round" stroke-linejoin="round"/>
<path d="M383.563 363.919C405.888 331.545 424.298 296.637 438.405 259.928" stroke="black" stroke-opacity="0.15" stroke-width="2" stroke-linecap="round" stroke-linejoin="round"/>
<path d="M421.906 296.783C421.824 290.808 421.137 284.856 419.854 279.019" stroke="black" stroke-opacity="0.15" stroke-width="2" stroke-linecap="round" stroke-linejoin="round"/>
<path d="M422.472 297.306C426.472 294.386 431.079 292.406 435.951 291.516" stroke="black" stroke-opacity="0.15" stroke-width="2" stroke-linecap="round" stroke-linejoin="round"/>
<path d="M401.481 335.549C401.169 329.182 400.464 321.609 400.152 315.242" stroke="black" stroke-opacity="0.15" stroke-width="2" stroke-linecap="round" stroke-linejoin="round"/>
<path d="M401.481 335.549L420.943 326.987" stroke="black" stroke-opacity="0.15" stroke-width="2" stroke-linecap="round" stroke-linejoin="round"/>
<path d="M64.3079 145.886C62.9562 145.238 61.2505 145.896 60.3136 147.067C59.3767 148.237 59.0687 149.789 58.9756 151.286C58.6041 157.258 61.159 162.964 63.3825 168.518C65.6059 174.072 67.5691 180.173 65.9993 185.945C65.0492 189.44 62.8559 192.498 60.2314 194.993C57.6069 197.489 54.5495 199.477 51.4954 201.423" stroke="black" stroke-opacity="0.15" stroke-width="2" stroke-linecap="round" stroke-linejoin="round"/>
<g opacity="0.1">
<path d="M399.4 203.721C395.077 206.013 391.324 209.321 387.201 211.909C385.032 213.338 382.989 214.949 381.094 216.724C379.18 218.466 377.198 220.051 375.526 222.035C368.931 229.975 363.323 238.684 358.825 247.973C357.496 250.672 358.097 254 360.824 255.599C363.277 257.033 367.12 256.311 368.449 253.599C372.783 244.933 377.919 236.693 383.791 228.985C386.621 225.202 389.298 221.162 391.894 217.213C393.282 215.102 394.464 213.189 396.269 211.36C397.958 209.651 399.629 207.865 401.171 206.02C401.412 205.766 401.555 205.434 401.572 205.084C401.59 204.734 401.483 204.389 401.268 204.111C401.055 203.834 400.748 203.641 400.405 203.57C400.062 203.498 399.705 203.551 399.397 203.719L399.4 203.721Z" fill="black"/>
</g>
<g opacity="0.1">
<path d="M27.5131 288.316C27.1295 293.201 27.2754 298.114 27.9481 302.969C28.6056 308.014 29.0691 313.266 30.7907 318.076C34.3017 327.884 40.2921 336.76 47.2123 344.472C49.2976 346.795 53.2623 346.594 55.385 344.472C57.701 342.156 57.4671 338.636 55.385 336.3C49.2626 329.43 44.7724 321.615 40.6762 313.425C38.678 309.431 36.3915 305.809 34.8919 301.584C33.3501 297.079 32.0658 292.489 31.0449 287.838C30.5584 285.746 27.6841 286.402 27.5131 288.316Z" fill="black"/>
</g>
<g opacity="0.1">
<path d="M135.102 393.811C139.281 394.397 143.037 396.304 147.168 396.794C153.019 397.489 153.328 387.325 147.168 387.444C145.154 387.483 143.488 388.13 141.562 388.532C139.638 388.917 137.686 389.143 135.725 389.206C133.233 389.308 132.363 393.425 135.102 393.809V393.811Z" fill="black"/>
</g>
<g opacity="0.1">
<path d="M42.8799 273.122C42.8656 273.851 42.5867 274.431 42.6777 275.208C42.8968 276.385 43.367 277.501 44.0568 278.48C45.2858 280.511 46.8216 282.239 48.2533 284.115C49.6521 285.949 50.7123 287.778 52.527 289.283C54.5604 290.912 56.7778 292.298 59.1333 293.412C64.9604 296.278 68.7119 287.652 62.6164 285.15C60.926 284.4 59.2922 283.529 57.729 282.541C56.1005 281.575 54.1259 280.861 52.6109 279.757C51.0707 278.635 49.7168 276.843 48.5563 275.364C48.1196 274.713 47.644 274.089 47.1317 273.494C46.3712 272.735 45.5301 272.644 44.6946 272.08C44.511 271.976 44.3033 271.922 44.0919 271.922C43.8809 271.923 43.6732 271.978 43.4902 272.083C43.3067 272.188 43.1538 272.339 43.047 272.521C42.9396 272.703 42.8815 272.91 42.8782 273.121L42.8799 273.122Z" fill="black"/>
</g>
<g opacity="0.1">
<path d="M134.156 322.853C136.676 324.888 139.294 326.994 141.641 329.236C144.082 331.567 145.939 334.244 148.125 336.782C151.564 340.776 157.399 335.686 155.144 331.367C151.664 324.7 144.612 319.24 137.632 316.882C134.374 315.782 131.362 320.6 134.156 322.854V322.853Z" fill="black"/>
</g>
</g>
</g>
</g>
<defs>
<clipPath id="clip0_9_1895">
<rect width="500" height="500" fill="white"/>
</clipPath>
</defs>
</svg>