<svg xmlns="http://www.w3.org/2000/svg" width="500" height="500" viewBox="0 0 500 500" fill="none">
<mask id="mask0_20_27585" style="mask-type:luminance" maskUnits="userSpaceOnUse" x="19" y="44" width="462" height="412">
<path d="M480.729 44.2709H19.7917V455.729H480.729V44.2709Z" fill="white"/>
</mask>
<g mask="url(#mask0_20_27585)">
<path d="M472.24 250.865L456.559 254.393L453.741 270.216L450.213 254.534L434.39 251.709L450.071 248.188L452.896 232.358L456.418 248.047L472.24 250.865Z" fill="black" fill-opacity="0.15"/>
<path d="M384.861 226.25C385.118 222.083 385.368 217.918 385.612 213.754V213.734C385.826 213.742 386.041 213.717 386.248 213.658C387.196 213.362 387.73 212.375 388.086 211.441C389.208 208.472 389.493 205.259 389.601 202.078C389.669 199.907 389.66 197.683 388.969 195.626C388.188 193.282 384.836 188.82 382.519 192.345C382.005 193.281 381.703 194.319 381.634 195.385C381.429 196.955 381.259 198.55 381.178 200.152C380.976 197.556 380.533 194.929 379.187 192.715C378.353 191.341 376.862 190.062 375.291 190.413C374.815 190.551 374.377 190.795 374.008 191.127C373.64 191.458 373.352 191.869 373.165 192.328C372.806 193.25 372.594 194.223 372.535 195.211C372.411 196.415 372.302 197.632 372.232 198.857L371.84 198.838C370.724 197.829 369.826 196.603 369.198 195.235C368.572 193.867 368.23 192.386 368.194 190.881C368.164 189.193 368.139 187.499 368.108 185.811H368.239C375.709 173.289 383.44 160.933 391.429 148.742L358.79 129.928L451.62 77.6218L457.558 191.837L424.857 170.279L386.154 239.619L386.016 239.615C386.057 238.653 386.096 237.684 386.123 236.715C386.24 233.322 386.316 229.929 386.384 226.537L384.851 226.455C384.857 226.386 384.862 226.318 384.861 226.25Z" fill="black" fill-opacity="0.15"/>
<path d="M451.502 422.303C452.673 432.677 450.408 443.153 447.15 453.068L447.145 453.185C422.124 452.164 397.105 451.148 372.088 450.136L372.106 449.724C373.194 447.736 373.701 445.483 373.569 443.221C373.438 440.959 372.672 438.78 371.361 436.932C368.705 433.299 364.653 431.296 360.259 432.204C360.696 431.171 361.08 430.121 361.411 429.054C363.234 423.269 363.713 417.156 363.955 411.096C364.307 402.22 363.813 392.388 357.697 385.94C353.185 381.188 346.398 379.122 339.852 378.891C337.314 378.814 334.772 378.914 332.248 379.19L332.204 378.752L336.451 345.998C347.857 338.152 361.262 334.476 374.977 336.353C388.712 338.228 401.71 346.417 408.277 358.633C414.707 370.597 414.431 385.91 407.568 397.643C415.08 390.392 427.77 390.294 436.538 395.954C445.305 401.614 450.33 411.931 451.502 422.303Z" fill="black" fill-opacity="0.15"/>
<path d="M415.704 323.696L412.269 326.313L412.475 330.619L408.926 328.165L404.897 329.697L406.136 325.564L403.432 322.199L407.747 322.096L410.111 318.488L411.54 322.56L415.704 323.696Z" fill="black" fill-opacity="0.15"/>
<path d="M386.907 65.2208C390.649 67.3953 391.325 73.387 388.157 76.3396C386.087 78.2667 371.579 75.9542 368.461 75.8802C361.703 75.7213 354.943 75.563 348.181 75.4052C341.629 75.2562 333.738 76.2906 327.347 74.9229C323.292 74.0521 320.248 69.926 325.658 66.9156C328.662 65.2427 332.377 65.9625 335.718 66.7807C334.784 61.8526 338.393 56.5203 343.306 55.5531C348.22 54.5859 353.584 58.1312 354.608 63.0437C353.49 57.7969 353.312 51.5758 357.226 47.9169C361.926 43.5289 370.255 45.7934 373.941 51.0585C377.628 56.3234 377.702 63.3224 376.634 69.6614C377.618 65.4417 383.159 63.0531 386.907 65.2208Z" fill="black" fill-opacity="0.15"/>
<path d="M360.04 198.817C360.001 199.8 359.954 200.79 359.914 201.772C359.48 202.001 359.046 202.237 358.619 202.48C358.124 202.758 357.637 203.044 357.155 203.343C358.009 201.769 358.973 200.256 360.04 198.817Z" fill="black"/>
<path d="M356.455 224.281L356.444 224.419C356.346 228.629 356.228 232.88 355.972 237.127C355.256 248.722 353.453 260.212 347.843 270.249C343.427 278.153 336.888 284.663 328.966 289.045C321.043 293.428 312.053 295.506 303.01 295.046C303.191 294.595 303.292 294.117 303.308 293.632C303.412 292.449 303.516 291.273 303.62 290.091C303.692 289.299 303.725 288.407 303.204 287.807C302.619 287.148 301.604 287.136 300.726 287.176L295.153 287.444V287.437C295.256 284.871 295.96 282.366 297.208 280.121C298.457 277.878 300.215 275.958 302.34 274.517L302.382 274.558C302.288 274.649 302.201 274.74 302.107 274.824C307.24 271.1 313.074 265.526 316.045 259.64C317.552 260.347 319.052 261.053 320.547 261.757C323.813 256.152 327.137 251.272 331.13 245.692C337.731 233.875 345.049 223.417 351.668 212.143L351.914 212.091C352.338 213.708 353.069 215.23 354.066 216.573C355.913 219.314 357.985 221.896 360.26 224.294L360.245 224.541C358.978 224.458 357.719 224.37 356.455 224.281Z" fill="black" fill-opacity="0.15"/>
<path d="M360.26 432.204C359.634 433.712 358.893 435.169 358.044 436.565C356.343 439.418 354.088 441.902 351.412 443.871C350.906 444.24 350.385 444.581 349.856 444.895C346.429 446.968 342.55 448.112 338.528 448.778C335.516 449.249 332.479 449.551 329.433 449.681C310.223 450.713 289.216 449.967 267.548 448.837L267.509 448.625C269 448.372 270.355 447.889 270.902 446.895C271.364 446.062 271.064 444.599 270.735 443.412C270.608 442.927 270.475 442.484 270.392 442.15C269.753 439.666 267.885 437.47 265.517 435.937C264.282 435.152 262.965 434.504 261.589 434.006L261.641 433.868C269.907 423.181 275.569 406.54 285.046 396.911C286.376 395.563 288.848 393.881 292.119 392.093C299.027 388.421 306.275 385.43 313.761 383.161C319.781 381.247 325.972 379.918 332.247 379.193C334.771 378.917 337.313 378.816 339.851 378.893C346.397 379.125 353.184 381.191 357.696 385.943C363.812 392.39 364.306 402.221 363.954 411.1C363.712 417.159 363.23 423.272 361.41 429.058C361.079 430.12 360.697 431.172 360.26 432.204Z" fill="black"/>
<path d="M314.713 237.141C319.06 242.782 319.504 250.796 317.004 257.462C316.726 258.206 316.405 258.932 316.043 259.639C313.072 265.524 307.239 271.097 302.105 274.824C302.199 274.74 302.286 274.648 302.38 274.557C306.331 270.762 308.441 265.32 309.026 259.864C309.629 254.277 308.741 248.641 307.473 243.171L307.466 243.157C307.63 243.092 307.793 243.019 307.956 242.949C310.709 241.734 313.623 239.775 314.545 237.084L314.713 237.141Z" fill="black"/>
<path d="M282.708 246.146L282.611 246.697C284.062 259.453 282.246 276.207 266.404 279.917C266.709 282.857 266.867 285.811 266.876 288.768C266.871 290.743 266.657 292.713 266.239 294.644C265.752 296.857 264.894 298.972 263.701 300.899C259.719 307.351 252.944 312.224 245.405 313.058C241.105 313.539 236.646 312.752 232.267 312.15C227.055 311.442 221.946 310.993 217.314 313.252C212.907 315.403 209.994 319.558 207.53 323.89C207.009 324.807 206.507 325.739 206.013 326.655C201.347 335.34 196.677 344.026 192.002 352.715L191.995 352.707C188.914 345.339 187.34 337.428 187.367 329.441C187.394 321.454 189.022 313.554 192.154 306.206C195.287 298.859 199.86 292.215 205.603 286.665C211.347 281.115 218.145 276.772 225.595 273.894C228.085 272.91 230.64 272.101 233.242 271.472C234.116 271.254 234.997 271.063 235.879 270.892C238.496 270.388 241.281 269.996 243.372 268.336C246.09 266.176 246.9 262.464 247.717 259.083C249.716 250.829 252.864 242.721 258.046 235.982C258.727 235.096 259.45 234.228 260.206 233.394C265.184 227.915 271.688 223.755 278.94 222.392C288.352 220.625 297.974 223.622 306.841 227.241C310.56 228.758 314.823 231.23 314.851 235.252C314.857 235.875 314.755 236.495 314.548 237.084C313.627 239.774 310.713 241.734 307.959 242.948C307.796 243.02 307.633 243.093 307.47 243.157C299.659 246.451 291.08 247.486 282.708 246.146Z" fill="black"/>
<path d="M251.054 387.318C254.96 389.276 258.091 391.073 261.128 392.447C268.458 395.771 275.252 396.677 291.16 391.627L291.949 391.602L292.118 392.093C288.849 393.881 286.375 395.564 285.045 396.91C275.566 406.539 269.906 423.18 261.639 433.867L261.587 434.006C261.469 433.96 261.352 433.915 261.234 433.876C258.66 433.008 256.013 432.371 253.326 431.972C249.56 431.264 245.728 430.974 241.898 431.108C238.044 431.324 234.146 432.228 230.942 434.112C227.737 435.996 225.304 438.904 224.853 442.081L224.027 441.969C208.662 435.159 209.559 434.686 196.856 423.678C192.776 420.136 188.967 416.194 186.283 411.504C184.413 408.305 183.226 404.753 182.797 401.072C182.608 399.374 182.632 397.66 182.868 395.968C183.62 391.289 185.867 386.978 189.275 383.683C191.58 381.378 194.288 379.514 197.265 378.185C201.25 376.46 205.528 375.512 209.869 375.392C212.215 375.305 214.565 375.397 216.897 375.668C218.17 375.818 219.444 376.009 220.699 376.249C226.48 377.343 232.053 379.284 237.543 381.447C238.277 381.74 239.018 382.032 239.752 382.325C240.943 382.813 242.134 383.295 243.319 383.783C246.245 384.988 248.777 386.181 251.054 387.318Z" fill="black"/>
<path d="M261.129 392.448L291.161 391.628C275.253 396.677 268.457 395.771 261.129 392.448Z" fill="black" fill-opacity="0.15"/>
<path d="M260.127 233.327L260.204 233.394C259.447 234.227 258.725 235.095 258.044 235.982C252.861 242.721 249.711 250.829 247.714 259.083C246.897 262.465 246.088 266.175 243.37 268.336C241.279 269.996 238.494 270.387 235.876 270.892C234.994 271.062 234.113 271.254 233.24 271.472L233.179 271.212L217.389 263.691L217.336 263.74C206.392 251.005 194.382 239.37 181.22 229.388L181.585 228.913C184.635 223.766 187.682 218.621 190.727 213.479C192.434 210.606 194.141 207.728 195.847 204.846C196.119 204.387 196.39 203.928 196.661 203.469C217.835 213.21 239.332 223.027 260.127 233.327Z" fill="black" fill-opacity="0.15"/>
<path d="M209.864 375.339V375.393C205.523 375.514 201.245 376.461 197.26 378.186C194.283 379.515 191.576 381.379 189.271 383.684L188.928 383.068C182.427 375.305 175.869 367.597 169.255 359.943C169.966 354.278 170.675 348.616 171.381 342.955C184.137 355.91 198.053 367.434 209.864 375.339Z" fill="black" fill-opacity="0.15"/>
<path d="M198.858 167.082L193.757 172.281L195.152 179.43L188.628 176.185L182.254 179.718L183.329 172.514L178.001 167.546L185.182 166.336L188.26 159.733L191.63 166.193L198.858 167.082Z" fill="black"/>
<path d="M188.929 383.067L189.272 383.684C185.865 386.979 183.617 391.289 182.866 395.969C182.629 397.66 182.605 399.373 182.794 401.07L182.013 401.156C170.346 401.224 158.27 398.075 148.477 394.449C143.103 392.478 137.874 390.134 132.828 387.433L132.271 387.089L148.229 361.13L148.403 361.234C155.347 360.805 162.29 360.369 169.236 360.063C169.243 360.022 169.248 359.981 169.254 359.938C175.871 367.598 182.429 375.307 188.929 383.067Z" fill="black" fill-opacity="0.15"/>
<path d="M180.052 112.865C180.828 116.54 178.198 120.251 174.86 121.972C171.521 123.694 167.633 123.884 163.882 124.043L110.399 126.285C105.366 126.494 93.188 129.209 88.8276 125.455C83.0396 120.47 93.5474 118.554 97.4365 118.729C100.418 118.861 103.554 119.079 106.243 117.791C102.505 110.552 105.988 100.513 113.402 97.1354C120.815 93.7578 130.678 97.7318 133.682 105.305C131.292 98.1693 134.799 89.5474 141.498 86.1167C148.196 82.6859 157.244 84.8734 161.635 90.9807C166.027 97.088 165.218 106.366 159.838 111.62C163.122 109.295 166.739 107.094 170.755 106.84C174.771 106.585 179.219 108.921 180.052 112.865Z" fill="black"/>
<path d="M168.953 155.778L155.594 158.786L153.183 172.266L150.181 158.907L136.701 156.496L150.06 153.494L152.464 140.015L155.473 153.373L168.953 155.778Z" fill="black" fill-opacity="0.15"/>
<path d="M171.382 342.954C170.671 348.612 169.963 354.275 169.256 359.942C165.339 355.417 161.406 350.913 157.457 346.429L157.325 346.349L163.995 335.499L164.177 335.33C166.52 337.914 168.922 340.456 171.382 342.954Z" fill="black" fill-opacity="0.15"/>
<path d="M169.256 359.942C169.25 359.983 169.244 360.024 169.239 360.066C162.291 360.372 155.349 360.808 148.405 361.238L148.231 361.133L157.326 346.351L157.458 346.431C161.409 350.912 165.342 355.416 169.256 359.942Z" fill="black" fill-opacity="0.15"/>
<path d="M130.045 316.055C131.5 313.586 132.947 311.119 134.389 308.655C135.903 306.068 137.414 303.485 138.92 300.907L139.274 300.734C145.019 312.11 153.968 324.073 164.18 335.33L163.997 335.499L157.325 346.349L148.229 361.131L132.272 387.09L96.7823 444.805V444.88C82.2188 444.958 67.699 445.046 53.223 445.144V445.048C69.2183 417.867 85.7292 390.448 102.12 363.052C111.503 347.364 120.853 331.684 130.045 316.055Z" fill="black" fill-opacity="0.15"/>
<path d="M148.479 394.451L148.322 394.868C141.817 395.816 135.929 399.238 131.882 404.419C127.836 409.6 125.944 416.143 126.6 422.684C123.75 422.111 120.798 422.332 118.065 423.321C115.332 424.31 112.923 426.03 111.1 428.293C109.277 430.556 108.109 433.277 107.725 436.158C107.341 439.039 107.754 441.969 108.92 444.632L108.924 444.817L96.7834 444.882V444.806L132.274 387.091L132.831 387.436C137.877 390.136 143.106 392.48 148.479 394.451Z" fill="black"/>
<path d="M134.39 308.656C132.948 311.118 131.5 313.585 130.045 316.056C120.852 331.684 111.544 347.349 102.119 363.052L101.89 362.913C98.248 358.871 94.9829 354.505 92.135 349.869C68.823 312.541 59.1225 249.656 58.6074 240.736C77.3662 245.207 95.7584 251.095 113.625 258.352C118.411 260.296 123.158 262.342 127.866 264.487C129.655 274.543 132.441 284.396 136.182 293.9C137.069 296.145 138.1 298.424 139.272 300.736L138.919 300.909C137.417 303.488 135.907 306.07 134.39 308.656Z" fill="black" fill-opacity="0.15"/>
<path d="M101.89 362.912L102.12 363.052C85.7292 390.447 69.2188 417.865 53.2224 445.048V445.144C47.4431 445.184 41.6781 445.226 35.9274 445.269C32.03 445.302 27.7852 445.21 24.7722 442.738C21.2415 439.845 20.6451 434.641 21.2993 430.117C21.9716 425.477 23.6577 421.042 26.238 417.127C28.8182 413.212 32.229 409.914 36.2282 407.466C40.2273 405.019 44.7164 403.482 49.3765 402.966C54.0365 402.45 58.7532 402.966 63.1912 404.479C61.2927 399.031 60.5349 393.25 60.9657 387.497C61.3959 381.744 63.0052 376.141 65.6927 371.035C68.3808 365.931 72.0901 361.433 76.5896 357.822C81.0896 354.211 86.2844 351.565 91.8506 350.047L92.1344 349.869C94.9823 354.505 98.248 358.871 101.89 362.912Z" fill="black"/>
<path d="M276.823 244.775C278.751 245.365 280.718 245.82 282.708 246.14V246.147C291.079 247.487 299.658 246.452 307.469 243.158C307.632 243.093 307.795 243.02 307.958 242.95C310.712 241.735 313.626 239.776 314.547 237.085C314.754 236.497 314.856 235.876 314.85 235.253C314.822 231.231 310.559 228.759 306.84 227.243C297.973 223.624 288.35 220.628 278.939 222.394C271.687 223.757 265.182 227.915 260.205 233.395C259.448 234.229 258.727 235.096 258.046 235.983C252.863 242.723 249.713 250.831 247.716 259.084C246.899 262.466 246.09 266.176 243.371 268.337C241.28 269.998 238.495 270.389 235.878 270.893C234.996 271.064 234.115 271.255 233.241 271.474C230.639 272.103 228.084 272.912 225.594 273.896C218.144 276.774 211.346 281.116 205.602 286.666C199.858 292.216 195.285 298.86 192.153 306.208C189.02 313.555 187.392 321.455 187.365 329.442C187.338 337.429 188.912 345.341 191.993 352.709" stroke="black" stroke-linecap="round" stroke-linejoin="round"/>
<path d="M314.713 237.141C319.06 242.783 319.504 250.797 317.004 257.463C316.726 258.206 316.405 258.933 316.043 259.64C313.072 265.525 307.239 271.098 302.105 274.824" stroke="black" stroke-linecap="round" stroke-linejoin="round"/>
<path d="M191.651 353.368C191.769 353.152 191.888 352.93 192 352.714C196.672 344.023 201.343 335.336 206.01 326.655C206.505 325.739 207.006 324.807 207.528 323.89C209.992 319.558 212.905 315.4 217.313 313.252C221.943 310.993 227.052 311.442 232.265 312.149C236.644 312.752 241.103 313.538 245.403 313.058C252.942 312.225 259.717 307.351 263.699 300.899C264.891 298.972 265.749 296.857 266.237 294.644C266.655 292.713 266.869 290.743 266.874 288.768C266.865 285.811 266.707 282.857 266.402 279.917C282.244 276.207 284.058 259.452 282.609 246.697" stroke="black" stroke-linecap="round" stroke-linejoin="round"/>
<path d="M302.106 274.825C302.2 274.74 302.287 274.649 302.381 274.558C306.332 270.763 308.442 265.321 309.027 259.865C309.63 254.277 308.742 248.641 307.474 243.171" stroke="black" stroke-linecap="round" stroke-linejoin="round"/>
<path d="M304.266 253.456C304.042 253.003 303.702 252.617 303.28 252.338C302.858 252.058 302.37 251.897 301.865 251.869C301.36 251.841 300.857 251.948 300.407 252.179C299.957 252.409 299.576 252.756 299.304 253.182" stroke="black" stroke-linecap="round" stroke-linejoin="round"/>
<path d="M290.497 253.475C290.335 253.066 290.058 252.714 289.698 252.459C289.34 252.206 288.915 252.062 288.475 252.044C288.023 252.001 287.569 252.082 287.16 252.277C286.751 252.472 286.402 252.776 286.152 253.154" stroke="black" stroke-linecap="round" stroke-linejoin="round"/>
<path d="M296.302 260.347C296.348 260.488 296.423 260.617 296.525 260.725C296.626 260.833 296.749 260.918 296.886 260.972C297.156 261.104 297.446 261.166 297.719 261.297C298.015 261.439 298.271 261.65 298.466 261.913C298.66 262.176 298.788 262.483 298.836 262.807C298.885 263.131 298.854 263.461 298.745 263.77C298.637 264.079 298.454 264.357 298.213 264.579C297.972 264.801 297.681 264.96 297.365 265.044C297.048 265.127 296.716 265.132 296.397 265.057C296.078 264.982 295.783 264.831 295.536 264.616C295.289 264.401 295.099 264.128 294.982 263.822" stroke="black" stroke-linecap="round" stroke-linejoin="round"/>
<path d="M291.088 272.022C290.863 272.319 290.56 272.547 290.212 272.68C289.865 272.813 289.486 272.845 289.121 272.773C288.387 272.616 287.741 272.183 287.317 271.564C286.899 270.951 286.608 270.26 286.461 269.533" stroke="black" stroke-linecap="round" stroke-linejoin="round"/>
<path d="M302.34 274.517C300.215 275.958 298.457 277.878 297.209 280.122C295.96 282.366 295.256 284.872 295.153 287.438" stroke="black" stroke-linecap="round" stroke-linejoin="round"/>
<path d="M267.534 288.774C276.735 288.335 285.941 287.892 295.153 287.444L300.726 287.175C301.603 287.135 302.62 287.147 303.204 287.807C303.725 288.406 303.69 289.299 303.62 290.09C303.516 291.273 303.412 292.449 303.308 293.632C303.291 294.117 303.191 294.595 303.01 295.045C302.926 295.234 302.806 295.405 302.657 295.547C302.106 296.074 301.251 296.073 300.485 296.042C289.171 295.602 277.856 295.158 266.541 294.712" stroke="black" stroke-linecap="round" stroke-linejoin="round"/>
<path d="M302.653 295.027C302.77 295.031 302.894 295.042 303.011 295.046C312.053 295.506 321.043 293.428 328.966 289.046C336.889 284.664 343.427 278.153 347.843 270.25C353.454 260.213 355.257 248.723 355.973 237.128C356.228 232.88 356.346 228.629 356.444 224.419" stroke="black" stroke-linecap="round" stroke-linejoin="round"/>
<path d="M338.958 326.759C348.385 326.591 355.945 320.862 362.359 313.951C372.891 302.617 379.102 287.817 382.355 272.692C384.687 261.829 385.584 250.737 386.017 239.615C386.057 238.653 386.097 237.684 386.124 236.716C386.241 233.322 386.316 229.929 386.384 226.537" stroke="black" stroke-linecap="round" stroke-linejoin="round"/>
<path d="M356.379 224.276C356.407 224.276 356.427 224.281 356.455 224.281C357.719 224.369 358.978 224.458 360.243 224.541C368.444 225.114 376.65 225.684 384.86 226.251C385.348 226.281 385.83 226.318 386.319 226.348" stroke="black" stroke-linecap="round" stroke-linejoin="round"/>
<path d="M233.253 311.448C232.921 311.676 232.591 311.909 232.266 312.15C223.816 318.276 217.046 326.837 213.49 336.629C213.177 337.472 212.894 338.323 212.641 339.181C209.293 350.369 211.174 365.461 216.893 375.671C216.922 375.723 216.951 375.78 216.979 375.834" stroke="black" stroke-linecap="round" stroke-linejoin="round"/>
<path d="M360.26 224.292C357.985 221.894 355.914 219.311 354.068 216.57C353.071 215.227 352.34 213.706 351.916 212.088C351.825 211.632 351.783 211.169 351.789 210.704C351.905 208.82 352.719 207.047 354.073 205.732C354.995 204.808 356.032 204.005 357.157 203.343C357.637 203.044 358.126 202.758 358.621 202.48C359.048 202.237 359.482 202.001 359.916 201.772C361.712 200.757 363.641 199.993 365.645 199.502C366.682 199.22 367.774 199.213 368.816 199.48C369.333 199.622 369.801 199.907 370.165 200.302C370.529 200.696 370.776 201.185 370.877 201.713C370.885 201.795 370.894 201.869 370.896 201.952C370.923 203.181 369.972 204.244 369.058 205.103C367.449 206.622 365.753 208.047 363.978 209.369C363.073 210.048 362.043 210.931 362.207 212.052C362.385 212.709 362.763 213.295 363.288 213.729C365.193 215.713 366.758 217.997 367.92 220.49" stroke="black" stroke-linecap="round" stroke-linejoin="round"/>
<path d="M359.914 201.785V201.771C359.954 200.788 360.001 199.798 360.04 198.816C360.378 190.854 360.712 182.891 361.045 174.928C361.037 174.004 361.162 173.083 361.417 172.195C361.547 171.751 361.769 171.339 362.069 170.985C362.368 170.632 362.739 170.346 363.156 170.145C364.618 169.535 366.356 170.527 367.121 171.916C367.886 173.305 367.931 174.966 367.959 176.551C368.007 179.64 368.058 182.724 368.111 185.807C368.142 187.495 368.166 189.192 368.197 190.878C368.232 192.382 368.574 193.864 369.201 195.231C369.828 196.599 370.727 197.825 371.843 198.834" stroke="black" stroke-linecap="round" stroke-linejoin="round"/>
<path d="M385.613 213.733C385.827 213.742 386.042 213.716 386.25 213.657C387.197 213.361 387.731 212.375 388.088 211.44C389.209 208.471 389.494 205.258 389.602 202.078C389.67 199.907 389.662 197.683 388.97 195.626C388.189 193.282 384.837 188.819 382.52 192.344C382.006 193.281 381.704 194.318 381.634 195.384C381.429 196.954 381.259 198.55 381.179 200.152C381.082 201.904 381.123 203.661 381.302 205.407C381.511 207.351 382 209.254 382.753 211.058C383.034 211.808 383.473 212.489 384.04 213.054C384.475 213.448 385.028 213.686 385.613 213.733Z" stroke="black" stroke-linecap="round" stroke-linejoin="round"/>
<path d="M381.302 205.407C381.354 203.982 381.333 202.555 381.241 201.131C381.22 200.809 381.198 200.48 381.178 200.151C380.976 197.555 380.532 194.929 379.186 192.714C378.353 191.34 376.861 190.062 375.291 190.412C374.815 190.55 374.377 190.794 374.008 191.126C373.64 191.458 373.351 191.868 373.164 192.327C372.806 193.249 372.594 194.222 372.535 195.21C372.411 196.413 372.301 197.631 372.232 198.856C372.172 199.886 372.141 200.917 372.163 201.946C372.135 204.725 372.613 207.487 373.573 210.096C373.977 211.299 374.673 212.383 375.599 213.249C376.411 213.938 378.11 214.745 379.06 213.893C379.86 213.175 380.279 211.333 380.559 210.345C381.003 208.735 381.252 207.076 381.302 205.407Z" stroke="black" stroke-linecap="round" stroke-linejoin="round"/>
<path d="M385.612 213.753C385.369 217.92 385.119 222.085 384.862 226.249C384.862 226.318 384.857 226.386 384.852 226.455" stroke="black" stroke-linecap="round" stroke-linejoin="round"/>
<path d="M291.46 391.53C291.356 391.56 291.263 391.596 291.16 391.627C275.252 396.679 268.457 395.771 261.128 392.448C258.091 391.074 254.962 389.277 251.054 387.318C248.777 386.182 246.246 384.988 243.315 383.783C242.13 383.295 240.939 382.815 239.747 382.326C239.013 382.033 238.271 381.74 237.538 381.447C232.047 379.284 226.478 377.342 220.694 376.249C219.44 376.009 218.166 375.818 216.892 375.668C214.56 375.398 212.211 375.306 209.865 375.392C205.524 375.512 201.246 376.46 197.26 378.185C194.283 379.514 191.575 381.378 189.27 383.683C185.863 386.979 183.616 391.289 182.864 395.968C182.628 397.659 182.604 399.373 182.793 401.07C183.221 404.751 184.408 408.303 186.279 411.501C188.964 416.192 192.772 420.135 196.852 423.676C209.555 434.684 208.659 435.157 224.022 441.967" stroke="black" stroke-linecap="round" stroke-linejoin="round"/>
<path d="M270.735 443.411C270.607 442.927 270.474 442.483 270.391 442.149C269.753 439.665 267.884 437.469 265.516 435.936C264.281 435.151 262.964 434.504 261.588 434.006C261.47 433.96 261.353 433.915 261.235 433.876C258.661 433.008 256.014 432.371 253.327 431.972C249.561 431.264 245.729 430.974 241.899 431.108C238.045 431.324 234.148 432.228 230.943 434.112C227.739 435.996 225.305 438.904 224.854 442.081C224.758 442.736 224.761 443.403 224.864 444.057C225.046 445.334 225.717 446.49 226.734 447.282C228.207 448.41 230.328 448.76 232.352 448.962C236.026 449.334 239.748 449.379 243.461 449.428C250.046 449.522 256.665 449.607 263.261 449.008C264.336 448.908 265.991 448.885 267.508 448.625C268.999 448.372 270.354 447.889 270.902 446.895C271.364 446.06 271.063 444.598 270.735 443.411Z" stroke="black" stroke-linecap="round" stroke-linejoin="round"/>
<path d="M261.64 433.867C269.906 423.181 275.568 406.54 285.046 396.911C286.375 395.563 288.848 393.881 292.118 392.093C299.026 388.421 306.274 385.43 313.76 383.161C319.78 381.247 325.971 379.918 332.246 379.193C334.771 378.917 337.312 378.816 339.851 378.893C346.397 379.125 353.184 381.191 357.696 385.943C363.812 392.39 364.305 402.221 363.954 411.099C363.712 417.158 363.23 423.271 361.409 429.057C361.076 430.121 360.694 431.173 360.257 432.206C359.631 433.714 358.89 435.171 358.042 436.567C356.34 439.42 354.085 441.904 351.409 443.873C350.903 444.242 350.382 444.583 349.854 444.897C346.427 446.971 342.546 448.114 338.525 448.78C335.513 449.251 332.476 449.553 329.43 449.683C310.22 450.716 289.213 449.969 267.545 448.839" stroke="black" stroke-linecap="round" stroke-linejoin="round"/>
<path d="M239.773 382.264L252.806 316.566" stroke="black" stroke-linecap="round" stroke-linejoin="round"/>
<path d="M340.747 312.828L252.806 316.566" stroke="black" stroke-linecap="round" stroke-linejoin="round"/>
<path d="M332.202 378.755L336.449 346.002L338.943 326.761L340.747 312.828" stroke="black" stroke-linecap="round" stroke-linejoin="round"/>
<path d="M250.506 387.358L251.054 387.318L313.723 383.038" stroke="black" stroke-linecap="round" stroke-linejoin="round"/>
<path d="M260.957 392.451L261.129 392.447L291.161 391.627L291.95 391.602" stroke="black" stroke-linecap="round" stroke-linejoin="round"/>
<path d="M340.747 312.827L336.179 310.829" stroke="black" stroke-linecap="round" stroke-linejoin="round"/>
<path d="M252.805 316.566L250.67 315" stroke="black" stroke-linecap="round" stroke-linejoin="round"/>
<path d="M336.179 310.829L250.67 314.999" stroke="black" stroke-linecap="round" stroke-linejoin="round"/>
<path d="M237.577 381.345L250.67 315" stroke="black" stroke-linecap="round" stroke-linejoin="round"/>
<path d="M336.394 346.037C336.415 346.022 336.428 346.015 336.446 346.001C347.853 338.155 361.257 334.479 374.972 336.356C388.708 338.231 401.706 346.419 408.272 358.635C414.703 370.6 414.427 385.914 407.564 397.646C415.076 390.394 427.766 390.297 436.533 395.957C445.301 401.618 450.33 411.931 451.501 422.304C452.672 432.676 450.407 443.154 447.149 453.069" stroke="black" stroke-linecap="round" stroke-linejoin="round"/>
<path d="M209.864 375.339C198.053 367.434 184.134 355.911 171.382 342.953C168.924 340.461 166.522 337.921 164.178 335.33C153.967 324.075 145.017 312.111 139.271 300.734C138.102 298.427 137.072 296.148 136.181 293.898C132.44 284.394 129.654 274.542 127.864 264.486C124.14 243.688 124.68 222.35 129.452 201.768C148.413 208.044 165.628 217.552 181.219 229.388C194.38 239.37 206.39 251.003 217.334 263.741C220.139 267 222.87 270.328 225.526 273.724" stroke="black" stroke-linecap="round" stroke-linejoin="round"/>
<path d="M101.89 362.913C98.248 358.871 94.9829 354.505 92.135 349.869C68.823 312.541 59.1225 249.656 58.6074 240.736C77.3662 245.207 95.7584 251.095 113.625 258.352C118.411 260.296 123.158 262.342 127.866 264.487C128.095 264.585 128.324 264.69 128.553 264.794" stroke="black" stroke-linecap="round" stroke-linejoin="round"/>
<path d="M182.015 401.157C170.348 401.225 158.272 398.075 148.479 394.45C143.106 392.479 137.877 390.134 132.83 387.434" stroke="black" stroke-linecap="round" stroke-linejoin="round"/>
<path d="M181.586 228.914C184.636 223.766 187.684 218.621 190.729 213.479C192.436 210.606 194.142 207.729 195.848 204.847C196.12 204.387 196.392 203.928 196.663 203.469" stroke="black" stroke-linecap="round" stroke-linejoin="round"/>
<path d="M53.2224 445.048C69.2188 417.865 85.7292 390.447 102.12 363.051C111.503 347.363 120.812 331.698 130.045 316.055C131.499 313.586 132.948 311.119 134.39 308.655C135.905 306.068 137.415 303.485 138.921 300.907" stroke="black" stroke-linecap="round" stroke-linejoin="round"/>
<path d="M96.7823 444.804L132.273 387.09L148.23 361.131L157.325 346.349L163.995 335.5" stroke="black" stroke-linecap="round" stroke-linejoin="round"/>
<path d="M351.666 212.142C345.047 223.416 337.729 233.876 331.129 245.691C327.134 251.272 323.811 256.15 320.545 261.756" stroke="black" stroke-linecap="round" stroke-linejoin="round"/>
<path d="M360.072 198.769C360.059 198.783 360.053 198.804 360.04 198.818C358.972 200.257 358.009 201.769 357.155 203.344C357.103 203.434 357.056 203.531 357.01 203.621" stroke="black" stroke-linecap="round" stroke-linejoin="round"/>
<path d="M391.432 148.737C383.426 160.914 375.695 173.27 368.241 185.806" stroke="black" stroke-linecap="round" stroke-linejoin="round"/>
<path d="M316.044 259.64C317.55 260.347 319.051 261.053 320.546 261.757" stroke="black" stroke-linecap="round" stroke-linejoin="round"/>
<path d="M196.663 203.469C217.835 213.208 239.333 223.027 260.128 233.327" stroke="black" stroke-linecap="round" stroke-linejoin="round"/>
<path d="M217.389 263.692L233.18 271.213" stroke="black" stroke-linecap="round" stroke-linejoin="round"/>
<path d="M386.154 239.619L424.859 170.28" stroke="black" stroke-linecap="round" stroke-linejoin="round"/>
<path d="M391.431 148.738L358.792 129.923" stroke="black" stroke-linecap="round" stroke-linejoin="round"/>
<path d="M424.859 170.28L457.559 191.838" stroke="black" stroke-linecap="round" stroke-linejoin="round"/>
<path d="M451.622 77.6229L358.792 129.923" stroke="black" stroke-linecap="round" stroke-linejoin="round"/>
<path d="M457.559 191.839L451.622 77.6229" stroke="black" stroke-linecap="round" stroke-linejoin="round"/>
<path d="M265.711 90.6255C255.555 93.913 246.78 101.048 241.112 110.091C237.804 115.374 235.483 121.487 235.747 127.721C235.996 133.632 238.566 139.286 242.211 143.948C250.838 154.999 265.866 160.656 279.639 158.035C293.411 155.415 305.316 144.65 309.283 131.195C312.679 119.711 310.368 103.207 301.054 94.7656C292.679 87.1791 275.702 87.3932 265.711 90.6255Z" stroke="black" stroke-linecap="round" stroke-linejoin="round"/>
<path d="M297.733 109.148C295.227 109.658 292.989 111.056 291.431 113.084C289.96 115.149 289.509 118.001 290.617 120.275C291.725 122.55 294.535 123.963 296.948 123.188C299.361 122.413 300.788 119.272 299.523 117.077" stroke="black" stroke-linecap="round" stroke-linejoin="round"/>
<path d="M273.786 107.053C274.475 106.419 275.348 106.023 276.279 105.923C277.209 105.823 278.146 106.025 278.954 106.498C279.762 106.971 280.395 107.69 280.764 108.551C281.131 109.411 281.214 110.367 280.998 111.277C280.782 112.188 280.28 113.005 279.565 113.608C278.85 114.211 277.96 114.57 277.026 114.63C276.093 114.69 275.164 114.449 274.378 113.942C273.591 113.435 272.988 112.69 272.657 111.815" stroke="black" stroke-linecap="round" stroke-linejoin="round"/>
<path d="M259.297 124.962C264.045 125.495 267.412 131.185 265.602 135.598C263.792 140.01 257.391 141.698 253.645 138.74C249.895 135.79 250.034 129.177 253.898 126.379" stroke="black" stroke-linecap="round" stroke-linejoin="round"/>
<path d="M287.393 143.184C289.525 143.34 291.098 145.888 290.291 147.862C289.484 149.837 286.569 150.554 284.94 149.169C283.31 147.785 283.538 144.794 285.359 143.675" stroke="black" stroke-linecap="round" stroke-linejoin="round"/>
<path d="M388.156 76.3411C391.323 73.3875 390.647 67.3963 386.906 65.2218C383.166 63.0474 377.617 65.4427 376.634 69.6651C377.701 63.3265 377.634 56.3271 373.941 51.0617C370.247 45.7966 361.927 43.5326 357.224 47.9206C353.311 51.5769 353.491 57.7989 354.603 63.0458C353.581 58.1333 348.223 54.5807 343.301 55.5552C338.379 56.5297 334.779 61.8536 335.713 66.7823C332.372 65.9646 328.656 65.2448 325.653 66.9177C320.243 69.9281 323.286 74.0531 327.342 74.9245C333.735 76.2922 341.627 75.2583 348.176 75.4067C354.933 75.5656 361.693 75.7239 368.456 75.8817C371.578 75.9552 386.085 78.2677 388.156 76.3411Z" stroke="black" stroke-linecap="round" stroke-linejoin="round"/>
<path d="M163.88 124.041C167.63 123.885 171.519 123.693 174.858 121.971C178.197 120.249 180.826 116.539 180.05 112.863C179.221 108.921 174.776 106.583 170.752 106.838C166.729 107.093 163.119 109.294 159.835 111.618C165.216 106.364 166.025 97.0869 161.633 90.9791C157.241 84.8713 148.195 82.6849 141.495 86.1151C134.795 89.5453 131.29 98.1698 133.679 105.303C130.676 97.7302 120.819 93.7557 113.399 97.1338C105.979 100.512 102.503 110.549 106.24 117.79C103.551 119.079 100.416 118.86 97.4334 118.727C93.5449 118.553 83.037 120.469 88.8251 125.454C93.1844 129.207 105.363 126.492 110.396 126.284L163.88 124.041Z" stroke="black" stroke-linecap="round" stroke-linejoin="round"/>
<path d="M91.8485 350.047C86.2823 351.565 81.0881 354.211 76.5881 357.822C72.0881 361.433 68.3792 365.931 65.6912 371.035C63.0032 376.141 61.3938 381.744 60.9636 387.497C60.5334 393.251 61.2907 399.031 63.1891 404.48C58.7516 402.968 54.0355 402.452 49.3762 402.968C44.7167 403.485 40.2282 405.021 36.2296 407.469C32.231 409.916 28.8206 413.214 26.2406 417.128C23.6606 421.043 21.9744 425.477 21.3019 430.117C20.6477 434.641 21.2441 439.844 24.7748 442.737C27.7883 445.21 32.0326 445.301 35.9305 445.269C41.6816 445.223 47.4463 445.182 53.2245 445.144C67.6917 445.04 82.2115 444.952 96.7844 444.88L108.926 444.816C147.49 444.615 186.179 444.439 224.316 444.144" stroke="black" stroke-linecap="round" stroke-linejoin="round"/>
<path d="M338.293 448.77C338.369 448.775 338.45 448.773 338.527 448.778C349.712 449.235 360.899 449.688 372.088 450.136C397.109 451.158 422.129 452.174 447.145 453.185C457.897 453.619 468.65 454.054 479.401 454.492" stroke="black" stroke-linecap="round" stroke-linejoin="round"/>
<path d="M188.26 159.733L191.63 166.193L198.858 167.082L193.757 172.281L195.152 179.43L188.628 176.185L182.254 179.718L183.329 172.514L178.001 167.546L185.182 166.336L188.26 159.733Z" stroke="black" stroke-linecap="round" stroke-linejoin="round"/>
<path d="M306.609 150.752L308.654 154.674L313.037 155.208L309.943 158.366L310.789 162.706L306.832 160.734L302.96 162.88L303.61 158.507L300.38 155.49L304.736 154.761L306.609 150.752Z" stroke="black" stroke-opacity="0.15" stroke-linecap="round" stroke-linejoin="round"/>
<path d="M353.18 124.475L357.089 141.864L374.634 144.994L357.246 148.903L354.115 166.448L350.206 149.059L332.661 145.929L350.05 142.02L353.18 124.475Z" stroke="black" stroke-linecap="round" stroke-linejoin="round"/>
<path d="M152.464 140.015L155.473 153.373L168.953 155.778L155.594 158.786L153.183 172.266L150.181 158.907L136.701 156.496L150.06 153.494L152.464 140.015Z" stroke="black" stroke-linecap="round" stroke-linejoin="round"/>
<path d="M323.132 204.047C321.712 202.835 320.405 201.497 319.226 200.05C318.282 198.911 317.422 197.705 316.654 196.442" stroke="black" stroke-opacity="0.15" stroke-linecap="round" stroke-linejoin="round"/>
<path d="M316.373 204.437C317.244 202.925 318.197 201.46 319.227 200.05C319.993 198.983 320.807 197.956 321.663 196.955" stroke="black" stroke-opacity="0.15" stroke-linecap="round" stroke-linejoin="round"/>
<path d="M218 127.887C217.015 126.384 215.881 124.983 214.615 123.708C213.662 122.732 212.635 121.832 211.542 121.017" stroke="black" stroke-opacity="0.15" stroke-linecap="round" stroke-linejoin="round"/>
<path d="M211.388 127.5C213.847 125.063 215.854 122.208 217.316 119.07" stroke="black" stroke-opacity="0.15" stroke-linecap="round" stroke-linejoin="round"/>
<path d="M107.509 223.344C105.587 221.782 103.667 220.22 101.749 218.66C100.378 217.545 99.0157 216.429 97.6454 215.32" stroke="black" stroke-linecap="round" stroke-linejoin="round"/>
<path d="M98.1927 224.499C99.3782 222.551 100.564 220.605 101.749 218.66C103.245 216.205 104.742 213.751 106.239 211.298" stroke="black" stroke-linecap="round" stroke-linejoin="round"/>
<path d="M424.8 308.365C423.304 306.222 421.808 304.084 420.313 301.951C418.809 299.795 417.301 297.639 415.789 295.483" stroke="black" stroke-linecap="round" stroke-linejoin="round"/>
<path d="M415.162 307.688C416.884 305.775 418.601 303.863 420.313 301.952C422.034 300.039 423.751 298.129 425.464 296.222" stroke="black" stroke-linecap="round" stroke-linejoin="round"/>
<path d="M441.458 382.133C440.683 380.963 439.902 379.793 439.135 378.622C437.899 376.769 436.668 374.913 435.441 373.055" stroke="black" stroke-linecap="round" stroke-linejoin="round"/>
<path d="M435.181 383.241L439.134 378.622C440.492 377.033 441.85 375.445 443.208 373.857" stroke="black" stroke-linecap="round" stroke-linejoin="round"/>
<path d="M64.4099 334.817C62.9281 332.788 61.2323 330.924 59.3511 329.259C58.1417 328.178 56.8557 327.186 55.5026 326.291" stroke="black" stroke-opacity="0.15" stroke-linecap="round" stroke-linejoin="round"/>
<path d="M55.5235 335.22C56.7975 333.236 58.073 331.249 59.3511 329.259C60.2068 327.93 61.0558 326.607 61.912 325.276" stroke="black" stroke-opacity="0.15" stroke-linecap="round" stroke-linejoin="round"/>
<path d="M262.4 217.99C261.141 216.631 259.887 215.27 258.637 213.907C257.406 212.576 256.176 211.251 254.951 209.919" stroke="black" stroke-linecap="round" stroke-linejoin="round"/>
<path d="M255.114 217.184C256.403 216.221 257.584 215.122 258.638 213.907C259.856 212.503 260.891 210.951 261.719 209.287" stroke="black" stroke-linecap="round" stroke-linejoin="round"/>
<path d="M292.883 344.487C291.856 345.587 291.117 346.924 290.732 348.379C289.962 350.778 289.597 353.511 290.806 355.715C292.553 358.929 297.317 359.667 300.369 357.649C301.726 356.716 302.762 355.387 303.339 353.845C303.916 352.303 304.005 350.62 303.595 349.025C302.483 345.007 296.539 340.99 292.883 344.487Z" stroke="black" stroke-opacity="0.15" stroke-linecap="round" stroke-linejoin="round"/>
<path d="M360.204 432.212C360.222 432.206 360.241 432.203 360.259 432.204C364.653 431.296 368.706 433.298 371.361 436.933C372.672 438.781 373.437 440.96 373.569 443.221C373.701 445.483 373.194 447.737 372.106 449.724" stroke="black" stroke-linecap="round" stroke-linejoin="round"/>
<path d="M256.517 443.934C257.568 440.622 257.283 437.03 255.724 433.924" stroke="black" stroke-linecap="round" stroke-linejoin="round"/>
<path d="M248.517 444.401C248.542 444.332 248.563 444.263 248.581 444.192C249.728 440.711 249.528 436.927 248.021 433.586" stroke="black" stroke-linecap="round" stroke-linejoin="round"/>
<path d="M240.119 443.943C241.075 440.702 240.905 437.232 239.639 434.099" stroke="black" stroke-linecap="round" stroke-linejoin="round"/>
<path d="M261.197 433.994C259.373 434.065 257.545 434.033 255.725 433.896C253.264 433.74 250.63 433.495 248.038 433.347C245.213 433.122 242.372 433.174 239.558 433.503C239.106 433.568 238.661 433.646 238.231 433.739C236.421 434.052 234.767 434.955 233.525 436.308C232.362 437.706 231.942 439.817 232.842 441.396C234.085 443.564 237.03 443.89 239.523 443.965C239.722 443.974 239.922 443.977 240.121 443.979C242.944 444.067 245.768 444.149 248.582 444.195C251.233 444.247 253.883 444.269 256.525 444.238C261.15 444.19 265.765 443.991 270.36 443.509" stroke="black" stroke-linecap="round" stroke-linejoin="round"/>
<path d="M357.942 436.621C357.974 436.599 358.008 436.581 358.043 436.565C359.095 436.048 360.297 435.923 361.433 436.215C361.864 436.306 362.279 436.461 362.665 436.674C363.316 437.052 363.855 437.595 364.228 438.248C364.601 438.902 364.793 439.642 364.787 440.395C364.721 441.68 364.169 442.892 363.243 443.785C362.321 444.67 361.209 445.331 359.992 445.718C358.108 446.359 356.1 446.55 354.129 446.274C352.632 446.081 351.184 445.613 349.858 444.894C349.833 444.885 349.81 444.874 349.789 444.861" stroke="black" stroke-linecap="round" stroke-linejoin="round"/>
<path d="M354.042 446.407C354.068 446.361 354.097 446.317 354.128 446.275C356.284 442.887 358.718 439.685 361.406 436.702" stroke="black" stroke-linecap="round" stroke-linejoin="round"/>
<path d="M130.073 316.09C130.066 316.076 130.052 316.07 130.045 316.056C125.213 310.81 120.282 305.511 115.326 300.24C109.849 294.418 104.332 288.617 98.8719 282.952" stroke="black" stroke-linecap="round" stroke-linejoin="round"/>
<path d="M188.929 383.068C182.427 375.304 175.869 367.596 169.256 359.943C165.339 355.418 161.406 350.913 157.457 346.43" stroke="black" stroke-linecap="round" stroke-linejoin="round"/>
<path d="M195.521 298.679C192.636 293.088 189.655 287.542 186.577 282.04C181.357 272.684 175.873 263.483 170.126 254.436C167.507 250.307 164.832 246.211 162.102 242.15C158.658 237.023 155.134 231.954 151.529 226.941" stroke="black" stroke-linecap="round" stroke-linejoin="round"/>
<path d="M213.344 336.575C211.562 332.379 209.726 328.208 207.835 324.06" stroke="black" stroke-linecap="round" stroke-linejoin="round"/>
<path d="M170.123 254.456C170.123 254.449 170.123 254.442 170.123 254.435C170.15 247.007 170.174 239.582 170.197 232.16" stroke="black" stroke-linecap="round" stroke-linejoin="round"/>
<path d="M186.562 282.5C186.566 282.35 186.569 282.192 186.572 282.041C186.808 271.637 187.043 261.235 187.277 250.835" stroke="black" stroke-linecap="round" stroke-linejoin="round"/>
<path d="M207.113 285.213C207.482 281.471 207.802 277.723 208.07 273.969" stroke="black" stroke-linecap="round" stroke-linejoin="round"/>
<path d="M188.734 315.516C181.894 316.21 175.052 316.903 168.209 317.593" stroke="black" stroke-linecap="round" stroke-linejoin="round"/>
<path d="M186.423 282.071C176.743 281.689 166.76 280.951 157.075 280.941" stroke="black" stroke-linecap="round" stroke-linejoin="round"/>
<path d="M169.995 254.274C159.026 251.461 147.616 248.314 136.646 245.504" stroke="black" stroke-linecap="round" stroke-linejoin="round"/>
<path d="M115.573 300.529C104.562 296.588 93.3344 293.281 81.9448 290.625" stroke="black" stroke-linecap="round" stroke-linejoin="round"/>
<path d="M115.327 300.288C115.327 300.274 115.327 300.254 115.327 300.24C114.469 290.908 114.18 281.532 114.462 272.165" stroke="black" stroke-linecap="round" stroke-linejoin="round"/>
<path d="M125.509 323.521C117.788 323.865 110.062 323.992 102.332 323.901" stroke="black" stroke-linecap="round" stroke-linejoin="round"/>
<path d="M169.239 360.065C162.291 360.371 155.349 360.807 148.405 361.237" stroke="black" stroke-linecap="round" stroke-linejoin="round"/>
<path d="M169.239 360.066C169.244 360.024 169.25 359.983 169.256 359.941C169.967 354.276 170.676 348.613 171.383 342.953C171.394 342.823 171.412 342.699 171.43 342.568" stroke="black" stroke-linecap="round" stroke-linejoin="round"/>
<path d="M134.39 308.67V308.656C134.146 303.604 133.759 298.546 133.221 293.519" stroke="black" stroke-linecap="round" stroke-linejoin="round"/>
<path d="M148.324 394.866C141.819 395.815 135.93 399.236 131.883 404.417C127.837 409.599 125.945 416.141 126.601 422.682C123.752 422.11 120.8 422.33 118.067 423.319C115.334 424.308 112.925 426.028 111.102 428.291C109.278 430.555 108.111 433.275 107.727 436.156C107.342 439.037 107.756 441.968 108.922 444.63" stroke="black" stroke-linecap="round" stroke-linejoin="round"/>
<path d="M356.096 237.139C365.943 236.987 375.792 236.841 385.643 236.699" stroke="black" stroke-linecap="round" stroke-linejoin="round"/>
<g opacity="0.1">
<path d="M125.39 203.665C121.748 217.149 122.432 232.249 123.94 246.013C128.206 286.42 146.617 324.018 175.919 352.166C181.052 357.118 186.539 361.69 192.335 365.845C195.221 367.999 198.288 369.899 201.502 371.522C204.807 373.103 207.771 375.422 211.387 376.219C212.141 376.404 212.933 376.34 213.647 376.036C214.361 375.733 214.958 375.207 215.348 374.537C215.739 373.867 215.902 373.088 215.813 372.317C215.724 371.547 215.388 370.825 214.855 370.261C212.803 367.962 210.091 366.698 207.763 364.741C205.451 362.797 203.138 360.865 200.784 358.968C196.044 355.149 191.375 351.204 186.917 347.054C178.307 339.075 170.56 330.213 163.804 320.613C148.981 299.437 139.547 275.099 135.71 249.555C134.666 242.414 134.105 235.21 134.033 227.993C133.929 220.289 134.616 212.599 134.554 204.902C134.512 199.68 126.782 198.523 125.394 203.662L125.39 203.665Z" fill="black"/>
</g>
<g opacity="0.1">
<path d="M234.936 309.098C229.032 311.168 224.28 317.228 220.833 322.239C217.156 327.752 214.516 333.89 213.042 340.35C209.725 354.583 211.742 369.537 218.711 382.382C222.188 388.799 231.923 383.097 228.492 376.665C223.008 366.383 220.992 354.242 223.472 342.799C225.417 334.928 228.877 327.512 233.658 320.964C235.404 318.715 237.491 316.652 238.796 314.119C240.059 311.668 237.929 308.048 234.936 309.098Z" fill="black"/>
</g>
<g opacity="0.1">
<path d="M340.572 327.559C347.128 326.517 353.313 321.979 358.247 317.749C363.412 313.248 367.881 308.008 371.513 302.199C379.885 289.022 383.711 273.615 385.012 258.189C385.806 248.773 385.651 239.277 385.21 229.846C384.982 224.976 377.288 225.003 377.642 229.846C379.059 249.231 378.6 269.629 370.938 287.812C367.835 295.282 363.437 302.145 357.945 308.084C355.246 311.003 352.239 313.62 348.976 315.89C345.545 318.238 341.781 319.952 338.315 322.205C335.406 324.096 337.356 328.07 340.572 327.559Z" fill="black"/>
</g>
<g opacity="0.1">
<path d="M268.007 287.678C269.201 286.154 270.096 284.567 271.522 283.22C272.82 281.994 274.259 280.936 275.622 279.787C278.628 277.296 281.111 274.236 282.93 270.783C286.503 263.86 287.726 255.409 285.342 247.908C284.16 244.19 278.657 245.708 279.504 249.518C281.086 256.635 280.1 263.785 276.118 269.966C274.191 272.957 271.583 275.1 269.004 277.49C266.634 279.686 263.874 282.533 263.897 285.979C263.909 287.874 266.657 289.4 268.003 287.68L268.007 287.678Z" fill="black"/>
</g>
<g opacity="0.1">
<path d="M110.864 443.88C110.704 439.431 112.416 435.677 116.297 433.296C119.634 431.248 123.14 430.288 126.912 431.685C130.167 432.891 133.34 429.81 133.422 426.724C133.591 420.63 135.42 415.63 138.658 410.493C141.665 405.725 146.745 403.722 150.578 399.878C152.582 397.866 150.964 394.866 148.407 394.638C141.61 394.029 134.692 399.89 130.498 404.7C125.416 410.528 122.779 419.028 123.133 426.724L129.643 421.763C123.056 420.449 115.483 421.521 110.866 426.883C106.94 431.443 105.805 438.602 107.599 444.321C108.141 446.051 110.932 445.818 110.86 443.88H110.864Z" fill="black"/>
</g>
<g opacity="0.1">
<path d="M271.203 88.0552C264.302 89.8317 257.779 92.8411 251.948 96.9385C245.513 101.47 240.147 106.782 236.921 114.109C233.367 122.179 232.897 130.506 236.565 138.608C239.708 145.554 245.821 149.98 252.388 153.424C256.401 155.529 261.443 156.559 265.884 157.425C270.251 158.277 274.814 158.631 279.218 157.918C280.989 157.631 280.482 155.336 279.218 154.81C277.197 153.969 275.058 153.677 273.137 152.731C271.326 151.84 269.109 151.615 267.187 151.005C262.799 149.612 259.239 147.423 255.448 144.879C252.608 142.972 250.412 139.735 248.642 136.854C246.918 134.046 245.532 131.254 245.234 127.939C244.453 119.223 249.457 112.305 253.606 105.164C257.684 98.1484 264.818 93.3974 272.108 90.1974C273.355 89.6494 272.449 87.7437 271.205 88.0552H271.203Z" fill="black"/>
</g>
</g>
</svg>